<svg width="554" height="346" viewBox="0 0 554 346" fill="none" xmlns="http://www.w3.org/2000/svg">
<g clip-path="url(#clip0_436_2)">
<path d="M58.5 321.5H536.5" stroke="white" stroke-miterlimit="10"/>
<path d="M58.5 242.5H536.5" stroke="#767676" stroke-miterlimit="10"/>
<path d="M58.5 164.5H536.5" stroke="#767676" stroke-miterlimit="10"/>
<path d="M58.5 85.5H536.5" stroke="#767676" stroke-miterlimit="10"/>
<mask id="mask0_436_2" style="mask-type:luminance" maskUnits="userSpaceOnUse" x="58" y="85" width="479" height="237">
<path d="M58.2998 85.3667H536.7V321.7H58.2998V85.3667Z" fill="white"/>
</mask>
<g mask="url(#mask0_436_2)">
<path d="M259 322H184V107C184 105.895 184.895 105 186 105H257C258.105 105 259 105.895 259 107V322Z" fill="#FF9900"/>
</g>
<mask id="mask1_436_2" style="mask-type:luminance" maskUnits="userSpaceOnUse" x="58" y="85" width="479" height="237">
<path d="M58.2998 85.3667H536.7V321.7H58.2998V85.3667Z" fill="white"/>
</mask>
<g mask="url(#mask1_436_2)">
<path d="M336 322H261V296C261 294.895 261.895 294 263 294H334C335.105 294 336 294.895 336 296V322Z" fill="#6D9EEB"/>
</g>
<mask id="mask2_436_2" style="mask-type:luminance" maskUnits="userSpaceOnUse" x="58" y="85" width="479" height="237">
<path d="M58.2998 85.3667H536.7V321.7H58.2998V85.3667Z" fill="white"/>
</mask>
<g mask="url(#mask2_436_2)">
<path d="M413 322H338V308C338 306.895 338.895 306 340 306H411C412.105 306 413 306.895 413 308V322Z" fill="#CC0000"/>
</g>
<path d="M195.203 117.639L195.641 113.389H200.016V114.389H196.562L196.297 116.717C196.724 116.467 197.203 116.342 197.734 116.342C198.505 116.342 199.12 116.602 199.578 117.123C200.036 117.634 200.266 118.326 200.266 119.201C200.266 120.076 200.026 120.769 199.547 121.28C199.078 121.79 198.417 122.045 197.562 122.045C196.812 122.045 196.198 121.837 195.719 121.42C195.24 120.993 194.969 120.41 194.906 119.67H195.922C195.995 120.16 196.172 120.53 196.453 120.78C196.734 121.03 197.104 121.155 197.562 121.155C198.062 121.155 198.458 120.983 198.75 120.639C199.042 120.295 199.188 119.821 199.188 119.217C199.188 118.644 199.031 118.186 198.719 117.842C198.406 117.498 197.99 117.326 197.469 117.326C197 117.326 196.63 117.425 196.359 117.623L196.078 117.858L195.203 117.639ZM206.281 119.061H207.469V119.936H206.281V121.92H205.203V119.936H201.312V119.295L205.125 113.389H206.281V119.061ZM202.547 119.061H205.203V114.873L205.062 115.108L202.547 119.061ZM208.781 123.623L208.172 123.201C208.536 122.691 208.729 122.16 208.75 121.608V120.639H209.812V121.483C209.812 121.878 209.714 122.274 209.516 122.67C209.318 123.066 209.073 123.384 208.781 123.623ZM214.859 118.17C214.641 118.441 214.37 118.66 214.047 118.826C213.734 118.983 213.391 119.061 213.016 119.061C212.526 119.061 212.099 118.941 211.734 118.701C211.37 118.462 211.089 118.123 210.891 117.686C210.693 117.238 210.594 116.748 210.594 116.217C210.594 115.655 210.698 115.144 210.906 114.686C211.125 114.227 211.432 113.878 211.828 113.639C212.234 113.389 212.703 113.264 213.234 113.264C214.078 113.264 214.74 113.582 215.219 114.217C215.708 114.852 215.953 115.712 215.953 116.795V117.108C215.953 118.774 215.625 119.988 214.969 120.748C214.313 121.509 213.323 121.899 212 121.92H211.781V121.014H212.016C212.911 120.993 213.599 120.759 214.078 120.311C214.557 119.863 214.818 119.149 214.859 118.17ZM213.188 118.17C213.552 118.17 213.885 118.061 214.188 117.842C214.5 117.613 214.729 117.337 214.875 117.014V116.576C214.875 115.868 214.719 115.29 214.406 114.842C214.094 114.394 213.703 114.17 213.234 114.17C212.755 114.17 212.37 114.352 212.078 114.717C211.797 115.082 211.656 115.566 211.656 116.17C211.656 116.753 211.792 117.233 212.062 117.608C212.344 117.983 212.719 118.17 213.188 118.17ZM222.891 115.608C222.891 116.035 222.776 116.415 222.547 116.748C222.318 117.082 222.016 117.342 221.641 117.53C222.078 117.717 222.427 117.998 222.688 118.373C222.948 118.738 223.078 119.155 223.078 119.623C223.078 120.352 222.828 120.941 222.328 121.389C221.839 121.826 221.188 122.045 220.375 122.045C219.552 122.045 218.891 121.826 218.391 121.389C217.901 120.941 217.656 120.352 217.656 119.623C217.656 119.155 217.781 118.738 218.031 118.373C218.281 117.998 218.63 117.717 219.078 117.53C218.703 117.342 218.406 117.082 218.188 116.748C217.969 116.415 217.859 116.035 217.859 115.608C217.859 114.889 218.089 114.321 218.547 113.905C219.005 113.477 219.615 113.264 220.375 113.264C221.125 113.264 221.729 113.477 222.188 113.905C222.656 114.321 222.891 114.889 222.891 115.608ZM222 119.592C222 119.113 221.849 118.727 221.547 118.436C221.245 118.134 220.849 117.983 220.359 117.983C219.87 117.983 219.474 118.134 219.172 118.436C218.88 118.727 218.734 119.118 218.734 119.608C218.734 120.087 218.88 120.467 219.172 120.748C219.464 121.019 219.865 121.155 220.375 121.155C220.875 121.155 221.271 121.014 221.562 120.733C221.854 120.451 222 120.071 222 119.592ZM220.375 114.155C219.948 114.155 219.599 114.29 219.328 114.561C219.068 114.821 218.938 115.181 218.938 115.639C218.938 116.066 219.068 116.415 219.328 116.686C219.589 116.957 219.932 117.092 220.359 117.092C220.797 117.092 221.146 116.957 221.406 116.686C221.667 116.415 221.797 116.066 221.797 115.639C221.797 115.201 221.661 114.847 221.391 114.576C221.12 114.295 220.781 114.155 220.375 114.155ZM225.203 117.639L225.641 113.389H230.016V114.389H226.562L226.297 116.717C226.724 116.467 227.203 116.342 227.734 116.342C228.505 116.342 229.12 116.602 229.578 117.123C230.036 117.634 230.266 118.326 230.266 119.201C230.266 120.076 230.026 120.769 229.547 121.28C229.078 121.79 228.417 122.045 227.562 122.045C226.812 122.045 226.198 121.837 225.719 121.42C225.24 120.993 224.969 120.41 224.906 119.67H225.922C225.995 120.16 226.172 120.53 226.453 120.78C226.734 121.03 227.104 121.155 227.562 121.155C228.062 121.155 228.458 120.983 228.75 120.639C229.042 120.295 229.188 119.821 229.188 119.217C229.188 118.644 229.031 118.186 228.719 117.842C228.406 117.498 227.99 117.326 227.469 117.326C227 117.326 226.63 117.425 226.359 117.623L226.078 117.858L225.203 117.639ZM231.844 121.358C231.844 121.17 231.896 121.014 232 120.889C232.115 120.764 232.281 120.701 232.5 120.701C232.729 120.701 232.901 120.764 233.016 120.889C233.13 121.014 233.188 121.17 233.188 121.358C233.188 121.535 233.13 121.686 233.016 121.811C232.901 121.925 232.729 121.983 232.5 121.983C232.281 121.983 232.115 121.925 232 121.811C231.896 121.686 231.844 121.535 231.844 121.358ZM240.062 118.28C240.062 119.55 239.844 120.498 239.406 121.123C238.979 121.738 238.302 122.045 237.375 122.045C236.469 122.045 235.797 121.743 235.359 121.139C234.922 120.535 234.693 119.628 234.672 118.42V116.983C234.672 115.722 234.885 114.79 235.312 114.186C235.75 113.571 236.432 113.264 237.359 113.264C238.276 113.264 238.953 113.561 239.391 114.155C239.828 114.738 240.052 115.644 240.062 116.873V118.28ZM238.969 116.795C238.969 115.878 238.839 115.212 238.578 114.795C238.328 114.368 237.922 114.155 237.359 114.155C236.807 114.155 236.401 114.368 236.141 114.795C235.891 115.212 235.766 115.852 235.766 116.717V118.451C235.766 119.368 235.896 120.05 236.156 120.498C236.427 120.936 236.833 121.155 237.375 121.155C237.906 121.155 238.302 120.946 238.562 120.53C238.823 120.113 238.958 119.462 238.969 118.576V116.795ZM247.062 118.28C247.062 119.55 246.844 120.498 246.406 121.123C245.979 121.738 245.302 122.045 244.375 122.045C243.469 122.045 242.797 121.743 242.359 121.139C241.922 120.535 241.693 119.628 241.672 118.42V116.983C241.672 115.722 241.885 114.79 242.312 114.186C242.75 113.571 243.432 113.264 244.359 113.264C245.276 113.264 245.953 113.561 246.391 114.155C246.828 114.738 247.052 115.644 247.062 116.873V118.28ZM245.969 116.795C245.969 115.878 245.839 115.212 245.578 114.795C245.328 114.368 244.922 114.155 244.359 114.155C243.807 114.155 243.401 114.368 243.141 114.795C242.891 115.212 242.766 115.852 242.766 116.717V118.451C242.766 119.368 242.896 120.05 243.156 120.498C243.427 120.936 243.833 121.155 244.375 121.155C244.906 121.155 245.302 120.946 245.562 120.53C245.823 120.113 245.958 119.462 245.969 118.576V116.795Z" stroke="#FF9900" stroke-width="3" stroke-miterlimit="10" stroke-linecap="round" stroke-linejoin="round"/>
<path d="M205.203 117.639L205.641 113.389H210.016V114.389H206.562L206.297 116.717C206.724 116.467 207.203 116.342 207.734 116.342C208.505 116.342 209.12 116.602 209.578 117.123C210.036 117.634 210.266 118.326 210.266 119.201C210.266 120.076 210.026 120.769 209.547 121.28C209.078 121.79 208.417 122.045 207.562 122.045C206.812 122.045 206.198 121.837 205.719 121.42C205.24 120.993 204.969 120.41 204.906 119.67H205.922C205.995 120.16 206.172 120.53 206.453 120.78C206.734 121.03 207.104 121.155 207.562 121.155C208.062 121.155 208.458 120.983 208.75 120.639C209.042 120.295 209.188 119.821 209.188 119.217C209.188 118.644 209.031 118.186 208.719 117.842C208.406 117.498 207.99 117.326 207.469 117.326C207 117.326 206.63 117.425 206.359 117.623L206.078 117.858L205.203 117.639ZM216.281 119.061H217.469V119.936H216.281V121.92H215.203V119.936H211.312V119.295L215.125 113.389H216.281V119.061ZM212.547 119.061H215.203V114.873L215.062 115.108L212.547 119.061ZM218.781 123.623L218.172 123.201C218.536 122.691 218.729 122.16 218.75 121.608V120.639H219.812V121.483C219.812 121.878 219.714 122.274 219.516 122.67C219.318 123.066 219.073 123.384 218.781 123.623ZM224.859 118.17C224.641 118.441 224.37 118.66 224.047 118.826C223.734 118.983 223.391 119.061 223.016 119.061C222.526 119.061 222.099 118.941 221.734 118.701C221.37 118.462 221.089 118.123 220.891 117.686C220.693 117.238 220.594 116.748 220.594 116.217C220.594 115.655 220.698 115.144 220.906 114.686C221.125 114.227 221.432 113.878 221.828 113.639C222.234 113.389 222.703 113.264 223.234 113.264C224.078 113.264 224.74 113.582 225.219 114.217C225.708 114.852 225.953 115.712 225.953 116.795V117.108C225.953 118.774 225.625 119.988 224.969 120.748C224.313 121.509 223.323 121.899 222 121.92H221.781V121.014H222.016C222.911 120.993 223.599 120.759 224.078 120.311C224.557 119.863 224.818 119.149 224.859 118.17ZM223.188 118.17C223.552 118.17 223.885 118.061 224.188 117.842C224.5 117.613 224.729 117.337 224.875 117.014V116.576C224.875 115.868 224.719 115.29 224.406 114.842C224.094 114.394 223.703 114.17 223.234 114.17C222.755 114.17 222.37 114.352 222.078 114.717C221.797 115.082 221.656 115.566 221.656 116.17C221.656 116.753 221.792 117.233 222.062 117.608C222.344 117.983 222.719 118.17 223.188 118.17ZM232.891 115.608C232.891 116.035 232.776 116.415 232.547 116.748C232.318 117.082 232.016 117.342 231.641 117.53C232.078 117.717 232.427 117.998 232.688 118.373C232.948 118.738 233.078 119.155 233.078 119.623C233.078 120.352 232.828 120.941 232.328 121.389C231.839 121.826 231.188 122.045 230.375 122.045C229.552 122.045 228.891 121.826 228.391 121.389C227.901 120.941 227.656 120.352 227.656 119.623C227.656 119.155 227.781 118.738 228.031 118.373C228.281 117.998 228.63 117.717 229.078 117.53C228.703 117.342 228.406 117.082 228.188 116.748C227.969 116.415 227.859 116.035 227.859 115.608C227.859 114.889 228.089 114.321 228.547 113.905C229.005 113.477 229.615 113.264 230.375 113.264C231.125 113.264 231.729 113.477 232.188 113.905C232.656 114.321 232.891 114.889 232.891 115.608ZM232 119.592C232 119.113 231.849 118.727 231.547 118.436C231.245 118.134 230.849 117.983 230.359 117.983C229.87 117.983 229.474 118.134 229.172 118.436C228.88 118.727 228.734 119.118 228.734 119.608C228.734 120.087 228.88 120.467 229.172 120.748C229.464 121.019 229.865 121.155 230.375 121.155C230.875 121.155 231.271 121.014 231.562 120.733C231.854 120.451 232 120.071 232 119.592ZM230.375 114.155C229.948 114.155 229.599 114.29 229.328 114.561C229.068 114.821 228.938 115.181 228.938 115.639C228.938 116.066 229.068 116.415 229.328 116.686C229.589 116.957 229.932 117.092 230.359 117.092C230.797 117.092 231.146 116.957 231.406 116.686C231.667 116.415 231.797 116.066 231.797 115.639C231.797 115.201 231.661 114.847 231.391 114.576C231.12 114.295 230.781 114.155 230.375 114.155ZM235.203 117.639L235.641 113.389H240.016V114.389H236.562L236.297 116.717C236.724 116.467 237.203 116.342 237.734 116.342C238.505 116.342 239.12 116.602 239.578 117.123C240.036 117.634 240.266 118.326 240.266 119.201C240.266 120.076 240.026 120.769 239.547 121.28C239.078 121.79 238.417 122.045 237.562 122.045C236.812 122.045 236.198 121.837 235.719 121.42C235.24 120.993 234.969 120.41 234.906 119.67H235.922C235.995 120.16 236.172 120.53 236.453 120.78C236.734 121.03 237.104 121.155 237.562 121.155C238.062 121.155 238.458 120.983 238.75 120.639C239.042 120.295 239.188 119.821 239.188 119.217C239.188 118.644 239.031 118.186 238.719 117.842C238.406 117.498 237.99 117.326 237.469 117.326C237 117.326 236.63 117.425 236.359 117.623L236.078 117.858L235.203 117.639Z" fill="black"/>
<path d="M289.219 302.904L285.688 310.825H284.547L288.062 303.185H283.453V302.294H289.219V302.904ZM290.781 312.529L290.172 312.107C290.536 311.596 290.729 311.065 290.75 310.513V309.544H291.812V310.388C291.812 310.784 291.714 311.18 291.516 311.575C291.318 311.971 291.073 312.289 290.781 312.529ZM298.062 307.185C298.062 308.456 297.844 309.404 297.406 310.029C296.979 310.643 296.302 310.95 295.375 310.95C294.469 310.95 293.797 310.648 293.359 310.044C292.922 309.44 292.693 308.534 292.672 307.325V305.888C292.672 304.628 292.885 303.695 293.312 303.091C293.75 302.476 294.432 302.169 295.359 302.169C296.276 302.169 296.953 302.466 297.391 303.06C297.828 303.643 298.052 304.549 298.062 305.779V307.185ZM296.969 305.7C296.969 304.784 296.839 304.117 296.578 303.7C296.328 303.273 295.922 303.06 295.359 303.06C294.807 303.06 294.401 303.273 294.141 303.7C293.891 304.117 293.766 304.758 293.766 305.622V307.357C293.766 308.273 293.896 308.956 294.156 309.404C294.427 309.841 294.833 310.06 295.375 310.06C295.906 310.06 296.302 309.851 296.562 309.435C296.823 309.018 296.958 308.367 296.969 307.482V305.7ZM305.297 310.825H299.703V310.044L302.656 306.763C303.094 306.263 303.396 305.862 303.562 305.56C303.729 305.247 303.812 304.924 303.812 304.591C303.812 304.143 303.677 303.779 303.406 303.497C303.146 303.206 302.786 303.06 302.328 303.06C301.797 303.06 301.38 303.216 301.078 303.529C300.776 303.831 300.625 304.258 300.625 304.81H299.547C299.547 304.018 299.797 303.383 300.297 302.904C300.807 302.414 301.484 302.169 302.328 302.169C303.13 302.169 303.76 302.378 304.219 302.794C304.677 303.211 304.906 303.768 304.906 304.466C304.906 305.299 304.37 306.299 303.297 307.466L301.016 309.935H305.297V310.825ZM310.969 302.294V303.2H310.766C309.922 303.221 309.25 303.476 308.75 303.966C308.25 304.445 307.958 305.122 307.875 305.997C308.333 305.487 308.948 305.232 309.719 305.232C310.458 305.232 311.052 305.492 311.5 306.013C311.948 306.534 312.172 307.211 312.172 308.044C312.172 308.919 311.932 309.622 311.453 310.154C310.974 310.685 310.328 310.95 309.516 310.95C308.703 310.95 308.042 310.638 307.531 310.013C307.031 309.378 306.781 308.565 306.781 307.575V307.169C306.781 305.596 307.115 304.393 307.781 303.56C308.448 302.726 309.443 302.305 310.766 302.294H310.969ZM309.547 306.138C309.172 306.138 308.828 306.247 308.516 306.466C308.203 306.685 307.984 306.966 307.859 307.31V307.7C307.859 308.409 308.016 308.976 308.328 309.404C308.651 309.831 309.047 310.044 309.516 310.044C310.005 310.044 310.391 309.867 310.672 309.513C310.953 309.148 311.094 308.674 311.094 308.091C311.094 307.508 310.953 307.039 310.672 306.685C310.391 306.32 310.016 306.138 309.547 306.138Z" stroke="#6D9EEB" stroke-width="3" stroke-miterlimit="10" stroke-linecap="round" stroke-linejoin="round"/>
<path d="M289.219 302.904L285.688 310.825H284.547L288.062 303.185H283.453V302.294H289.219V302.904ZM290.781 312.529L290.172 312.107C290.536 311.596 290.729 311.065 290.75 310.513V309.544H291.812V310.388C291.812 310.784 291.714 311.18 291.516 311.575C291.318 311.971 291.073 312.289 290.781 312.529ZM298.062 307.185C298.062 308.456 297.844 309.404 297.406 310.029C296.979 310.643 296.302 310.95 295.375 310.95C294.469 310.95 293.797 310.648 293.359 310.044C292.922 309.44 292.693 308.534 292.672 307.325V305.888C292.672 304.628 292.885 303.695 293.312 303.091C293.75 302.476 294.432 302.169 295.359 302.169C296.276 302.169 296.953 302.466 297.391 303.06C297.828 303.643 298.052 304.549 298.062 305.779V307.185ZM296.969 305.7C296.969 304.784 296.839 304.117 296.578 303.7C296.328 303.273 295.922 303.06 295.359 303.06C294.807 303.06 294.401 303.273 294.141 303.7C293.891 304.117 293.766 304.758 293.766 305.622V307.357C293.766 308.273 293.896 308.956 294.156 309.404C294.427 309.841 294.833 310.06 295.375 310.06C295.906 310.06 296.302 309.851 296.562 309.435C296.823 309.018 296.958 308.367 296.969 307.482V305.7ZM305.297 310.825H299.703V310.044L302.656 306.763C303.094 306.263 303.396 305.862 303.562 305.56C303.729 305.247 303.812 304.924 303.812 304.591C303.812 304.143 303.677 303.779 303.406 303.497C303.146 303.206 302.786 303.06 302.328 303.06C301.797 303.06 301.38 303.216 301.078 303.529C300.776 303.831 300.625 304.258 300.625 304.81H299.547C299.547 304.018 299.797 303.383 300.297 302.904C300.807 302.414 301.484 302.169 302.328 302.169C303.13 302.169 303.76 302.378 304.219 302.794C304.677 303.211 304.906 303.768 304.906 304.466C304.906 305.299 304.37 306.299 303.297 307.466L301.016 309.935H305.297V310.825ZM310.969 302.294V303.2H310.766C309.922 303.221 309.25 303.476 308.75 303.966C308.25 304.445 307.958 305.122 307.875 305.997C308.333 305.487 308.948 305.232 309.719 305.232C310.458 305.232 311.052 305.492 311.5 306.013C311.948 306.534 312.172 307.211 312.172 308.044C312.172 308.919 311.932 309.622 311.453 310.154C310.974 310.685 310.328 310.95 309.516 310.95C308.703 310.95 308.042 310.638 307.531 310.013C307.031 309.378 306.781 308.565 306.781 307.575V307.169C306.781 305.596 307.115 304.393 307.781 303.56C308.448 302.726 309.443 302.305 310.766 302.294H310.969ZM309.547 306.138C309.172 306.138 308.828 306.247 308.516 306.466C308.203 306.685 307.984 306.966 307.859 307.31V307.7C307.859 308.409 308.016 308.976 308.328 309.404C308.651 309.831 309.047 310.044 309.516 310.044C310.005 310.044 310.391 309.867 310.672 309.513C310.953 309.148 311.094 308.674 311.094 308.091C311.094 307.508 310.953 307.039 310.672 306.685C310.391 306.32 310.016 306.138 309.547 306.138Z" fill="black"/>
<path d="M362.281 286.179H363.094C363.615 286.169 364.021 286.033 364.312 285.773C364.604 285.512 364.75 285.158 364.75 284.71C364.75 283.71 364.25 283.21 363.25 283.21C362.781 283.21 362.406 283.346 362.125 283.617C361.854 283.887 361.719 284.242 361.719 284.679H360.625C360.625 284.002 360.87 283.439 361.359 282.992C361.859 282.544 362.49 282.32 363.25 282.32C364.052 282.32 364.682 282.533 365.141 282.96C365.599 283.387 365.828 283.981 365.828 284.742C365.828 285.117 365.708 285.476 365.469 285.82C365.229 286.163 364.901 286.424 364.484 286.601C364.953 286.747 365.312 286.992 365.562 287.335C365.823 287.679 365.953 288.101 365.953 288.601C365.953 289.361 365.703 289.971 365.203 290.429C364.703 290.877 364.052 291.101 363.25 291.101C362.458 291.101 361.807 290.882 361.297 290.445C360.797 290.007 360.547 289.434 360.547 288.726H361.641C361.641 289.174 361.786 289.533 362.078 289.804C362.37 290.075 362.766 290.21 363.266 290.21C363.786 290.21 364.182 290.075 364.453 289.804C364.734 289.523 364.875 289.127 364.875 288.617C364.875 288.127 364.724 287.752 364.422 287.492C364.12 287.221 363.677 287.08 363.094 287.07H362.281V286.179ZM367.781 292.679L367.172 292.257C367.536 291.747 367.729 291.216 367.75 290.663V289.695H368.812V290.538C368.812 290.934 368.714 291.33 368.516 291.726C368.318 292.122 368.073 292.439 367.781 292.679ZM373.859 287.226C373.641 287.497 373.37 287.716 373.047 287.882C372.734 288.038 372.391 288.117 372.016 288.117C371.526 288.117 371.099 287.997 370.734 287.757C370.37 287.518 370.089 287.179 369.891 286.742C369.693 286.294 369.594 285.804 369.594 285.273C369.594 284.71 369.698 284.2 369.906 283.742C370.125 283.283 370.432 282.934 370.828 282.695C371.234 282.445 371.703 282.32 372.234 282.32C373.078 282.32 373.74 282.637 374.219 283.273C374.708 283.908 374.953 284.768 374.953 285.851V286.163C374.953 287.83 374.625 289.044 373.969 289.804C373.313 290.564 372.323 290.955 371 290.976H370.781V290.07H371.016C371.911 290.049 372.599 289.814 373.078 289.367C373.557 288.919 373.818 288.205 373.859 287.226ZM372.188 287.226C372.552 287.226 372.885 287.117 373.188 286.898C373.5 286.669 373.729 286.393 373.875 286.07V285.632C373.875 284.924 373.719 284.346 373.406 283.898C373.094 283.45 372.703 283.226 372.234 283.226C371.755 283.226 371.37 283.408 371.078 283.773C370.797 284.137 370.656 284.622 370.656 285.226C370.656 285.809 370.792 286.288 371.062 286.663C371.344 287.038 371.719 287.226 372.188 287.226ZM380.859 287.226C380.641 287.497 380.37 287.716 380.047 287.882C379.734 288.038 379.391 288.117 379.016 288.117C378.526 288.117 378.099 287.997 377.734 287.757C377.37 287.518 377.089 287.179 376.891 286.742C376.693 286.294 376.594 285.804 376.594 285.273C376.594 284.71 376.698 284.2 376.906 283.742C377.125 283.283 377.432 282.934 377.828 282.695C378.234 282.445 378.703 282.32 379.234 282.32C380.078 282.32 380.74 282.637 381.219 283.273C381.708 283.908 381.953 284.768 381.953 285.851V286.163C381.953 287.83 381.625 289.044 380.969 289.804C380.313 290.564 379.323 290.955 378 290.976H377.781V290.07H378.016C378.911 290.049 379.599 289.814 380.078 289.367C380.557 288.919 380.818 288.205 380.859 287.226ZM379.188 287.226C379.552 287.226 379.885 287.117 380.188 286.898C380.5 286.669 380.729 286.393 380.875 286.07V285.632C380.875 284.924 380.719 284.346 380.406 283.898C380.094 283.45 379.703 283.226 379.234 283.226C378.755 283.226 378.37 283.408 378.078 283.773C377.797 284.137 377.656 284.622 377.656 285.226C377.656 285.809 377.792 286.288 378.062 286.663C378.344 287.038 378.719 287.226 379.188 287.226ZM389.297 290.976H383.703V290.195L386.656 286.913C387.094 286.413 387.396 286.012 387.562 285.71C387.729 285.398 387.812 285.075 387.812 284.742C387.812 284.294 387.677 283.929 387.406 283.648C387.146 283.356 386.786 283.21 386.328 283.21C385.797 283.21 385.38 283.367 385.078 283.679C384.776 283.981 384.625 284.408 384.625 284.96H383.547C383.547 284.169 383.797 283.533 384.297 283.054C384.807 282.564 385.484 282.32 386.328 282.32C387.13 282.32 387.76 282.528 388.219 282.945C388.677 283.361 388.906 283.919 388.906 284.617C388.906 285.45 388.37 286.45 387.297 287.617L385.016 290.085H389.297V290.976Z" fill="#CC0000"/>
<path d="M45.7998 321.466C45.7998 320.445 45.904 319.627 46.1123 319.012C46.3206 318.387 46.6279 317.908 47.0342 317.575C47.4508 317.242 47.9717 317.075 48.5967 317.075C49.055 317.075 49.4561 317.169 49.7998 317.356C50.154 317.544 50.4456 317.815 50.6748 318.169C50.904 318.512 51.0811 318.934 51.2061 319.434C51.3311 319.934 51.3936 320.611 51.3936 321.466C51.3936 322.476 51.2894 323.288 51.0811 323.903C50.8831 324.518 50.5758 324.997 50.1592 325.341C49.7529 325.674 49.2321 325.841 48.5967 325.841C47.7738 325.841 47.1227 325.544 46.6436 324.95C46.0811 324.242 45.7998 323.08 45.7998 321.466ZM46.8779 321.466C46.8779 322.872 47.0446 323.809 47.3779 324.278C47.7113 324.747 48.1175 324.981 48.5967 324.981C49.0863 324.981 49.4925 324.747 49.8154 324.278C50.1488 323.809 50.3154 322.872 50.3154 321.466C50.3154 320.049 50.1488 319.111 49.8154 318.653C49.4925 318.184 49.0811 317.95 48.5811 317.95C48.1019 317.95 47.7165 318.153 47.4248 318.559C47.0602 319.08 46.8779 320.049 46.8779 321.466Z" fill="#F3F3F3"/>
<path d="M23.3467 245.907V246.922H17.6592C17.6592 246.672 17.7008 246.427 17.7842 246.188C17.93 245.802 18.1592 245.422 18.4717 245.047C18.7946 244.672 19.2581 244.24 19.8623 243.75C20.7998 242.98 21.43 242.37 21.7529 241.922C22.0863 241.474 22.2529 241.052 22.2529 240.657C22.2529 240.24 22.1019 239.891 21.7998 239.61C21.4977 239.318 21.1071 239.172 20.6279 239.172C20.1175 239.172 19.7113 239.323 19.4092 239.625C19.1071 239.927 18.9508 240.349 18.9404 240.891L17.8623 240.782C17.9352 239.969 18.2113 239.355 18.6904 238.938C19.18 238.511 19.8363 238.297 20.6592 238.297C21.4821 238.297 22.1331 238.526 22.6123 238.985C23.0915 239.443 23.3311 240.011 23.3311 240.688C23.3311 241.032 23.2581 241.37 23.1123 241.703C22.9769 242.026 22.7425 242.375 22.4092 242.75C22.0863 243.115 21.5498 243.615 20.7998 244.25C20.1644 244.782 19.7529 245.146 19.5654 245.344C19.3883 245.532 19.2425 245.719 19.1279 245.907H23.3467ZM24.7998 242.688C24.7998 241.667 24.904 240.849 25.1123 240.235C25.3206 239.61 25.6279 239.131 26.0342 238.797C26.4508 238.464 26.9717 238.297 27.5967 238.297C28.055 238.297 28.4561 238.391 28.7998 238.578C29.154 238.766 29.4456 239.037 29.6748 239.391C29.904 239.735 30.0811 240.157 30.2061 240.657C30.3311 241.157 30.3936 241.834 30.3936 242.688C30.3936 243.698 30.2894 244.511 30.0811 245.125C29.8831 245.74 29.5758 246.219 29.1592 246.563C28.7529 246.896 28.2321 247.063 27.5967 247.063C26.7738 247.063 26.1227 246.766 25.6436 246.172C25.0811 245.464 24.7998 244.302 24.7998 242.688ZM25.8779 242.688C25.8779 244.094 26.0446 245.032 26.3779 245.5C26.7113 245.969 27.1175 246.203 27.5967 246.203C28.0863 246.203 28.4925 245.969 28.8154 245.5C29.1488 245.032 29.3154 244.094 29.3154 242.688C29.3154 241.271 29.1488 240.334 28.8154 239.875C28.4925 239.407 28.0811 239.172 27.5811 239.172C27.1019 239.172 26.7165 239.375 26.4248 239.782C26.0602 240.302 25.8779 241.271 25.8779 242.688ZM31.7998 242.688C31.7998 241.667 31.904 240.849 32.1123 240.235C32.3206 239.61 32.6279 239.131 33.0342 238.797C33.4508 238.464 33.9717 238.297 34.5967 238.297C35.055 238.297 35.4561 238.391 35.7998 238.578C36.154 238.766 36.4456 239.037 36.6748 239.391C36.904 239.735 37.0811 240.157 37.2061 240.657C37.3311 241.157 37.3936 241.834 37.3936 242.688C37.3936 243.698 37.2894 244.511 37.0811 245.125C36.8831 245.74 36.5758 246.219 36.1592 246.563C35.7529 246.896 35.2321 247.063 34.5967 247.063C33.7738 247.063 33.1227 246.766 32.6436 246.172C32.0811 245.464 31.7998 244.302 31.7998 242.688ZM32.8779 242.688C32.8779 244.094 33.0446 245.032 33.3779 245.5C33.7113 245.969 34.1175 246.203 34.5967 246.203C35.0863 246.203 35.4925 245.969 35.8154 245.5C36.1488 245.032 36.3154 244.094 36.3154 242.688C36.3154 241.271 36.1488 240.334 35.8154 239.875C35.4925 239.407 35.0811 239.172 34.5811 239.172C34.1019 239.172 33.7165 239.375 33.4248 239.782C33.0602 240.302 32.8779 241.271 32.8779 242.688ZM38.7998 242.688C38.7998 241.667 38.904 240.849 39.1123 240.235C39.3206 239.61 39.6279 239.131 40.0342 238.797C40.4508 238.464 40.9717 238.297 41.5967 238.297C42.055 238.297 42.4561 238.391 42.7998 238.578C43.154 238.766 43.4456 239.037 43.6748 239.391C43.904 239.735 44.0811 240.157 44.2061 240.657C44.3311 241.157 44.3936 241.834 44.3936 242.688C44.3936 243.698 44.2894 244.511 44.0811 245.125C43.8831 245.74 43.5758 246.219 43.1592 246.563C42.7529 246.896 42.2321 247.063 41.5967 247.063C40.7738 247.063 40.1227 246.766 39.6436 246.172C39.0811 245.464 38.7998 244.302 38.7998 242.688ZM39.8779 242.688C39.8779 244.094 40.0446 245.032 40.3779 245.5C40.7113 245.969 41.1175 246.203 41.5967 246.203C42.0863 246.203 42.4925 245.969 42.8154 245.5C43.1488 245.032 43.3154 244.094 43.3154 242.688C43.3154 241.271 43.1488 240.334 42.8154 239.875C42.4925 239.407 42.0811 239.172 41.5811 239.172C41.1019 239.172 40.7165 239.375 40.4248 239.782C40.0602 240.302 39.8779 241.271 39.8779 242.688ZM45.7998 242.688C45.7998 241.667 45.904 240.849 46.1123 240.235C46.3206 239.61 46.6279 239.131 47.0342 238.797C47.4508 238.464 47.9717 238.297 48.5967 238.297C49.055 238.297 49.4561 238.391 49.7998 238.578C50.154 238.766 50.4456 239.037 50.6748 239.391C50.904 239.735 51.0811 240.157 51.2061 240.657C51.3311 241.157 51.3936 241.834 51.3936 242.688C51.3936 243.698 51.2894 244.511 51.0811 245.125C50.8831 245.74 50.5758 246.219 50.1592 246.563C49.7529 246.896 49.2321 247.063 48.5967 247.063C47.7738 247.063 47.1227 246.766 46.6436 246.172C46.0811 245.464 45.7998 244.302 45.7998 242.688ZM46.8779 242.688C46.8779 244.094 47.0446 245.032 47.3779 245.5C47.7113 245.969 48.1175 246.203 48.5967 246.203C49.0863 246.203 49.4925 245.969 49.8154 245.5C50.1488 245.032 50.3154 244.094 50.3154 242.688C50.3154 241.271 50.1488 240.334 49.8154 239.875C49.4925 239.407 49.0811 239.172 48.5811 239.172C48.1019 239.172 47.7165 239.375 47.4248 239.782C47.0602 240.302 46.8779 241.271 46.8779 242.688Z" fill="#F3F3F3"/>
<path d="M21.1748 168.144V166.082H17.4561V165.113L21.3779 159.551H22.2373V165.113H23.3936V166.082H22.2373V168.144H21.1748ZM21.1748 165.113V161.254L18.4873 165.113H21.1748ZM24.7998 163.91C24.7998 162.889 24.904 162.071 25.1123 161.457C25.3206 160.832 25.6279 160.353 26.0342 160.019C26.4508 159.686 26.9717 159.519 27.5967 159.519C28.055 159.519 28.4561 159.613 28.7998 159.801C29.154 159.988 29.4456 160.259 29.6748 160.613C29.904 160.957 30.0811 161.379 30.2061 161.879C30.3311 162.379 30.3936 163.056 30.3936 163.91C30.3936 164.92 30.2894 165.733 30.0811 166.348C29.8831 166.962 29.5758 167.441 29.1592 167.785C28.7529 168.118 28.2321 168.285 27.5967 168.285C26.7738 168.285 26.1227 167.988 25.6436 167.394C25.0811 166.686 24.7998 165.525 24.7998 163.91ZM25.8779 163.91C25.8779 165.316 26.0446 166.254 26.3779 166.723C26.7113 167.191 27.1175 167.426 27.5967 167.426C28.0863 167.426 28.4925 167.191 28.8154 166.723C29.1488 166.254 29.3154 165.316 29.3154 163.91C29.3154 162.493 29.1488 161.556 28.8154 161.098C28.4925 160.629 28.0811 160.394 27.5811 160.394C27.1019 160.394 26.7165 160.598 26.4248 161.004C26.0602 161.525 25.8779 162.493 25.8779 163.91ZM31.7998 163.91C31.7998 162.889 31.904 162.071 32.1123 161.457C32.3206 160.832 32.6279 160.353 33.0342 160.019C33.4508 159.686 33.9717 159.519 34.5967 159.519C35.055 159.519 35.4561 159.613 35.7998 159.801C36.154 159.988 36.4456 160.259 36.6748 160.613C36.904 160.957 37.0811 161.379 37.2061 161.879C37.3311 162.379 37.3936 163.056 37.3936 163.91C37.3936 164.92 37.2894 165.733 37.0811 166.348C36.8831 166.962 36.5758 167.441 36.1592 167.785C35.7529 168.118 35.2321 168.285 34.5967 168.285C33.7738 168.285 33.1227 167.988 32.6436 167.394C32.0811 166.686 31.7998 165.525 31.7998 163.91ZM32.8779 163.91C32.8779 165.316 33.0446 166.254 33.3779 166.723C33.7113 167.191 34.1175 167.426 34.5967 167.426C35.0863 167.426 35.4925 167.191 35.8154 166.723C36.1488 166.254 36.3154 165.316 36.3154 163.91C36.3154 162.493 36.1488 161.556 35.8154 161.098C35.4925 160.629 35.0811 160.394 34.5811 160.394C34.1019 160.394 33.7165 160.598 33.4248 161.004C33.0602 161.525 32.8779 162.493 32.8779 163.91ZM38.7998 163.91C38.7998 162.889 38.904 162.071 39.1123 161.457C39.3206 160.832 39.6279 160.353 40.0342 160.019C40.4508 159.686 40.9717 159.519 41.5967 159.519C42.055 159.519 42.4561 159.613 42.7998 159.801C43.154 159.988 43.4456 160.259 43.6748 160.613C43.904 160.957 44.0811 161.379 44.2061 161.879C44.3311 162.379 44.3936 163.056 44.3936 163.91C44.3936 164.92 44.2894 165.733 44.0811 166.348C43.8831 166.962 43.5758 167.441 43.1592 167.785C42.7529 168.118 42.2321 168.285 41.5967 168.285C40.7738 168.285 40.1227 167.988 39.6436 167.394C39.0811 166.686 38.7998 165.525 38.7998 163.91ZM39.8779 163.91C39.8779 165.316 40.0446 166.254 40.3779 166.723C40.7113 167.191 41.1175 167.426 41.5967 167.426C42.0863 167.426 42.4925 167.191 42.8154 166.723C43.1488 166.254 43.3154 165.316 43.3154 163.91C43.3154 162.493 43.1488 161.556 42.8154 161.098C42.4925 160.629 42.0811 160.394 41.5811 160.394C41.1019 160.394 40.7165 160.598 40.4248 161.004C40.0602 161.525 39.8779 162.493 39.8779 163.91ZM45.7998 163.91C45.7998 162.889 45.904 162.071 46.1123 161.457C46.3206 160.832 46.6279 160.353 47.0342 160.019C47.4508 159.686 47.9717 159.519 48.5967 159.519C49.055 159.519 49.4561 159.613 49.7998 159.801C50.154 159.988 50.4456 160.259 50.6748 160.613C50.904 160.957 51.0811 161.379 51.2061 161.879C51.3311 162.379 51.3936 163.056 51.3936 163.91C51.3936 164.92 51.2894 165.733 51.0811 166.348C50.8831 166.962 50.5758 167.441 50.1592 167.785C49.7529 168.118 49.2321 168.285 48.5967 168.285C47.7738 168.285 47.1227 167.988 46.6436 167.394C46.0811 166.686 45.7998 165.525 45.7998 163.91ZM46.8779 163.91C46.8779 165.316 47.0446 166.254 47.3779 166.723C47.7113 167.191 48.1175 167.426 48.5967 167.426C49.0863 167.426 49.4925 167.191 49.8154 166.723C50.1488 166.254 50.3154 165.316 50.3154 163.91C50.3154 162.493 50.1488 161.556 49.8154 161.098C49.4925 160.629 49.0811 160.394 48.5811 160.394C48.1019 160.394 47.7165 160.598 47.4248 161.004C47.0602 161.525 46.8779 162.493 46.8779 163.91Z" fill="#F3F3F3"/>
<path d="M23.2686 82.8823L22.2217 82.9604C22.1279 82.5438 21.9977 82.2417 21.8311 82.0542C21.5394 81.7521 21.1852 81.6011 20.7686 81.6011C20.4352 81.6011 20.1383 81.6948 19.8779 81.8823C19.555 82.1323 19.2946 82.4917 19.0967 82.9604C18.9092 83.4188 18.8102 84.075 18.7998 84.9292C19.0498 84.5438 19.3571 84.2573 19.7217 84.0698C20.0967 83.8823 20.4873 83.7886 20.8936 83.7886C21.5915 83.7886 22.1852 84.049 22.6748 84.5698C23.1748 85.0907 23.4248 85.7573 23.4248 86.5698C23.4248 87.1115 23.305 87.6167 23.0654 88.0854C22.8363 88.5438 22.5186 88.8979 22.1123 89.1479C21.7061 89.3875 21.2477 89.5073 20.7373 89.5073C19.8519 89.5073 19.1331 89.1844 18.5811 88.5386C18.029 87.8927 17.7529 86.8302 17.7529 85.3511C17.7529 83.6844 18.0602 82.4761 18.6748 81.7261C19.2061 81.0698 19.9248 80.7417 20.8311 80.7417C21.5081 80.7417 22.0602 80.9344 22.4873 81.3198C22.9248 81.6948 23.1852 82.2157 23.2686 82.8823ZM18.9717 86.5854C18.9717 86.95 19.0446 87.299 19.1904 87.6323C19.3467 87.9552 19.5602 88.2052 19.8311 88.3823C20.1123 88.5594 20.4092 88.6479 20.7217 88.6479C21.1592 88.6479 21.5394 88.4709 21.8623 88.1167C22.1852 87.7521 22.3467 87.2625 22.3467 86.6479C22.3467 86.0542 22.1852 85.5854 21.8623 85.2417C21.5498 84.8979 21.154 84.7261 20.6748 84.7261C20.1956 84.7261 19.7894 84.8979 19.4561 85.2417C19.1331 85.5854 18.9717 86.0334 18.9717 86.5854ZM24.7998 85.1323C24.7998 84.1115 24.904 83.2938 25.1123 82.6792C25.3206 82.0542 25.6279 81.575 26.0342 81.2417C26.4508 80.9084 26.9717 80.7417 27.5967 80.7417C28.055 80.7417 28.4561 80.8354 28.7998 81.0229C29.154 81.2104 29.4456 81.4813 29.6748 81.8354C29.904 82.1792 30.0811 82.6011 30.2061 83.1011C30.3311 83.6011 30.3936 84.2782 30.3936 85.1323C30.3936 86.1427 30.2894 86.9552 30.0811 87.5698C29.8831 88.1844 29.5758 88.6636 29.1592 89.0073C28.7529 89.3407 28.2321 89.5073 27.5967 89.5073C26.7738 89.5073 26.1227 89.2104 25.6436 88.6167C25.0811 87.9084 24.7998 86.7469 24.7998 85.1323ZM25.8779 85.1323C25.8779 86.5386 26.0446 87.4761 26.3779 87.9448C26.7113 88.4136 27.1175 88.6479 27.5967 88.6479C28.0863 88.6479 28.4925 88.4136 28.8154 87.9448C29.1488 87.4761 29.3154 86.5386 29.3154 85.1323C29.3154 83.7157 29.1488 82.7782 28.8154 82.3198C28.4925 81.8511 28.0811 81.6167 27.5811 81.6167C27.1019 81.6167 26.7165 81.8198 26.4248 82.2261C26.0602 82.7469 25.8779 83.7157 25.8779 85.1323ZM31.7998 85.1323C31.7998 84.1115 31.904 83.2938 32.1123 82.6792C32.3206 82.0542 32.6279 81.575 33.0342 81.2417C33.4508 80.9084 33.9717 80.7417 34.5967 80.7417C35.055 80.7417 35.4561 80.8354 35.7998 81.0229C36.154 81.2104 36.4456 81.4813 36.6748 81.8354C36.904 82.1792 37.0811 82.6011 37.2061 83.1011C37.3311 83.6011 37.3936 84.2782 37.3936 85.1323C37.3936 86.1427 37.2894 86.9552 37.0811 87.5698C36.8831 88.1844 36.5758 88.6636 36.1592 89.0073C35.7529 89.3407 35.2321 89.5073 34.5967 89.5073C33.7738 89.5073 33.1227 89.2104 32.6436 88.6167C32.0811 87.9084 31.7998 86.7469 31.7998 85.1323ZM32.8779 85.1323C32.8779 86.5386 33.0446 87.4761 33.3779 87.9448C33.7113 88.4136 34.1175 88.6479 34.5967 88.6479C35.0863 88.6479 35.4925 88.4136 35.8154 87.9448C36.1488 87.4761 36.3154 86.5386 36.3154 85.1323C36.3154 83.7157 36.1488 82.7782 35.8154 82.3198C35.4925 81.8511 35.0811 81.6167 34.5811 81.6167C34.1019 81.6167 33.7165 81.8198 33.4248 82.2261C33.0602 82.7469 32.8779 83.7157 32.8779 85.1323ZM38.7998 85.1323C38.7998 84.1115 38.904 83.2938 39.1123 82.6792C39.3206 82.0542 39.6279 81.575 40.0342 81.2417C40.4508 80.9084 40.9717 80.7417 41.5967 80.7417C42.055 80.7417 42.4561 80.8354 42.7998 81.0229C43.154 81.2104 43.4456 81.4813 43.6748 81.8354C43.904 82.1792 44.0811 82.6011 44.2061 83.1011C44.3311 83.6011 44.3936 84.2782 44.3936 85.1323C44.3936 86.1427 44.2894 86.9552 44.0811 87.5698C43.8831 88.1844 43.5758 88.6636 43.1592 89.0073C42.7529 89.3407 42.2321 89.5073 41.5967 89.5073C40.7738 89.5073 40.1227 89.2104 39.6436 88.6167C39.0811 87.9084 38.7998 86.7469 38.7998 85.1323ZM39.8779 85.1323C39.8779 86.5386 40.0446 87.4761 40.3779 87.9448C40.7113 88.4136 41.1175 88.6479 41.5967 88.6479C42.0863 88.6479 42.4925 88.4136 42.8154 87.9448C43.1488 87.4761 43.3154 86.5386 43.3154 85.1323C43.3154 83.7157 43.1488 82.7782 42.8154 82.3198C42.4925 81.8511 42.0811 81.6167 41.5811 81.6167C41.1019 81.6167 40.7165 81.8198 40.4248 82.2261C40.0602 82.7469 39.8779 83.7157 39.8779 85.1323ZM45.7998 85.1323C45.7998 84.1115 45.904 83.2938 46.1123 82.6792C46.3206 82.0542 46.6279 81.575 47.0342 81.2417C47.4508 80.9084 47.9717 80.7417 48.5967 80.7417C49.055 80.7417 49.4561 80.8354 49.7998 81.0229C50.154 81.2104 50.4456 81.4813 50.6748 81.8354C50.904 82.1792 51.0811 82.6011 51.2061 83.1011C51.3311 83.6011 51.3936 84.2782 51.3936 85.1323C51.3936 86.1427 51.2894 86.9552 51.0811 87.5698C50.8831 88.1844 50.5758 88.6636 50.1592 89.0073C49.7529 89.3407 49.2321 89.5073 48.5967 89.5073C47.7738 89.5073 47.1227 89.2104 46.6436 88.6167C46.0811 87.9084 45.7998 86.7469 45.7998 85.1323ZM46.8779 85.1323C46.8779 86.5386 47.0446 87.4761 47.3779 87.9448C47.7113 88.4136 48.1175 88.6479 48.5967 88.6479C49.0863 88.6479 49.4925 88.4136 49.8154 87.9448C50.1488 87.4761 50.3154 86.5386 50.3154 85.1323C50.3154 83.7157 50.1488 82.7782 49.8154 82.3198C49.4925 81.8511 49.0811 81.6167 48.5811 81.6167C48.1019 81.6167 47.7165 81.8198 47.4248 82.2261C47.0602 82.7469 46.8779 83.7157 46.8779 85.1323Z" fill="#F3F3F3"/>
<path d="M174 54.8334C174 54.2811 174.448 53.8334 175 53.8334H185C185.552 53.8334 186 54.2811 186 54.8334V64.8334C186 65.3857 185.552 65.8334 185 65.8334H175C174.448 65.8334 174 65.3857 174 64.8334V54.8334Z" fill="#FF9900"/>
<path d="M194.875 63.8334V55.2396H196.016V62.8177H200.25V63.8334H194.875ZM201.406 60.724C201.406 59.5677 201.724 58.7136 202.359 58.1615C202.891 57.7032 203.542 57.474 204.312 57.474C205.167 57.474 205.865 57.7552 206.406 58.3177C206.958 58.8698 207.234 59.6407 207.234 60.6302C207.234 61.4323 207.115 62.0625 206.875 62.5209C206.635 62.9792 206.281 63.3386 205.812 63.599C205.354 63.849 204.854 63.974 204.312 63.974C203.448 63.974 202.745 63.698 202.203 63.1459C201.672 62.5834 201.406 61.7761 201.406 60.724ZM202.484 60.724C202.484 61.5157 202.656 62.1094 203 62.5052C203.354 62.9011 203.792 63.099 204.312 63.099C204.844 63.099 205.281 62.9011 205.625 62.5052C205.969 62.1094 206.141 61.5052 206.141 60.6927C206.141 59.9219 205.964 59.3386 205.609 58.9427C205.266 58.5469 204.833 58.349 204.312 58.349C203.792 58.349 203.354 58.5469 203 58.9427C202.656 59.3282 202.484 59.9219 202.484 60.724ZM212.859 61.5521L213.891 61.6927C213.776 62.4011 213.484 62.9584 213.016 63.3646C212.547 63.7709 211.974 63.974 211.297 63.974C210.443 63.974 209.755 63.698 209.234 63.1459C208.724 62.5834 208.469 61.7813 208.469 60.7396C208.469 60.073 208.578 59.4896 208.797 58.9896C209.026 58.4792 209.365 58.099 209.812 57.849C210.271 57.599 210.771 57.474 211.312 57.474C211.979 57.474 212.526 57.6459 212.953 57.9896C213.391 58.323 213.672 58.8073 213.797 59.4427L212.766 59.599C212.672 59.1823 212.5 58.8698 212.25 58.6615C212 58.4427 211.698 58.3334 211.344 58.3334C210.813 58.3334 210.38 58.5261 210.047 58.9115C209.714 59.2865 209.547 59.8855 209.547 60.7084C209.547 61.5521 209.708 62.1615 210.031 62.5365C210.354 62.9115 210.771 63.099 211.281 63.099C211.698 63.099 212.042 62.974 212.312 62.724C212.594 62.474 212.776 62.0834 212.859 61.5521ZM214.406 60.724C214.406 59.5677 214.724 58.7136 215.359 58.1615C215.891 57.7032 216.542 57.474 217.312 57.474C218.167 57.474 218.865 57.7552 219.406 58.3177C219.958 58.8698 220.234 59.6407 220.234 60.6302C220.234 61.4323 220.115 62.0625 219.875 62.5209C219.635 62.9792 219.281 63.3386 218.812 63.599C218.354 63.849 217.854 63.974 217.312 63.974C216.448 63.974 215.745 63.698 215.203 63.1459C214.672 62.5834 214.406 61.7761 214.406 60.724ZM215.484 60.724C215.484 61.5157 215.656 62.1094 216 62.5052C216.354 62.9011 216.792 63.099 217.312 63.099C217.844 63.099 218.281 62.9011 218.625 62.5052C218.969 62.1094 219.141 61.5052 219.141 60.6927C219.141 59.9219 218.964 59.3386 218.609 58.9427C218.266 58.5469 217.833 58.349 217.312 58.349C216.792 58.349 216.354 58.5469 216 58.9427C215.656 59.3282 215.484 59.9219 215.484 60.724Z" fill="#F3F3F3"/>
<path d="M237 54.8334C237 54.2811 237.448 53.8334 238 53.8334H248C248.552 53.8334 249 54.2811 249 54.8334V64.8334C249 65.3857 248.552 65.8334 248 65.8334H238C237.448 65.8334 237 65.3857 237 64.8334V54.8334Z" fill="#6D9EEB"/>
<path d="M257.953 63.8334V55.2396H264.156V56.2552H259.094V58.8802H263.844V59.8959H259.094V62.8177H264.359V63.8334H257.953ZM265.094 63.8334L267.359 60.599L265.266 57.6146H266.578L267.531 59.0677C267.708 59.349 267.854 59.5834 267.969 59.7709C268.135 59.5105 268.292 59.2813 268.438 59.0834L269.484 57.6146H270.75L268.594 60.5365L270.906 63.8334H269.625L268.344 61.8959L268 61.3802L266.359 63.8334H265.094ZM270.797 66.224V57.6146H271.75V58.4115C271.979 58.099 272.234 57.8646 272.516 57.7084C272.807 57.5521 273.156 57.474 273.562 57.474C274.094 57.474 274.563 57.6094 274.969 57.8802C275.375 58.1511 275.677 58.5365 275.875 59.0365C276.083 59.5365 276.188 60.0834 276.188 60.6771C276.188 61.3125 276.073 61.8855 275.844 62.3959C275.625 62.9063 275.297 63.2969 274.859 63.5677C274.422 63.8386 273.964 63.974 273.484 63.974C273.13 63.974 272.812 63.9011 272.531 63.7552C272.25 63.599 272.021 63.4115 271.844 63.1927V66.224H270.797ZM271.75 60.7552C271.75 61.5573 271.911 62.1511 272.234 62.5365C272.557 62.9115 272.948 63.099 273.406 63.099C273.875 63.099 274.276 62.9011 274.609 62.5052C274.943 62.1094 275.109 61.4948 275.109 60.6615C275.109 59.8698 274.948 59.2813 274.625 58.8959C274.302 58.5 273.911 58.3021 273.453 58.3021C273.005 58.3021 272.609 58.5105 272.266 58.9271C271.922 59.3438 271.75 59.9532 271.75 60.7552ZM277.781 63.8334V57.6146H278.734V58.5521C278.974 58.1146 279.193 57.8282 279.391 57.6927C279.599 57.5469 279.828 57.474 280.078 57.474C280.432 57.474 280.792 57.5834 281.156 57.8021L280.797 58.7865C280.536 58.6302 280.281 58.5521 280.031 58.5521C279.792 58.5521 279.578 58.625 279.391 58.7709C279.214 58.9063 279.089 59.099 279.016 59.349C278.891 59.724 278.828 60.1302 278.828 60.5677V63.8334H277.781ZM286.047 61.8334L287.141 61.9584C286.974 62.5938 286.656 63.0886 286.188 63.4427C285.719 63.7969 285.125 63.974 284.406 63.974C283.5 63.974 282.776 63.6927 282.234 63.1302C281.703 62.5677 281.438 61.7813 281.438 60.7709C281.438 59.7292 281.708 58.9219 282.25 58.349C282.792 57.7657 283.49 57.474 284.344 57.474C285.177 57.474 285.854 57.7552 286.375 58.3177C286.906 58.8802 287.172 59.6771 287.172 60.7084C287.172 60.7709 287.172 60.8646 287.172 60.9896H282.531C282.573 61.6771 282.766 62.2032 283.109 62.5677C283.453 62.9219 283.885 63.099 284.406 63.099C284.792 63.099 285.12 63 285.391 62.8021C285.672 62.5938 285.891 62.2709 286.047 61.8334ZM282.594 60.1302H286.062C286.021 59.599 285.891 59.2032 285.672 58.9427C285.328 58.5365 284.891 58.3334 284.359 58.3334C283.87 58.3334 283.458 58.4948 283.125 58.8177C282.802 59.1407 282.625 59.5782 282.594 60.1302ZM288.375 61.974L289.406 61.8177C289.469 62.2344 289.63 62.5521 289.891 62.7709C290.161 62.9896 290.542 63.099 291.031 63.099C291.51 63.099 291.865 63.0052 292.094 62.8177C292.333 62.6198 292.453 62.3855 292.453 62.1146C292.453 61.875 292.349 61.6875 292.141 61.5521C291.995 61.4584 291.635 61.3386 291.062 61.1927C290.292 60.9948 289.755 60.8282 289.453 60.6927C289.161 60.5469 288.937 60.349 288.781 60.099C288.625 59.849 288.547 59.5677 288.547 59.2552C288.547 58.9844 288.609 58.7292 288.734 58.4896C288.859 58.25 289.031 58.0521 289.25 57.8959C289.417 57.7813 289.641 57.6823 289.922 57.599C290.203 57.5157 290.51 57.474 290.844 57.474C291.323 57.474 291.745 57.5469 292.109 57.6927C292.484 57.8282 292.76 58.0157 292.938 58.2552C293.115 58.4948 293.234 58.8125 293.297 59.2084L292.266 59.349C292.224 59.0365 292.089 58.7917 291.859 58.6146C291.641 58.4271 291.323 58.3334 290.906 58.3334C290.427 58.3334 290.083 58.4167 289.875 58.5834C289.667 58.7396 289.562 58.9271 289.562 59.1459C289.562 59.2813 289.604 59.4011 289.688 59.5052C289.781 59.6198 289.917 59.7136 290.094 59.7865C290.198 59.8282 290.51 59.9167 291.031 60.0521C291.781 60.2605 292.302 60.4271 292.594 60.5521C292.885 60.6771 293.115 60.8594 293.281 61.099C293.448 61.3386 293.531 61.6407 293.531 62.0052C293.531 62.3594 293.427 62.6927 293.219 63.0052C293.021 63.3073 292.729 63.5469 292.344 63.724C291.958 63.8907 291.521 63.974 291.031 63.974C290.219 63.974 289.599 63.8073 289.172 63.474C288.755 63.1302 288.49 62.6302 288.375 61.974ZM295.375 61.974L296.406 61.8177C296.469 62.2344 296.63 62.5521 296.891 62.7709C297.161 62.9896 297.542 63.099 298.031 63.099C298.51 63.099 298.865 63.0052 299.094 62.8177C299.333 62.6198 299.453 62.3855 299.453 62.1146C299.453 61.875 299.349 61.6875 299.141 61.5521C298.995 61.4584 298.635 61.3386 298.062 61.1927C297.292 60.9948 296.755 60.8282 296.453 60.6927C296.161 60.5469 295.937 60.349 295.781 60.099C295.625 59.849 295.547 59.5677 295.547 59.2552C295.547 58.9844 295.609 58.7292 295.734 58.4896C295.859 58.25 296.031 58.0521 296.25 57.8959C296.417 57.7813 296.641 57.6823 296.922 57.599C297.203 57.5157 297.51 57.474 297.844 57.474C298.323 57.474 298.745 57.5469 299.109 57.6927C299.484 57.8282 299.76 58.0157 299.938 58.2552C300.115 58.4948 300.234 58.8125 300.297 59.2084L299.266 59.349C299.224 59.0365 299.089 58.7917 298.859 58.6146C298.641 58.4271 298.323 58.3334 297.906 58.3334C297.427 58.3334 297.083 58.4167 296.875 58.5834C296.667 58.7396 296.562 58.9271 296.562 59.1459C296.562 59.2813 296.604 59.4011 296.688 59.5052C296.781 59.6198 296.917 59.7136 297.094 59.7865C297.198 59.8282 297.51 59.9167 298.031 60.0521C298.781 60.2605 299.302 60.4271 299.594 60.5521C299.885 60.6771 300.115 60.8594 300.281 61.099C300.448 61.3386 300.531 61.6407 300.531 62.0052C300.531 62.3594 300.427 62.6927 300.219 63.0052C300.021 63.3073 299.729 63.5469 299.344 63.724C298.958 63.8907 298.521 63.974 298.031 63.974C297.219 63.974 296.599 63.8073 296.172 63.474C295.755 63.1302 295.49 62.6302 295.375 61.974ZM303.094 63.8334V62.6302H304.297V63.8334H303.094ZM305.781 56.474V55.2396H306.844V56.474H305.781ZM304.453 66.2552L304.641 65.349C304.859 65.4011 305.026 65.4271 305.141 65.4271C305.359 65.4271 305.521 65.3542 305.625 65.2084C305.729 65.073 305.781 64.7188 305.781 64.1459V57.6146H306.844V64.1771C306.844 64.9375 306.745 65.4688 306.547 65.7709C306.286 66.1667 305.865 66.3646 305.281 66.3646C304.99 66.3646 304.714 66.3282 304.453 66.2552ZM308.375 61.974L309.406 61.8177C309.469 62.2344 309.63 62.5521 309.891 62.7709C310.161 62.9896 310.542 63.099 311.031 63.099C311.51 63.099 311.865 63.0052 312.094 62.8177C312.333 62.6198 312.453 62.3855 312.453 62.1146C312.453 61.875 312.349 61.6875 312.141 61.5521C311.995 61.4584 311.635 61.3386 311.062 61.1927C310.292 60.9948 309.755 60.8282 309.453 60.6927C309.161 60.5469 308.937 60.349 308.781 60.099C308.625 59.849 308.547 59.5677 308.547 59.2552C308.547 58.9844 308.609 58.7292 308.734 58.4896C308.859 58.25 309.031 58.0521 309.25 57.8959C309.417 57.7813 309.641 57.6823 309.922 57.599C310.203 57.5157 310.51 57.474 310.844 57.474C311.323 57.474 311.745 57.5469 312.109 57.6927C312.484 57.8282 312.76 58.0157 312.938 58.2552C313.115 58.4948 313.234 58.8125 313.297 59.2084L312.266 59.349C312.224 59.0365 312.089 58.7917 311.859 58.6146C311.641 58.4271 311.323 58.3334 310.906 58.3334C310.427 58.3334 310.083 58.4167 309.875 58.5834C309.667 58.7396 309.562 58.9271 309.562 59.1459C309.562 59.2813 309.604 59.4011 309.688 59.5052C309.781 59.6198 309.917 59.7136 310.094 59.7865C310.198 59.8282 310.51 59.9167 311.031 60.0521C311.781 60.2605 312.302 60.4271 312.594 60.5521C312.885 60.6771 313.115 60.8594 313.281 61.099C313.448 61.3386 313.531 61.6407 313.531 62.0052C313.531 62.3594 313.427 62.6927 313.219 63.0052C313.021 63.3073 312.729 63.5469 312.344 63.724C311.958 63.8907 311.521 63.974 311.031 63.974C310.219 63.974 309.599 63.8073 309.172 63.474C308.755 63.1302 308.49 62.6302 308.375 61.974Z" fill="#F3F3F3"/>
<path d="M331 54.8334C331 54.2811 331.448 53.8334 332 53.8334H342C342.552 53.8334 343 54.2811 343 54.8334V64.8334C343 65.3857 342.552 65.8334 342 65.8334H332C331.448 65.8334 331 65.3857 331 64.8334V54.8334Z" fill="#CC0000"/>
<path d="M351.938 63.8334V55.2396H355.75C356.521 55.2396 357.104 55.3177 357.5 55.474C357.896 55.6302 358.214 55.9063 358.453 56.3021C358.693 56.6875 358.812 57.1146 358.812 57.5834C358.812 58.198 358.615 58.7136 358.219 59.1302C357.823 59.5469 357.214 59.8125 356.391 59.9271C356.693 60.073 356.922 60.2136 357.078 60.349C357.411 60.6511 357.724 61.0313 358.016 61.4896L359.516 63.8334H358.078L356.953 62.0521C356.62 61.5313 356.344 61.1355 356.125 60.8646C355.917 60.5938 355.724 60.4063 355.547 60.3021C355.38 60.1875 355.208 60.1042 355.031 60.0521C354.906 60.0313 354.698 60.0209 354.406 60.0209H353.078V63.8334H351.938ZM353.078 59.0365H355.531C356.042 59.0365 356.443 58.9844 356.734 58.8802C357.036 58.7657 357.26 58.5938 357.406 58.3646C357.562 58.125 357.641 57.8646 357.641 57.5834C357.641 57.1771 357.49 56.8438 357.188 56.5834C356.896 56.323 356.432 56.1927 355.797 56.1927H353.078V59.0365ZM364.859 63.0677C364.464 63.4011 364.083 63.6355 363.719 63.7709C363.365 63.9063 362.979 63.974 362.562 63.974C361.875 63.974 361.349 63.8073 360.984 63.474C360.62 63.1407 360.438 62.7136 360.438 62.1927C360.438 61.8907 360.505 61.6146 360.641 61.3646C360.776 61.1042 360.958 60.9011 361.188 60.7552C361.417 60.599 361.672 60.4844 361.953 60.4115C362.151 60.349 362.464 60.2917 362.891 60.2396C363.734 60.1459 364.359 60.0261 364.766 59.8802C364.766 59.7344 364.766 59.6459 364.766 59.6146C364.766 59.1771 364.667 58.8698 364.469 58.6927C364.198 58.4636 363.797 58.349 363.266 58.349C362.776 58.349 362.411 58.4375 362.172 58.6146C361.932 58.7813 361.755 59.0834 361.641 59.5209L360.609 59.3802C360.703 58.9427 360.859 58.5886 361.078 58.3177C361.297 58.0469 361.609 57.8386 362.016 57.6927C362.422 57.5469 362.891 57.474 363.422 57.474C363.953 57.474 364.385 57.5365 364.719 57.6615C365.052 57.7865 365.297 57.9427 365.453 58.1302C365.609 58.3177 365.719 58.5573 365.781 58.849C365.812 59.0261 365.828 59.349 365.828 59.8177V61.224C365.828 62.2032 365.849 62.823 365.891 63.0834C365.943 63.3438 366.036 63.5938 366.172 63.8334H365.062C364.958 63.6146 364.891 63.3594 364.859 63.0677ZM364.766 60.7084C364.38 60.8646 363.807 61 363.047 61.1146C362.609 61.1771 362.302 61.25 362.125 61.3334C361.948 61.4063 361.807 61.5157 361.703 61.6615C361.609 61.8073 361.562 61.974 361.562 62.1615C361.562 62.4427 361.667 62.6771 361.875 62.8646C362.094 63.0521 362.406 63.1459 362.812 63.1459C363.219 63.1459 363.578 63.0573 363.891 62.8802C364.214 62.7032 364.448 62.4584 364.594 62.1459C364.708 61.9063 364.766 61.5573 364.766 61.099V60.7084ZM367.797 56.4584V55.2396H368.859V56.4584H367.797ZM367.797 63.8334V57.6146H368.859V63.8334H367.797ZM370.766 63.8334V55.2396H371.828V63.8334H370.766ZM373.375 61.974L374.406 61.8177C374.469 62.2344 374.63 62.5521 374.891 62.7709C375.161 62.9896 375.542 63.099 376.031 63.099C376.51 63.099 376.865 63.0052 377.094 62.8177C377.333 62.6198 377.453 62.3855 377.453 62.1146C377.453 61.875 377.349 61.6875 377.141 61.5521C376.995 61.4584 376.635 61.3386 376.062 61.1927C375.292 60.9948 374.755 60.8282 374.453 60.6927C374.161 60.5469 373.937 60.349 373.781 60.099C373.625 59.849 373.547 59.5677 373.547 59.2552C373.547 58.9844 373.609 58.7292 373.734 58.4896C373.859 58.25 374.031 58.0521 374.25 57.8959C374.417 57.7813 374.641 57.6823 374.922 57.599C375.203 57.5157 375.51 57.474 375.844 57.474C376.323 57.474 376.745 57.5469 377.109 57.6927C377.484 57.8282 377.76 58.0157 377.938 58.2552C378.115 58.4948 378.234 58.8125 378.297 59.2084L377.266 59.349C377.224 59.0365 377.089 58.7917 376.859 58.6146C376.641 58.4271 376.323 58.3334 375.906 58.3334C375.427 58.3334 375.083 58.4167 374.875 58.5834C374.667 58.7396 374.562 58.9271 374.562 59.1459C374.562 59.2813 374.604 59.4011 374.688 59.5052C374.781 59.6198 374.917 59.7136 375.094 59.7865C375.198 59.8282 375.51 59.9167 376.031 60.0521C376.781 60.2605 377.302 60.4271 377.594 60.5521C377.885 60.6771 378.115 60.8594 378.281 61.099C378.448 61.3386 378.531 61.6407 378.531 62.0052C378.531 62.3594 378.427 62.6927 378.219 63.0052C378.021 63.3073 377.729 63.5469 377.344 63.724C376.958 63.8907 376.521 63.974 376.031 63.974C375.219 63.974 374.599 63.8073 374.172 63.474C373.755 63.1302 373.49 62.6302 373.375 61.974Z" fill="#F3F3F3"/>
<path d="M18.7686 36.3V21.9875H20.6592V34.6125H27.7061V36.3H18.7686ZM28.9717 31.1125C28.9717 29.1959 29.5029 27.774 30.5654 26.8469C31.4613 26.0761 32.5498 25.6907 33.8311 25.6907C35.2581 25.6907 36.4196 26.1594 37.3154 27.0969C38.2217 28.0344 38.6748 29.3261 38.6748 30.9719C38.6748 32.3053 38.4769 33.3573 38.0811 34.1282C37.6852 34.8886 37.1019 35.4823 36.3311 35.9094C35.5706 36.3261 34.7373 36.5344 33.8311 36.5344C32.3727 36.5344 31.1956 36.0709 30.2998 35.1438C29.4144 34.2063 28.9717 32.8625 28.9717 31.1125ZM30.7686 31.1125C30.7686 32.4459 31.055 33.4407 31.6279 34.0969C32.2113 34.7532 32.9456 35.0813 33.8311 35.0813C34.7061 35.0813 35.43 34.7532 36.0029 34.0969C36.5863 33.4303 36.8779 32.4146 36.8779 31.05C36.8779 29.7688 36.5863 28.8 36.0029 28.1438C35.4196 27.4771 34.6956 27.1438 33.8311 27.1438C32.9456 27.1438 32.2113 27.4771 31.6279 28.1438C31.055 28.8 30.7686 29.7896 30.7686 31.1125ZM47.3936 32.5032L49.1123 32.7219C48.9248 33.9198 48.4404 34.8573 47.6592 35.5344C46.8883 36.2011 45.9352 36.5344 44.7998 36.5344C43.3831 36.5344 42.2425 36.0709 41.3779 35.1438C40.5133 34.2167 40.0811 32.8886 40.0811 31.1594C40.0811 30.0344 40.2633 29.0553 40.6279 28.2219C41.0029 27.3782 41.5706 26.748 42.3311 26.3313C43.0915 25.9042 43.9196 25.6907 44.8154 25.6907C45.9404 25.6907 46.8571 25.9771 47.5654 26.55C48.2842 27.123 48.7477 27.9303 48.9561 28.9719L47.2373 29.2375C47.0811 28.5396 46.7946 28.0188 46.3779 27.675C45.9613 27.3209 45.4613 27.1438 44.8779 27.1438C43.9925 27.1438 43.2738 27.4615 42.7217 28.0969C42.1696 28.7323 41.8936 29.7323 41.8936 31.0969C41.8936 32.4928 42.1592 33.5084 42.6904 34.1438C43.2217 34.7688 43.9196 35.0813 44.7842 35.0813C45.4717 35.0813 46.0446 34.873 46.5029 34.4563C46.9717 34.0292 47.2686 33.3782 47.3936 32.5032ZM49.9717 31.1125C49.9717 29.1959 50.5029 27.774 51.5654 26.8469C52.4613 26.0761 53.5498 25.6907 54.8311 25.6907C56.2581 25.6907 57.4196 26.1594 58.3154 27.0969C59.2217 28.0344 59.6748 29.3261 59.6748 30.9719C59.6748 32.3053 59.4769 33.3573 59.0811 34.1282C58.6852 34.8886 58.1019 35.4823 57.3311 35.9094C56.5706 36.3261 55.7373 36.5344 54.8311 36.5344C53.3727 36.5344 52.1956 36.0709 51.2998 35.1438C50.4144 34.2063 49.9717 32.8625 49.9717 31.1125ZM51.7686 31.1125C51.7686 32.4459 52.055 33.4407 52.6279 34.0969C53.2113 34.7532 53.9456 35.0813 54.8311 35.0813C55.7061 35.0813 56.43 34.7532 57.0029 34.0969C57.5863 33.4303 57.8779 32.4146 57.8779 31.05C57.8779 29.7688 57.5863 28.8 57.0029 28.1438C56.4196 27.4771 55.6956 27.1438 54.8311 27.1438C53.9456 27.1438 53.2113 27.4771 52.6279 28.1438C52.055 28.8 51.7686 29.7896 51.7686 31.1125ZM62.1123 27.925V25.925H64.1123V27.925H62.1123ZM62.1123 36.3V34.3H64.1123V36.3H62.1123ZM73.8467 36.3V21.9875H78.7686C79.8831 21.9875 80.7373 22.0553 81.3311 22.1907C82.1436 22.3782 82.8415 22.7167 83.4248 23.2063C84.1748 23.8521 84.7373 24.6698 85.1123 25.6594C85.4873 26.649 85.6748 27.7844 85.6748 29.0657C85.6748 30.149 85.5498 31.1125 85.2998 31.9563C85.0498 32.7896 84.7217 33.4823 84.3154 34.0344C83.9196 34.5865 83.4873 35.024 83.0186 35.3469C82.5498 35.6594 81.9821 35.899 81.3154 36.0657C80.6488 36.2219 79.8779 36.3 79.0029 36.3H73.8467ZM75.7373 34.6125H78.7998C79.7373 34.6125 80.4717 34.524 81.0029 34.3469C81.5446 34.1698 81.9769 33.9198 82.2998 33.5969C82.7477 33.149 83.0967 32.55 83.3467 31.8C83.5967 31.0396 83.7217 30.1178 83.7217 29.0344C83.7217 27.5344 83.4769 26.3834 82.9873 25.5813C82.4977 24.7792 81.8988 24.2428 81.1904 23.9719C80.6904 23.774 79.8779 23.675 78.7529 23.675H75.7373V34.6125ZM87.7686 36.3V21.9875H93.1436C94.2373 21.9875 95.1123 22.1334 95.7686 22.425C96.4248 22.7063 96.9404 23.149 97.3154 23.7532C97.6904 24.3573 97.8779 24.9875 97.8779 25.6438C97.8779 26.2584 97.7113 26.8365 97.3779 27.3782C97.055 27.9198 96.555 28.3521 95.8779 28.675C96.7425 28.9355 97.4092 29.373 97.8779 29.9875C98.3467 30.5917 98.5811 31.3105 98.5811 32.1438C98.5811 32.8209 98.4352 33.4459 98.1436 34.0188C97.8623 34.5917 97.5133 35.0344 97.0967 35.3469C96.68 35.6594 96.1592 35.899 95.5342 36.0657C94.9092 36.2219 94.1383 36.3 93.2217 36.3H87.7686ZM89.6592 28.0032H92.7529C93.5967 28.0032 94.2008 27.9459 94.5654 27.8313C95.0446 27.6855 95.404 27.4511 95.6436 27.1282C95.8936 26.7948 96.0186 26.373 96.0186 25.8625C96.0186 25.3938 95.904 24.9771 95.6748 24.6125C95.4456 24.248 95.1175 24.0032 94.6904 23.8782C94.2738 23.7428 93.5498 23.675 92.5186 23.675H89.6592V28.0032ZM89.6592 34.6125H93.2217C93.8363 34.6125 94.2686 34.5865 94.5186 34.5344C94.9561 34.4615 95.3206 34.3365 95.6123 34.1594C95.904 33.9719 96.1436 33.7063 96.3311 33.3625C96.5186 33.0084 96.6123 32.6021 96.6123 32.1438C96.6123 31.6125 96.4769 31.149 96.2061 30.7532C95.9352 30.3573 95.555 30.0813 95.0654 29.925C94.5758 29.7688 93.8779 29.6907 92.9717 29.6907H89.6592V34.6125ZM117.69 34.7688C118.576 35.373 119.388 35.8157 120.128 36.0969L119.565 37.4094C118.534 37.0448 117.508 36.4615 116.487 35.6594C115.425 36.2532 114.253 36.55 112.972 36.55C111.68 36.55 110.503 36.2375 109.44 35.6125C108.388 34.9875 107.576 34.1073 107.003 32.9719C106.44 31.8365 106.159 30.5605 106.159 29.1438C106.159 27.7271 106.446 26.4407 107.019 25.2844C107.591 24.1282 108.404 23.248 109.456 22.6438C110.519 22.0292 111.706 21.7219 113.019 21.7219C114.341 21.7219 115.529 22.0396 116.581 22.675C117.644 23.3 118.451 24.1803 119.003 25.3157C119.565 26.4407 119.847 27.7115 119.847 29.1282C119.847 30.3053 119.67 31.3678 119.315 32.3157C118.961 33.2532 118.42 34.0709 117.69 34.7688ZM113.519 32.3469C114.612 32.649 115.513 33.1021 116.222 33.7063C117.336 32.6959 117.894 31.1698 117.894 29.1282C117.894 27.9719 117.696 26.9615 117.3 26.0969C116.914 25.2323 116.341 24.5605 115.581 24.0813C114.821 23.6021 113.966 23.3625 113.019 23.3625C111.612 23.3625 110.44 23.8469 109.503 24.8157C108.576 25.774 108.112 27.2167 108.112 29.1438C108.112 31.0084 108.571 32.4407 109.487 33.4407C110.414 34.4303 111.591 34.925 113.019 34.925C113.696 34.925 114.336 34.7948 114.94 34.5344C114.347 34.1594 113.722 33.8886 113.065 33.7219L113.519 32.3469ZM129.409 36.3V34.7688C128.607 35.9459 127.513 36.5344 126.128 36.5344C125.513 36.5344 124.94 36.4198 124.409 36.1907C123.878 35.9511 123.482 35.6542 123.222 35.3C122.972 34.9459 122.795 34.5084 122.69 33.9875C122.618 33.6438 122.581 33.0969 122.581 32.3469V25.925H124.331V31.675C124.331 32.5917 124.368 33.2115 124.44 33.5344C124.555 33.9928 124.789 34.3573 125.144 34.6282C125.508 34.8886 125.951 35.0188 126.472 35.0188C127.003 35.0188 127.498 34.8834 127.956 34.6125C128.425 34.3417 128.753 33.9771 128.94 33.5188C129.138 33.05 129.237 32.373 129.237 31.4875V25.925H130.987V36.3H129.409ZM139.722 32.9563L141.534 33.1907C141.253 34.2428 140.722 35.0657 139.94 35.6594C139.17 36.2428 138.18 36.5344 136.972 36.5344C135.461 36.5344 134.258 36.0709 133.362 35.1438C132.477 34.2063 132.034 32.8938 132.034 31.2063C132.034 29.4563 132.482 28.1021 133.378 27.1438C134.274 26.175 135.44 25.6907 136.878 25.6907C138.263 25.6907 139.394 26.1646 140.269 27.1125C141.154 28.05 141.597 29.3782 141.597 31.0969C141.597 31.2011 141.591 31.3573 141.581 31.5657H133.847C133.909 32.7011 134.232 33.5709 134.815 34.175C135.399 34.7792 136.123 35.0813 136.987 35.0813C137.633 35.0813 138.18 34.9146 138.628 34.5813C139.086 34.2375 139.451 33.6959 139.722 32.9563ZM133.94 30.1125H139.737C139.664 29.248 139.446 28.5969 139.081 28.1594C138.519 27.4823 137.789 27.1438 136.894 27.1438C136.091 27.1438 135.414 27.4146 134.862 27.9563C134.31 28.4875 134.003 29.2063 133.94 30.1125ZM143.597 36.3V25.925H145.175V27.5032C145.581 26.7636 145.956 26.2792 146.3 26.05C146.644 25.8105 147.019 25.6907 147.425 25.6907C148.019 25.6907 148.623 25.8782 149.237 26.2532L148.628 27.8938C148.201 27.6334 147.774 27.5032 147.347 27.5032C146.961 27.5032 146.612 27.623 146.3 27.8625C145.998 28.0917 145.779 28.4094 145.644 28.8157C145.456 29.4407 145.362 30.123 145.362 30.8625V36.3H143.597ZM150.534 40.3L150.347 38.6438C150.732 38.748 151.065 38.8 151.347 38.8C151.743 38.8 152.055 38.7323 152.284 38.5969C152.524 38.4719 152.716 38.2948 152.862 38.0657C152.977 37.8886 153.159 37.4511 153.409 36.7532C153.44 36.649 153.493 36.5032 153.565 36.3157L149.628 25.925H151.519L153.675 31.9407C153.956 32.7011 154.206 33.498 154.425 34.3313C154.633 33.5292 154.873 32.7428 155.144 31.9719L157.362 25.925H159.128L155.175 36.4719C154.758 37.6178 154.43 38.4042 154.19 38.8313C153.878 39.4146 153.519 39.8365 153.112 40.0969C152.716 40.3678 152.237 40.5032 151.675 40.5032C151.331 40.5032 150.951 40.4355 150.534 40.3ZM161.081 36.3V34.3H163.081V36.3C163.081 37.0396 162.951 37.6334 162.69 38.0813C162.43 38.5396 162.019 38.8886 161.456 39.1282L160.956 38.3782C161.331 38.2219 161.607 37.9823 161.784 37.6594C161.961 37.3469 162.06 36.8938 162.081 36.3H161.081ZM172.597 36.3V25.925H174.175V27.5032C174.581 26.7636 174.956 26.2792 175.3 26.05C175.644 25.8105 176.019 25.6907 176.425 25.6907C177.019 25.6907 177.623 25.8782 178.237 26.2532L177.628 27.8938C177.201 27.6334 176.774 27.5032 176.347 27.5032C175.961 27.5032 175.612 27.623 175.3 27.8625C174.998 28.0917 174.779 28.4094 174.644 28.8157C174.456 29.4407 174.362 30.123 174.362 30.8625V36.3H172.597ZM186.722 32.9563L188.534 33.1907C188.253 34.2428 187.722 35.0657 186.94 35.6594C186.17 36.2428 185.18 36.5344 183.972 36.5344C182.461 36.5344 181.258 36.0709 180.362 35.1438C179.477 34.2063 179.034 32.8938 179.034 31.2063C179.034 29.4563 179.482 28.1021 180.378 27.1438C181.274 26.175 182.44 25.6907 183.878 25.6907C185.263 25.6907 186.394 26.1646 187.269 27.1125C188.154 28.05 188.597 29.3782 188.597 31.0969C188.597 31.2011 188.591 31.3573 188.581 31.5657H180.847C180.909 32.7011 181.232 33.5709 181.815 34.175C182.399 34.7792 183.123 35.0813 183.987 35.0813C184.633 35.0813 185.18 34.9146 185.628 34.5813C186.086 34.2375 186.451 33.6959 186.722 32.9563ZM180.94 30.1125H186.737C186.664 29.248 186.446 28.5969 186.081 28.1594C185.519 27.4823 184.789 27.1438 183.894 27.1438C183.091 27.1438 182.414 27.4146 181.862 27.9563C181.31 28.4875 181.003 29.2063 180.94 30.1125ZM197.237 40.2688V35.1907C196.956 35.5761 196.571 35.899 196.081 36.1594C195.591 36.4094 195.071 36.5344 194.519 36.5344C193.289 36.5344 192.227 36.0448 191.331 35.0657C190.446 34.0761 190.003 32.7271 190.003 31.0188C190.003 29.9771 190.18 29.0448 190.534 28.2219C190.899 27.3886 191.425 26.7584 192.112 26.3313C192.8 25.9042 193.555 25.6907 194.378 25.6907C195.659 25.6907 196.67 26.2323 197.409 27.3157V25.925H198.987V40.2688H197.237ZM191.815 31.0813C191.815 32.4146 192.091 33.4146 192.644 34.0813C193.206 34.748 193.878 35.0813 194.659 35.0813C195.409 35.0813 196.055 34.7688 196.597 34.1438C197.138 33.5084 197.409 32.5396 197.409 31.2375C197.409 29.8625 197.123 28.8261 196.55 28.1282C195.977 27.4303 195.31 27.0813 194.55 27.0813C193.789 27.0813 193.144 27.4042 192.612 28.05C192.081 28.6959 191.815 29.7063 191.815 31.0813ZM200.3 36.55L204.456 21.7375H205.862L201.722 36.55H200.3ZM206.909 33.2063L208.659 32.925C208.753 33.623 209.024 34.1594 209.472 34.5344C209.92 34.899 210.545 35.0813 211.347 35.0813C212.149 35.0813 212.743 34.9198 213.128 34.5969C213.524 34.2636 213.722 33.8782 213.722 33.4407C213.722 33.0448 213.55 32.7323 213.206 32.5032C212.966 32.3469 212.368 32.149 211.409 31.9094C210.118 31.5761 209.222 31.2948 208.722 31.0657C208.232 30.8261 207.857 30.498 207.597 30.0813C207.336 29.6542 207.206 29.1855 207.206 28.675C207.206 28.2167 207.31 27.7896 207.519 27.3938C207.737 26.998 208.029 26.6698 208.394 26.4094C208.664 26.2115 209.034 26.0448 209.503 25.9094C209.982 25.7636 210.493 25.6907 211.034 25.6907C211.847 25.6907 212.56 25.8105 213.175 26.05C213.789 26.2792 214.243 26.5969 214.534 27.0032C214.826 27.399 215.029 27.9303 215.144 28.5969L213.425 28.8313C213.341 28.3 213.112 27.8886 212.737 27.5969C212.362 27.2948 211.836 27.1438 211.159 27.1438C210.347 27.1438 209.769 27.2792 209.425 27.55C209.081 27.8105 208.909 28.1178 208.909 28.4719C208.909 28.7011 208.982 28.9094 209.128 29.0969C209.263 29.2844 209.487 29.4407 209.8 29.5657C209.977 29.6282 210.493 29.774 211.347 30.0032C212.597 30.3365 213.466 30.6125 213.956 30.8313C214.446 31.0396 214.831 31.3469 215.112 31.7532C215.394 32.149 215.534 32.649 215.534 33.2532C215.534 33.8365 215.362 34.3886 215.019 34.9094C214.675 35.4303 214.18 35.8313 213.534 36.1125C212.888 36.3938 212.159 36.5344 211.347 36.5344C210.003 36.5344 208.977 36.2532 208.269 35.6907C207.56 35.1282 207.107 34.3 206.909 33.2063ZM226.972 40.5032C226.003 39.2844 225.185 37.8573 224.519 36.2219C223.852 34.5761 223.519 32.873 223.519 31.1125C223.519 29.5605 223.769 28.0761 224.269 26.6594C224.852 25.0136 225.753 23.373 226.972 21.7375H228.237C227.446 23.0917 226.925 24.0605 226.675 24.6438C226.279 25.5396 225.966 26.4771 225.737 27.4563C225.456 28.675 225.315 29.899 225.315 31.1282C225.315 34.2532 226.289 37.3782 228.237 40.5032H226.972ZM230.612 36.3V21.9875H232.378V27.1125C233.201 26.1646 234.237 25.6907 235.487 25.6907C236.248 25.6907 236.909 25.8417 237.472 26.1438C238.045 26.4459 238.451 26.8678 238.69 27.4094C238.94 27.9407 239.065 28.7115 239.065 29.7219V36.3H237.315V29.7219C237.315 28.8469 237.123 28.2115 236.737 27.8157C236.352 27.4094 235.815 27.2063 235.128 27.2063C234.607 27.2063 234.112 27.3417 233.644 27.6125C233.185 27.8834 232.857 28.2532 232.659 28.7219C232.472 29.1803 232.378 29.8157 232.378 30.6282V36.3H230.612ZM240.628 24.0032V21.9875H242.394V24.0032H240.628ZM240.628 36.3V25.925H242.394V36.3H240.628ZM244.3 37.1594L246.003 37.4094C246.076 37.9407 246.274 38.3261 246.597 38.5657C247.034 38.8886 247.633 39.05 248.394 39.05C249.206 39.05 249.831 38.8886 250.269 38.5657C250.716 38.2428 251.019 37.7896 251.175 37.2063C251.269 36.8417 251.31 36.0865 251.3 34.9407C250.529 35.8469 249.571 36.3 248.425 36.3C246.998 36.3 245.894 35.7844 245.112 34.7532C244.331 33.7219 243.94 32.4875 243.94 31.05C243.94 30.0605 244.118 29.149 244.472 28.3157C244.836 27.4823 245.357 26.8365 246.034 26.3782C246.722 25.9198 247.524 25.6907 248.44 25.6907C249.659 25.6907 250.67 26.1855 251.472 27.175V25.925H253.081V34.8938C253.081 36.5084 252.914 37.649 252.581 38.3157C252.258 38.9928 251.737 39.524 251.019 39.9094C250.31 40.3053 249.435 40.5032 248.394 40.5032C247.164 40.5032 246.164 40.2271 245.394 39.675C244.633 39.123 244.269 38.2844 244.3 37.1594ZM245.753 30.925C245.753 32.2896 246.024 33.2844 246.565 33.9094C247.107 34.5344 247.784 34.8469 248.597 34.8469C249.399 34.8469 250.071 34.5344 250.612 33.9094C251.164 33.2844 251.44 32.3105 251.44 30.9875C251.44 29.7167 251.159 28.7584 250.597 28.1125C250.034 27.4667 249.357 27.1438 248.565 27.1438C247.784 27.1438 247.118 27.4615 246.565 28.0969C246.024 28.7323 245.753 29.675 245.753 30.925ZM255.612 36.3V21.9875H257.378V27.1125C258.201 26.1646 259.237 25.6907 260.487 25.6907C261.248 25.6907 261.909 25.8417 262.472 26.1438C263.045 26.4459 263.451 26.8678 263.69 27.4094C263.94 27.9407 264.065 28.7115 264.065 29.7219V36.3H262.315V29.7219C262.315 28.8469 262.123 28.2115 261.737 27.8157C261.352 27.4094 260.815 27.2063 260.128 27.2063C259.607 27.2063 259.112 27.3417 258.644 27.6125C258.185 27.8834 257.857 28.2532 257.659 28.7219C257.472 29.1803 257.378 29.8157 257.378 30.6282V36.3H255.612ZM272.722 32.9563L274.534 33.1907C274.253 34.2428 273.722 35.0657 272.94 35.6594C272.17 36.2428 271.18 36.5344 269.972 36.5344C268.461 36.5344 267.258 36.0709 266.362 35.1438C265.477 34.2063 265.034 32.8938 265.034 31.2063C265.034 29.4563 265.482 28.1021 266.378 27.1438C267.274 26.175 268.44 25.6907 269.878 25.6907C271.263 25.6907 272.394 26.1646 273.269 27.1125C274.154 28.05 274.597 29.3782 274.597 31.0969C274.597 31.2011 274.591 31.3573 274.581 31.5657H266.847C266.909 32.7011 267.232 33.5709 267.815 34.175C268.399 34.7792 269.123 35.0813 269.987 35.0813C270.633 35.0813 271.18 34.9146 271.628 34.5813C272.086 34.2375 272.451 33.6959 272.722 32.9563ZM266.94 30.1125H272.737C272.664 29.248 272.446 28.5969 272.081 28.1594C271.519 27.4823 270.789 27.1438 269.894 27.1438C269.091 27.1438 268.414 27.4146 267.862 27.9563C267.31 28.4875 267.003 29.2063 266.94 30.1125ZM276.597 36.3V25.925H278.175V27.5032C278.581 26.7636 278.956 26.2792 279.3 26.05C279.644 25.8105 280.019 25.6907 280.425 25.6907C281.019 25.6907 281.623 25.8782 282.237 26.2532L281.628 27.8938C281.201 27.6334 280.774 27.5032 280.347 27.5032C279.961 27.5032 279.612 27.623 279.3 27.8625C278.998 28.0917 278.779 28.4094 278.644 28.8157C278.456 29.4407 278.362 30.123 278.362 30.8625V36.3H276.597ZM289.628 24.0032V21.9875H291.394V24.0032H289.628ZM289.628 36.3V25.925H291.394V36.3H289.628ZM292.909 33.2063L294.659 32.925C294.753 33.623 295.024 34.1594 295.472 34.5344C295.92 34.899 296.545 35.0813 297.347 35.0813C298.149 35.0813 298.743 34.9198 299.128 34.5969C299.524 34.2636 299.722 33.8782 299.722 33.4407C299.722 33.0448 299.55 32.7323 299.206 32.5032C298.966 32.3469 298.368 32.149 297.409 31.9094C296.118 31.5761 295.222 31.2948 294.722 31.0657C294.232 30.8261 293.857 30.498 293.597 30.0813C293.336 29.6542 293.206 29.1855 293.206 28.675C293.206 28.2167 293.31 27.7896 293.519 27.3938C293.737 26.998 294.029 26.6698 294.394 26.4094C294.664 26.2115 295.034 26.0448 295.503 25.9094C295.982 25.7636 296.493 25.6907 297.034 25.6907C297.847 25.6907 298.56 25.8105 299.175 26.05C299.789 26.2792 300.243 26.5969 300.534 27.0032C300.826 27.399 301.029 27.9303 301.144 28.5969L299.425 28.8313C299.341 28.3 299.112 27.8886 298.737 27.5969C298.362 27.2948 297.836 27.1438 297.159 27.1438C296.347 27.1438 295.769 27.2792 295.425 27.55C295.081 27.8105 294.909 28.1178 294.909 28.4719C294.909 28.7011 294.982 28.9094 295.128 29.0969C295.263 29.2844 295.487 29.4407 295.8 29.5657C295.977 29.6282 296.493 29.774 297.347 30.0032C298.597 30.3365 299.466 30.6125 299.956 30.8313C300.446 31.0396 300.831 31.3469 301.112 31.7532C301.394 32.149 301.534 32.649 301.534 33.2532C301.534 33.8365 301.362 34.3886 301.019 34.9094C300.675 35.4303 300.18 35.8313 299.534 36.1125C298.888 36.3938 298.159 36.5344 297.347 36.5344C296.003 36.5344 294.977 36.2532 294.269 35.6907C293.56 35.1282 293.107 34.3 292.909 33.2063ZM311.237 36.3H309.612V21.9875H311.362V27.0969C312.112 26.1594 313.06 25.6907 314.206 25.6907C314.841 25.6907 315.446 25.8209 316.019 26.0813C316.591 26.3417 317.06 26.7063 317.425 27.175C317.789 27.6334 318.076 28.1907 318.284 28.8469C318.493 29.5032 318.597 30.2063 318.597 30.9563C318.597 32.7375 318.159 34.1125 317.284 35.0813C316.409 36.05 315.357 36.5344 314.128 36.5344C312.899 36.5344 311.935 36.024 311.237 35.0032V36.3ZM311.222 31.0344C311.222 32.274 311.388 33.175 311.722 33.7375C312.284 34.6334 313.034 35.0813 313.972 35.0813C314.743 35.0813 315.404 34.748 315.956 34.0813C316.519 33.4146 316.8 32.4198 316.8 31.0969C316.8 29.7428 316.529 28.748 315.987 28.1125C315.456 27.4667 314.81 27.1438 314.05 27.1438C313.279 27.1438 312.612 27.4771 312.05 28.1438C311.498 28.8105 311.222 29.774 311.222 31.0344ZM327.722 32.9563L329.534 33.1907C329.253 34.2428 328.722 35.0657 327.94 35.6594C327.17 36.2428 326.18 36.5344 324.972 36.5344C323.461 36.5344 322.258 36.0709 321.362 35.1438C320.477 34.2063 320.034 32.8938 320.034 31.2063C320.034 29.4563 320.482 28.1021 321.378 27.1438C322.274 26.175 323.44 25.6907 324.878 25.6907C326.263 25.6907 327.394 26.1646 328.269 27.1125C329.154 28.05 329.597 29.3782 329.597 31.0969C329.597 31.2011 329.591 31.3573 329.581 31.5657H321.847C321.909 32.7011 322.232 33.5709 322.815 34.175C323.399 34.7792 324.123 35.0813 324.987 35.0813C325.633 35.0813 326.18 34.9146 326.628 34.5813C327.086 34.2375 327.451 33.6959 327.722 32.9563ZM321.94 30.1125H327.737C327.664 29.248 327.446 28.5969 327.081 28.1594C326.519 27.4823 325.789 27.1438 324.894 27.1438C324.091 27.1438 323.414 27.4146 322.862 27.9563C322.31 28.4875 322.003 29.2063 321.94 30.1125ZM335.456 34.7219L335.706 36.2844C335.216 36.3886 334.774 36.4407 334.378 36.4407C333.743 36.4407 333.248 36.3417 332.894 36.1438C332.55 35.9355 332.305 35.6698 332.159 35.3469C332.013 35.0136 331.94 34.3209 331.94 33.2688V27.3H330.659V25.925H331.94V23.3625L333.69 22.3V25.925H335.456V27.3H333.69V33.3625C333.69 33.8625 333.722 34.1855 333.784 34.3313C333.847 34.4667 333.946 34.5813 334.081 34.675C334.227 34.7584 334.43 34.8 334.69 34.8C334.878 34.8 335.133 34.774 335.456 34.7219ZM341.456 34.7219L341.706 36.2844C341.216 36.3886 340.774 36.4407 340.378 36.4407C339.743 36.4407 339.248 36.3417 338.894 36.1438C338.55 35.9355 338.305 35.6698 338.159 35.3469C338.013 35.0136 337.94 34.3209 337.94 33.2688V27.3H336.659V25.925H337.94V23.3625L339.69 22.3V25.925H341.456V27.3H339.69V33.3625C339.69 33.8625 339.722 34.1855 339.784 34.3313C339.847 34.4667 339.946 34.5813 340.081 34.675C340.227 34.7584 340.43 34.8 340.69 34.8C340.878 34.8 341.133 34.774 341.456 34.7219ZM350.722 32.9563L352.534 33.1907C352.253 34.2428 351.722 35.0657 350.94 35.6594C350.17 36.2428 349.18 36.5344 347.972 36.5344C346.461 36.5344 345.258 36.0709 344.362 35.1438C343.477 34.2063 343.034 32.8938 343.034 31.2063C343.034 29.4563 343.482 28.1021 344.378 27.1438C345.274 26.175 346.44 25.6907 347.878 25.6907C349.263 25.6907 350.394 26.1646 351.269 27.1125C352.154 28.05 352.597 29.3782 352.597 31.0969C352.597 31.2011 352.591 31.3573 352.581 31.5657H344.847C344.909 32.7011 345.232 33.5709 345.815 34.175C346.399 34.7792 347.123 35.0813 347.987 35.0813C348.633 35.0813 349.18 34.9146 349.628 34.5813C350.086 34.2375 350.451 33.6959 350.722 32.9563ZM344.94 30.1125H350.737C350.664 29.248 350.446 28.5969 350.081 28.1594C349.519 27.4823 348.789 27.1438 347.894 27.1438C347.091 27.1438 346.414 27.4146 345.862 27.9563C345.31 28.4875 345.003 29.2063 344.94 30.1125ZM354.597 36.3V25.925H356.175V27.5032C356.581 26.7636 356.956 26.2792 357.3 26.05C357.644 25.8105 358.019 25.6907 358.425 25.6907C359.019 25.6907 359.623 25.8782 360.237 26.2532L359.628 27.8938C359.201 27.6334 358.774 27.5032 358.347 27.5032C357.961 27.5032 357.612 27.623 357.3 27.8625C356.998 28.0917 356.779 28.4094 356.644 28.8157C356.456 29.4407 356.362 30.123 356.362 30.8625V36.3H354.597ZM362.769 40.5032H361.519C363.456 37.3782 364.425 34.2532 364.425 31.1282C364.425 29.899 364.289 28.6855 364.019 27.4875C363.789 26.5084 363.477 25.5709 363.081 24.675C362.831 24.0813 362.31 23.1021 361.519 21.7375H362.769C363.998 23.373 364.904 25.0136 365.487 26.6594C365.987 28.0761 366.237 29.5605 366.237 31.1125C366.237 32.873 365.899 34.5761 365.222 36.2219C364.555 37.8573 363.737 39.2844 362.769 40.5032Z" fill="#F3F3F3"/>
</g>
<defs>
<clipPath id="clip0_436_2">
<rect width="554" height="346" fill="white"/>
</clipPath>
</defs>
</svg>
