<svg version="1.1" viewBox="0.0 0.0 554.0 346.0" fill="none" stroke="none" stroke-linecap="square" stroke-miterlimit="10" width="554" height="346"
  xmlns:xlink="http://www.w3.org/1999/xlink"
  xmlns="http://www.w3.org/2000/svg">
  <path fill="transparent" d="M0 0L554.0 0L554.0 346.0L0 346.0L0 0Z" fill-rule="nonzero"/>
  <path stroke="#ffffff" stroke-width="1.0" stroke-linecap="butt" d="M68.5 321.5L536.5 321.5" fill-rule="nonzero"/>
  <path stroke="#767676" stroke-width="1.0" stroke-linecap="butt" d="M68.5 242.5L536.5 242.5" fill-rule="nonzero"/>
  <path stroke="#767676" stroke-width="1.0" stroke-linecap="butt" d="M68.5 164.5L536.5 164.5" fill-rule="nonzero"/>
  <path stroke="#767676" stroke-width="1.0" stroke-linecap="butt" d="M68.5 85.5L536.5 85.5" fill-rule="nonzero"/>
  <clipPath id="id_0">
    <path d="M68.3 85.36667L536.7 85.36667L536.7 321.7L68.3 321.7L68.3 85.36667Z" clip-rule="nonzero"/>
  </clipPath>
  <path stroke="#000000" stroke-width="2.0" stroke-linecap="butt" stroke-opacity="0.0" clip-path="url(#id_0)" d="M265.0 322.0L192.0 322.0L192.0 124.0C192.0 122.89543 192.89543 122.0 194.0 122.0L263.0 122.0C264.10458 122.0 265.0 122.89543 265.0 124.0Z" fill-rule="nonzero"/>
  <path fill="#ff9900" clip-path="url(#id_0)" d="M265.0 322.0L192.0 322.0L192.0 124.0C192.0 122.89543 192.89543 122.0 194.0 122.0L263.0 122.0C264.10458 122.0 265.0 122.89543 265.0 124.0Z" fill-rule="nonzero"/>
  <path stroke="#000000" stroke-width="2.0" stroke-linecap="butt" stroke-opacity="0.0" clip-path="url(#id_0)" d="M340.0 322.0L267.0 322.0L267.0 305.0C267.0 303.89542 267.89542 303.0 269.0 303.0L338.0 303.0C339.10458 303.0 340.0 303.89542 340.0 305.0Z" fill-rule="nonzero"/>
  <path fill="#6d9eeb" clip-path="url(#id_0)" d="M340.0 322.0L267.0 322.0L267.0 305.0C267.0 303.89542 267.89542 303.0 269.0 303.0L338.0 303.0C339.10458 303.0 340.0 303.89542 340.0 305.0Z" fill-rule="nonzero"/>
  <path stroke="#000000" stroke-width="2.0" stroke-linecap="butt" stroke-opacity="0.0" clip-path="url(#id_0)" d="M415.0 322.0L342.0 322.0L342.0 307.0C342.0 305.89542 342.89542 305.0 344.0 305.0L413.0 305.0C414.10458 305.0 415.0 305.89542 415.0 307.0Z" fill-rule="nonzero"/>
  <path fill="#cc0000" clip-path="url(#id_0)" d="M415.0 322.0L342.0 322.0L342.0 307.0C342.0 305.89542 342.89542 305.0 344.0 305.0L413.0 305.0C414.10458 305.0 415.0 305.89542 415.0 307.0Z" fill-rule="nonzero"/>
  <path stroke="#ff9900" stroke-width="3.0" stroke-linejoin="round" stroke-linecap="round" d="M212.29688 138.85979L206.70312 138.85979L206.70312 138.07854L209.65625 134.79729Q210.3125 134.04729 210.5625 133.59416Q210.8125 133.12541 210.8125 132.62541Q210.8125 131.95354 210.40625 131.53166Q210.01562 131.09416 209.32812 131.09416Q208.53125 131.09416 208.07812 131.56291Q207.625 132.01604 207.625 132.84416L206.54688 132.84416Q206.54688 131.65666 207.29688 130.93791Q208.0625 130.20354 209.32812 130.20354Q210.53125 130.20354 211.21875 130.82854Q211.90625 131.45354 211.90625 132.50041Q211.90625 133.75041 210.29688 135.50041L208.01562 137.96916L212.29688 137.96916L212.29688 138.85979ZM214.20312 134.57854L214.64062 130.32854L219.01562 130.32854L219.01562 131.32854L215.5625 131.32854L215.29688 133.65666Q215.9375 133.28166 216.73438 133.28166Q217.89062 133.28166 218.57812 134.06291Q219.26562 134.82854 219.26562 136.14104Q219.26562 137.45354 218.54688 138.21916Q217.84375 138.98479 216.5625 138.98479Q215.4375 138.98479 214.71875 138.35979Q214.0 137.71916 213.90625 136.60979L214.92188 136.60979Q215.03125 137.34416 215.45312 137.71916Q215.875 138.09416 216.5625 138.09416Q217.3125 138.09416 217.75 137.57854Q218.1875 137.06291 218.1875 136.15666Q218.1875 135.29729 217.71875 134.78166Q217.25 134.26604 216.46875 134.26604Q215.76562 134.26604 215.35938 134.56291L215.07812 134.79729L214.20312 134.57854ZM222.28125 134.06291L223.09375 134.06291Q223.875 134.04729 224.3125 133.65666Q224.75 133.26604 224.75 132.59416Q224.75 131.09416 223.25 131.09416Q222.54688 131.09416 222.125 131.50041Q221.71875 131.90666 221.71875 132.56291L220.625 132.56291Q220.625 131.54729 221.35938 130.87541Q222.10938 130.20354 223.25 130.20354Q224.45312 130.20354 225.14062 130.84416Q225.82812 131.48479 225.82812 132.62541Q225.82812 133.18791 225.46875 133.70354Q225.10938 134.21916 224.48438 134.48479Q225.1875 134.70354 225.5625 135.21916Q225.95312 135.73479 225.95312 136.48479Q225.95312 137.62541 225.20312 138.31291Q224.45312 138.98479 223.25 138.98479Q222.0625 138.98479 221.29688 138.32854Q220.54688 137.67229 220.54688 136.60979L221.64062 136.60979Q221.64062 137.28166 222.07812 137.68791Q222.51562 138.09416 223.26562 138.09416Q224.04688 138.09416 224.45312 137.68791Q224.875 137.26604 224.875 136.50041Q224.875 135.76604 224.42188 135.37541Q223.96875 134.96916 223.09375 134.95354L222.28125 134.95354L222.28125 134.06291ZM227.78125 140.56291L227.17188 140.14104Q227.71875 139.37541 227.75 138.54729L227.75 137.57854L228.8125 137.57854L228.8125 138.42229Q228.8125 139.01604 228.51562 139.60979Q228.21875 140.20354 227.78125 140.56291ZM234.28125 136.00041L235.46875 136.00041L235.46875 136.87541L234.28125 136.87541L234.28125 138.85979L233.20312 138.85979L233.20312 136.87541L229.3125 136.87541L229.3125 136.23479L233.125 130.32854L234.28125 130.32854L234.28125 136.00041ZM230.54688 136.00041L233.20312 136.00041L233.20312 131.81291L233.0625 132.04729L230.54688 136.00041ZM242.29688 138.85979L236.70312 138.85979L236.70312 138.07854L239.65625 134.79729Q240.3125 134.04729 240.5625 133.59416Q240.8125 133.12541 240.8125 132.62541Q240.8125 131.95354 240.40625 131.53166Q240.01562 131.09416 239.32812 131.09416Q238.53125 131.09416 238.07812 131.56291Q237.625 132.01604 237.625 132.84416L236.54688 132.84416Q236.54688 131.65666 237.29688 130.93791Q238.0625 130.20354 239.32812 130.20354Q240.53125 130.20354 241.21875 130.82854Q241.90625 131.45354 241.90625 132.50041Q241.90625 133.75041 240.29688 135.50041L238.01562 137.96916L242.29688 137.96916L242.29688 138.85979ZM249.29688 138.85979L243.70312 138.85979L243.70312 138.07854L246.65625 134.79729Q247.3125 134.04729 247.5625 133.59416Q247.8125 133.12541 247.8125 132.62541Q247.8125 131.95354 247.40625 131.53166Q247.01562 131.09416 246.32812 131.09416Q245.53125 131.09416 245.07812 131.56291Q244.625 132.01604 244.625 132.84416L243.54688 132.84416Q243.54688 131.65666 244.29688 130.93791Q245.0625 130.20354 246.32812 130.20354Q247.53125 130.20354 248.21875 130.82854Q248.90625 131.45354 248.90625 132.50041Q248.90625 133.75041 247.29688 135.50041L245.01562 137.96916L249.29688 137.96916L249.29688 138.85979Z" fill-rule="nonzero"/>
  <path fill="#000000" d="M212.29688 138.85979L206.70312 138.85979L206.70312 138.07854L209.65625 134.79729Q210.3125 134.04729 210.5625 133.59416Q210.8125 133.12541 210.8125 132.62541Q210.8125 131.95354 210.40625 131.53166Q210.01562 131.09416 209.32812 131.09416Q208.53125 131.09416 208.07812 131.56291Q207.625 132.01604 207.625 132.84416L206.54688 132.84416Q206.54688 131.65666 207.29688 130.93791Q208.0625 130.20354 209.32812 130.20354Q210.53125 130.20354 211.21875 130.82854Q211.90625 131.45354 211.90625 132.50041Q211.90625 133.75041 210.29688 135.50041L208.01562 137.96916L212.29688 137.96916L212.29688 138.85979ZM214.20312 134.57854L214.64062 130.32854L219.01562 130.32854L219.01562 131.32854L215.5625 131.32854L215.29688 133.65666Q215.9375 133.28166 216.73438 133.28166Q217.89062 133.28166 218.57812 134.06291Q219.26562 134.82854 219.26562 136.14104Q219.26562 137.45354 218.54688 138.21916Q217.84375 138.98479 216.5625 138.98479Q215.4375 138.98479 214.71875 138.35979Q214.0 137.71916 213.90625 136.60979L214.92188 136.60979Q215.03125 137.34416 215.45312 137.71916Q215.875 138.09416 216.5625 138.09416Q217.3125 138.09416 217.75 137.57854Q218.1875 137.06291 218.1875 136.15666Q218.1875 135.29729 217.71875 134.78166Q217.25 134.26604 216.46875 134.26604Q215.76562 134.26604 215.35938 134.56291L215.07812 134.79729L214.20312 134.57854ZM222.28125 134.06291L223.09375 134.06291Q223.875 134.04729 224.3125 133.65666Q224.75 133.26604 224.75 132.59416Q224.75 131.09416 223.25 131.09416Q222.54688 131.09416 222.125 131.50041Q221.71875 131.90666 221.71875 132.56291L220.625 132.56291Q220.625 131.54729 221.35938 130.87541Q222.10938 130.20354 223.25 130.20354Q224.45312 130.20354 225.14062 130.84416Q225.82812 131.48479 225.82812 132.62541Q225.82812 133.18791 225.46875 133.70354Q225.10938 134.21916 224.48438 134.48479Q225.1875 134.70354 225.5625 135.21916Q225.95312 135.73479 225.95312 136.48479Q225.95312 137.62541 225.20312 138.31291Q224.45312 138.98479 223.25 138.98479Q222.0625 138.98479 221.29688 138.32854Q220.54688 137.67229 220.54688 136.60979L221.64062 136.60979Q221.64062 137.28166 222.07812 137.68791Q222.51562 138.09416 223.26562 138.09416Q224.04688 138.09416 224.45312 137.68791Q224.875 137.26604 224.875 136.50041Q224.875 135.76604 224.42188 135.37541Q223.96875 134.96916 223.09375 134.95354L222.28125 134.95354L222.28125 134.06291ZM227.78125 140.56291L227.17188 140.14104Q227.71875 139.37541 227.75 138.54729L227.75 137.57854L228.8125 137.57854L228.8125 138.42229Q228.8125 139.01604 228.51562 139.60979Q228.21875 140.20354 227.78125 140.56291ZM234.28125 136.00041L235.46875 136.00041L235.46875 136.87541L234.28125 136.87541L234.28125 138.85979L233.20312 138.85979L233.20312 136.87541L229.3125 136.87541L229.3125 136.23479L233.125 130.32854L234.28125 130.32854L234.28125 136.00041ZM230.54688 136.00041L233.20312 136.00041L233.20312 131.81291L233.0625 132.04729L230.54688 136.00041ZM242.29688 138.85979L236.70312 138.85979L236.70312 138.07854L239.65625 134.79729Q240.3125 134.04729 240.5625 133.59416Q240.8125 133.12541 240.8125 132.62541Q240.8125 131.95354 240.40625 131.53166Q240.01562 131.09416 239.32812 131.09416Q238.53125 131.09416 238.07812 131.56291Q237.625 132.01604 237.625 132.84416L236.54688 132.84416Q236.54688 131.65666 237.29688 130.93791Q238.0625 130.20354 239.32812 130.20354Q240.53125 130.20354 241.21875 130.82854Q241.90625 131.45354 241.90625 132.50041Q241.90625 133.75041 240.29688 135.50041L238.01562 137.96916L242.29688 137.96916L242.29688 138.85979ZM249.29688 138.85979L243.70312 138.85979L243.70312 138.07854L246.65625 134.79729Q247.3125 134.04729 247.5625 133.59416Q247.8125 133.12541 247.8125 132.62541Q247.8125 131.95354 247.40625 131.53166Q247.01562 131.09416 246.32812 131.09416Q245.53125 131.09416 245.07812 131.56291Q244.625 132.01604 244.625 132.84416L243.54688 132.84416Q243.54688 131.65666 244.29688 130.93791Q245.0625 130.20354 246.32812 130.20354Q247.53125 130.20354 248.21875 130.82854Q248.90625 131.45354 248.90625 132.50041Q248.90625 133.75041 247.29688 135.50041L245.01562 137.96916L249.29688 137.96916L249.29688 138.85979Z" fill-rule="nonzero"/>
  <path stroke="#6d9eeb" stroke-width="3.0" stroke-linejoin="round" stroke-linecap="round" d="M290.79688 316.94754L285.20312 316.94754L285.20312 316.1663L288.15625 312.88504Q288.8125 312.13504 289.0625 311.68192Q289.3125 311.21317 289.3125 310.71317Q289.3125 310.0413 288.90625 309.61942Q288.51562 309.18192 287.82812 309.18192Q287.03125 309.18192 286.57812 309.65067Q286.125 310.1038 286.125 310.93192L285.04688 310.93192Q285.04688 309.74442 285.79688 309.02567Q286.5625 308.2913 287.82812 308.2913Q289.03125 308.2913 289.71875 308.9163Q290.40625 309.5413 290.40625 310.58817Q290.40625 311.83817 288.79688 313.58817L286.51562 316.05692L290.79688 316.05692L290.79688 316.94754ZM293.78125 312.15067L294.59375 312.15067Q295.375 312.13504 295.8125 311.74442Q296.25 311.3538 296.25 310.68192Q296.25 309.18192 294.75 309.18192Q294.04688 309.18192 293.625 309.58817Q293.21875 309.99442 293.21875 310.65067L292.125 310.65067Q292.125 309.63504 292.85938 308.96317Q293.60938 308.2913 294.75 308.2913Q295.95312 308.2913 296.64062 308.93192Q297.32812 309.57254 297.32812 310.71317Q297.32812 311.27567 296.96875 311.7913Q296.60938 312.30692 295.98438 312.57254Q296.6875 312.7913 297.0625 313.30692Q297.45312 313.82254 297.45312 314.57254Q297.45312 315.71317 296.70312 316.40067Q295.95312 317.07254 294.75 317.07254Q293.5625 317.07254 292.79688 316.4163Q292.04688 315.76004 292.04688 314.69754L293.14062 314.69754Q293.14062 315.36942 293.57812 315.77567Q294.01562 316.18192 294.76562 316.18192Q295.54688 316.18192 295.95312 315.77567Q296.375 315.3538 296.375 314.58817Q296.375 313.8538 295.92188 313.46317Q295.46875 313.05692 294.59375 313.0413L293.78125 313.0413L293.78125 312.15067ZM299.28125 318.65067L298.67188 318.2288Q299.21875 317.46317 299.25 316.63504L299.25 315.6663L300.3125 315.6663L300.3125 316.51004Q300.3125 317.1038 300.01562 317.69754Q299.71875 318.2913 299.28125 318.65067ZM305.78125 314.08817L306.96875 314.08817L306.96875 314.96317L305.78125 314.96317L305.78125 316.94754L304.70312 316.94754L304.70312 314.96317L300.8125 314.96317L300.8125 314.32254L304.625 308.4163L305.78125 308.4163L305.78125 314.08817ZM302.04688 314.08817L304.70312 314.08817L304.70312 309.90067L304.5625 310.13504L302.04688 314.08817ZM312.35938 313.19754Q312.03125 313.6038 311.54688 313.8538Q311.07812 314.08817 310.51562 314.08817Q309.78125 314.08817 309.23438 313.7288Q308.6875 313.36942 308.39062 312.71317Q308.09375 312.0413 308.09375 311.24442Q308.09375 310.40067 308.40625 309.71317Q308.73438 309.02567 309.32812 308.6663Q309.9375 308.2913 310.73438 308.2913Q312.0 308.2913 312.71875 309.24442Q313.45312 310.19754 313.45312 311.82254L313.45312 312.13504Q313.45312 314.63504 312.46875 315.77567Q311.48438 316.9163 309.5 316.94754L309.28125 316.94754L309.28125 316.0413L309.51562 316.0413Q310.85938 316.01004 311.57812 315.33817Q312.29688 314.6663 312.35938 313.19754ZM310.6875 313.19754Q311.23438 313.19754 311.6875 312.86942Q312.15625 312.52567 312.375 312.0413L312.375 311.6038Q312.375 310.5413 311.90625 309.86942Q311.4375 309.19754 310.73438 309.19754Q310.01562 309.19754 309.57812 309.74442Q309.15625 310.2913 309.15625 311.19754Q309.15625 312.07254 309.5625 312.63504Q309.98438 313.19754 310.6875 313.19754ZM320.5625 313.30692Q320.5625 315.21317 319.90625 316.15067Q319.26562 317.07254 317.875 317.07254Q316.51562 317.07254 315.85938 316.1663Q315.20312 315.26004 315.17188 313.44754L315.17188 312.01004Q315.17188 310.11942 315.8125 309.21317Q316.46875 308.2913 317.85938 308.2913Q319.23438 308.2913 319.89062 309.18192Q320.54688 310.05692 320.5625 311.90067L320.5625 313.30692ZM319.46875 311.82254Q319.46875 310.44754 319.07812 309.82254Q318.70312 309.18192 317.85938 309.18192Q317.03125 309.18192 316.64062 309.82254Q316.26562 310.44754 316.26562 311.74442L316.26562 313.4788Q316.26562 314.8538 316.65625 315.52567Q317.0625 316.18192 317.875 316.18192Q318.67188 316.18192 319.0625 315.55692Q319.45312 314.93192 319.46875 313.6038L319.46875 311.82254Z" fill-rule="nonzero"/>
  <path fill="#000000" d="M290.79688 316.94754L285.20312 316.94754L285.20312 316.1663L288.15625 312.88504Q288.8125 312.13504 289.0625 311.68192Q289.3125 311.21317 289.3125 310.71317Q289.3125 310.0413 288.90625 309.61942Q288.51562 309.18192 287.82812 309.18192Q287.03125 309.18192 286.57812 309.65067Q286.125 310.1038 286.125 310.93192L285.04688 310.93192Q285.04688 309.74442 285.79688 309.02567Q286.5625 308.2913 287.82812 308.2913Q289.03125 308.2913 289.71875 308.9163Q290.40625 309.5413 290.40625 310.58817Q290.40625 311.83817 288.79688 313.58817L286.51562 316.05692L290.79688 316.05692L290.79688 316.94754ZM293.78125 312.15067L294.59375 312.15067Q295.375 312.13504 295.8125 311.74442Q296.25 311.3538 296.25 310.68192Q296.25 309.18192 294.75 309.18192Q294.04688 309.18192 293.625 309.58817Q293.21875 309.99442 293.21875 310.65067L292.125 310.65067Q292.125 309.63504 292.85938 308.96317Q293.60938 308.2913 294.75 308.2913Q295.95312 308.2913 296.64062 308.93192Q297.32812 309.57254 297.32812 310.71317Q297.32812 311.27567 296.96875 311.7913Q296.60938 312.30692 295.98438 312.57254Q296.6875 312.7913 297.0625 313.30692Q297.45312 313.82254 297.45312 314.57254Q297.45312 315.71317 296.70312 316.40067Q295.95312 317.07254 294.75 317.07254Q293.5625 317.07254 292.79688 316.4163Q292.04688 315.76004 292.04688 314.69754L293.14062 314.69754Q293.14062 315.36942 293.57812 315.77567Q294.01562 316.18192 294.76562 316.18192Q295.54688 316.18192 295.95312 315.77567Q296.375 315.3538 296.375 314.58817Q296.375 313.8538 295.92188 313.46317Q295.46875 313.05692 294.59375 313.0413L293.78125 313.0413L293.78125 312.15067ZM299.28125 318.65067L298.67188 318.2288Q299.21875 317.46317 299.25 316.63504L299.25 315.6663L300.3125 315.6663L300.3125 316.51004Q300.3125 317.1038 300.01562 317.69754Q299.71875 318.2913 299.28125 318.65067ZM305.78125 314.08817L306.96875 314.08817L306.96875 314.96317L305.78125 314.96317L305.78125 316.94754L304.70312 316.94754L304.70312 314.96317L300.8125 314.96317L300.8125 314.32254L304.625 308.4163L305.78125 308.4163L305.78125 314.08817ZM302.04688 314.08817L304.70312 314.08817L304.70312 309.90067L304.5625 310.13504L302.04688 314.08817ZM312.35938 313.19754Q312.03125 313.6038 311.54688 313.8538Q311.07812 314.08817 310.51562 314.08817Q309.78125 314.08817 309.23438 313.7288Q308.6875 313.36942 308.39062 312.71317Q308.09375 312.0413 308.09375 311.24442Q308.09375 310.40067 308.40625 309.71317Q308.73438 309.02567 309.32812 308.6663Q309.9375 308.2913 310.73438 308.2913Q312.0 308.2913 312.71875 309.24442Q313.45312 310.19754 313.45312 311.82254L313.45312 312.13504Q313.45312 314.63504 312.46875 315.77567Q311.48438 316.9163 309.5 316.94754L309.28125 316.94754L309.28125 316.0413L309.51562 316.0413Q310.85938 316.01004 311.57812 315.33817Q312.29688 314.6663 312.35938 313.19754ZM310.6875 313.19754Q311.23438 313.19754 311.6875 312.86942Q312.15625 312.52567 312.375 312.0413L312.375 311.6038Q312.375 310.5413 311.90625 309.86942Q311.4375 309.19754 310.73438 309.19754Q310.01562 309.19754 309.57812 309.74442Q309.15625 310.2913 309.15625 311.19754Q309.15625 312.07254 309.5625 312.63504Q309.98438 313.19754 310.6875 313.19754ZM320.5625 313.30692Q320.5625 315.21317 319.90625 316.15067Q319.26562 317.07254 317.875 317.07254Q316.51562 317.07254 315.85938 316.1663Q315.20312 315.26004 315.17188 313.44754L315.17188 312.01004Q315.17188 310.11942 315.8125 309.21317Q316.46875 308.2913 317.85938 308.2913Q319.23438 308.2913 319.89062 309.18192Q320.54688 310.05692 320.5625 311.90067L320.5625 313.30692ZM319.46875 311.82254Q319.46875 310.44754 319.07812 309.82254Q318.70312 309.18192 317.85938 309.18192Q317.03125 309.18192 316.64062 309.82254Q316.26562 310.44754 316.26562 311.74442L316.26562 313.4788Q316.26562 314.8538 316.65625 315.52567Q317.0625 316.18192 317.875 316.18192Q318.67188 316.18192 319.0625 315.55692Q319.45312 314.93192 319.46875 313.6038L319.46875 311.82254Z" fill-rule="nonzero"/>
  <path fill="#cc0000" d="M365.79688 290.3536L360.20312 290.3536L360.20312 289.57236L363.15625 286.2911Q363.8125 285.5411 364.0625 285.08798Q364.3125 284.61923 364.3125 284.11923Q364.3125 283.44736 363.90625 283.02548Q363.51562 282.58798 362.82812 282.58798Q362.03125 282.58798 361.57812 283.05673Q361.125 283.50986 361.125 284.33798L360.04688 284.33798Q360.04688 283.15048 360.79688 282.43173Q361.5625 281.69736 362.82812 281.69736Q364.03125 281.69736 364.71875 282.32236Q365.40625 282.94736 365.40625 283.99423Q365.40625 285.24423 363.79688 286.99423L361.51562 289.46298L365.79688 289.46298L365.79688 290.3536ZM372.5625 286.71298Q372.5625 288.61923 371.90625 289.55673Q371.26562 290.4786 369.875 290.4786Q368.51562 290.4786 367.85938 289.57236Q367.20312 288.6661 367.17188 286.8536L367.17188 285.4161Q367.17188 283.52548 367.8125 282.61923Q368.46875 281.69736 369.85938 281.69736Q371.23438 281.69736 371.89062 282.58798Q372.54688 283.46298 372.5625 285.30673L372.5625 286.71298ZM371.46875 285.2286Q371.46875 283.8536 371.07812 283.2286Q370.70312 282.58798 369.85938 282.58798Q369.03125 282.58798 368.64062 283.2286Q368.26562 283.8536 368.26562 285.15048L368.26562 286.88486Q368.26562 288.25986 368.65625 288.93173Q369.0625 289.58798 369.875 289.58798Q370.67188 289.58798 371.0625 288.96298Q371.45312 288.33798 371.46875 287.00986L371.46875 285.2286ZM374.28125 292.05673L373.67188 291.63486Q374.21875 290.86923 374.25 290.0411L374.25 289.07236L375.3125 289.07236L375.3125 289.9161Q375.3125 290.50986 375.01562 291.1036Q374.71875 291.69736 374.28125 292.05673ZM381.71875 282.43173L378.1875 290.3536L377.04688 290.3536L380.5625 282.71298L375.95312 282.71298L375.95312 281.82236L381.71875 281.82236L381.71875 282.43173ZM383.70312 286.07236L384.14062 281.82236L388.51562 281.82236L388.51562 282.82236L385.0625 282.82236L384.79688 285.15048Q385.4375 284.77548 386.23438 284.77548Q387.39062 284.77548 388.07812 285.55673Q388.76562 286.32236 388.76562 287.63486Q388.76562 288.94736 388.04688 289.71298Q387.34375 290.4786 386.0625 290.4786Q384.9375 290.4786 384.21875 289.8536Q383.5 289.21298 383.40625 288.1036L384.42188 288.1036Q384.53125 288.83798 384.95312 289.21298Q385.375 289.58798 386.0625 289.58798Q386.8125 289.58798 387.25 289.07236Q387.6875 288.55673 387.6875 287.65048Q387.6875 286.7911 387.21875 286.27548Q386.75 285.75986 385.96875 285.75986Q385.26562 285.75986 384.85938 286.05673L384.57812 286.2911L383.70312 286.07236ZM395.5625 286.71298Q395.5625 288.61923 394.90625 289.55673Q394.26562 290.4786 392.875 290.4786Q391.51562 290.4786 390.85938 289.57236Q390.20312 288.6661 390.17188 286.8536L390.17188 285.4161Q390.17188 283.52548 390.8125 282.61923Q391.46875 281.69736 392.85938 281.69736Q394.23438 281.69736 394.89062 282.58798Q395.54688 283.46298 395.5625 285.30673L395.5625 286.71298ZM394.46875 285.2286Q394.46875 283.8536 394.07812 283.2286Q393.70312 282.58798 392.85938 282.58798Q392.03125 282.58798 391.64062 283.2286Q391.26562 283.8536 391.26562 285.15048L391.26562 286.88486Q391.26562 288.25986 391.65625 288.93173Q392.0625 289.58798 392.875 289.58798Q393.67188 289.58798 394.0625 288.96298Q394.45312 288.33798 394.46875 287.00986L394.46875 285.2286Z" fill-rule="nonzero"/>
  <path fill="#f3f3f3" d="M55.8 321.46564Q55.8 319.9344 56.1125 319.0125Q56.425 318.075 57.034374 317.575Q57.659374 317.075 58.596874 317.075Q59.284374 317.075 59.8 317.35626Q60.33125 317.6375 60.675 318.16876Q61.01875 318.6844 61.20625 319.4344Q61.39375 320.1844 61.39375 321.46564Q61.39375 322.98126 61.08125 323.90314Q60.784374 324.825 60.159374 325.34064Q59.55 325.84064 58.596874 325.84064Q57.3625 325.84064 56.64375 324.95Q55.8 323.8875 55.8 321.46564ZM56.878124 321.46564Q56.878124 323.575 57.378124 324.27814Q57.878124 324.98126 58.596874 324.98126Q59.33125 324.98126 59.815624 324.27814Q60.315624 323.575 60.315624 321.46564Q60.315624 319.34064 59.815624 318.65314Q59.33125 317.95 58.58125 317.95Q57.8625 317.95 57.425 318.5594Q56.878124 319.34064 56.878124 321.46564Z" fill-rule="nonzero"/>
  <path fill="#f3f3f3" d="M21.76875 246.92223L20.721874 246.92223L20.721874 240.20348Q20.33125 240.56285 19.70625 240.93785Q19.096874 241.29723 18.6125 241.4691L18.6125 240.45348Q19.4875 240.0316 20.14375 239.45348Q20.815624 238.85973 21.096874 238.29723L21.76875 238.29723L21.76875 246.92223ZM24.8 242.68785Q24.8 241.1566 25.1125 240.23473Q25.425 239.29723 26.034374 238.79723Q26.659374 238.29723 27.596874 238.29723Q28.284374 238.29723 28.8 238.57848Q29.33125 238.85973 29.675 239.39098Q30.01875 239.9066 30.20625 240.6566Q30.39375 241.4066 30.39375 242.68785Q30.39375 244.20348 30.08125 245.12535Q29.784374 246.04723 29.159374 246.56285Q28.55 247.06285 27.596874 247.06285Q26.3625 247.06285 25.64375 246.17223Q24.8 245.10973 24.8 242.68785ZM25.878124 242.68785Q25.878124 244.79723 26.378124 245.50035Q26.878124 246.20348 27.596874 246.20348Q28.33125 246.20348 28.815624 245.50035Q29.315624 244.79723 29.315624 242.68785Q29.315624 240.56285 28.815624 239.87535Q28.33125 239.17223 27.58125 239.17223Q26.8625 239.17223 26.425 239.7816Q25.878124 240.56285 25.878124 242.68785ZM31.8 242.68785Q31.8 241.1566 32.1125 240.23473Q32.425 239.29723 33.034374 238.79723Q33.659374 238.29723 34.596874 238.29723Q35.284374 238.29723 35.8 238.57848Q36.33125 238.85973 36.675 239.39098Q37.01875 239.9066 37.20625 240.6566Q37.39375 241.4066 37.39375 242.68785Q37.39375 244.20348 37.08125 245.12535Q36.784374 246.04723 36.159374 246.56285Q35.55 247.06285 34.596874 247.06285Q33.3625 247.06285 32.64375 246.17223Q31.8 245.10973 31.8 242.68785ZM32.878124 242.68785Q32.878124 244.79723 33.378124 245.50035Q33.878124 246.20348 34.596874 246.20348Q35.33125 246.20348 35.815624 245.50035Q36.315624 244.79723 36.315624 242.68785Q36.315624 240.56285 35.815624 239.87535Q35.33125 239.17223 34.58125 239.17223Q33.8625 239.17223 33.425 239.7816Q32.878124 240.56285 32.878124 242.68785ZM39.3625 246.92223L39.3625 245.7191L40.565624 245.7191L40.565624 246.92223Q40.565624 247.57848 40.33125 247.98473Q40.096874 248.4066 39.596874 248.62535L39.3 248.17223Q39.628124 248.0316 39.784374 247.73473Q39.940624 247.45348 39.971874 246.92223L39.3625 246.92223ZM41.8 242.68785Q41.8 241.1566 42.1125 240.23473Q42.425 239.29723 43.034374 238.79723Q43.659374 238.29723 44.596874 238.29723Q45.284374 238.29723 45.8 238.57848Q46.33125 238.85973 46.675 239.39098Q47.01875 239.9066 47.20625 240.6566Q47.39375 241.4066 47.39375 242.68785Q47.39375 244.20348 47.08125 245.12535Q46.784374 246.04723 46.159374 246.56285Q45.55 247.06285 44.596874 247.06285Q43.3625 247.06285 42.64375 246.17223Q41.8 245.10973 41.8 242.68785ZM42.878124 242.68785Q42.878124 244.79723 43.378124 245.50035Q43.878124 246.20348 44.596874 246.20348Q45.33125 246.20348 45.815624 245.50035Q46.315624 244.79723 46.315624 242.68785Q46.315624 240.56285 45.815624 239.87535Q45.33125 239.17223 44.58125 239.17223Q43.8625 239.17223 43.425 239.7816Q42.878124 240.56285 42.878124 242.68785ZM48.8 242.68785Q48.8 241.1566 49.1125 240.23473Q49.425 239.29723 50.034374 238.79723Q50.659374 238.29723 51.596874 238.29723Q52.284374 238.29723 52.8 238.57848Q53.33125 238.85973 53.675 239.39098Q54.01875 239.9066 54.20625 240.6566Q54.39375 241.4066 54.39375 242.68785Q54.39375 244.20348 54.08125 245.12535Q53.784374 246.04723 53.159374 246.56285Q52.55 247.06285 51.596874 247.06285Q50.3625 247.06285 49.64375 246.17223Q48.8 245.10973 48.8 242.68785ZM49.878124 242.68785Q49.878124 244.79723 50.378124 245.50035Q50.878124 246.20348 51.596874 246.20348Q52.33125 246.20348 52.815624 245.50035Q53.315624 244.79723 53.315624 242.68785Q53.315624 240.56285 52.815624 239.87535Q52.33125 239.17223 51.58125 239.17223Q50.8625 239.17223 50.425 239.7816Q49.878124 240.56285 49.878124 242.68785ZM55.8 242.68785Q55.8 241.1566 56.1125 240.23473Q56.425 239.29723 57.034374 238.79723Q57.659374 238.29723 58.596874 238.29723Q59.284374 238.29723 59.8 238.57848Q60.33125 238.85973 60.675 239.39098Q61.01875 239.9066 61.20625 240.6566Q61.39375 241.4066 61.39375 242.68785Q61.39375 244.20348 61.08125 245.12535Q60.784374 246.04723 60.159374 246.56285Q59.55 247.06285 58.596874 247.06285Q57.3625 247.06285 56.64375 246.17223Q55.8 245.10973 55.8 242.68785ZM56.878124 242.68785Q56.878124 244.79723 57.378124 245.50035Q57.878124 246.20348 58.596874 246.20348Q59.33125 246.20348 59.815624 245.50035Q60.315624 244.79723 60.315624 242.68785Q60.315624 240.56285 59.815624 239.87535Q59.33125 239.17223 58.58125 239.17223Q57.8625 239.17223 57.425 239.7816Q56.878124 240.56285 56.878124 242.68785Z" fill-rule="nonzero"/>
  <path fill="#f3f3f3" d="M23.346874 167.12881L23.346874 168.14444L17.659374 168.14444Q17.659374 167.76944 17.784374 167.41006Q18.003124 166.83194 18.471874 166.26944Q18.95625 165.70694 19.8625 164.97256Q21.26875 163.81631 21.753124 163.14444Q22.253124 162.47256 22.253124 161.87881Q22.253124 161.25381 21.8 160.83194Q21.346874 160.39444 20.628124 160.39444Q19.8625 160.39444 19.409374 160.84756Q18.95625 161.30069 18.940624 162.11319L17.8625 162.00381Q17.971874 160.78506 18.690624 160.16006Q19.425 159.51944 20.659374 159.51944Q21.89375 159.51944 22.6125 160.20694Q23.33125 160.89444 23.33125 161.91006Q23.33125 162.42569 23.1125 162.92569Q22.909374 163.41006 22.409374 163.97256Q21.925 164.51944 20.8 165.47256Q19.846874 166.26944 19.565624 166.56631Q19.3 166.84756 19.128124 167.12881L23.346874 167.12881ZM24.8 163.91006Q24.8 162.37881 25.1125 161.45694Q25.425 160.51944 26.034374 160.01944Q26.659374 159.51944 27.596874 159.51944Q28.284374 159.51944 28.8 159.80069Q29.33125 160.08194 29.675 160.61319Q30.01875 161.12881 30.20625 161.87881Q30.39375 162.62881 30.39375 163.91006Q30.39375 165.42569 30.08125 166.34756Q29.784374 167.26944 29.159374 167.78506Q28.55 168.28506 27.596874 168.28506Q26.3625 168.28506 25.64375 167.39444Q24.8 166.33194 24.8 163.91006ZM25.878124 163.91006Q25.878124 166.01944 26.378124 166.72256Q26.878124 167.42569 27.596874 167.42569Q28.33125 167.42569 28.815624 166.72256Q29.315624 166.01944 29.315624 163.91006Q29.315624 161.78506 28.815624 161.09756Q28.33125 160.39444 27.58125 160.39444Q26.8625 160.39444 26.425 161.00381Q25.878124 161.78506 25.878124 163.91006ZM31.8 163.91006Q31.8 162.37881 32.1125 161.45694Q32.425 160.51944 33.034374 160.01944Q33.659374 159.51944 34.596874 159.51944Q35.284374 159.51944 35.8 159.80069Q36.33125 160.08194 36.675 160.61319Q37.01875 161.12881 37.20625 161.87881Q37.39375 162.62881 37.39375 163.91006Q37.39375 165.42569 37.08125 166.34756Q36.784374 167.26944 36.159374 167.78506Q35.55 168.28506 34.596874 168.28506Q33.3625 168.28506 32.64375 167.39444Q31.8 166.33194 31.8 163.91006ZM32.878124 163.91006Q32.878124 166.01944 33.378124 166.72256Q33.878124 167.42569 34.596874 167.42569Q35.33125 167.42569 35.815624 166.72256Q36.315624 166.01944 36.315624 163.91006Q36.315624 161.78506 35.815624 161.09756Q35.33125 160.39444 34.58125 160.39444Q33.8625 160.39444 33.425 161.00381Q32.878124 161.78506 32.878124 163.91006ZM39.3625 168.14444L39.3625 166.94131L40.565624 166.94131L40.565624 168.14444Q40.565624 168.80069 40.33125 169.20694Q40.096874 169.62881 39.596874 169.84756L39.3 169.39444Q39.628124 169.25381 39.784374 168.95694Q39.940624 168.67569 39.971874 168.14444L39.3625 168.14444ZM41.8 163.91006Q41.8 162.37881 42.1125 161.45694Q42.425 160.51944 43.034374 160.01944Q43.659374 159.51944 44.596874 159.51944Q45.284374 159.51944 45.8 159.80069Q46.33125 160.08194 46.675 160.61319Q47.01875 161.12881 47.20625 161.87881Q47.39375 162.62881 47.39375 163.91006Q47.39375 165.42569 47.08125 166.34756Q46.784374 167.26944 46.159374 167.78506Q45.55 168.28506 44.596874 168.28506Q43.3625 168.28506 42.64375 167.39444Q41.8 166.33194 41.8 163.91006ZM42.878124 163.91006Q42.878124 166.01944 43.378124 166.72256Q43.878124 167.42569 44.596874 167.42569Q45.33125 167.42569 45.815624 166.72256Q46.315624 166.01944 46.315624 163.91006Q46.315624 161.78506 45.815624 161.09756Q45.33125 160.39444 44.58125 160.39444Q43.8625 160.39444 43.425 161.00381Q42.878124 161.78506 42.878124 163.91006ZM48.8 163.91006Q48.8 162.37881 49.1125 161.45694Q49.425 160.51944 50.034374 160.01944Q50.659374 159.51944 51.596874 159.51944Q52.284374 159.51944 52.8 159.80069Q53.33125 160.08194 53.675 160.61319Q54.01875 161.12881 54.20625 161.87881Q54.39375 162.62881 54.39375 163.91006Q54.39375 165.42569 54.08125 166.34756Q53.784374 167.26944 53.159374 167.78506Q52.55 168.28506 51.596874 168.28506Q50.3625 168.28506 49.64375 167.39444Q48.8 166.33194 48.8 163.91006ZM49.878124 163.91006Q49.878124 166.01944 50.378124 166.72256Q50.878124 167.42569 51.596874 167.42569Q52.33125 167.42569 52.815624 166.72256Q53.315624 166.01944 53.315624 163.91006Q53.315624 161.78506 52.815624 161.09756Q52.33125 160.39444 51.58125 160.39444Q50.8625 160.39444 50.425 161.00381Q49.878124 161.78506 49.878124 163.91006ZM55.8 163.91006Q55.8 162.37881 56.1125 161.45694Q56.425 160.51944 57.034374 160.01944Q57.659374 159.51944 58.596874 159.51944Q59.284374 159.51944 59.8 159.80069Q60.33125 160.08194 60.675 160.61319Q61.01875 161.12881 61.20625 161.87881Q61.39375 162.62881 61.39375 163.91006Q61.39375 165.42569 61.08125 166.34756Q60.784374 167.26944 60.159374 167.78506Q59.55 168.28506 58.596874 168.28506Q57.3625 168.28506 56.64375 167.39444Q55.8 166.33194 55.8 163.91006ZM56.878124 163.91006Q56.878124 166.01944 57.378124 166.72256Q57.878124 167.42569 58.596874 167.42569Q59.33125 167.42569 59.815624 166.72256Q60.315624 166.01944 60.315624 163.91006Q60.315624 161.78506 59.815624 161.09756Q59.33125 160.39444 58.58125 160.39444Q57.8625 160.39444 57.425 161.00381Q56.878124 161.78506 56.878124 163.91006Z" fill-rule="nonzero"/>
  <path fill="#f3f3f3" d="M17.8 87.10104L18.8625 86.96042Q19.034374 87.85104 19.471874 88.25729Q19.909374 88.64792 20.534374 88.64792Q21.284374 88.64792 21.8 88.13229Q22.315624 87.61667 22.315624 86.85104Q22.315624 86.13229 21.83125 85.66354Q21.3625 85.17917 20.628124 85.17917Q20.33125 85.17917 19.878124 85.30417L20.003124 84.36667Q20.1125 84.38229 20.175 84.38229Q20.846874 84.38229 21.378124 84.03854Q21.925 83.67917 21.925 82.94479Q21.925 82.36667 21.534374 81.99167Q21.14375 81.60104 20.51875 81.60104Q19.909374 81.60104 19.4875 81.99167Q19.08125 82.38229 18.971874 83.14792L17.909374 82.96042Q18.096874 81.91354 18.784374 81.33542Q19.471874 80.74167 20.4875 80.74167Q21.190624 80.74167 21.784374 81.05417Q22.378124 81.35104 22.690624 81.86667Q23.003124 82.38229 23.003124 82.97604Q23.003124 83.52292 22.70625 83.99167Q22.409374 84.44479 21.83125 84.71042Q22.58125 84.88229 23.003124 85.44479Q23.425 85.99167 23.425 86.83542Q23.425 87.96042 22.596874 88.74167Q21.784374 89.52292 20.534374 89.52292Q19.409374 89.52292 18.659374 88.85104Q17.909374 88.16354 17.8 87.10104ZM24.8 85.13229Q24.8 83.60104 25.1125 82.67917Q25.425 81.74167 26.034374 81.24167Q26.659374 80.74167 27.596874 80.74167Q28.284374 80.74167 28.8 81.02292Q29.33125 81.30417 29.675 81.83542Q30.01875 82.35104 30.20625 83.10104Q30.39375 83.85104 30.39375 85.13229Q30.39375 86.64792 30.08125 87.56979Q29.784374 88.49167 29.159374 89.00729Q28.55 89.50729 27.596874 89.50729Q26.3625 89.50729 25.64375 88.61667Q24.8 87.55417 24.8 85.13229ZM25.878124 85.13229Q25.878124 87.24167 26.378124 87.94479Q26.878124 88.64792 27.596874 88.64792Q28.33125 88.64792 28.815624 87.94479Q29.315624 87.24167 29.315624 85.13229Q29.315624 83.00729 28.815624 82.31979Q28.33125 81.61667 27.58125 81.61667Q26.8625 81.61667 26.425 82.22604Q25.878124 83.00729 25.878124 85.13229ZM31.8 85.13229Q31.8 83.60104 32.1125 82.67917Q32.425 81.74167 33.034374 81.24167Q33.659374 80.74167 34.596874 80.74167Q35.284374 80.74167 35.8 81.02292Q36.33125 81.30417 36.675 81.83542Q37.01875 82.35104 37.20625 83.10104Q37.39375 83.85104 37.39375 85.13229Q37.39375 86.64792 37.08125 87.56979Q36.784374 88.49167 36.159374 89.00729Q35.55 89.50729 34.596874 89.50729Q33.3625 89.50729 32.64375 88.61667Q31.8 87.55417 31.8 85.13229ZM32.878124 85.13229Q32.878124 87.24167 33.378124 87.94479Q33.878124 88.64792 34.596874 88.64792Q35.33125 88.64792 35.815624 87.94479Q36.315624 87.24167 36.315624 85.13229Q36.315624 83.00729 35.815624 82.31979Q35.33125 81.61667 34.58125 81.61667Q33.8625 81.61667 33.425 82.22604Q32.878124 83.00729 32.878124 85.13229ZM39.3625 89.36667L39.3625 88.16354L40.565624 88.16354L40.565624 89.36667Q40.565624 90.02292 40.33125 90.42917Q40.096874 90.85104 39.596874 91.06979L39.3 90.61667Q39.628124 90.47604 39.784374 90.17917Q39.940624 89.89792 39.971874 89.36667L39.3625 89.36667ZM41.8 85.13229Q41.8 83.60104 42.1125 82.67917Q42.425 81.74167 43.034374 81.24167Q43.659374 80.74167 44.596874 80.74167Q45.284374 80.74167 45.8 81.02292Q46.33125 81.30417 46.675 81.83542Q47.01875 82.35104 47.20625 83.10104Q47.39375 83.85104 47.39375 85.13229Q47.39375 86.64792 47.08125 87.56979Q46.784374 88.49167 46.159374 89.00729Q45.55 89.50729 44.596874 89.50729Q43.3625 89.50729 42.64375 88.61667Q41.8 87.55417 41.8 85.13229ZM42.878124 85.13229Q42.878124 87.24167 43.378124 87.94479Q43.878124 88.64792 44.596874 88.64792Q45.33125 88.64792 45.815624 87.94479Q46.315624 87.24167 46.315624 85.13229Q46.315624 83.00729 45.815624 82.31979Q45.33125 81.61667 44.58125 81.61667Q43.8625 81.61667 43.425 82.22604Q42.878124 83.00729 42.878124 85.13229ZM48.8 85.13229Q48.8 83.60104 49.1125 82.67917Q49.425 81.74167 50.034374 81.24167Q50.659374 80.74167 51.596874 80.74167Q52.284374 80.74167 52.8 81.02292Q53.33125 81.30417 53.675 81.83542Q54.01875 82.35104 54.20625 83.10104Q54.39375 83.85104 54.39375 85.13229Q54.39375 86.64792 54.08125 87.56979Q53.784374 88.49167 53.159374 89.00729Q52.55 89.50729 51.596874 89.50729Q50.3625 89.50729 49.64375 88.61667Q48.8 87.55417 48.8 85.13229ZM49.878124 85.13229Q49.878124 87.24167 50.378124 87.94479Q50.878124 88.64792 51.596874 88.64792Q52.33125 88.64792 52.815624 87.94479Q53.315624 87.24167 53.315624 85.13229Q53.315624 83.00729 52.815624 82.31979Q52.33125 81.61667 51.58125 81.61667Q50.8625 81.61667 50.425 82.22604Q49.878124 83.00729 49.878124 85.13229ZM55.8 85.13229Q55.8 83.60104 56.1125 82.67917Q56.425 81.74167 57.034374 81.24167Q57.659374 80.74167 58.596874 80.74167Q59.284374 80.74167 59.8 81.02292Q60.33125 81.30417 60.675 81.83542Q61.01875 82.35104 61.20625 83.10104Q61.39375 83.85104 61.39375 85.13229Q61.39375 86.64792 61.08125 87.56979Q60.784374 88.49167 60.159374 89.00729Q59.55 89.50729 58.596874 89.50729Q57.3625 89.50729 56.64375 88.61667Q55.8 87.55417 55.8 85.13229ZM56.878124 85.13229Q56.878124 87.24167 57.378124 87.94479Q57.878124 88.64792 58.596874 88.64792Q59.33125 88.64792 59.815624 87.94479Q60.315624 87.24167 60.315624 85.13229Q60.315624 83.00729 59.815624 82.31979Q59.33125 81.61667 58.58125 81.61667Q57.8625 81.61667 57.425 82.22604Q56.878124 83.00729 56.878124 85.13229Z" fill-rule="nonzero"/>
  <path fill="#ff9900" d="M174.0 54.833332C174.0 54.281048 174.44771 53.833332 175.0 53.833332L185.0 53.833332C185.55229 53.833332 186.0 54.281048 186.0 54.833332L186.0 64.833336C186.0 65.38562 185.55229 65.833336 185.0 65.833336L175.0 65.833336C174.44771 65.833336 174.0 65.38562 174.0 64.833336Z" fill-rule="nonzero"/>
  <path fill="#f3f3f3" d="M194.875 63.833332L194.875 55.239582L196.01562 55.239582L196.01562 62.817707L200.25 62.817707L200.25 63.833332L194.875 63.833332ZM201.40625 60.723957Q201.40625 58.989582 202.35938 58.161457Q203.15625 57.473957 204.3125 57.473957Q205.59375 57.473957 206.40625 58.317707Q207.23438 59.145832 207.23438 60.630207Q207.23438 61.833332 206.875 62.520832Q206.51562 63.208332 205.8125 63.598957Q205.125 63.973957 204.3125 63.973957Q203.01562 63.973957 202.20312 63.145832Q201.40625 62.302082 201.40625 60.723957ZM202.48438 60.723957Q202.48438 61.911457 203.0 62.505207Q203.53125 63.098957 204.3125 63.098957Q205.10938 63.098957 205.625 62.505207Q206.14062 61.911457 206.14062 60.692707Q206.14062 59.536457 205.60938 58.942707Q205.09375 58.348957 204.3125 58.348957Q203.53125 58.348957 203.0 58.942707Q202.48438 59.520832 202.48438 60.723957ZM212.85938 61.552082L213.89062 61.692707Q213.71875 62.755207 213.01562 63.364582Q212.3125 63.973957 211.29688 63.973957Q210.01562 63.973957 209.23438 63.145832Q208.46875 62.302082 208.46875 60.739582Q208.46875 59.739582 208.79688 58.989582Q209.14062 58.223957 209.8125 57.848957Q210.5 57.473957 211.3125 57.473957Q212.3125 57.473957 212.95312 57.989582Q213.60938 58.489582 213.79688 59.442707L212.76562 59.598957Q212.625 58.973957 212.25 58.661457Q211.875 58.333332 211.34375 58.333332Q210.54688 58.333332 210.04688 58.911457Q209.54688 59.473957 209.54688 60.708332Q209.54688 61.973957 210.03125 62.536457Q210.51562 63.098957 211.28125 63.098957Q211.90625 63.098957 212.3125 62.723957Q212.73438 62.348957 212.85938 61.552082ZM214.40625 60.723957Q214.40625 58.989582 215.35938 58.161457Q216.15625 57.473957 217.3125 57.473957Q218.59375 57.473957 219.40625 58.317707Q220.23438 59.145832 220.23438 60.630207Q220.23438 61.833332 219.875 62.520832Q219.51562 63.208332 218.8125 63.598957Q218.125 63.973957 217.3125 63.973957Q216.01562 63.973957 215.20312 63.145832Q214.40625 62.302082 214.40625 60.723957ZM215.48438 60.723957Q215.48438 61.911457 216.0 62.505207Q216.53125 63.098957 217.3125 63.098957Q218.10938 63.098957 218.625 62.505207Q219.14062 61.911457 219.14062 60.692707Q219.14062 59.536457 218.60938 58.942707Q218.09375 58.348957 217.3125 58.348957Q216.53125 58.348957 216.0 58.942707Q215.48438 59.520832 215.48438 60.723957Z" fill-rule="nonzero"/>
  <path fill="#6d9eeb" d="M237.0 54.833332C237.0 54.281048 237.44771 53.833332 238.0 53.833332L248.0 53.833332C248.55229 53.833332 249.0 54.281048 249.0 54.833332L249.0 64.833336C249.0 65.38562 248.55229 65.833336 248.0 65.833336L238.0 65.833336C237.44771 65.833336 237.0 65.38562 237.0 64.833336Z" fill-rule="nonzero"/>
  <path fill="#f3f3f3" d="M257.95312 63.833332L257.95312 55.239582L264.15625 55.239582L264.15625 56.255207L259.09375 56.255207L259.09375 58.880207L263.84375 58.880207L263.84375 59.895832L259.09375 59.895832L259.09375 62.817707L264.35938 62.817707L264.35938 63.833332L257.95312 63.833332ZM265.09375 63.833332L267.35938 60.598957L265.26562 57.614582L266.57812 57.614582L267.53125 59.067707Q267.79688 59.489582 267.96875 59.770832Q268.21875 59.380207 268.4375 59.083332L269.48438 57.614582L270.75 57.614582L268.59375 60.536457L270.90625 63.833332L269.625 63.833332L268.34375 61.895832L268.0 61.380207L266.35938 63.833332L265.09375 63.833332ZM270.79688 66.22395L270.79688 57.614582L271.75 57.614582L271.75 58.411457Q272.09375 57.942707 272.51562 57.708332Q272.95312 57.473957 273.5625 57.473957Q274.35938 57.473957 274.96875 57.880207Q275.57812 58.286457 275.875 59.036457Q276.1875 59.786457 276.1875 60.677082Q276.1875 61.630207 275.84375 62.395832Q275.51562 63.161457 274.85938 63.567707Q274.20312 63.973957 273.48438 63.973957Q272.95312 63.973957 272.53125 63.755207Q272.10938 63.520832 271.84375 63.192707L271.84375 66.22395L270.79688 66.22395ZM271.75 60.755207Q271.75 61.958332 272.23438 62.536457Q272.71875 63.098957 273.40625 63.098957Q274.10938 63.098957 274.60938 62.505207Q275.10938 61.911457 275.10938 60.661457Q275.10938 59.473957 274.625 58.895832Q274.14062 58.302082 273.45312 58.302082Q272.78125 58.302082 272.26562 58.927082Q271.75 59.552082 271.75 60.755207ZM277.78125 63.833332L277.78125 57.614582L278.73438 57.614582L278.73438 58.552082Q279.09375 57.895832 279.39062 57.692707Q279.70312 57.473957 280.07812 57.473957Q280.60938 57.473957 281.15625 57.802082L280.79688 58.786457Q280.40625 58.552082 280.03125 58.552082Q279.67188 58.552082 279.39062 58.770832Q279.125 58.973957 279.01562 59.348957Q278.82812 59.911457 278.82812 60.567707L278.82812 63.833332L277.78125 63.833332ZM286.04688 61.833332L287.14062 61.958332Q286.89062 62.911457 286.1875 63.442707Q285.48438 63.973957 284.40625 63.973957Q283.04688 63.973957 282.23438 63.130207Q281.4375 62.286457 281.4375 60.770832Q281.4375 59.208332 282.25 58.348957Q283.0625 57.473957 284.34375 57.473957Q285.59375 57.473957 286.375 58.317707Q287.17188 59.161457 287.17188 60.708332Q287.17188 60.802082 287.17188 60.989582L282.53125 60.989582Q282.59375 62.020832 283.10938 62.567707Q283.625 63.098957 284.40625 63.098957Q284.98438 63.098957 285.39062 62.802082Q285.8125 62.489582 286.04688 61.833332ZM282.59375 60.130207L286.0625 60.130207Q286.0 59.333332 285.67188 58.942707Q285.15625 58.333332 284.35938 58.333332Q283.625 58.333332 283.125 58.817707Q282.64062 59.302082 282.59375 60.130207ZM288.375 61.973957L289.40625 61.817707Q289.5 62.442707 289.89062 62.770832Q290.29688 63.098957 291.03125 63.098957Q291.75 63.098957 292.09375 62.817707Q292.45312 62.520832 292.45312 62.114582Q292.45312 61.755207 292.14062 61.552082Q291.92188 61.411457 291.0625 61.192707Q289.90625 60.895832 289.45312 60.692707Q289.01562 60.473957 288.78125 60.098957Q288.54688 59.723957 288.54688 59.255207Q288.54688 58.848957 288.73438 58.489582Q288.92188 58.130207 289.25 57.895832Q289.5 57.723957 289.92188 57.598957Q290.34375 57.473957 290.84375 57.473957Q291.5625 57.473957 292.10938 57.692707Q292.67188 57.895832 292.9375 58.255207Q293.20312 58.614582 293.29688 59.208332L292.26562 59.348957Q292.20312 58.880207 291.85938 58.614582Q291.53125 58.333332 290.90625 58.333332Q290.1875 58.333332 289.875 58.583332Q289.5625 58.817707 289.5625 59.145832Q289.5625 59.348957 289.6875 59.505207Q289.82812 59.677082 290.09375 59.786457Q290.25 59.848957 291.03125 60.052082Q292.15625 60.364582 292.59375 60.552082Q293.03125 60.739582 293.28125 61.098957Q293.53125 61.458332 293.53125 62.005207Q293.53125 62.536457 293.21875 63.005207Q292.92188 63.458332 292.34375 63.723957Q291.76562 63.973957 291.03125 63.973957Q289.8125 63.973957 289.17188 63.473957Q288.54688 62.958332 288.375 61.973957ZM295.375 61.973957L296.40625 61.817707Q296.5 62.442707 296.89062 62.770832Q297.29688 63.098957 298.03125 63.098957Q298.75 63.098957 299.09375 62.817707Q299.45312 62.520832 299.45312 62.114582Q299.45312 61.755207 299.14062 61.552082Q298.92188 61.411457 298.0625 61.192707Q296.90625 60.895832 296.45312 60.692707Q296.01562 60.473957 295.78125 60.098957Q295.54688 59.723957 295.54688 59.255207Q295.54688 58.848957 295.73438 58.489582Q295.92188 58.130207 296.25 57.895832Q296.5 57.723957 296.92188 57.598957Q297.34375 57.473957 297.84375 57.473957Q298.5625 57.473957 299.10938 57.692707Q299.67188 57.895832 299.9375 58.255207Q300.20312 58.614582 300.29688 59.208332L299.26562 59.348957Q299.20312 58.880207 298.85938 58.614582Q298.53125 58.333332 297.90625 58.333332Q297.1875 58.333332 296.875 58.583332Q296.5625 58.817707 296.5625 59.145832Q296.5625 59.348957 296.6875 59.505207Q296.82812 59.677082 297.09375 59.786457Q297.25 59.848957 298.03125 60.052082Q299.15625 60.364582 299.59375 60.552082Q300.03125 60.739582 300.28125 61.098957Q300.53125 61.458332 300.53125 62.005207Q300.53125 62.536457 300.21875 63.005207Q299.92188 63.458332 299.34375 63.723957Q298.76562 63.973957 298.03125 63.973957Q296.8125 63.973957 296.17188 63.473957Q295.54688 62.958332 295.375 61.973957ZM303.09375 63.833332L303.09375 62.630207L304.29688 62.630207L304.29688 63.833332L303.09375 63.833332ZM305.78125 56.473957L305.78125 55.239582L306.84375 55.239582L306.84375 56.473957L305.78125 56.473957ZM304.45312 66.2552L304.64062 65.34895Q304.96875 65.42708 305.14062 65.42708Q305.46875 65.42708 305.625 65.20833Q305.78125 65.0052 305.78125 64.14583L305.78125 57.614582L306.84375 57.614582L306.84375 64.17708Q306.84375 65.3177 306.54688 65.77083Q306.15625 66.36458 305.28125 66.36458Q304.84375 66.36458 304.45312 66.2552ZM308.375 61.973957L309.40625 61.817707Q309.5 62.442707 309.89062 62.770832Q310.29688 63.098957 311.03125 63.098957Q311.75 63.098957 312.09375 62.817707Q312.45312 62.520832 312.45312 62.114582Q312.45312 61.755207 312.14062 61.552082Q311.92188 61.411457 311.0625 61.192707Q309.90625 60.895832 309.45312 60.692707Q309.01562 60.473957 308.78125 60.098957Q308.54688 59.723957 308.54688 59.255207Q308.54688 58.848957 308.73438 58.489582Q308.92188 58.130207 309.25 57.895832Q309.5 57.723957 309.92188 57.598957Q310.34375 57.473957 310.84375 57.473957Q311.5625 57.473957 312.10938 57.692707Q312.67188 57.895832 312.9375 58.255207Q313.20312 58.614582 313.29688 59.208332L312.26562 59.348957Q312.20312 58.880207 311.85938 58.614582Q311.53125 58.333332 310.90625 58.333332Q310.1875 58.333332 309.875 58.583332Q309.5625 58.817707 309.5625 59.145832Q309.5625 59.348957 309.6875 59.505207Q309.82812 59.677082 310.09375 59.786457Q310.25 59.848957 311.03125 60.052082Q312.15625 60.364582 312.59375 60.552082Q313.03125 60.739582 313.28125 61.098957Q313.53125 61.458332 313.53125 62.005207Q313.53125 62.536457 313.21875 63.005207Q312.92188 63.458332 312.34375 63.723957Q311.76562 63.973957 311.03125 63.973957Q309.8125 63.973957 309.17188 63.473957Q308.54688 62.958332 308.375 61.973957Z" fill-rule="nonzero"/>
  <path fill="#cc0000" d="M331.0 54.833332C331.0 54.281048 331.44772 53.833332 332.0 53.833332L342.0 53.833332C342.55228 53.833332 343.0 54.281048 343.0 54.833332L343.0 64.833336C343.0 65.38562 342.55228 65.833336 342.0 65.833336L332.0 65.833336C331.44772 65.833336 331.0 65.38562 331.0 64.833336Z" fill-rule="nonzero"/>
  <path fill="#f3f3f3" d="M351.9375 63.833332L351.9375 55.239582L355.75 55.239582Q356.90625 55.239582 357.5 55.473957Q358.09375 55.708332 358.45312 56.302082Q358.8125 56.880207 358.8125 57.583332Q358.8125 58.505207 358.21875 59.130207Q357.625 59.755207 356.39062 59.927082Q356.84375 60.145832 357.07812 60.348957Q357.57812 60.802082 358.01562 61.489582L359.51562 63.833332L358.07812 63.833332L356.95312 62.052082Q356.45312 61.270832 356.125 60.864582Q355.8125 60.458332 355.54688 60.302082Q355.29688 60.130207 355.03125 60.052082Q354.84375 60.020832 354.40625 60.020832L353.07812 60.020832L353.07812 63.833332L351.9375 63.833332ZM353.07812 59.036457L355.53125 59.036457Q356.29688 59.036457 356.73438 58.880207Q357.1875 58.708332 357.40625 58.364582Q357.64062 58.005207 357.64062 57.583332Q357.64062 56.973957 357.1875 56.583332Q356.75 56.192707 355.79688 56.192707L353.07812 56.192707L353.07812 59.036457ZM364.85938 63.067707Q364.26562 63.567707 363.71875 63.770832Q363.1875 63.973957 362.5625 63.973957Q361.53125 63.973957 360.98438 63.473957Q360.4375 62.973957 360.4375 62.192707Q360.4375 61.739582 360.64062 61.364582Q360.84375 60.973957 361.1875 60.755207Q361.53125 60.520832 361.95312 60.411457Q362.25 60.317707 362.89062 60.239582Q364.15625 60.098957 364.76562 59.880207Q364.76562 59.661457 364.76562 59.614582Q364.76562 58.958332 364.46875 58.692707Q364.0625 58.348957 363.26562 58.348957Q362.53125 58.348957 362.17188 58.614582Q361.8125 58.864582 361.64062 59.520832L360.60938 59.380207Q360.75 58.723957 361.07812 58.317707Q361.40625 57.911457 362.01562 57.692707Q362.625 57.473957 363.42188 57.473957Q364.21875 57.473957 364.71875 57.661457Q365.21875 57.848957 365.45312 58.130207Q365.6875 58.411457 365.78125 58.848957Q365.82812 59.114582 365.82812 59.817707L365.82812 61.223957Q365.82812 62.692707 365.89062 63.083332Q365.96875 63.473957 366.17188 63.833332L365.0625 63.833332Q364.90625 63.505207 364.85938 63.067707ZM364.76562 60.708332Q364.1875 60.942707 363.04688 61.114582Q362.39062 61.208332 362.125 61.333332Q361.85938 61.442707 361.70312 61.661457Q361.5625 61.880207 361.5625 62.161457Q361.5625 62.583332 361.875 62.864582Q362.20312 63.145832 362.8125 63.145832Q363.42188 63.145832 363.89062 62.880207Q364.375 62.614582 364.59375 62.145832Q364.76562 61.786457 364.76562 61.098957L364.76562 60.708332ZM367.79688 56.458332L367.79688 55.239582L368.85938 55.239582L368.85938 56.458332L367.79688 56.458332ZM367.79688 63.833332L367.79688 57.614582L368.85938 57.614582L368.85938 63.833332L367.79688 63.833332ZM370.76562 63.833332L370.76562 55.239582L371.82812 55.239582L371.82812 63.833332L370.76562 63.833332ZM373.375 61.973957L374.40625 61.817707Q374.5 62.442707 374.89062 62.770832Q375.29688 63.098957 376.03125 63.098957Q376.75 63.098957 377.09375 62.817707Q377.45312 62.520832 377.45312 62.114582Q377.45312 61.755207 377.14062 61.552082Q376.92188 61.411457 376.0625 61.192707Q374.90625 60.895832 374.45312 60.692707Q374.01562 60.473957 373.78125 60.098957Q373.54688 59.723957 373.54688 59.255207Q373.54688 58.848957 373.73438 58.489582Q373.92188 58.130207 374.25 57.895832Q374.5 57.723957 374.92188 57.598957Q375.34375 57.473957 375.84375 57.473957Q376.5625 57.473957 377.10938 57.692707Q377.67188 57.895832 377.9375 58.255207Q378.20312 58.614582 378.29688 59.208332L377.26562 59.348957Q377.20312 58.880207 376.85938 58.614582Q376.53125 58.333332 375.90625 58.333332Q375.1875 58.333332 374.875 58.583332Q374.5625 58.817707 374.5625 59.145832Q374.5625 59.348957 374.6875 59.505207Q374.82812 59.677082 375.09375 59.786457Q375.25 59.848957 376.03125 60.052082Q377.15625 60.364582 377.59375 60.552082Q378.03125 60.739582 378.28125 61.098957Q378.53125 61.458332 378.53125 62.005207Q378.53125 62.536457 378.21875 63.005207Q377.92188 63.458332 377.34375 63.723957Q376.76562 63.973957 376.03125 63.973957Q374.8125 63.973957 374.17188 63.473957Q373.54688 62.958332 373.375 61.973957Z" fill-rule="nonzero"/>
  <path fill="#f3f3f3" d="M18.76875 36.3L18.76875 21.9875L20.659374 21.9875L20.659374 34.6125L27.70625 34.6125L27.70625 36.3L18.76875 36.3ZM28.971874 31.1125Q28.971874 28.2375 30.565624 26.846874Q31.909374 25.690624 33.83125 25.690624Q35.971874 25.690624 37.315624 27.096874Q38.675 28.503124 38.675 30.971874Q38.675 32.971874 38.08125 34.128124Q37.4875 35.26875 36.33125 35.909374Q35.190624 36.534374 33.83125 36.534374Q31.64375 36.534374 30.3 35.14375Q28.971874 33.7375 28.971874 31.1125ZM30.76875 31.1125Q30.76875 33.1125 31.628124 34.096874Q32.503124 35.08125 33.83125 35.08125Q35.14375 35.08125 36.003124 34.096874Q36.878124 33.096874 36.878124 31.05Q36.878124 29.128124 36.003124 28.14375Q35.128124 27.14375 33.83125 27.14375Q32.503124 27.14375 31.628124 28.14375Q30.76875 29.128124 30.76875 31.1125ZM47.39375 32.503124L49.1125 32.721874Q48.83125 34.51875 47.659374 35.534374Q46.503124 36.534374 44.8 36.534374Q42.675 36.534374 41.378124 35.14375Q40.08125 33.753124 40.08125 31.159374Q40.08125 29.471874 40.628124 28.221874Q41.190624 26.95625 42.33125 26.33125Q43.471874 25.690624 44.815624 25.690624Q46.503124 25.690624 47.565624 26.55Q48.64375 27.409374 48.95625 28.971874L47.2375 29.2375Q47.003124 28.190624 46.378124 27.675Q45.753124 27.14375 44.878124 27.14375Q43.55 27.14375 42.721874 28.096874Q41.89375 29.05 41.89375 31.096874Q41.89375 33.190624 42.690624 34.14375Q43.4875 35.08125 44.784374 35.08125Q45.815624 35.08125 46.503124 34.45625Q47.20625 33.815624 47.39375 32.503124ZM49.971874 31.1125Q49.971874 28.2375 51.565624 26.846874Q52.909374 25.690624 54.83125 25.690624Q56.971874 25.690624 58.315624 27.096874Q59.675 28.503124 59.675 30.971874Q59.675 32.971874 59.08125 34.128124Q58.4875 35.26875 57.33125 35.909374Q56.190624 36.534374 54.83125 36.534374Q52.64375 36.534374 51.3 35.14375Q49.971874 33.7375 49.971874 31.1125ZM51.76875 31.1125Q51.76875 33.1125 52.628124 34.096874Q53.503124 35.08125 54.83125 35.08125Q56.14375 35.08125 57.003124 34.096874Q57.878124 33.096874 57.878124 31.05Q57.878124 29.128124 57.003124 28.14375Q56.128124 27.14375 54.83125 27.14375Q53.503124 27.14375 52.628124 28.14375Q51.76875 29.128124 51.76875 31.1125ZM62.1125 27.925L62.1125 25.925L64.1125 25.925L64.1125 27.925L62.1125 27.925ZM62.1125 36.3L62.1125 34.3L64.1125 34.3L64.1125 36.3L62.1125 36.3ZM73.83125 36.3L73.83125 21.9875L75.76875 21.9875L83.28438 33.221874L83.28438 21.9875L85.09688 21.9875L85.09688 36.3L83.15938 36.3L75.64375 25.05L75.64375 36.3L73.83125 36.3ZM85.97188 31.1125Q85.97188 28.2375 87.56563 26.846874Q88.90938 25.690624 90.83125 25.690624Q92.97188 25.690624 94.31563 27.096874Q95.675 28.503124 95.675 30.971874Q95.675 32.971874 95.08125 34.128124Q94.4875 35.26875 93.33125 35.909374Q92.19063 36.534374 90.83125 36.534374Q88.64375 36.534374 87.3 35.14375Q85.97188 33.7375 85.97188 31.1125ZM87.76875 31.1125Q87.76875 33.1125 88.62813 34.096874Q89.50313 35.08125 90.83125 35.08125Q92.14375 35.08125 93.00313 34.096874Q93.87813 33.096874 93.87813 31.05Q93.87813 29.128124 93.00313 28.14375Q92.12813 27.14375 90.83125 27.14375Q89.50313 27.14375 88.62813 28.14375Q87.76875 29.128124 87.76875 31.1125ZM103.84688 36.3L103.84688 21.9875L108.76875 21.9875Q110.44063 21.9875 111.33125 22.190624Q112.55 22.471874 113.425 23.20625Q114.55 24.175 115.1125 25.659374Q115.675 27.14375 115.675 29.065624Q115.675 30.690624 115.3 31.95625Q114.925 33.20625 114.31563 34.034374Q113.72188 34.8625 113.01875 35.346874Q112.31563 35.815624 111.31563 36.065624Q110.31563 36.3 109.00313 36.3L103.84688 36.3ZM105.7375 34.6125L108.8 34.6125Q110.20625 34.6125 111.00313 34.346874Q111.81563 34.08125 112.3 33.596874Q112.97188 32.925 113.34688 31.8Q113.72188 30.659374 113.72188 29.034374Q113.72188 26.784374 112.9875 25.58125Q112.25313 24.378124 111.19063 23.971874Q110.44063 23.675 108.75313 23.675L105.7375 23.675L105.7375 34.6125ZM117.76875 36.3L117.76875 21.9875L123.14375 21.9875Q124.78438 21.9875 125.76875 22.425Q126.75313 22.846874 127.31563 23.753124Q127.87813 24.659374 127.87813 25.64375Q127.87813 26.565624 127.37813 27.378124Q126.89375 28.190624 125.87813 28.675Q127.175 29.065624 127.87813 29.9875Q128.58125 30.89375 128.58125 32.14375Q128.58125 33.159374 128.14375 34.01875Q127.72188 34.878124 127.09688 35.346874Q126.47188 35.815624 125.53438 36.065624Q124.59688 36.3 123.22188 36.3L117.76875 36.3ZM119.65938 28.003124L122.75313 28.003124Q124.01875 28.003124 124.56563 27.83125Q125.28438 27.6125 125.64375 27.128124Q126.01875 26.628124 126.01875 25.8625Q126.01875 25.159374 125.675 24.6125Q125.33125 24.065624 124.69063 23.878124Q124.06563 23.675 122.51875 23.675L119.65938 23.675L119.65938 28.003124ZM119.65938 34.6125L123.22188 34.6125Q124.14375 34.6125 124.51875 34.534374Q125.175 34.425 125.6125 34.159374Q126.05 33.878124 126.33125 33.3625Q126.6125 32.83125 126.6125 32.14375Q126.6125 31.346874 126.20625 30.753124Q125.8 30.159374 125.06563 29.925Q124.33125 29.690624 122.97188 29.690624L119.65938 29.690624L119.65938 34.6125ZM131.08125 36.3L131.08125 34.3L133.08125 34.3L133.08125 36.3Q133.08125 37.409374 132.69063 38.08125Q132.3 38.76875 131.45625 39.128124L130.95625 38.378124Q131.51875 38.14375 131.78438 37.659374Q132.05 37.190624 132.08125 36.3L131.08125 36.3ZM142.59688 36.3L142.59688 25.925L144.175 25.925L144.175 27.503124Q144.78438 26.39375 145.3 26.05Q145.81563 25.690624 146.425 25.690624Q147.31563 25.690624 148.2375 26.253124L147.62813 27.89375Q146.9875 27.503124 146.34688 27.503124Q145.76875 27.503124 145.3 27.8625Q144.84688 28.20625 144.64375 28.815624Q144.3625 29.753124 144.3625 30.8625L144.3625 36.3L142.59688 36.3ZM156.72188 32.95625L158.53438 33.190624Q158.1125 34.76875 156.94063 35.659374Q155.78438 36.534374 153.97188 36.534374Q151.70625 36.534374 150.3625 35.14375Q149.03438 33.7375 149.03438 31.20625Q149.03438 28.58125 150.37813 27.14375Q151.72188 25.690624 153.87813 25.690624Q155.95625 25.690624 157.26875 27.1125Q158.59688 28.51875 158.59688 31.096874Q158.59688 31.253124 158.58125 31.565624L150.84688 31.565624Q150.94063 33.26875 151.81563 34.175Q152.69063 35.08125 153.9875 35.08125Q154.95625 35.08125 155.62813 34.58125Q156.31563 34.065624 156.72188 32.95625ZM150.94063 30.1125L156.7375 30.1125Q156.62813 28.815624 156.08125 28.159374Q155.2375 27.14375 153.89375 27.14375Q152.69063 27.14375 151.8625 27.95625Q151.03438 28.753124 150.94063 30.1125ZM167.2375 40.26875L167.2375 35.190624Q166.81563 35.76875 166.08125 36.159374Q165.34688 36.534374 164.51875 36.534374Q162.675 36.534374 161.33125 35.065624Q160.00313 33.58125 160.00313 31.01875Q160.00313 29.45625 160.53438 28.221874Q161.08125 26.971874 162.1125 26.33125Q163.14375 25.690624 164.37813 25.690624Q166.3 25.690624 167.40938 27.315624L167.40938 25.925L168.9875 25.925L168.9875 40.26875L167.2375 40.26875ZM161.81563 31.08125Q161.81563 33.08125 162.64375 34.08125Q163.4875 35.08125 164.65938 35.08125Q165.78438 35.08125 166.59688 34.14375Q167.40938 33.190624 167.40938 31.2375Q167.40938 29.175 166.55 28.128124Q165.69063 27.08125 164.55 27.08125Q163.40938 27.08125 162.6125 28.05Q161.81563 29.01875 161.81563 31.08125ZM170.3 36.55L174.45625 21.7375L175.8625 21.7375L171.72188 36.55L170.3 36.55ZM176.90938 33.20625L178.65938 32.925Q178.8 33.971874 179.47188 34.534374Q180.14375 35.08125 181.34688 35.08125Q182.55 35.08125 183.12813 34.596874Q183.72188 34.096874 183.72188 33.440624Q183.72188 32.846874 183.20625 32.503124Q182.84688 32.26875 181.40938 31.909374Q179.47188 31.409374 178.72188 31.065624Q177.9875 30.70625 177.59688 30.08125Q177.20625 29.440624 177.20625 28.675Q177.20625 27.9875 177.51875 27.39375Q177.84688 26.8 178.39375 26.409374Q178.8 26.1125 179.50313 25.909374Q180.22188 25.690624 181.03438 25.690624Q182.25313 25.690624 183.175 26.05Q184.09688 26.39375 184.53438 27.003124Q184.97188 27.596874 185.14375 28.596874L183.425 28.83125Q183.3 28.034374 182.7375 27.596874Q182.175 27.14375 181.15938 27.14375Q179.94063 27.14375 179.425 27.55Q178.90938 27.940624 178.90938 28.471874Q178.90938 28.815624 179.12813 29.096874Q179.33125 29.378124 179.8 29.565624Q180.06563 29.659374 181.34688 30.003124Q183.22188 30.503124 183.95625 30.83125Q184.69063 31.14375 185.1125 31.753124Q185.53438 32.346874 185.53438 33.253124Q185.53438 34.128124 185.01875 34.909374Q184.50313 35.690624 183.53438 36.1125Q182.56563 36.534374 181.34688 36.534374Q179.33125 36.534374 178.26875 35.690624Q177.20625 34.846874 176.90938 33.20625ZM196.97188 40.503124Q195.51875 38.675 194.51875 36.221874Q193.51875 33.753124 193.51875 31.1125Q193.51875 28.784374 194.26875 26.659374Q195.14375 24.190624 196.97188 21.7375L198.2375 21.7375Q197.05 23.76875 196.675 24.64375Q196.08125 25.9875 195.7375 27.45625Q195.31563 29.284374 195.31563 31.128124Q195.31563 35.815624 198.2375 40.503124L196.97188 40.503124ZM200.6125 36.3L200.6125 21.9875L202.37813 21.9875L202.37813 27.1125Q203.6125 25.690624 205.4875 25.690624Q206.62813 25.690624 207.47188 26.14375Q208.33125 26.596874 208.69063 27.409374Q209.06563 28.20625 209.06563 29.721874L209.06563 36.3L207.31563 36.3L207.31563 29.721874Q207.31563 28.409374 206.7375 27.815624Q206.15938 27.20625 205.12813 27.20625Q204.34688 27.20625 203.64375 27.6125Q202.95625 28.01875 202.65938 28.721874Q202.37813 29.409374 202.37813 30.628124L202.37813 36.3L200.6125 36.3ZM210.62813 24.003124L210.62813 21.9875L212.39375 21.9875L212.39375 24.003124L210.62813 24.003124ZM210.62813 36.3L210.62813 25.925L212.39375 25.925L212.39375 36.3L210.62813 36.3ZM214.3 37.159374L216.00313 37.409374Q216.1125 38.20625 216.59688 38.565624Q217.25313 39.05 218.39375 39.05Q219.6125 39.05 220.26875 38.565624Q220.94063 38.08125 221.175 37.20625Q221.31563 36.659374 221.3 34.940624Q220.14375 36.3 218.425 36.3Q216.28438 36.3 215.1125 34.753124Q213.94063 33.20625 213.94063 31.05Q213.94063 29.565624 214.47188 28.315624Q215.01875 27.065624 216.03438 26.378124Q217.06563 25.690624 218.44063 25.690624Q220.26875 25.690624 221.47188 27.175L221.47188 25.925L223.08125 25.925L223.08125 34.89375Q223.08125 37.315624 222.58125 38.315624Q222.09688 39.33125 221.01875 39.909374Q219.95625 40.503124 218.39375 40.503124Q216.55 40.503124 215.39375 39.675Q214.25313 38.846874 214.3 37.159374ZM215.75313 30.925Q215.75313 32.971874 216.56563 33.909374Q217.37813 34.846874 218.59688 34.846874Q219.8 34.846874 220.6125 33.909374Q221.44063 32.971874 221.44063 30.9875Q221.44063 29.08125 220.59688 28.1125Q219.75313 27.14375 218.56563 27.14375Q217.39375 27.14375 216.56563 28.096874Q215.75313 29.05 215.75313 30.925ZM225.6125 36.3L225.6125 21.9875L227.37813 21.9875L227.37813 27.1125Q228.6125 25.690624 230.4875 25.690624Q231.62813 25.690624 232.47188 26.14375Q233.33125 26.596874 233.69063 27.409374Q234.06563 28.20625 234.06563 29.721874L234.06563 36.3L232.31563 36.3L232.31563 29.721874Q232.31563 28.409374 231.7375 27.815624Q231.15938 27.20625 230.12813 27.20625Q229.34688 27.20625 228.64375 27.6125Q227.95625 28.01875 227.65938 28.721874Q227.37813 29.409374 227.37813 30.628124L227.37813 36.3L225.6125 36.3ZM242.72188 32.95625L244.53438 33.190624Q244.1125 34.76875 242.94063 35.659374Q241.78438 36.534374 239.97188 36.534374Q237.70625 36.534374 236.3625 35.14375Q235.03438 33.7375 235.03438 31.20625Q235.03438 28.58125 236.37813 27.14375Q237.72188 25.690624 239.87813 25.690624Q241.95625 25.690624 243.26875 27.1125Q244.59688 28.51875 244.59688 31.096874Q244.59688 31.253124 244.58125 31.565624L236.84688 31.565624Q236.94063 33.26875 237.81563 34.175Q238.69063 35.08125 239.9875 35.08125Q240.95625 35.08125 241.62813 34.58125Q242.31563 34.065624 242.72188 32.95625ZM236.94063 30.1125L242.7375 30.1125Q242.62813 28.815624 242.08125 28.159374Q241.2375 27.14375 239.89375 27.14375Q238.69063 27.14375 237.8625 27.95625Q237.03438 28.753124 236.94063 30.1125ZM246.59688 36.3L246.59688 25.925L248.175 25.925L248.175 27.503124Q248.78438 26.39375 249.3 26.05Q249.81563 25.690624 250.425 25.690624Q251.31563 25.690624 252.2375 26.253124L251.62813 27.89375Q250.9875 27.503124 250.34688 27.503124Q249.76875 27.503124 249.3 27.8625Q248.84688 28.20625 248.64375 28.815624Q248.3625 29.753124 248.3625 30.8625L248.3625 36.3L246.59688 36.3ZM259.6281 24.003124L259.6281 21.9875L261.39374 21.9875L261.39374 24.003124L259.6281 24.003124ZM259.6281 36.3L259.6281 25.925L261.39374 25.925L261.39374 36.3L259.6281 36.3ZM262.90936 33.20625L264.65936 32.925Q264.8 33.971874 265.47186 34.534374Q266.14374 35.08125 267.34686 35.08125Q268.55 35.08125 269.1281 34.596874Q269.72186 34.096874 269.72186 33.440624Q269.72186 32.846874 269.20624 32.503124Q268.84686 32.26875 267.40936 31.909374Q265.47186 31.409374 264.72186 31.065624Q263.9875 30.70625 263.59686 30.08125Q263.20624 29.440624 263.20624 28.675Q263.20624 27.9875 263.51874 27.39375Q263.84686 26.8 264.39374 26.409374Q264.8 26.1125 265.5031 25.909374Q266.22186 25.690624 267.03436 25.690624Q268.2531 25.690624 269.175 26.05Q270.09686 26.39375 270.53436 27.003124Q270.97186 27.596874 271.14374 28.596874L269.425 28.83125Q269.3 28.034374 268.7375 27.596874Q268.175 27.14375 267.15936 27.14375Q265.9406 27.14375 265.425 27.55Q264.90936 27.940624 264.90936 28.471874Q264.90936 28.815624 265.1281 29.096874Q265.33124 29.378124 265.8 29.565624Q266.0656 29.659374 267.34686 30.003124Q269.22186 30.503124 269.95624 30.83125Q270.6906 31.14375 271.1125 31.753124Q271.53436 32.346874 271.53436 33.253124Q271.53436 34.128124 271.01874 34.909374Q270.5031 35.690624 269.53436 36.1125Q268.5656 36.534374 267.34686 36.534374Q265.33124 36.534374 264.26874 35.690624Q263.20624 34.846874 262.90936 33.20625ZM281.2375 36.3L279.6125 36.3L279.6125 21.9875L281.3625 21.9875L281.3625 27.096874Q282.4875 25.690624 284.20624 25.690624Q285.15936 25.690624 286.01874 26.08125Q286.8781 26.471874 287.425 27.175Q287.97186 27.8625 288.28436 28.846874Q288.59686 29.83125 288.59686 30.95625Q288.59686 33.628124 287.28436 35.08125Q285.97186 36.534374 284.1281 36.534374Q282.28436 36.534374 281.2375 35.003124L281.2375 36.3ZM281.22186 31.034374Q281.22186 32.89375 281.72186 33.7375Q282.5656 35.08125 283.97186 35.08125Q285.1281 35.08125 285.95624 34.08125Q286.8 33.08125 286.8 31.096874Q286.8 29.065624 285.9875 28.1125Q285.1906 27.14375 284.05 27.14375Q282.89374 27.14375 282.05 28.14375Q281.22186 29.14375 281.22186 31.034374ZM297.72186 32.95625L299.53436 33.190624Q299.1125 34.76875 297.9406 35.659374Q296.78436 36.534374 294.97186 36.534374Q292.70624 36.534374 291.3625 35.14375Q290.03436 33.7375 290.03436 31.20625Q290.03436 28.58125 291.3781 27.14375Q292.72186 25.690624 294.8781 25.690624Q296.95624 25.690624 298.26874 27.1125Q299.59686 28.51875 299.59686 31.096874Q299.59686 31.253124 299.58124 31.565624L291.84686 31.565624Q291.9406 33.26875 292.8156 34.175Q293.6906 35.08125 294.9875 35.08125Q295.95624 35.08125 296.6281 34.58125Q297.3156 34.065624 297.72186 32.95625ZM291.9406 30.1125L297.7375 30.1125Q297.6281 28.815624 297.08124 28.159374Q296.2375 27.14375 294.89374 27.14375Q293.6906 27.14375 292.8625 27.95625Q292.03436 28.753124 291.9406 30.1125ZM305.45624 34.721874L305.70624 36.284374Q304.97186 36.440624 304.3781 36.440624Q303.425 36.440624 302.89374 36.14375Q302.3781 35.83125 302.15936 35.346874Q301.9406 34.846874 301.9406 33.26875L301.9406 27.3L300.65936 27.3L300.65936 25.925L301.9406 25.925L301.9406 23.3625L303.6906 22.3L303.6906 25.925L305.45624 25.925L305.45624 27.3L303.6906 27.3L303.6906 33.3625Q303.6906 34.1125 303.78436 34.33125Q303.8781 34.534374 304.08124 34.675Q304.3 34.8 304.6906 34.8Q304.97186 34.8 305.45624 34.721874ZM311.45624 34.721874L311.70624 36.284374Q310.97186 36.440624 310.3781 36.440624Q309.425 36.440624 308.89374 36.14375Q308.3781 35.83125 308.15936 35.346874Q307.9406 34.846874 307.9406 33.26875L307.9406 27.3L306.65936 27.3L306.65936 25.925L307.9406 25.925L307.9406 23.3625L309.6906 22.3L309.6906 25.925L311.45624 25.925L311.45624 27.3L309.6906 27.3L309.6906 33.3625Q309.6906 34.1125 309.78436 34.33125Q309.8781 34.534374 310.08124 34.675Q310.3 34.8 310.6906 34.8Q310.97186 34.8 311.45624 34.721874ZM320.72186 32.95625L322.53436 33.190624Q322.1125 34.76875 320.9406 35.659374Q319.78436 36.534374 317.97186 36.534374Q315.70624 36.534374 314.3625 35.14375Q313.03436 33.7375 313.03436 31.20625Q313.03436 28.58125 314.3781 27.14375Q315.72186 25.690624 317.8781 25.690624Q319.95624 25.690624 321.26874 27.1125Q322.59686 28.51875 322.59686 31.096874Q322.59686 31.253124 322.58124 31.565624L314.84686 31.565624Q314.9406 33.26875 315.8156 34.175Q316.6906 35.08125 317.9875 35.08125Q318.95624 35.08125 319.6281 34.58125Q320.3156 34.065624 320.72186 32.95625ZM314.9406 30.1125L320.7375 30.1125Q320.6281 28.815624 320.08124 28.159374Q319.2375 27.14375 317.89374 27.14375Q316.6906 27.14375 315.8625 27.95625Q315.03436 28.753124 314.9406 30.1125ZM324.59686 36.3L324.59686 25.925L326.175 25.925L326.175 27.503124Q326.78436 26.39375 327.3 26.05Q327.8156 25.690624 328.425 25.690624Q329.3156 25.690624 330.2375 26.253124L329.6281 27.89375Q328.9875 27.503124 328.34686 27.503124Q327.76874 27.503124 327.3 27.8625Q326.84686 28.20625 326.64374 28.815624Q326.3625 29.753124 326.3625 30.8625L326.3625 36.3L324.59686 36.3ZM332.76874 40.503124L331.51874 40.503124Q334.425 35.815624 334.425 31.128124Q334.425 29.284374 334.01874 27.4875Q333.675 26.01875 333.08124 24.675Q332.70624 23.784374 331.51874 21.7375L332.76874 21.7375Q334.6125 24.190624 335.4875 26.659374Q336.2375 28.784374 336.2375 31.1125Q336.2375 33.753124 335.22186 36.221874Q334.22186 38.675 332.76874 40.503124Z" fill-rule="nonzero"/>
</svg>
