<svg version="1.1" viewBox="0.0 0.0 554.0 346.0" fill="none" stroke="none" stroke-linecap="square" stroke-miterlimit="10" width="554" height="346"
  xmlns:xlink="http://www.w3.org/1999/xlink"
  xmlns="http://www.w3.org/2000/svg">
  <path fill="transparent" d="M0 0L554.0 0L554.0 346.0L0 346.0L0 0Z" fill-rule="nonzero"/>
  <path stroke="#ffffff" stroke-width="1.0" stroke-linecap="butt" d="M58.5 321.5L536.5 321.5" fill-rule="nonzero"/>
  <path stroke="#767676" stroke-width="1.0" stroke-linecap="butt" d="M58.5 242.5L536.5 242.5" fill-rule="nonzero"/>
  <path stroke="#767676" stroke-width="1.0" stroke-linecap="butt" d="M58.5 164.5L536.5 164.5" fill-rule="nonzero"/>
  <path stroke="#767676" stroke-width="1.0" stroke-linecap="butt" d="M58.5 85.5L536.5 85.5" fill-rule="nonzero"/>
  <clipPath id="id_0">
    <path d="M58.3 85.36667L536.7 85.36667L536.7 321.7L58.3 321.7L58.3 85.36667Z" clip-rule="nonzero"/>
  </clipPath>
  <path stroke="#000000" stroke-width="2.0" stroke-linecap="butt" stroke-opacity="0.0" clip-path="url(#id_0)" d="M259.0 322.0L184.0 322.0L184.0 107.0C184.0 105.89543 184.89543 105.0 186.0 105.0L257.0 105.0C258.10458 105.0 259.0 105.89543 259.0 107.0Z" fill-rule="nonzero"/>
  <path fill="#ff9900" clip-path="url(#id_0)" d="M259.0 322.0L184.0 322.0L184.0 107.0C184.0 105.89543 184.89543 105.0 186.0 105.0L257.0 105.0C258.10458 105.0 259.0 105.89543 259.0 107.0Z" fill-rule="nonzero"/>
  <path stroke="#000000" stroke-width="2.0" stroke-linecap="butt" stroke-opacity="0.0" clip-path="url(#id_0)" d="M336.0 322.0L261.0 322.0L261.0 296.0C261.0 294.89542 261.89542 294.0 263.0 294.0L334.0 294.0C335.10458 294.0 336.0 294.89542 336.0 296.0Z" fill-rule="nonzero"/>
  <path fill="#6d9eeb" clip-path="url(#id_0)" d="M336.0 322.0L261.0 322.0L261.0 296.0C261.0 294.89542 261.89542 294.0 263.0 294.0L334.0 294.0C335.10458 294.0 336.0 294.89542 336.0 296.0Z" fill-rule="nonzero"/>
  <path stroke="#000000" stroke-width="2.0" stroke-linecap="butt" stroke-opacity="0.0" clip-path="url(#id_0)" d="M413.0 322.0L338.0 322.0L338.0 308.0C338.0 306.89542 338.89542 306.0 340.0 306.0L411.0 306.0C412.10458 306.0 413.0 306.89542 413.0 308.0Z" fill-rule="nonzero"/>
  <path fill="#cc0000" clip-path="url(#id_0)" d="M413.0 322.0L338.0 322.0L338.0 308.0C338.0 306.89542 338.89542 306.0 340.0 306.0L411.0 306.0C412.10458 306.0 413.0 306.89542 413.0 308.0Z" fill-rule="nonzero"/>
  <path stroke="#ff9900" stroke-width="3.0" stroke-linejoin="round" stroke-linecap="round" d="M195.20312 117.63895L195.64062 113.38895L200.01562 113.38895L200.01562 114.38895L196.5625 114.38895L196.29688 116.71707Q196.9375 116.34207 197.73438 116.34207Q198.89062 116.34207 199.57812 117.12332Q200.26562 117.88895 200.26562 119.20145Q200.26562 120.51395 199.54688 121.27957Q198.84375 122.0452 197.5625 122.0452Q196.4375 122.0452 195.71875 121.4202Q195.0 120.77957 194.90625 119.6702L195.92188 119.6702Q196.03125 120.40457 196.45312 120.77957Q196.875 121.15457 197.5625 121.15457Q198.3125 121.15457 198.75 120.63895Q199.1875 120.12332 199.1875 119.21707Q199.1875 118.3577 198.71875 117.84207Q198.25 117.32645 197.46875 117.32645Q196.76562 117.32645 196.35938 117.62332L196.07812 117.8577L195.20312 117.63895ZM206.28125 119.06082L207.46875 119.06082L207.46875 119.93582L206.28125 119.93582L206.28125 121.9202L205.20312 121.9202L205.20312 119.93582L201.3125 119.93582L201.3125 119.2952L205.125 113.38895L206.28125 113.38895L206.28125 119.06082ZM202.54688 119.06082L205.20312 119.06082L205.20312 114.87332L205.0625 115.1077L202.54688 119.06082ZM208.78125 123.62332L208.17188 123.20145Q208.71875 122.43582 208.75 121.6077L208.75 120.63895L209.8125 120.63895L209.8125 121.4827Q209.8125 122.07645 209.51562 122.6702Q209.21875 123.26395 208.78125 123.62332ZM214.85938 118.1702Q214.53125 118.57645 214.04688 118.82645Q213.57812 119.06082 213.01562 119.06082Q212.28125 119.06082 211.73438 118.70145Q211.1875 118.34207 210.89062 117.68582Q210.59375 117.01395 210.59375 116.21707Q210.59375 115.37332 210.90625 114.68582Q211.23438 113.99832 211.82812 113.63895Q212.4375 113.26395 213.23438 113.26395Q214.5 113.26395 215.21875 114.21707Q215.95312 115.1702 215.95312 116.7952L215.95312 117.1077Q215.95312 119.6077 214.96875 120.74832Q213.98438 121.88895 212.0 121.9202L211.78125 121.9202L211.78125 121.01395L212.01562 121.01395Q213.35938 120.9827 214.07812 120.31082Q214.79688 119.63895 214.85938 118.1702ZM213.1875 118.1702Q213.73438 118.1702 214.1875 117.84207Q214.65625 117.49832 214.875 117.01395L214.875 116.57645Q214.875 115.51395 214.40625 114.84207Q213.9375 114.1702 213.23438 114.1702Q212.51562 114.1702 212.07812 114.71707Q211.65625 115.26395 211.65625 116.1702Q211.65625 117.0452 212.0625 117.6077Q212.48438 118.1702 213.1875 118.1702ZM222.89062 115.6077Q222.89062 116.24832 222.54688 116.74832Q222.20312 117.24832 221.64062 117.52957Q222.29688 117.81082 222.6875 118.37332Q223.07812 118.9202 223.07812 119.62332Q223.07812 120.71707 222.32812 121.38895Q221.59375 122.0452 220.375 122.0452Q219.14062 122.0452 218.39062 121.38895Q217.65625 120.71707 217.65625 119.62332Q217.65625 118.9202 218.03125 118.37332Q218.40625 117.81082 219.07812 117.52957Q218.51562 117.24832 218.1875 116.74832Q217.85938 116.24832 217.85938 115.6077Q217.85938 114.52957 218.54688 113.90457Q219.23438 113.26395 220.375 113.26395Q221.5 113.26395 222.1875 113.90457Q222.89062 114.52957 222.89062 115.6077ZM222.0 119.59207Q222.0 118.87332 221.54688 118.43582Q221.09375 117.9827 220.35938 117.9827Q219.625 117.9827 219.17188 118.43582Q218.73438 118.87332 218.73438 119.6077Q218.73438 120.32645 219.17188 120.74832Q219.60938 121.15457 220.375 121.15457Q221.125 121.15457 221.5625 120.7327Q222.0 120.31082 222.0 119.59207ZM220.375 114.15457Q219.73438 114.15457 219.32812 114.56082Q218.9375 114.95145 218.9375 115.63895Q218.9375 116.27957 219.32812 116.68582Q219.71875 117.09207 220.35938 117.09207Q221.01562 117.09207 221.40625 116.68582Q221.79688 116.27957 221.79688 115.63895Q221.79688 114.9827 221.39062 114.57645Q220.98438 114.15457 220.375 114.15457ZM225.20312 117.63895L225.64062 113.38895L230.01562 113.38895L230.01562 114.38895L226.5625 114.38895L226.29688 116.71707Q226.9375 116.34207 227.73438 116.34207Q228.89062 116.34207 229.57812 117.12332Q230.26562 117.88895 230.26562 119.20145Q230.26562 120.51395 229.54688 121.27957Q228.84375 122.0452 227.5625 122.0452Q226.4375 122.0452 225.71875 121.4202Q225.0 120.77957 224.90625 119.6702L225.92188 119.6702Q226.03125 120.40457 226.45312 120.77957Q226.875 121.15457 227.5625 121.15457Q228.3125 121.15457 228.75 120.63895Q229.1875 120.12332 229.1875 119.21707Q229.1875 118.3577 228.71875 117.84207Q228.25 117.32645 227.46875 117.32645Q226.76562 117.32645 226.35938 117.62332L226.07812 117.8577L225.20312 117.63895ZM231.84375 121.3577Q231.84375 121.07645 232.0 120.88895Q232.17188 120.70145 232.5 120.70145Q232.84375 120.70145 233.01562 120.88895Q233.1875 121.07645 233.1875 121.3577Q233.1875 121.62332 233.01562 121.81082Q232.84375 121.9827 232.5 121.9827Q232.17188 121.9827 232.0 121.81082Q231.84375 121.62332 231.84375 121.3577ZM240.0625 118.27957Q240.0625 120.18582 239.40625 121.12332Q238.76562 122.0452 237.375 122.0452Q236.01562 122.0452 235.35938 121.13895Q234.70312 120.2327 234.67188 118.4202L234.67188 116.9827Q234.67188 115.09207 235.3125 114.18582Q235.96875 113.26395 237.35938 113.26395Q238.73438 113.26395 239.39062 114.15457Q240.04688 115.02957 240.0625 116.87332L240.0625 118.27957ZM238.96875 116.7952Q238.96875 115.4202 238.57812 114.7952Q238.20312 114.15457 237.35938 114.15457Q236.53125 114.15457 236.14062 114.7952Q235.76562 115.4202 235.76562 116.71707L235.76562 118.45145Q235.76562 119.82645 236.15625 120.49832Q236.5625 121.15457 237.375 121.15457Q238.17188 121.15457 238.5625 120.52957Q238.95312 119.90457 238.96875 118.57645L238.96875 116.7952ZM247.0625 118.27957Q247.0625 120.18582 246.40625 121.12332Q245.76562 122.0452 244.375 122.0452Q243.01562 122.0452 242.35938 121.13895Q241.70312 120.2327 241.67188 118.4202L241.67188 116.9827Q241.67188 115.09207 242.3125 114.18582Q242.96875 113.26395 244.35938 113.26395Q245.73438 113.26395 246.39062 114.15457Q247.04688 115.02957 247.0625 116.87332L247.0625 118.27957ZM245.96875 116.7952Q245.96875 115.4202 245.57812 114.7952Q245.20312 114.15457 244.35938 114.15457Q243.53125 114.15457 243.14062 114.7952Q242.76562 115.4202 242.76562 116.71707L242.76562 118.45145Q242.76562 119.82645 243.15625 120.49832Q243.5625 121.15457 244.375 121.15457Q245.17188 121.15457 245.5625 120.52957Q245.95312 119.90457 245.96875 118.57645L245.96875 116.7952Z" fill-rule="nonzero"/>
  <path fill="#000000" d="M195.20312 117.63895L195.64062 113.38895L200.01562 113.38895L200.01562 114.38895L196.5625 114.38895L196.29688 116.71707Q196.9375 116.34207 197.73438 116.34207Q198.89062 116.34207 199.57812 117.12332Q200.26562 117.88895 200.26562 119.20145Q200.26562 120.51395 199.54688 121.27957Q198.84375 122.0452 197.5625 122.0452Q196.4375 122.0452 195.71875 121.4202Q195.0 120.77957 194.90625 119.6702L195.92188 119.6702Q196.03125 120.40457 196.45312 120.77957Q196.875 121.15457 197.5625 121.15457Q198.3125 121.15457 198.75 120.63895Q199.1875 120.12332 199.1875 119.21707Q199.1875 118.3577 198.71875 117.84207Q198.25 117.32645 197.46875 117.32645Q196.76562 117.32645 196.35938 117.62332L196.07812 117.8577L195.20312 117.63895ZM206.28125 119.06082L207.46875 119.06082L207.46875 119.93582L206.28125 119.93582L206.28125 121.9202L205.20312 121.9202L205.20312 119.93582L201.3125 119.93582L201.3125 119.2952L205.125 113.38895L206.28125 113.38895L206.28125 119.06082ZM202.54688 119.06082L205.20312 119.06082L205.20312 114.87332L205.0625 115.1077L202.54688 119.06082ZM208.78125 123.62332L208.17188 123.20145Q208.71875 122.43582 208.75 121.6077L208.75 120.63895L209.8125 120.63895L209.8125 121.4827Q209.8125 122.07645 209.51562 122.6702Q209.21875 123.26395 208.78125 123.62332ZM214.85938 118.1702Q214.53125 118.57645 214.04688 118.82645Q213.57812 119.06082 213.01562 119.06082Q212.28125 119.06082 211.73438 118.70145Q211.1875 118.34207 210.89062 117.68582Q210.59375 117.01395 210.59375 116.21707Q210.59375 115.37332 210.90625 114.68582Q211.23438 113.99832 211.82812 113.63895Q212.4375 113.26395 213.23438 113.26395Q214.5 113.26395 215.21875 114.21707Q215.95312 115.1702 215.95312 116.7952L215.95312 117.1077Q215.95312 119.6077 214.96875 120.74832Q213.98438 121.88895 212.0 121.9202L211.78125 121.9202L211.78125 121.01395L212.01562 121.01395Q213.35938 120.9827 214.07812 120.31082Q214.79688 119.63895 214.85938 118.1702ZM213.1875 118.1702Q213.73438 118.1702 214.1875 117.84207Q214.65625 117.49832 214.875 117.01395L214.875 116.57645Q214.875 115.51395 214.40625 114.84207Q213.9375 114.1702 213.23438 114.1702Q212.51562 114.1702 212.07812 114.71707Q211.65625 115.26395 211.65625 116.1702Q211.65625 117.0452 212.0625 117.6077Q212.48438 118.1702 213.1875 118.1702ZM222.89062 115.6077Q222.89062 116.24832 222.54688 116.74832Q222.20312 117.24832 221.64062 117.52957Q222.29688 117.81082 222.6875 118.37332Q223.07812 118.9202 223.07812 119.62332Q223.07812 120.71707 222.32812 121.38895Q221.59375 122.0452 220.375 122.0452Q219.14062 122.0452 218.39062 121.38895Q217.65625 120.71707 217.65625 119.62332Q217.65625 118.9202 218.03125 118.37332Q218.40625 117.81082 219.07812 117.52957Q218.51562 117.24832 218.1875 116.74832Q217.85938 116.24832 217.85938 115.6077Q217.85938 114.52957 218.54688 113.90457Q219.23438 113.26395 220.375 113.26395Q221.5 113.26395 222.1875 113.90457Q222.89062 114.52957 222.89062 115.6077ZM222.0 119.59207Q222.0 118.87332 221.54688 118.43582Q221.09375 117.9827 220.35938 117.9827Q219.625 117.9827 219.17188 118.43582Q218.73438 118.87332 218.73438 119.6077Q218.73438 120.32645 219.17188 120.74832Q219.60938 121.15457 220.375 121.15457Q221.125 121.15457 221.5625 120.7327Q222.0 120.31082 222.0 119.59207ZM220.375 114.15457Q219.73438 114.15457 219.32812 114.56082Q218.9375 114.95145 218.9375 115.63895Q218.9375 116.27957 219.32812 116.68582Q219.71875 117.09207 220.35938 117.09207Q221.01562 117.09207 221.40625 116.68582Q221.79688 116.27957 221.79688 115.63895Q221.79688 114.9827 221.39062 114.57645Q220.98438 114.15457 220.375 114.15457ZM225.20312 117.63895L225.64062 113.38895L230.01562 113.38895L230.01562 114.38895L226.5625 114.38895L226.29688 116.71707Q226.9375 116.34207 227.73438 116.34207Q228.89062 116.34207 229.57812 117.12332Q230.26562 117.88895 230.26562 119.20145Q230.26562 120.51395 229.54688 121.27957Q228.84375 122.0452 227.5625 122.0452Q226.4375 122.0452 225.71875 121.4202Q225.0 120.77957 224.90625 119.6702L225.92188 119.6702Q226.03125 120.40457 226.45312 120.77957Q226.875 121.15457 227.5625 121.15457Q228.3125 121.15457 228.75 120.63895Q229.1875 120.12332 229.1875 119.21707Q229.1875 118.3577 228.71875 117.84207Q228.25 117.32645 227.46875 117.32645Q226.76562 117.32645 226.35938 117.62332L226.07812 117.8577L225.20312 117.63895ZM231.84375 121.3577Q231.84375 121.07645 232.0 120.88895Q232.17188 120.70145 232.5 120.70145Q232.84375 120.70145 233.01562 120.88895Q233.1875 121.07645 233.1875 121.3577Q233.1875 121.62332 233.01562 121.81082Q232.84375 121.9827 232.5 121.9827Q232.17188 121.9827 232.0 121.81082Q231.84375 121.62332 231.84375 121.3577ZM240.0625 118.27957Q240.0625 120.18582 239.40625 121.12332Q238.76562 122.0452 237.375 122.0452Q236.01562 122.0452 235.35938 121.13895Q234.70312 120.2327 234.67188 118.4202L234.67188 116.9827Q234.67188 115.09207 235.3125 114.18582Q235.96875 113.26395 237.35938 113.26395Q238.73438 113.26395 239.39062 114.15457Q240.04688 115.02957 240.0625 116.87332L240.0625 118.27957ZM238.96875 116.7952Q238.96875 115.4202 238.57812 114.7952Q238.20312 114.15457 237.35938 114.15457Q236.53125 114.15457 236.14062 114.7952Q235.76562 115.4202 235.76562 116.71707L235.76562 118.45145Q235.76562 119.82645 236.15625 120.49832Q236.5625 121.15457 237.375 121.15457Q238.17188 121.15457 238.5625 120.52957Q238.95312 119.90457 238.96875 118.57645L238.96875 116.7952ZM247.0625 118.27957Q247.0625 120.18582 246.40625 121.12332Q245.76562 122.0452 244.375 122.0452Q243.01562 122.0452 242.35938 121.13895Q241.70312 120.2327 241.67188 118.4202L241.67188 116.9827Q241.67188 115.09207 242.3125 114.18582Q242.96875 113.26395 244.35938 113.26395Q245.73438 113.26395 246.39062 114.15457Q247.04688 115.02957 247.0625 116.87332L247.0625 118.27957ZM245.96875 116.7952Q245.96875 115.4202 245.57812 114.7952Q245.20312 114.15457 244.35938 114.15457Q243.53125 114.15457 243.14062 114.7952Q242.76562 115.4202 242.76562 116.71707L242.76562 118.45145Q242.76562 119.82645 243.15625 120.49832Q243.5625 121.15457 244.375 121.15457Q245.17188 121.15457 245.5625 120.52957Q245.95312 119.90457 245.96875 118.57645L245.96875 116.7952Z" fill-rule="nonzero"/>
  <path stroke="#6d9eeb" stroke-width="3.0" stroke-linejoin="round" stroke-linecap="round" d="M289.21875 302.9035L285.6875 310.82538L284.54688 310.82538L288.0625 303.18475L283.45312 303.18475L283.45312 302.29413L289.21875 302.29413L289.21875 302.9035ZM290.78125 312.5285L290.17188 312.10663Q290.71875 311.341 290.75 310.51288L290.75 309.54413L291.8125 309.54413L291.8125 310.38788Q291.8125 310.98163 291.51562 311.57538Q291.21875 312.16913 290.78125 312.5285ZM298.0625 307.18475Q298.0625 309.091 297.40625 310.0285Q296.76562 310.95038 295.375 310.95038Q294.01562 310.95038 293.35938 310.04413Q292.70312 309.13788 292.67188 307.32538L292.67188 305.88788Q292.67188 303.99725 293.3125 303.091Q293.96875 302.16913 295.35938 302.16913Q296.73438 302.16913 297.39062 303.05975Q298.04688 303.93475 298.0625 305.7785L298.0625 307.18475ZM296.96875 305.70038Q296.96875 304.32538 296.57812 303.70038Q296.20312 303.05975 295.35938 303.05975Q294.53125 303.05975 294.14062 303.70038Q293.76562 304.32538 293.76562 305.62225L293.76562 307.35663Q293.76562 308.73163 294.15625 309.4035Q294.5625 310.05975 295.375 310.05975Q296.17188 310.05975 296.5625 309.43475Q296.95312 308.80975 296.96875 307.48163L296.96875 305.70038ZM305.29688 310.82538L299.70312 310.82538L299.70312 310.04413L302.65625 306.76288Q303.3125 306.01288 303.5625 305.55975Q303.8125 305.091 303.8125 304.591Q303.8125 303.91913 303.40625 303.49725Q303.01562 303.05975 302.32812 303.05975Q301.53125 303.05975 301.07812 303.5285Q300.625 303.98163 300.625 304.80975L299.54688 304.80975Q299.54688 303.62225 300.29688 302.9035Q301.0625 302.16913 302.32812 302.16913Q303.53125 302.16913 304.21875 302.79413Q304.90625 303.41913 304.90625 304.466Q304.90625 305.716 303.29688 307.466L301.01562 309.93475L305.29688 309.93475L305.29688 310.82538ZM310.96875 302.29413L310.96875 303.20038L310.76562 303.20038Q309.5 303.23163 308.75 303.966Q308.0 304.68475 307.875 305.99725Q308.5625 305.23163 309.71875 305.23163Q310.82812 305.23163 311.5 306.01288Q312.17188 306.79413 312.17188 308.04413Q312.17188 309.35663 311.45312 310.1535Q310.73438 310.95038 309.51562 310.95038Q308.29688 310.95038 307.53125 310.01288Q306.78125 309.05975 306.78125 307.57538L306.78125 307.16913Q306.78125 304.80975 307.78125 303.55975Q308.78125 302.30975 310.76562 302.29413L310.96875 302.29413ZM309.54688 306.13788Q308.98438 306.13788 308.51562 306.466Q308.04688 306.79413 307.85938 307.30975L307.85938 307.70038Q307.85938 308.76288 308.32812 309.4035Q308.8125 310.04413 309.51562 310.04413Q310.25 310.04413 310.67188 309.51288Q311.09375 308.966 311.09375 308.091Q311.09375 307.216 310.67188 306.68475Q310.25 306.13788 309.54688 306.13788Z" fill-rule="nonzero"/>
  <path fill="#000000" d="M289.21875 302.9035L285.6875 310.82538L284.54688 310.82538L288.0625 303.18475L283.45312 303.18475L283.45312 302.29413L289.21875 302.29413L289.21875 302.9035ZM290.78125 312.5285L290.17188 312.10663Q290.71875 311.341 290.75 310.51288L290.75 309.54413L291.8125 309.54413L291.8125 310.38788Q291.8125 310.98163 291.51562 311.57538Q291.21875 312.16913 290.78125 312.5285ZM298.0625 307.18475Q298.0625 309.091 297.40625 310.0285Q296.76562 310.95038 295.375 310.95038Q294.01562 310.95038 293.35938 310.04413Q292.70312 309.13788 292.67188 307.32538L292.67188 305.88788Q292.67188 303.99725 293.3125 303.091Q293.96875 302.16913 295.35938 302.16913Q296.73438 302.16913 297.39062 303.05975Q298.04688 303.93475 298.0625 305.7785L298.0625 307.18475ZM296.96875 305.70038Q296.96875 304.32538 296.57812 303.70038Q296.20312 303.05975 295.35938 303.05975Q294.53125 303.05975 294.14062 303.70038Q293.76562 304.32538 293.76562 305.62225L293.76562 307.35663Q293.76562 308.73163 294.15625 309.4035Q294.5625 310.05975 295.375 310.05975Q296.17188 310.05975 296.5625 309.43475Q296.95312 308.80975 296.96875 307.48163L296.96875 305.70038ZM305.29688 310.82538L299.70312 310.82538L299.70312 310.04413L302.65625 306.76288Q303.3125 306.01288 303.5625 305.55975Q303.8125 305.091 303.8125 304.591Q303.8125 303.91913 303.40625 303.49725Q303.01562 303.05975 302.32812 303.05975Q301.53125 303.05975 301.07812 303.5285Q300.625 303.98163 300.625 304.80975L299.54688 304.80975Q299.54688 303.62225 300.29688 302.9035Q301.0625 302.16913 302.32812 302.16913Q303.53125 302.16913 304.21875 302.79413Q304.90625 303.41913 304.90625 304.466Q304.90625 305.716 303.29688 307.466L301.01562 309.93475L305.29688 309.93475L305.29688 310.82538ZM310.96875 302.29413L310.96875 303.20038L310.76562 303.20038Q309.5 303.23163 308.75 303.966Q308.0 304.68475 307.875 305.99725Q308.5625 305.23163 309.71875 305.23163Q310.82812 305.23163 311.5 306.01288Q312.17188 306.79413 312.17188 308.04413Q312.17188 309.35663 311.45312 310.1535Q310.73438 310.95038 309.51562 310.95038Q308.29688 310.95038 307.53125 310.01288Q306.78125 309.05975 306.78125 307.57538L306.78125 307.16913Q306.78125 304.80975 307.78125 303.55975Q308.78125 302.30975 310.76562 302.29413L310.96875 302.29413ZM309.54688 306.13788Q308.98438 306.13788 308.51562 306.466Q308.04688 306.79413 307.85938 307.30975L307.85938 307.70038Q307.85938 308.76288 308.32812 309.4035Q308.8125 310.04413 309.51562 310.04413Q310.25 310.04413 310.67188 309.51288Q311.09375 308.966 311.09375 308.091Q311.09375 307.216 310.67188 306.68475Q310.25 306.13788 309.54688 306.13788Z" fill-rule="nonzero"/>
  <path fill="#cc0000" d="M362.28125 286.17908L363.09375 286.17908Q363.875 286.16345 364.3125 285.77283Q364.75 285.3822 364.75 284.71033Q364.75 283.21033 363.25 283.21033Q362.54688 283.21033 362.125 283.61658Q361.71875 284.02283 361.71875 284.67908L360.625 284.67908Q360.625 283.66345 361.35938 282.99158Q362.10938 282.3197 363.25 282.3197Q364.45312 282.3197 365.14062 282.96033Q365.82812 283.60095 365.82812 284.74158Q365.82812 285.30408 365.46875 285.8197Q365.10938 286.33533 364.48438 286.60095Q365.1875 286.8197 365.5625 287.33533Q365.95312 287.85095 365.95312 288.60095Q365.95312 289.74158 365.20312 290.42908Q364.45312 291.10095 363.25 291.10095Q362.0625 291.10095 361.29688 290.4447Q360.54688 289.78845 360.54688 288.72595L361.64062 288.72595Q361.64062 289.39783 362.07812 289.80408Q362.51562 290.21033 363.26562 290.21033Q364.04688 290.21033 364.45312 289.80408Q364.875 289.3822 364.875 288.61658Q364.875 287.8822 364.42188 287.49158Q363.96875 287.08533 363.09375 287.0697L362.28125 287.0697L362.28125 286.17908ZM367.78125 292.67908L367.17188 292.2572Q367.71875 291.49158 367.75 290.66345L367.75 289.6947L368.8125 289.6947L368.8125 290.53845Q368.8125 291.1322 368.51562 291.72595Q368.21875 292.3197 367.78125 292.67908ZM373.85938 287.22595Q373.53125 287.6322 373.04688 287.8822Q372.57812 288.11658 372.01562 288.11658Q371.28125 288.11658 370.73438 287.7572Q370.1875 287.39783 369.89062 286.74158Q369.59375 286.0697 369.59375 285.27283Q369.59375 284.42908 369.90625 283.74158Q370.23438 283.05408 370.82812 282.6947Q371.4375 282.3197 372.23438 282.3197Q373.5 282.3197 374.21875 283.27283Q374.95312 284.22595 374.95312 285.85095L374.95312 286.16345Q374.95312 288.66345 373.96875 289.80408Q372.98438 290.9447 371.0 290.97595L370.78125 290.97595L370.78125 290.0697L371.01562 290.0697Q372.35938 290.03845 373.07812 289.36658Q373.79688 288.6947 373.85938 287.22595ZM372.1875 287.22595Q372.73438 287.22595 373.1875 286.89783Q373.65625 286.55408 373.875 286.0697L373.875 285.6322Q373.875 284.5697 373.40625 283.89783Q372.9375 283.22595 372.23438 283.22595Q371.51562 283.22595 371.07812 283.77283Q370.65625 284.3197 370.65625 285.22595Q370.65625 286.10095 371.0625 286.66345Q371.48438 287.22595 372.1875 287.22595ZM380.85938 287.22595Q380.53125 287.6322 380.04688 287.8822Q379.57812 288.11658 379.01562 288.11658Q378.28125 288.11658 377.73438 287.7572Q377.1875 287.39783 376.89062 286.74158Q376.59375 286.0697 376.59375 285.27283Q376.59375 284.42908 376.90625 283.74158Q377.23438 283.05408 377.82812 282.6947Q378.4375 282.3197 379.23438 282.3197Q380.5 282.3197 381.21875 283.27283Q381.95312 284.22595 381.95312 285.85095L381.95312 286.16345Q381.95312 288.66345 380.96875 289.80408Q379.98438 290.9447 378.0 290.97595L377.78125 290.97595L377.78125 290.0697L378.01562 290.0697Q379.35938 290.03845 380.07812 289.36658Q380.79688 288.6947 380.85938 287.22595ZM379.1875 287.22595Q379.73438 287.22595 380.1875 286.89783Q380.65625 286.55408 380.875 286.0697L380.875 285.6322Q380.875 284.5697 380.40625 283.89783Q379.9375 283.22595 379.23438 283.22595Q378.51562 283.22595 378.07812 283.77283Q377.65625 284.3197 377.65625 285.22595Q377.65625 286.10095 378.0625 286.66345Q378.48438 287.22595 379.1875 287.22595ZM389.29688 290.97595L383.70312 290.97595L383.70312 290.1947L386.65625 286.91345Q387.3125 286.16345 387.5625 285.71033Q387.8125 285.24158 387.8125 284.74158Q387.8125 284.0697 387.40625 283.64783Q387.01562 283.21033 386.32812 283.21033Q385.53125 283.21033 385.07812 283.67908Q384.625 284.1322 384.625 284.96033L383.54688 284.96033Q383.54688 283.77283 384.29688 283.05408Q385.0625 282.3197 386.32812 282.3197Q387.53125 282.3197 388.21875 282.9447Q388.90625 283.5697 388.90625 284.61658Q388.90625 285.86658 387.29688 287.61658L385.01562 290.08533L389.29688 290.08533L389.29688 290.97595Z" fill-rule="nonzero"/>
  <path fill="#f3f3f3" d="M45.8 321.46564Q45.8 319.9344 46.1125 319.0125Q46.425 318.075 47.034374 317.575Q47.659374 317.075 48.596874 317.075Q49.284374 317.075 49.8 317.35626Q50.33125 317.6375 50.675 318.16876Q51.01875 318.6844 51.20625 319.4344Q51.39375 320.1844 51.39375 321.46564Q51.39375 322.98126 51.08125 323.90314Q50.784374 324.825 50.159374 325.34064Q49.55 325.84064 48.596874 325.84064Q47.3625 325.84064 46.64375 324.95Q45.8 323.8875 45.8 321.46564ZM46.878124 321.46564Q46.878124 323.575 47.378124 324.27814Q47.878124 324.98126 48.596874 324.98126Q49.33125 324.98126 49.815624 324.27814Q50.315624 323.575 50.315624 321.46564Q50.315624 319.34064 49.815624 318.65314Q49.33125 317.95 48.58125 317.95Q47.8625 317.95 47.425 318.5594Q46.878124 319.34064 46.878124 321.46564Z" fill-rule="nonzero"/>
  <path fill="#f3f3f3" d="M23.346874 245.9066L23.346874 246.92223L17.659374 246.92223Q17.659374 246.54723 17.784374 246.18785Q18.003124 245.60973 18.471874 245.04723Q18.95625 244.48473 19.8625 243.75035Q21.26875 242.5941 21.753124 241.92223Q22.253124 241.25035 22.253124 240.6566Q22.253124 240.0316 21.8 239.60973Q21.346874 239.17223 20.628124 239.17223Q19.8625 239.17223 19.409374 239.62535Q18.95625 240.07848 18.940624 240.89098L17.8625 240.7816Q17.971874 239.56285 18.690624 238.93785Q19.425 238.29723 20.659374 238.29723Q21.89375 238.29723 22.6125 238.98473Q23.33125 239.67223 23.33125 240.68785Q23.33125 241.20348 23.1125 241.70348Q22.909374 242.18785 22.409374 242.75035Q21.925 243.29723 20.8 244.25035Q19.846874 245.04723 19.565624 245.3441Q19.3 245.62535 19.128124 245.9066L23.346874 245.9066ZM24.8 242.68785Q24.8 241.1566 25.1125 240.23473Q25.425 239.29723 26.034374 238.79723Q26.659374 238.29723 27.596874 238.29723Q28.284374 238.29723 28.8 238.57848Q29.33125 238.85973 29.675 239.39098Q30.01875 239.9066 30.20625 240.6566Q30.39375 241.4066 30.39375 242.68785Q30.39375 244.20348 30.08125 245.12535Q29.784374 246.04723 29.159374 246.56285Q28.55 247.06285 27.596874 247.06285Q26.3625 247.06285 25.64375 246.17223Q24.8 245.10973 24.8 242.68785ZM25.878124 242.68785Q25.878124 244.79723 26.378124 245.50035Q26.878124 246.20348 27.596874 246.20348Q28.33125 246.20348 28.815624 245.50035Q29.315624 244.79723 29.315624 242.68785Q29.315624 240.56285 28.815624 239.87535Q28.33125 239.17223 27.58125 239.17223Q26.8625 239.17223 26.425 239.7816Q25.878124 240.56285 25.878124 242.68785ZM31.8 242.68785Q31.8 241.1566 32.1125 240.23473Q32.425 239.29723 33.034374 238.79723Q33.659374 238.29723 34.596874 238.29723Q35.284374 238.29723 35.8 238.57848Q36.33125 238.85973 36.675 239.39098Q37.01875 239.9066 37.20625 240.6566Q37.39375 241.4066 37.39375 242.68785Q37.39375 244.20348 37.08125 245.12535Q36.784374 246.04723 36.159374 246.56285Q35.55 247.06285 34.596874 247.06285Q33.3625 247.06285 32.64375 246.17223Q31.8 245.10973 31.8 242.68785ZM32.878124 242.68785Q32.878124 244.79723 33.378124 245.50035Q33.878124 246.20348 34.596874 246.20348Q35.33125 246.20348 35.815624 245.50035Q36.315624 244.79723 36.315624 242.68785Q36.315624 240.56285 35.815624 239.87535Q35.33125 239.17223 34.58125 239.17223Q33.8625 239.17223 33.425 239.7816Q32.878124 240.56285 32.878124 242.68785ZM38.8 242.68785Q38.8 241.1566 39.1125 240.23473Q39.425 239.29723 40.034374 238.79723Q40.659374 238.29723 41.596874 238.29723Q42.284374 238.29723 42.8 238.57848Q43.33125 238.85973 43.675 239.39098Q44.01875 239.9066 44.20625 240.6566Q44.39375 241.4066 44.39375 242.68785Q44.39375 244.20348 44.08125 245.12535Q43.784374 246.04723 43.159374 246.56285Q42.55 247.06285 41.596874 247.06285Q40.3625 247.06285 39.64375 246.17223Q38.8 245.10973 38.8 242.68785ZM39.878124 242.68785Q39.878124 244.79723 40.378124 245.50035Q40.878124 246.20348 41.596874 246.20348Q42.33125 246.20348 42.815624 245.50035Q43.315624 244.79723 43.315624 242.68785Q43.315624 240.56285 42.815624 239.87535Q42.33125 239.17223 41.58125 239.17223Q40.8625 239.17223 40.425 239.7816Q39.878124 240.56285 39.878124 242.68785ZM45.8 242.68785Q45.8 241.1566 46.1125 240.23473Q46.425 239.29723 47.034374 238.79723Q47.659374 238.29723 48.596874 238.29723Q49.284374 238.29723 49.8 238.57848Q50.33125 238.85973 50.675 239.39098Q51.01875 239.9066 51.20625 240.6566Q51.39375 241.4066 51.39375 242.68785Q51.39375 244.20348 51.08125 245.12535Q50.784374 246.04723 50.159374 246.56285Q49.55 247.06285 48.596874 247.06285Q47.3625 247.06285 46.64375 246.17223Q45.8 245.10973 45.8 242.68785ZM46.878124 242.68785Q46.878124 244.79723 47.378124 245.50035Q47.878124 246.20348 48.596874 246.20348Q49.33125 246.20348 49.815624 245.50035Q50.315624 244.79723 50.315624 242.68785Q50.315624 240.56285 49.815624 239.87535Q49.33125 239.17223 48.58125 239.17223Q47.8625 239.17223 47.425 239.7816Q46.878124 240.56285 46.878124 242.68785Z" fill-rule="nonzero"/>
  <path fill="#f3f3f3" d="M21.175 168.14444L21.175 166.08194L17.45625 166.08194L17.45625 165.11319L21.378124 159.55069L22.2375 159.55069L22.2375 165.11319L23.39375 165.11319L23.39375 166.08194L22.2375 166.08194L22.2375 168.14444L21.175 168.14444ZM21.175 165.11319L21.175 161.25381L18.4875 165.11319L21.175 165.11319ZM24.8 163.91006Q24.8 162.37881 25.1125 161.45694Q25.425 160.51944 26.034374 160.01944Q26.659374 159.51944 27.596874 159.51944Q28.284374 159.51944 28.8 159.80069Q29.33125 160.08194 29.675 160.61319Q30.01875 161.12881 30.20625 161.87881Q30.39375 162.62881 30.39375 163.91006Q30.39375 165.42569 30.08125 166.34756Q29.784374 167.26944 29.159374 167.78506Q28.55 168.28506 27.596874 168.28506Q26.3625 168.28506 25.64375 167.39444Q24.8 166.33194 24.8 163.91006ZM25.878124 163.91006Q25.878124 166.01944 26.378124 166.72256Q26.878124 167.42569 27.596874 167.42569Q28.33125 167.42569 28.815624 166.72256Q29.315624 166.01944 29.315624 163.91006Q29.315624 161.78506 28.815624 161.09756Q28.33125 160.39444 27.58125 160.39444Q26.8625 160.39444 26.425 161.00381Q25.878124 161.78506 25.878124 163.91006ZM31.8 163.91006Q31.8 162.37881 32.1125 161.45694Q32.425 160.51944 33.034374 160.01944Q33.659374 159.51944 34.596874 159.51944Q35.284374 159.51944 35.8 159.80069Q36.33125 160.08194 36.675 160.61319Q37.01875 161.12881 37.20625 161.87881Q37.39375 162.62881 37.39375 163.91006Q37.39375 165.42569 37.08125 166.34756Q36.784374 167.26944 36.159374 167.78506Q35.55 168.28506 34.596874 168.28506Q33.3625 168.28506 32.64375 167.39444Q31.8 166.33194 31.8 163.91006ZM32.878124 163.91006Q32.878124 166.01944 33.378124 166.72256Q33.878124 167.42569 34.596874 167.42569Q35.33125 167.42569 35.815624 166.72256Q36.315624 166.01944 36.315624 163.91006Q36.315624 161.78506 35.815624 161.09756Q35.33125 160.39444 34.58125 160.39444Q33.8625 160.39444 33.425 161.00381Q32.878124 161.78506 32.878124 163.91006ZM38.8 163.91006Q38.8 162.37881 39.1125 161.45694Q39.425 160.51944 40.034374 160.01944Q40.659374 159.51944 41.596874 159.51944Q42.284374 159.51944 42.8 159.80069Q43.33125 160.08194 43.675 160.61319Q44.01875 161.12881 44.20625 161.87881Q44.39375 162.62881 44.39375 163.91006Q44.39375 165.42569 44.08125 166.34756Q43.784374 167.26944 43.159374 167.78506Q42.55 168.28506 41.596874 168.28506Q40.3625 168.28506 39.64375 167.39444Q38.8 166.33194 38.8 163.91006ZM39.878124 163.91006Q39.878124 166.01944 40.378124 166.72256Q40.878124 167.42569 41.596874 167.42569Q42.33125 167.42569 42.815624 166.72256Q43.315624 166.01944 43.315624 163.91006Q43.315624 161.78506 42.815624 161.09756Q42.33125 160.39444 41.58125 160.39444Q40.8625 160.39444 40.425 161.00381Q39.878124 161.78506 39.878124 163.91006ZM45.8 163.91006Q45.8 162.37881 46.1125 161.45694Q46.425 160.51944 47.034374 160.01944Q47.659374 159.51944 48.596874 159.51944Q49.284374 159.51944 49.8 159.80069Q50.33125 160.08194 50.675 160.61319Q51.01875 161.12881 51.20625 161.87881Q51.39375 162.62881 51.39375 163.91006Q51.39375 165.42569 51.08125 166.34756Q50.784374 167.26944 50.159374 167.78506Q49.55 168.28506 48.596874 168.28506Q47.3625 168.28506 46.64375 167.39444Q45.8 166.33194 45.8 163.91006ZM46.878124 163.91006Q46.878124 166.01944 47.378124 166.72256Q47.878124 167.42569 48.596874 167.42569Q49.33125 167.42569 49.815624 166.72256Q50.315624 166.01944 50.315624 163.91006Q50.315624 161.78506 49.815624 161.09756Q49.33125 160.39444 48.58125 160.39444Q47.8625 160.39444 47.425 161.00381Q46.878124 161.78506 46.878124 163.91006Z" fill-rule="nonzero"/>
  <path fill="#f3f3f3" d="M23.26875 82.88229L22.221874 82.96042Q22.08125 82.33542 21.83125 82.05417Q21.39375 81.60104 20.76875 81.60104Q20.26875 81.60104 19.878124 81.88229Q19.39375 82.25729 19.096874 82.96042Q18.815624 83.64792 18.8 84.92917Q19.175 84.35104 19.721874 84.06979Q20.284374 83.78854 20.89375 83.78854Q21.940624 83.78854 22.675 84.56979Q23.425 85.35104 23.425 86.56979Q23.425 87.38229 23.065624 88.08542Q22.721874 88.77292 22.1125 89.14792Q21.503124 89.50729 20.7375 89.50729Q19.409374 89.50729 18.58125 88.53854Q17.753124 87.56979 17.753124 85.35104Q17.753124 82.85104 18.675 81.72604Q19.471874 80.74167 20.83125 80.74167Q21.846874 80.74167 22.4875 81.31979Q23.14375 81.88229 23.26875 82.88229ZM18.971874 86.58542Q18.971874 87.13229 19.190624 87.63229Q19.425 88.11667 19.83125 88.38229Q20.253124 88.64792 20.721874 88.64792Q21.378124 88.64792 21.8625 88.11667Q22.346874 87.56979 22.346874 86.64792Q22.346874 85.75729 21.8625 85.24167Q21.39375 84.72604 20.675 84.72604Q19.95625 84.72604 19.45625 85.24167Q18.971874 85.75729 18.971874 86.58542ZM24.8 85.13229Q24.8 83.60104 25.1125 82.67917Q25.425 81.74167 26.034374 81.24167Q26.659374 80.74167 27.596874 80.74167Q28.284374 80.74167 28.8 81.02292Q29.33125 81.30417 29.675 81.83542Q30.01875 82.35104 30.20625 83.10104Q30.39375 83.85104 30.39375 85.13229Q30.39375 86.64792 30.08125 87.56979Q29.784374 88.49167 29.159374 89.00729Q28.55 89.50729 27.596874 89.50729Q26.3625 89.50729 25.64375 88.61667Q24.8 87.55417 24.8 85.13229ZM25.878124 85.13229Q25.878124 87.24167 26.378124 87.94479Q26.878124 88.64792 27.596874 88.64792Q28.33125 88.64792 28.815624 87.94479Q29.315624 87.24167 29.315624 85.13229Q29.315624 83.00729 28.815624 82.31979Q28.33125 81.61667 27.58125 81.61667Q26.8625 81.61667 26.425 82.22604Q25.878124 83.00729 25.878124 85.13229ZM31.8 85.13229Q31.8 83.60104 32.1125 82.67917Q32.425 81.74167 33.034374 81.24167Q33.659374 80.74167 34.596874 80.74167Q35.284374 80.74167 35.8 81.02292Q36.33125 81.30417 36.675 81.83542Q37.01875 82.35104 37.20625 83.10104Q37.39375 83.85104 37.39375 85.13229Q37.39375 86.64792 37.08125 87.56979Q36.784374 88.49167 36.159374 89.00729Q35.55 89.50729 34.596874 89.50729Q33.3625 89.50729 32.64375 88.61667Q31.8 87.55417 31.8 85.13229ZM32.878124 85.13229Q32.878124 87.24167 33.378124 87.94479Q33.878124 88.64792 34.596874 88.64792Q35.33125 88.64792 35.815624 87.94479Q36.315624 87.24167 36.315624 85.13229Q36.315624 83.00729 35.815624 82.31979Q35.33125 81.61667 34.58125 81.61667Q33.8625 81.61667 33.425 82.22604Q32.878124 83.00729 32.878124 85.13229ZM38.8 85.13229Q38.8 83.60104 39.1125 82.67917Q39.425 81.74167 40.034374 81.24167Q40.659374 80.74167 41.596874 80.74167Q42.284374 80.74167 42.8 81.02292Q43.33125 81.30417 43.675 81.83542Q44.01875 82.35104 44.20625 83.10104Q44.39375 83.85104 44.39375 85.13229Q44.39375 86.64792 44.08125 87.56979Q43.784374 88.49167 43.159374 89.00729Q42.55 89.50729 41.596874 89.50729Q40.3625 89.50729 39.64375 88.61667Q38.8 87.55417 38.8 85.13229ZM39.878124 85.13229Q39.878124 87.24167 40.378124 87.94479Q40.878124 88.64792 41.596874 88.64792Q42.33125 88.64792 42.815624 87.94479Q43.315624 87.24167 43.315624 85.13229Q43.315624 83.00729 42.815624 82.31979Q42.33125 81.61667 41.58125 81.61667Q40.8625 81.61667 40.425 82.22604Q39.878124 83.00729 39.878124 85.13229ZM45.8 85.13229Q45.8 83.60104 46.1125 82.67917Q46.425 81.74167 47.034374 81.24167Q47.659374 80.74167 48.596874 80.74167Q49.284374 80.74167 49.8 81.02292Q50.33125 81.30417 50.675 81.83542Q51.01875 82.35104 51.20625 83.10104Q51.39375 83.85104 51.39375 85.13229Q51.39375 86.64792 51.08125 87.56979Q50.784374 88.49167 50.159374 89.00729Q49.55 89.50729 48.596874 89.50729Q47.3625 89.50729 46.64375 88.61667Q45.8 87.55417 45.8 85.13229ZM46.878124 85.13229Q46.878124 87.24167 47.378124 87.94479Q47.878124 88.64792 48.596874 88.64792Q49.33125 88.64792 49.815624 87.94479Q50.315624 87.24167 50.315624 85.13229Q50.315624 83.00729 49.815624 82.31979Q49.33125 81.61667 48.58125 81.61667Q47.8625 81.61667 47.425 82.22604Q46.878124 83.00729 46.878124 85.13229Z" fill-rule="nonzero"/>
  <path fill="#ff9900" d="M174.0 54.833332C174.0 54.281048 174.44771 53.833332 175.0 53.833332L185.0 53.833332C185.55229 53.833332 186.0 54.281048 186.0 54.833332L186.0 64.833336C186.0 65.38562 185.55229 65.833336 185.0 65.833336L175.0 65.833336C174.44771 65.833336 174.0 65.38562 174.0 64.833336Z" fill-rule="nonzero"/>
  <path fill="#f3f3f3" d="M194.875 63.833332L194.875 55.239582L196.01562 55.239582L196.01562 62.817707L200.25 62.817707L200.25 63.833332L194.875 63.833332ZM201.40625 60.723957Q201.40625 58.989582 202.35938 58.161457Q203.15625 57.473957 204.3125 57.473957Q205.59375 57.473957 206.40625 58.317707Q207.23438 59.145832 207.23438 60.630207Q207.23438 61.833332 206.875 62.520832Q206.51562 63.208332 205.8125 63.598957Q205.125 63.973957 204.3125 63.973957Q203.01562 63.973957 202.20312 63.145832Q201.40625 62.302082 201.40625 60.723957ZM202.48438 60.723957Q202.48438 61.911457 203.0 62.505207Q203.53125 63.098957 204.3125 63.098957Q205.10938 63.098957 205.625 62.505207Q206.14062 61.911457 206.14062 60.692707Q206.14062 59.536457 205.60938 58.942707Q205.09375 58.348957 204.3125 58.348957Q203.53125 58.348957 203.0 58.942707Q202.48438 59.520832 202.48438 60.723957ZM212.85938 61.552082L213.89062 61.692707Q213.71875 62.755207 213.01562 63.364582Q212.3125 63.973957 211.29688 63.973957Q210.01562 63.973957 209.23438 63.145832Q208.46875 62.302082 208.46875 60.739582Q208.46875 59.739582 208.79688 58.989582Q209.14062 58.223957 209.8125 57.848957Q210.5 57.473957 211.3125 57.473957Q212.3125 57.473957 212.95312 57.989582Q213.60938 58.489582 213.79688 59.442707L212.76562 59.598957Q212.625 58.973957 212.25 58.661457Q211.875 58.333332 211.34375 58.333332Q210.54688 58.333332 210.04688 58.911457Q209.54688 59.473957 209.54688 60.708332Q209.54688 61.973957 210.03125 62.536457Q210.51562 63.098957 211.28125 63.098957Q211.90625 63.098957 212.3125 62.723957Q212.73438 62.348957 212.85938 61.552082ZM214.40625 60.723957Q214.40625 58.989582 215.35938 58.161457Q216.15625 57.473957 217.3125 57.473957Q218.59375 57.473957 219.40625 58.317707Q220.23438 59.145832 220.23438 60.630207Q220.23438 61.833332 219.875 62.520832Q219.51562 63.208332 218.8125 63.598957Q218.125 63.973957 217.3125 63.973957Q216.01562 63.973957 215.20312 63.145832Q214.40625 62.302082 214.40625 60.723957ZM215.48438 60.723957Q215.48438 61.911457 216.0 62.505207Q216.53125 63.098957 217.3125 63.098957Q218.10938 63.098957 218.625 62.505207Q219.14062 61.911457 219.14062 60.692707Q219.14062 59.536457 218.60938 58.942707Q218.09375 58.348957 217.3125 58.348957Q216.53125 58.348957 216.0 58.942707Q215.48438 59.520832 215.48438 60.723957Z" fill-rule="nonzero"/>
  <path fill="#6d9eeb" d="M237.0 54.833332C237.0 54.281048 237.44771 53.833332 238.0 53.833332L248.0 53.833332C248.55229 53.833332 249.0 54.281048 249.0 54.833332L249.0 64.833336C249.0 65.38562 248.55229 65.833336 248.0 65.833336L238.0 65.833336C237.44771 65.833336 237.0 65.38562 237.0 64.833336Z" fill-rule="nonzero"/>
  <path fill="#f3f3f3" d="M257.95312 63.833332L257.95312 55.239582L264.15625 55.239582L264.15625 56.255207L259.09375 56.255207L259.09375 58.880207L263.84375 58.880207L263.84375 59.895832L259.09375 59.895832L259.09375 62.817707L264.35938 62.817707L264.35938 63.833332L257.95312 63.833332ZM265.09375 63.833332L267.35938 60.598957L265.26562 57.614582L266.57812 57.614582L267.53125 59.067707Q267.79688 59.489582 267.96875 59.770832Q268.21875 59.380207 268.4375 59.083332L269.48438 57.614582L270.75 57.614582L268.59375 60.536457L270.90625 63.833332L269.625 63.833332L268.34375 61.895832L268.0 61.380207L266.35938 63.833332L265.09375 63.833332ZM270.79688 66.22395L270.79688 57.614582L271.75 57.614582L271.75 58.411457Q272.09375 57.942707 272.51562 57.708332Q272.95312 57.473957 273.5625 57.473957Q274.35938 57.473957 274.96875 57.880207Q275.57812 58.286457 275.875 59.036457Q276.1875 59.786457 276.1875 60.677082Q276.1875 61.630207 275.84375 62.395832Q275.51562 63.161457 274.85938 63.567707Q274.20312 63.973957 273.48438 63.973957Q272.95312 63.973957 272.53125 63.755207Q272.10938 63.520832 271.84375 63.192707L271.84375 66.22395L270.79688 66.22395ZM271.75 60.755207Q271.75 61.958332 272.23438 62.536457Q272.71875 63.098957 273.40625 63.098957Q274.10938 63.098957 274.60938 62.505207Q275.10938 61.911457 275.10938 60.661457Q275.10938 59.473957 274.625 58.895832Q274.14062 58.302082 273.45312 58.302082Q272.78125 58.302082 272.26562 58.927082Q271.75 59.552082 271.75 60.755207ZM277.78125 63.833332L277.78125 57.614582L278.73438 57.614582L278.73438 58.552082Q279.09375 57.895832 279.39062 57.692707Q279.70312 57.473957 280.07812 57.473957Q280.60938 57.473957 281.15625 57.802082L280.79688 58.786457Q280.40625 58.552082 280.03125 58.552082Q279.67188 58.552082 279.39062 58.770832Q279.125 58.973957 279.01562 59.348957Q278.82812 59.911457 278.82812 60.567707L278.82812 63.833332L277.78125 63.833332ZM286.04688 61.833332L287.14062 61.958332Q286.89062 62.911457 286.1875 63.442707Q285.48438 63.973957 284.40625 63.973957Q283.04688 63.973957 282.23438 63.130207Q281.4375 62.286457 281.4375 60.770832Q281.4375 59.208332 282.25 58.348957Q283.0625 57.473957 284.34375 57.473957Q285.59375 57.473957 286.375 58.317707Q287.17188 59.161457 287.17188 60.708332Q287.17188 60.802082 287.17188 60.989582L282.53125 60.989582Q282.59375 62.020832 283.10938 62.567707Q283.625 63.098957 284.40625 63.098957Q284.98438 63.098957 285.39062 62.802082Q285.8125 62.489582 286.04688 61.833332ZM282.59375 60.130207L286.0625 60.130207Q286.0 59.333332 285.67188 58.942707Q285.15625 58.333332 284.35938 58.333332Q283.625 58.333332 283.125 58.817707Q282.64062 59.302082 282.59375 60.130207ZM288.375 61.973957L289.40625 61.817707Q289.5 62.442707 289.89062 62.770832Q290.29688 63.098957 291.03125 63.098957Q291.75 63.098957 292.09375 62.817707Q292.45312 62.520832 292.45312 62.114582Q292.45312 61.755207 292.14062 61.552082Q291.92188 61.411457 291.0625 61.192707Q289.90625 60.895832 289.45312 60.692707Q289.01562 60.473957 288.78125 60.098957Q288.54688 59.723957 288.54688 59.255207Q288.54688 58.848957 288.73438 58.489582Q288.92188 58.130207 289.25 57.895832Q289.5 57.723957 289.92188 57.598957Q290.34375 57.473957 290.84375 57.473957Q291.5625 57.473957 292.10938 57.692707Q292.67188 57.895832 292.9375 58.255207Q293.20312 58.614582 293.29688 59.208332L292.26562 59.348957Q292.20312 58.880207 291.85938 58.614582Q291.53125 58.333332 290.90625 58.333332Q290.1875 58.333332 289.875 58.583332Q289.5625 58.817707 289.5625 59.145832Q289.5625 59.348957 289.6875 59.505207Q289.82812 59.677082 290.09375 59.786457Q290.25 59.848957 291.03125 60.052082Q292.15625 60.364582 292.59375 60.552082Q293.03125 60.739582 293.28125 61.098957Q293.53125 61.458332 293.53125 62.005207Q293.53125 62.536457 293.21875 63.005207Q292.92188 63.458332 292.34375 63.723957Q291.76562 63.973957 291.03125 63.973957Q289.8125 63.973957 289.17188 63.473957Q288.54688 62.958332 288.375 61.973957ZM295.375 61.973957L296.40625 61.817707Q296.5 62.442707 296.89062 62.770832Q297.29688 63.098957 298.03125 63.098957Q298.75 63.098957 299.09375 62.817707Q299.45312 62.520832 299.45312 62.114582Q299.45312 61.755207 299.14062 61.552082Q298.92188 61.411457 298.0625 61.192707Q296.90625 60.895832 296.45312 60.692707Q296.01562 60.473957 295.78125 60.098957Q295.54688 59.723957 295.54688 59.255207Q295.54688 58.848957 295.73438 58.489582Q295.92188 58.130207 296.25 57.895832Q296.5 57.723957 296.92188 57.598957Q297.34375 57.473957 297.84375 57.473957Q298.5625 57.473957 299.10938 57.692707Q299.67188 57.895832 299.9375 58.255207Q300.20312 58.614582 300.29688 59.208332L299.26562 59.348957Q299.20312 58.880207 298.85938 58.614582Q298.53125 58.333332 297.90625 58.333332Q297.1875 58.333332 296.875 58.583332Q296.5625 58.817707 296.5625 59.145832Q296.5625 59.348957 296.6875 59.505207Q296.82812 59.677082 297.09375 59.786457Q297.25 59.848957 298.03125 60.052082Q299.15625 60.364582 299.59375 60.552082Q300.03125 60.739582 300.28125 61.098957Q300.53125 61.458332 300.53125 62.005207Q300.53125 62.536457 300.21875 63.005207Q299.92188 63.458332 299.34375 63.723957Q298.76562 63.973957 298.03125 63.973957Q296.8125 63.973957 296.17188 63.473957Q295.54688 62.958332 295.375 61.973957ZM303.09375 63.833332L303.09375 62.630207L304.29688 62.630207L304.29688 63.833332L303.09375 63.833332ZM305.78125 56.473957L305.78125 55.239582L306.84375 55.239582L306.84375 56.473957L305.78125 56.473957ZM304.45312 66.2552L304.64062 65.34895Q304.96875 65.42708 305.14062 65.42708Q305.46875 65.42708 305.625 65.20833Q305.78125 65.0052 305.78125 64.14583L305.78125 57.614582L306.84375 57.614582L306.84375 64.17708Q306.84375 65.3177 306.54688 65.77083Q306.15625 66.36458 305.28125 66.36458Q304.84375 66.36458 304.45312 66.2552ZM308.375 61.973957L309.40625 61.817707Q309.5 62.442707 309.89062 62.770832Q310.29688 63.098957 311.03125 63.098957Q311.75 63.098957 312.09375 62.817707Q312.45312 62.520832 312.45312 62.114582Q312.45312 61.755207 312.14062 61.552082Q311.92188 61.411457 311.0625 61.192707Q309.90625 60.895832 309.45312 60.692707Q309.01562 60.473957 308.78125 60.098957Q308.54688 59.723957 308.54688 59.255207Q308.54688 58.848957 308.73438 58.489582Q308.92188 58.130207 309.25 57.895832Q309.5 57.723957 309.92188 57.598957Q310.34375 57.473957 310.84375 57.473957Q311.5625 57.473957 312.10938 57.692707Q312.67188 57.895832 312.9375 58.255207Q313.20312 58.614582 313.29688 59.208332L312.26562 59.348957Q312.20312 58.880207 311.85938 58.614582Q311.53125 58.333332 310.90625 58.333332Q310.1875 58.333332 309.875 58.583332Q309.5625 58.817707 309.5625 59.145832Q309.5625 59.348957 309.6875 59.505207Q309.82812 59.677082 310.09375 59.786457Q310.25 59.848957 311.03125 60.052082Q312.15625 60.364582 312.59375 60.552082Q313.03125 60.739582 313.28125 61.098957Q313.53125 61.458332 313.53125 62.005207Q313.53125 62.536457 313.21875 63.005207Q312.92188 63.458332 312.34375 63.723957Q311.76562 63.973957 311.03125 63.973957Q309.8125 63.973957 309.17188 63.473957Q308.54688 62.958332 308.375 61.973957Z" fill-rule="nonzero"/>
  <path fill="#cc0000" d="M331.0 54.833332C331.0 54.281048 331.44772 53.833332 332.0 53.833332L342.0 53.833332C342.55228 53.833332 343.0 54.281048 343.0 54.833332L343.0 64.833336C343.0 65.38562 342.55228 65.833336 342.0 65.833336L332.0 65.833336C331.44772 65.833336 331.0 65.38562 331.0 64.833336Z" fill-rule="nonzero"/>
  <path fill="#f3f3f3" d="M351.9375 63.833332L351.9375 55.239582L355.75 55.239582Q356.90625 55.239582 357.5 55.473957Q358.09375 55.708332 358.45312 56.302082Q358.8125 56.880207 358.8125 57.583332Q358.8125 58.505207 358.21875 59.130207Q357.625 59.755207 356.39062 59.927082Q356.84375 60.145832 357.07812 60.348957Q357.57812 60.802082 358.01562 61.489582L359.51562 63.833332L358.07812 63.833332L356.95312 62.052082Q356.45312 61.270832 356.125 60.864582Q355.8125 60.458332 355.54688 60.302082Q355.29688 60.130207 355.03125 60.052082Q354.84375 60.020832 354.40625 60.020832L353.07812 60.020832L353.07812 63.833332L351.9375 63.833332ZM353.07812 59.036457L355.53125 59.036457Q356.29688 59.036457 356.73438 58.880207Q357.1875 58.708332 357.40625 58.364582Q357.64062 58.005207 357.64062 57.583332Q357.64062 56.973957 357.1875 56.583332Q356.75 56.192707 355.79688 56.192707L353.07812 56.192707L353.07812 59.036457ZM364.85938 63.067707Q364.26562 63.567707 363.71875 63.770832Q363.1875 63.973957 362.5625 63.973957Q361.53125 63.973957 360.98438 63.473957Q360.4375 62.973957 360.4375 62.192707Q360.4375 61.739582 360.64062 61.364582Q360.84375 60.973957 361.1875 60.755207Q361.53125 60.520832 361.95312 60.411457Q362.25 60.317707 362.89062 60.239582Q364.15625 60.098957 364.76562 59.880207Q364.76562 59.661457 364.76562 59.614582Q364.76562 58.958332 364.46875 58.692707Q364.0625 58.348957 363.26562 58.348957Q362.53125 58.348957 362.17188 58.614582Q361.8125 58.864582 361.64062 59.520832L360.60938 59.380207Q360.75 58.723957 361.07812 58.317707Q361.40625 57.911457 362.01562 57.692707Q362.625 57.473957 363.42188 57.473957Q364.21875 57.473957 364.71875 57.661457Q365.21875 57.848957 365.45312 58.130207Q365.6875 58.411457 365.78125 58.848957Q365.82812 59.114582 365.82812 59.817707L365.82812 61.223957Q365.82812 62.692707 365.89062 63.083332Q365.96875 63.473957 366.17188 63.833332L365.0625 63.833332Q364.90625 63.505207 364.85938 63.067707ZM364.76562 60.708332Q364.1875 60.942707 363.04688 61.114582Q362.39062 61.208332 362.125 61.333332Q361.85938 61.442707 361.70312 61.661457Q361.5625 61.880207 361.5625 62.161457Q361.5625 62.583332 361.875 62.864582Q362.20312 63.145832 362.8125 63.145832Q363.42188 63.145832 363.89062 62.880207Q364.375 62.614582 364.59375 62.145832Q364.76562 61.786457 364.76562 61.098957L364.76562 60.708332ZM367.79688 56.458332L367.79688 55.239582L368.85938 55.239582L368.85938 56.458332L367.79688 56.458332ZM367.79688 63.833332L367.79688 57.614582L368.85938 57.614582L368.85938 63.833332L367.79688 63.833332ZM370.76562 63.833332L370.76562 55.239582L371.82812 55.239582L371.82812 63.833332L370.76562 63.833332ZM373.375 61.973957L374.40625 61.817707Q374.5 62.442707 374.89062 62.770832Q375.29688 63.098957 376.03125 63.098957Q376.75 63.098957 377.09375 62.817707Q377.45312 62.520832 377.45312 62.114582Q377.45312 61.755207 377.14062 61.552082Q376.92188 61.411457 376.0625 61.192707Q374.90625 60.895832 374.45312 60.692707Q374.01562 60.473957 373.78125 60.098957Q373.54688 59.723957 373.54688 59.255207Q373.54688 58.848957 373.73438 58.489582Q373.92188 58.130207 374.25 57.895832Q374.5 57.723957 374.92188 57.598957Q375.34375 57.473957 375.84375 57.473957Q376.5625 57.473957 377.10938 57.692707Q377.67188 57.895832 377.9375 58.255207Q378.20312 58.614582 378.29688 59.208332L377.26562 59.348957Q377.20312 58.880207 376.85938 58.614582Q376.53125 58.333332 375.90625 58.333332Q375.1875 58.333332 374.875 58.583332Q374.5625 58.817707 374.5625 59.145832Q374.5625 59.348957 374.6875 59.505207Q374.82812 59.677082 375.09375 59.786457Q375.25 59.848957 376.03125 60.052082Q377.15625 60.364582 377.59375 60.552082Q378.03125 60.739582 378.28125 61.098957Q378.53125 61.458332 378.53125 62.005207Q378.53125 62.536457 378.21875 63.005207Q377.92188 63.458332 377.34375 63.723957Q376.76562 63.973957 376.03125 63.973957Q374.8125 63.973957 374.17188 63.473957Q373.54688 62.958332 373.375 61.973957Z" fill-rule="nonzero"/>
  <path fill="#f3f3f3" d="M18.76875 36.3L18.76875 21.9875L20.659374 21.9875L20.659374 34.6125L27.70625 34.6125L27.70625 36.3L18.76875 36.3ZM28.971874 31.1125Q28.971874 28.2375 30.565624 26.846874Q31.909374 25.690624 33.83125 25.690624Q35.971874 25.690624 37.315624 27.096874Q38.675 28.503124 38.675 30.971874Q38.675 32.971874 38.08125 34.128124Q37.4875 35.26875 36.33125 35.909374Q35.190624 36.534374 33.83125 36.534374Q31.64375 36.534374 30.3 35.14375Q28.971874 33.7375 28.971874 31.1125ZM30.76875 31.1125Q30.76875 33.1125 31.628124 34.096874Q32.503124 35.08125 33.83125 35.08125Q35.14375 35.08125 36.003124 34.096874Q36.878124 33.096874 36.878124 31.05Q36.878124 29.128124 36.003124 28.14375Q35.128124 27.14375 33.83125 27.14375Q32.503124 27.14375 31.628124 28.14375Q30.76875 29.128124 30.76875 31.1125ZM47.39375 32.503124L49.1125 32.721874Q48.83125 34.51875 47.659374 35.534374Q46.503124 36.534374 44.8 36.534374Q42.675 36.534374 41.378124 35.14375Q40.08125 33.753124 40.08125 31.159374Q40.08125 29.471874 40.628124 28.221874Q41.190624 26.95625 42.33125 26.33125Q43.471874 25.690624 44.815624 25.690624Q46.503124 25.690624 47.565624 26.55Q48.64375 27.409374 48.95625 28.971874L47.2375 29.2375Q47.003124 28.190624 46.378124 27.675Q45.753124 27.14375 44.878124 27.14375Q43.55 27.14375 42.721874 28.096874Q41.89375 29.05 41.89375 31.096874Q41.89375 33.190624 42.690624 34.14375Q43.4875 35.08125 44.784374 35.08125Q45.815624 35.08125 46.503124 34.45625Q47.20625 33.815624 47.39375 32.503124ZM49.971874 31.1125Q49.971874 28.2375 51.565624 26.846874Q52.909374 25.690624 54.83125 25.690624Q56.971874 25.690624 58.315624 27.096874Q59.675 28.503124 59.675 30.971874Q59.675 32.971874 59.08125 34.128124Q58.4875 35.26875 57.33125 35.909374Q56.190624 36.534374 54.83125 36.534374Q52.64375 36.534374 51.3 35.14375Q49.971874 33.7375 49.971874 31.1125ZM51.76875 31.1125Q51.76875 33.1125 52.628124 34.096874Q53.503124 35.08125 54.83125 35.08125Q56.14375 35.08125 57.003124 34.096874Q57.878124 33.096874 57.878124 31.05Q57.878124 29.128124 57.003124 28.14375Q56.128124 27.14375 54.83125 27.14375Q53.503124 27.14375 52.628124 28.14375Q51.76875 29.128124 51.76875 31.1125ZM62.1125 27.925L62.1125 25.925L64.1125 25.925L64.1125 27.925L62.1125 27.925ZM62.1125 36.3L62.1125 34.3L64.1125 34.3L64.1125 36.3L62.1125 36.3ZM73.84688 36.3L73.84688 21.9875L78.76875 21.9875Q80.44063 21.9875 81.33125 22.190624Q82.55 22.471874 83.425 23.20625Q84.55 24.175 85.1125 25.659374Q85.675 27.14375 85.675 29.065624Q85.675 30.690624 85.3 31.95625Q84.925 33.20625 84.31563 34.034374Q83.72188 34.8625 83.01875 35.346874Q82.31563 35.815624 81.31563 36.065624Q80.31563 36.3 79.00313 36.3L73.84688 36.3ZM75.7375 34.6125L78.8 34.6125Q80.20625 34.6125 81.00313 34.346874Q81.81563 34.08125 82.3 33.596874Q82.97188 32.925 83.34688 31.8Q83.72188 30.659374 83.72188 29.034374Q83.72188 26.784374 82.9875 25.58125Q82.25313 24.378124 81.19063 23.971874Q80.44063 23.675 78.75313 23.675L75.7375 23.675L75.7375 34.6125ZM87.76875 36.3L87.76875 21.9875L93.14375 21.9875Q94.78438 21.9875 95.76875 22.425Q96.75313 22.846874 97.31563 23.753124Q97.87813 24.659374 97.87813 25.64375Q97.87813 26.565624 97.37813 27.378124Q96.89375 28.190624 95.87813 28.675Q97.175 29.065624 97.87813 29.9875Q98.58125 30.89375 98.58125 32.14375Q98.58125 33.159374 98.14375 34.01875Q97.72188 34.878124 97.09688 35.346874Q96.47188 35.815624 95.53438 36.065624Q94.59688 36.3 93.22188 36.3L87.76875 36.3ZM89.65938 28.003124L92.75313 28.003124Q94.01875 28.003124 94.56563 27.83125Q95.28438 27.6125 95.64375 27.128124Q96.01875 26.628124 96.01875 25.8625Q96.01875 25.159374 95.675 24.6125Q95.33125 24.065624 94.69063 23.878124Q94.06563 23.675 92.51875 23.675L89.65938 23.675L89.65938 28.003124ZM89.65938 34.6125L93.22188 34.6125Q94.14375 34.6125 94.51875 34.534374Q95.175 34.425 95.6125 34.159374Q96.05 33.878124 96.33125 33.3625Q96.6125 32.83125 96.6125 32.14375Q96.6125 31.346874 96.20625 30.753124Q95.8 30.159374 95.06563 29.925Q94.33125 29.690624 92.97188 29.690624L89.65938 29.690624L89.65938 34.6125ZM117.69063 34.76875Q119.01875 35.675 120.12813 36.096874L119.56563 37.409374Q118.01875 36.8625 116.4875 35.659374Q114.89375 36.55 112.97188 36.55Q111.03438 36.55 109.44063 35.6125Q107.8625 34.675 107.00313 32.971874Q106.15938 31.26875 106.15938 29.14375Q106.15938 27.01875 107.01875 25.284374Q107.87813 23.55 109.45625 22.64375Q111.05 21.721874 113.01875 21.721874Q115.00313 21.721874 116.58125 22.675Q118.175 23.6125 119.00313 25.315624Q119.84688 27.003124 119.84688 29.128124Q119.84688 30.89375 119.31563 32.315624Q118.78438 33.721874 117.69063 34.76875ZM113.51875 32.346874Q115.15938 32.8 116.22188 33.70625Q117.89375 32.190624 117.89375 29.128124Q117.89375 27.39375 117.3 26.096874Q116.72188 24.8 115.58125 24.08125Q114.44063 23.3625 113.01875 23.3625Q110.90938 23.3625 109.50313 24.815624Q108.1125 26.253124 108.1125 29.14375Q108.1125 31.940624 109.4875 33.440624Q110.87813 34.925 113.01875 34.925Q114.03438 34.925 114.94063 34.534374Q114.05 33.971874 113.06563 33.721874L113.51875 32.346874ZM129.40938 36.3L129.40938 34.76875Q128.20625 36.534374 126.12813 36.534374Q125.20625 36.534374 124.40938 36.190624Q123.6125 35.83125 123.22188 35.3Q122.84688 34.76875 122.69063 33.9875Q122.58125 33.471874 122.58125 32.346874L122.58125 25.925L124.33125 25.925L124.33125 31.675Q124.33125 33.05 124.44063 33.534374Q124.6125 34.221874 125.14375 34.628124Q125.69063 35.01875 126.47188 35.01875Q127.26875 35.01875 127.95625 34.6125Q128.65938 34.20625 128.94063 33.51875Q129.2375 32.815624 129.2375 31.4875L129.2375 25.925L130.9875 25.925L130.9875 36.3L129.40938 36.3ZM139.72188 32.95625L141.53438 33.190624Q141.1125 34.76875 139.94063 35.659374Q138.78438 36.534374 136.97188 36.534374Q134.70625 36.534374 133.3625 35.14375Q132.03438 33.7375 132.03438 31.20625Q132.03438 28.58125 133.37813 27.14375Q134.72188 25.690624 136.87813 25.690624Q138.95625 25.690624 140.26875 27.1125Q141.59688 28.51875 141.59688 31.096874Q141.59688 31.253124 141.58125 31.565624L133.84688 31.565624Q133.94063 33.26875 134.81563 34.175Q135.69063 35.08125 136.9875 35.08125Q137.95625 35.08125 138.62813 34.58125Q139.31563 34.065624 139.72188 32.95625ZM133.94063 30.1125L139.7375 30.1125Q139.62813 28.815624 139.08125 28.159374Q138.2375 27.14375 136.89375 27.14375Q135.69063 27.14375 134.8625 27.95625Q134.03438 28.753124 133.94063 30.1125ZM143.59688 36.3L143.59688 25.925L145.175 25.925L145.175 27.503124Q145.78438 26.39375 146.3 26.05Q146.81563 25.690624 147.425 25.690624Q148.31563 25.690624 149.2375 26.253124L148.62813 27.89375Q147.9875 27.503124 147.34688 27.503124Q146.76875 27.503124 146.3 27.8625Q145.84688 28.20625 145.64375 28.815624Q145.3625 29.753124 145.3625 30.8625L145.3625 36.3L143.59688 36.3ZM150.53438 40.3L150.34688 38.64375Q150.925 38.8 151.34688 38.8Q151.94063 38.8 152.28438 38.596874Q152.64375 38.409374 152.8625 38.065624Q153.03438 37.8 153.40938 36.753124Q153.45625 36.596874 153.56563 36.315624L149.62813 25.925L151.51875 25.925L153.675 31.940624Q154.09688 33.08125 154.425 34.33125Q154.7375 33.128124 155.14375 31.971874L157.3625 25.925L159.12813 25.925L155.175 36.471874Q154.55 38.190624 154.19063 38.83125Q153.72188 39.70625 153.1125 40.096874Q152.51875 40.503124 151.675 40.503124Q151.15938 40.503124 150.53438 40.3ZM161.08125 36.3L161.08125 34.3L163.08125 34.3L163.08125 36.3Q163.08125 37.409374 162.69063 38.08125Q162.3 38.76875 161.45625 39.128124L160.95625 38.378124Q161.51875 38.14375 161.78438 37.659374Q162.05 37.190624 162.08125 36.3L161.08125 36.3ZM172.59688 36.3L172.59688 25.925L174.175 25.925L174.175 27.503124Q174.78438 26.39375 175.3 26.05Q175.81563 25.690624 176.425 25.690624Q177.31563 25.690624 178.2375 26.253124L177.62813 27.89375Q176.9875 27.503124 176.34688 27.503124Q175.76875 27.503124 175.3 27.8625Q174.84688 28.20625 174.64375 28.815624Q174.3625 29.753124 174.3625 30.8625L174.3625 36.3L172.59688 36.3ZM186.72188 32.95625L188.53438 33.190624Q188.1125 34.76875 186.94063 35.659374Q185.78438 36.534374 183.97188 36.534374Q181.70625 36.534374 180.3625 35.14375Q179.03438 33.7375 179.03438 31.20625Q179.03438 28.58125 180.37813 27.14375Q181.72188 25.690624 183.87813 25.690624Q185.95625 25.690624 187.26875 27.1125Q188.59688 28.51875 188.59688 31.096874Q188.59688 31.253124 188.58125 31.565624L180.84688 31.565624Q180.94063 33.26875 181.81563 34.175Q182.69063 35.08125 183.9875 35.08125Q184.95625 35.08125 185.62813 34.58125Q186.31563 34.065624 186.72188 32.95625ZM180.94063 30.1125L186.7375 30.1125Q186.62813 28.815624 186.08125 28.159374Q185.2375 27.14375 183.89375 27.14375Q182.69063 27.14375 181.8625 27.95625Q181.03438 28.753124 180.94063 30.1125ZM197.2375 40.26875L197.2375 35.190624Q196.81563 35.76875 196.08125 36.159374Q195.34688 36.534374 194.51875 36.534374Q192.675 36.534374 191.33125 35.065624Q190.00313 33.58125 190.00313 31.01875Q190.00313 29.45625 190.53438 28.221874Q191.08125 26.971874 192.1125 26.33125Q193.14375 25.690624 194.37813 25.690624Q196.3 25.690624 197.40938 27.315624L197.40938 25.925L198.9875 25.925L198.9875 40.26875L197.2375 40.26875ZM191.81563 31.08125Q191.81563 33.08125 192.64375 34.08125Q193.4875 35.08125 194.65938 35.08125Q195.78438 35.08125 196.59688 34.14375Q197.40938 33.190624 197.40938 31.2375Q197.40938 29.175 196.55 28.128124Q195.69063 27.08125 194.55 27.08125Q193.40938 27.08125 192.6125 28.05Q191.81563 29.01875 191.81563 31.08125ZM200.3 36.55L204.45625 21.7375L205.8625 21.7375L201.72188 36.55L200.3 36.55ZM206.90938 33.20625L208.65938 32.925Q208.8 33.971874 209.47188 34.534374Q210.14375 35.08125 211.34688 35.08125Q212.55 35.08125 213.12813 34.596874Q213.72188 34.096874 213.72188 33.440624Q213.72188 32.846874 213.20625 32.503124Q212.84688 32.26875 211.40938 31.909374Q209.47188 31.409374 208.72188 31.065624Q207.9875 30.70625 207.59688 30.08125Q207.20625 29.440624 207.20625 28.675Q207.20625 27.9875 207.51875 27.39375Q207.84688 26.8 208.39375 26.409374Q208.8 26.1125 209.50313 25.909374Q210.22188 25.690624 211.03438 25.690624Q212.25313 25.690624 213.175 26.05Q214.09688 26.39375 214.53438 27.003124Q214.97188 27.596874 215.14375 28.596874L213.425 28.83125Q213.3 28.034374 212.7375 27.596874Q212.175 27.14375 211.15938 27.14375Q209.94063 27.14375 209.425 27.55Q208.90938 27.940624 208.90938 28.471874Q208.90938 28.815624 209.12813 29.096874Q209.33125 29.378124 209.8 29.565624Q210.06563 29.659374 211.34688 30.003124Q213.22188 30.503124 213.95625 30.83125Q214.69063 31.14375 215.1125 31.753124Q215.53438 32.346874 215.53438 33.253124Q215.53438 34.128124 215.01875 34.909374Q214.50313 35.690624 213.53438 36.1125Q212.56563 36.534374 211.34688 36.534374Q209.33125 36.534374 208.26875 35.690624Q207.20625 34.846874 206.90938 33.20625ZM226.97188 40.503124Q225.51875 38.675 224.51875 36.221874Q223.51875 33.753124 223.51875 31.1125Q223.51875 28.784374 224.26875 26.659374Q225.14375 24.190624 226.97188 21.7375L228.2375 21.7375Q227.05 23.76875 226.675 24.64375Q226.08125 25.9875 225.7375 27.45625Q225.31563 29.284374 225.31563 31.128124Q225.31563 35.815624 228.2375 40.503124L226.97188 40.503124ZM230.6125 36.3L230.6125 21.9875L232.37813 21.9875L232.37813 27.1125Q233.6125 25.690624 235.4875 25.690624Q236.62813 25.690624 237.47188 26.14375Q238.33125 26.596874 238.69063 27.409374Q239.06563 28.20625 239.06563 29.721874L239.06563 36.3L237.31563 36.3L237.31563 29.721874Q237.31563 28.409374 236.7375 27.815624Q236.15938 27.20625 235.12813 27.20625Q234.34688 27.20625 233.64375 27.6125Q232.95625 28.01875 232.65938 28.721874Q232.37813 29.409374 232.37813 30.628124L232.37813 36.3L230.6125 36.3ZM240.62813 24.003124L240.62813 21.9875L242.39375 21.9875L242.39375 24.003124L240.62813 24.003124ZM240.62813 36.3L240.62813 25.925L242.39375 25.925L242.39375 36.3L240.62813 36.3ZM244.3 37.159374L246.00313 37.409374Q246.1125 38.20625 246.59688 38.565624Q247.25313 39.05 248.39375 39.05Q249.6125 39.05 250.26875 38.565624Q250.94063 38.08125 251.175 37.20625Q251.31563 36.659374 251.3 34.940624Q250.14375 36.3 248.425 36.3Q246.28438 36.3 245.1125 34.753124Q243.94063 33.20625 243.94063 31.05Q243.94063 29.565624 244.47188 28.315624Q245.01875 27.065624 246.03438 26.378124Q247.06563 25.690624 248.44063 25.690624Q250.26875 25.690624 251.47188 27.175L251.47188 25.925L253.08125 25.925L253.08125 34.89375Q253.08125 37.315624 252.58125 38.315624Q252.09688 39.33125 251.01875 39.909374Q249.95625 40.503124 248.39375 40.503124Q246.55 40.503124 245.39375 39.675Q244.25313 38.846874 244.3 37.159374ZM245.75313 30.925Q245.75313 32.971874 246.56563 33.909374Q247.37813 34.846874 248.59688 34.846874Q249.8 34.846874 250.6125 33.909374Q251.44063 32.971874 251.44063 30.9875Q251.44063 29.08125 250.59688 28.1125Q249.75313 27.14375 248.56563 27.14375Q247.39375 27.14375 246.56563 28.096874Q245.75313 29.05 245.75313 30.925ZM255.6125 36.3L255.6125 21.9875L257.3781 21.9875L257.3781 27.1125Q258.6125 25.690624 260.4875 25.690624Q261.6281 25.690624 262.47186 26.14375Q263.33124 26.596874 263.6906 27.409374Q264.0656 28.20625 264.0656 29.721874L264.0656 36.3L262.3156 36.3L262.3156 29.721874Q262.3156 28.409374 261.7375 27.815624Q261.15936 27.20625 260.1281 27.20625Q259.34686 27.20625 258.64374 27.6125Q257.95624 28.01875 257.65936 28.721874Q257.3781 29.409374 257.3781 30.628124L257.3781 36.3L255.6125 36.3ZM272.72186 32.95625L274.53436 33.190624Q274.1125 34.76875 272.9406 35.659374Q271.78436 36.534374 269.97186 36.534374Q267.70624 36.534374 266.3625 35.14375Q265.03436 33.7375 265.03436 31.20625Q265.03436 28.58125 266.3781 27.14375Q267.72186 25.690624 269.8781 25.690624Q271.95624 25.690624 273.26874 27.1125Q274.59686 28.51875 274.59686 31.096874Q274.59686 31.253124 274.58124 31.565624L266.84686 31.565624Q266.9406 33.26875 267.8156 34.175Q268.6906 35.08125 269.9875 35.08125Q270.95624 35.08125 271.6281 34.58125Q272.3156 34.065624 272.72186 32.95625ZM266.9406 30.1125L272.7375 30.1125Q272.6281 28.815624 272.08124 28.159374Q271.2375 27.14375 269.89374 27.14375Q268.6906 27.14375 267.8625 27.95625Q267.03436 28.753124 266.9406 30.1125ZM276.59686 36.3L276.59686 25.925L278.175 25.925L278.175 27.503124Q278.78436 26.39375 279.3 26.05Q279.8156 25.690624 280.425 25.690624Q281.3156 25.690624 282.2375 26.253124L281.6281 27.89375Q280.9875 27.503124 280.34686 27.503124Q279.76874 27.503124 279.3 27.8625Q278.84686 28.20625 278.64374 28.815624Q278.3625 29.753124 278.3625 30.8625L278.3625 36.3L276.59686 36.3ZM289.6281 24.003124L289.6281 21.9875L291.39374 21.9875L291.39374 24.003124L289.6281 24.003124ZM289.6281 36.3L289.6281 25.925L291.39374 25.925L291.39374 36.3L289.6281 36.3ZM292.90936 33.20625L294.65936 32.925Q294.8 33.971874 295.47186 34.534374Q296.14374 35.08125 297.34686 35.08125Q298.55 35.08125 299.1281 34.596874Q299.72186 34.096874 299.72186 33.440624Q299.72186 32.846874 299.20624 32.503124Q298.84686 32.26875 297.40936 31.909374Q295.47186 31.409374 294.72186 31.065624Q293.9875 30.70625 293.59686 30.08125Q293.20624 29.440624 293.20624 28.675Q293.20624 27.9875 293.51874 27.39375Q293.84686 26.8 294.39374 26.409374Q294.8 26.1125 295.5031 25.909374Q296.22186 25.690624 297.03436 25.690624Q298.2531 25.690624 299.175 26.05Q300.09686 26.39375 300.53436 27.003124Q300.97186 27.596874 301.14374 28.596874L299.425 28.83125Q299.3 28.034374 298.7375 27.596874Q298.175 27.14375 297.15936 27.14375Q295.9406 27.14375 295.425 27.55Q294.90936 27.940624 294.90936 28.471874Q294.90936 28.815624 295.1281 29.096874Q295.33124 29.378124 295.8 29.565624Q296.0656 29.659374 297.34686 30.003124Q299.22186 30.503124 299.95624 30.83125Q300.6906 31.14375 301.1125 31.753124Q301.53436 32.346874 301.53436 33.253124Q301.53436 34.128124 301.01874 34.909374Q300.5031 35.690624 299.53436 36.1125Q298.5656 36.534374 297.34686 36.534374Q295.33124 36.534374 294.26874 35.690624Q293.20624 34.846874 292.90936 33.20625ZM311.2375 36.3L309.6125 36.3L309.6125 21.9875L311.3625 21.9875L311.3625 27.096874Q312.4875 25.690624 314.20624 25.690624Q315.15936 25.690624 316.01874 26.08125Q316.8781 26.471874 317.425 27.175Q317.97186 27.8625 318.28436 28.846874Q318.59686 29.83125 318.59686 30.95625Q318.59686 33.628124 317.28436 35.08125Q315.97186 36.534374 314.1281 36.534374Q312.28436 36.534374 311.2375 35.003124L311.2375 36.3ZM311.22186 31.034374Q311.22186 32.89375 311.72186 33.7375Q312.5656 35.08125 313.97186 35.08125Q315.1281 35.08125 315.95624 34.08125Q316.8 33.08125 316.8 31.096874Q316.8 29.065624 315.9875 28.1125Q315.1906 27.14375 314.05 27.14375Q312.89374 27.14375 312.05 28.14375Q311.22186 29.14375 311.22186 31.034374ZM327.72186 32.95625L329.53436 33.190624Q329.1125 34.76875 327.9406 35.659374Q326.78436 36.534374 324.97186 36.534374Q322.70624 36.534374 321.3625 35.14375Q320.03436 33.7375 320.03436 31.20625Q320.03436 28.58125 321.3781 27.14375Q322.72186 25.690624 324.8781 25.690624Q326.95624 25.690624 328.26874 27.1125Q329.59686 28.51875 329.59686 31.096874Q329.59686 31.253124 329.58124 31.565624L321.84686 31.565624Q321.9406 33.26875 322.8156 34.175Q323.6906 35.08125 324.9875 35.08125Q325.95624 35.08125 326.6281 34.58125Q327.3156 34.065624 327.72186 32.95625ZM321.9406 30.1125L327.7375 30.1125Q327.6281 28.815624 327.08124 28.159374Q326.2375 27.14375 324.89374 27.14375Q323.6906 27.14375 322.8625 27.95625Q322.03436 28.753124 321.9406 30.1125ZM335.45624 34.721874L335.70624 36.284374Q334.97186 36.440624 334.3781 36.440624Q333.425 36.440624 332.89374 36.14375Q332.3781 35.83125 332.15936 35.346874Q331.9406 34.846874 331.9406 33.26875L331.9406 27.3L330.65936 27.3L330.65936 25.925L331.9406 25.925L331.9406 23.3625L333.6906 22.3L333.6906 25.925L335.45624 25.925L335.45624 27.3L333.6906 27.3L333.6906 33.3625Q333.6906 34.1125 333.78436 34.33125Q333.8781 34.534374 334.08124 34.675Q334.3 34.8 334.6906 34.8Q334.97186 34.8 335.45624 34.721874ZM341.45624 34.721874L341.70624 36.284374Q340.97186 36.440624 340.3781 36.440624Q339.425 36.440624 338.89374 36.14375Q338.3781 35.83125 338.15936 35.346874Q337.9406 34.846874 337.9406 33.26875L337.9406 27.3L336.65936 27.3L336.65936 25.925L337.9406 25.925L337.9406 23.3625L339.6906 22.3L339.6906 25.925L341.45624 25.925L341.45624 27.3L339.6906 27.3L339.6906 33.3625Q339.6906 34.1125 339.78436 34.33125Q339.8781 34.534374 340.08124 34.675Q340.3 34.8 340.6906 34.8Q340.97186 34.8 341.45624 34.721874ZM350.72186 32.95625L352.53436 33.190624Q352.1125 34.76875 350.9406 35.659374Q349.78436 36.534374 347.97186 36.534374Q345.70624 36.534374 344.3625 35.14375Q343.03436 33.7375 343.03436 31.20625Q343.03436 28.58125 344.3781 27.14375Q345.72186 25.690624 347.8781 25.690624Q349.95624 25.690624 351.26874 27.1125Q352.59686 28.51875 352.59686 31.096874Q352.59686 31.253124 352.58124 31.565624L344.84686 31.565624Q344.9406 33.26875 345.8156 34.175Q346.6906 35.08125 347.9875 35.08125Q348.95624 35.08125 349.6281 34.58125Q350.3156 34.065624 350.72186 32.95625ZM344.9406 30.1125L350.7375 30.1125Q350.6281 28.815624 350.08124 28.159374Q349.2375 27.14375 347.89374 27.14375Q346.6906 27.14375 345.8625 27.95625Q345.03436 28.753124 344.9406 30.1125ZM354.59686 36.3L354.59686 25.925L356.175 25.925L356.175 27.503124Q356.78436 26.39375 357.3 26.05Q357.8156 25.690624 358.425 25.690624Q359.3156 25.690624 360.2375 26.253124L359.6281 27.89375Q358.9875 27.503124 358.34686 27.503124Q357.76874 27.503124 357.3 27.8625Q356.84686 28.20625 356.64374 28.815624Q356.3625 29.753124 356.3625 30.8625L356.3625 36.3L354.59686 36.3ZM362.76874 40.503124L361.51874 40.503124Q364.425 35.815624 364.425 31.128124Q364.425 29.284374 364.01874 27.4875Q363.675 26.01875 363.08124 24.675Q362.70624 23.784374 361.51874 21.7375L362.76874 21.7375Q364.6125 24.190624 365.4875 26.659374Q366.2375 28.784374 366.2375 31.1125Q366.2375 33.753124 365.22186 36.221874Q364.22186 38.675 362.76874 40.503124Z" fill-rule="nonzero"/>
</svg>
