<svg width="1512" height="630" viewBox="0 0 1512 630" fill="none" xmlns="http://www.w3.org/2000/svg">
<path d="M1511.46 -232.601H-0.541748V332.449H1511.46V-232.601Z" fill="url(#paint0_linear_201_41)"/>
<path d="M786.53 266.488C837.371 266.488 878.585 225.273 878.585 174.432C878.585 123.59 837.371 82.3754 786.53 82.3754C735.689 82.3754 694.474 123.59 694.474 174.432C694.474 225.273 735.689 266.488 786.53 266.488Z" fill="#FEECC0"/>
<path d="M519.095 60.6907C538.071 59.8339 557.059 59.3928 576.034 59.0904C585.522 58.9014 595.01 58.8636 604.51 58.7502L632.986 58.6368L661.462 58.7502C670.95 58.8636 680.438 58.9014 689.938 59.0904C708.914 59.3928 727.902 59.8464 746.878 60.7033C727.902 61.5601 708.914 62.0137 689.938 62.3161C680.451 62.5051 670.963 62.5429 661.462 62.6563L632.986 62.7697L604.51 62.6563C595.023 62.5429 585.535 62.5051 576.034 62.3161C557.059 61.9885 538.071 61.5475 519.095 60.6907Z" fill="#FEECC0"/>
<path d="M1512 331.051H0V630H1512V331.051Z" fill="url(#paint1_linear_201_41)"/>
<path d="M935.059 446.87C938.221 446.354 941.384 446.077 944.546 445.888C947.709 445.686 950.872 445.636 954.034 445.61C957.197 445.636 960.359 445.686 963.522 445.888C966.685 446.077 969.847 446.341 973.01 446.87C969.847 447.4 966.685 447.664 963.522 447.853C960.359 448.055 957.197 448.105 954.034 448.13C950.872 448.105 947.709 448.055 944.546 447.853C941.384 447.664 938.221 447.387 935.059 446.87Z" fill="#FFEFA9"/>
<path d="M691.4 393.786C693.29 393.27 695.193 392.992 697.083 392.803C698.973 392.614 700.875 392.526 702.765 392.526C704.655 392.514 706.558 392.614 708.448 392.803C710.338 392.992 712.24 393.257 714.13 393.786C712.24 394.316 710.338 394.58 708.448 394.769C706.558 394.958 704.655 395.046 702.765 395.046C700.875 395.046 698.973 394.946 697.083 394.769C695.193 394.58 693.303 394.303 691.4 393.786Z" fill="#EDA97B"/>
<path d="M747.747 395.072C751.628 394.442 755.509 394.064 759.389 393.774C763.27 393.471 767.164 393.308 771.057 393.169C774.95 393.081 778.844 393.03 782.737 393.119C786.631 393.194 790.537 393.358 794.443 393.774C790.562 394.404 786.681 394.782 782.8 395.084C778.919 395.387 775.026 395.55 771.133 395.676C767.239 395.765 763.346 395.815 759.452 395.714C755.546 395.651 751.653 395.487 747.747 395.072Z" fill="#EDA97B"/>
<path d="M751.855 380.481C754.639 379.964 757.424 379.687 760.221 379.498C763.006 379.296 765.79 379.246 768.587 379.221C771.372 379.246 774.157 379.296 776.954 379.498C779.739 379.687 782.523 379.951 785.32 380.481C782.536 381.01 779.751 381.274 776.954 381.463C774.169 381.665 771.385 381.715 768.587 381.741C765.803 381.715 763.018 381.665 760.221 381.463C757.424 381.274 754.639 380.997 751.855 380.481Z" fill="#FFDDAD"/>
<path d="M828.45 393.786C832.029 393.27 835.594 392.992 839.173 392.803C842.751 392.602 846.317 392.551 849.895 392.526C853.474 392.551 857.04 392.602 860.618 392.803C864.196 392.992 867.762 393.257 871.341 393.786C867.762 394.315 864.196 394.58 860.618 394.769C857.04 394.971 853.474 395.021 849.895 395.046C846.317 395.021 842.751 394.971 839.173 394.769C835.607 394.58 832.029 394.303 828.45 393.786Z" fill="#F6AC7C"/>
<path d="M783.645 268.327C774.207 256.319 734.316 218.355 719.523 206.99C704.731 195.625 692.496 183.831 685.856 176.964C679.203 170.097 665.482 159.374 660.769 155.305C656.057 151.235 655.616 151.449 651.118 149.08C646.62 146.724 646.191 144.368 640.181 145.439C634.171 146.51 615.951 142.654 615.951 142.654C616.972 144.128 634.927 165.712 649.404 180.19C663.882 194.667 714.231 247.424 714.231 247.424C714.231 247.424 670.635 206.411 660.832 195.789C651.017 185.167 609.361 146.888 602.28 140.777C595.199 134.666 587.967 118.26 587.967 118.26L598.588 129.84C598.588 129.84 591.028 118.903 587.009 112.628C582.99 106.353 582.725 102.762 582.725 102.762C569.646 107.916 531.682 105.975 531.682 105.975C532.161 109.138 545.832 127.899 557.424 142.062C569.004 156.212 601.171 207.204 619.996 226.986C638.82 246.768 661.651 268.327 661.651 268.327C661.651 268.327 653.764 266.563 642.676 255.463C631.575 244.362 600.05 211.224 581.074 186.943C562.099 162.65 542.632 133.544 542.632 133.544C542.632 133.544 544.887 142.553 550.519 151.991C556.152 161.428 573.678 189.363 581.087 202.063C588.483 214.777 595.086 230.376 595.086 230.376C595.086 230.376 586.24 214.613 567.907 190.169C549.574 165.725 539.431 151.726 527.701 135.485C515.97 119.243 507.276 98.012 503.093 83.8495C498.91 69.6996 492.32 58.914 485.881 48.9473C479.443 38.9807 480.249 30.5008 480.249 30.5008C474.025 31.786 407.333 38.0105 407.333 38.0105C407.333 38.0105 412.537 47.1833 420.261 54.252C427.984 61.3332 462.08 116.018 479.292 136.606C496.503 157.195 529.15 208.187 551.54 231.825C573.93 255.463 615.208 293.112 615.208 293.112C615.208 293.112 595.59 283.145 581.755 271.88C567.92 260.616 483.311 183.252 472.538 173.272C461.765 163.306 445.196 146.737 441.013 138.206C436.83 129.676 410.13 88.3477 400.151 68.238C390.184 48.1283 367.177 15.9603 367.177 15.9603C367.177 15.9603 386.001 59.3928 398.702 79.3387C411.415 99.2846 420.097 120.843 420.097 120.843C420.097 120.843 406.262 103.959 399.987 99.2846C393.712 94.6226 376.022 59.8716 367.492 44.9153C358.962 29.959 337.416 -12.3521 327.764 -32.613C318.112 -52.8865 308.625 -68.3216 308.625 -68.3216L317.306 -41.622C306.533 -49.8247 305.563 -71.8622 305.563 -71.8622C305.563 -71.8622 299.616 -78.3009 292.371 -85.8609C285.138 -93.421 282.076 -100.502 282.076 -100.502L308.297 -76.0581C308.297 -76.0581 295.747 -94.8826 293.013 -98.5744C290.279 -102.279 294.135 -103.564 291.085 -110.633C288.036 -117.701 286.26 -127.038 286.26 -127.038C286.26 -127.038 226.422 -98.4106 206.476 -88.4313C186.531 -78.4647 164.014 -44.3562 157.576 -40.5006C151.137 -36.645 135.702 -33.4194 124.765 -26.0231C113.829 -18.6269 108.675 -22.4825 93.2402 -18.2993C77.8051 -14.1161 73.6219 -5.10701 59.1445 -1.25139C44.6671 2.60423 27.2917 8.40027 27.2917 8.40027L35.0155 404.307C35.0155 404.307 496.554 406.449 524.866 404.307C553.178 402.165 578.479 397.869 585.346 385.432C592.213 372.996 580.192 362.273 590.928 362.273C601.65 362.273 726.466 358.846 729.906 350.051C733.333 341.257 740.414 340.185 760.36 337.401C780.306 334.616 804.964 332.033 804.964 332.033C804.964 332.033 793.082 280.335 783.645 268.327Z" fill="url(#paint2_linear_201_41)"/>
<path d="M598.551 129.827L587.929 118.248C587.929 118.248 595.161 134.653 602.242 140.764C609.324 146.875 650.979 185.154 660.795 195.776C670.61 206.398 714.193 247.411 714.193 247.411C714.193 247.411 663.844 194.655 649.366 180.177C634.889 165.7 616.934 144.116 615.913 142.642C612.915 137.715 582.675 102.75 582.675 102.75C582.675 102.75 582.939 106.341 586.959 112.616C590.991 118.89 598.551 129.827 598.551 129.827Z" fill="url(#paint3_linear_201_41)"/>
<path d="M485.793 48.9221C492.232 58.8888 498.822 69.6745 503.005 83.8244C507.188 97.9742 515.869 119.218 527.613 135.459C539.356 151.701 549.486 165.7 567.819 190.144C586.152 214.588 594.997 230.351 594.997 230.351C594.997 230.351 588.408 214.752 580.999 202.038C573.603 189.325 556.063 161.39 550.431 151.966C544.799 142.528 542.544 133.519 542.544 133.519C542.544 133.519 562.011 162.638 580.986 186.918C599.962 211.211 631.5 244.337 642.588 255.437C653.688 266.538 661.563 268.302 661.563 268.302C661.563 268.302 638.719 246.743 619.908 226.961C601.083 207.179 568.915 156.187 557.336 142.037C545.757 127.887 532.086 109.113 531.594 105.95C531.594 105.95 524.513 92.2286 516.588 83.4337C508.65 74.6389 480.123 30.463 480.123 30.463C480.123 30.463 479.367 38.9429 485.793 48.9221Z" fill="url(#paint4_linear_201_41)"/>
<path d="M292.938 -98.587C295.672 -94.8826 308.221 -76.0706 308.221 -76.0706L282.001 -100.515C282.001 -100.515 285.063 -93.4336 292.295 -85.8735C299.527 -78.3135 305.487 -71.8748 305.487 -71.8748C305.487 -71.8748 306.457 -49.8373 317.23 -41.6346L308.549 -68.3342C308.549 -68.3342 318.037 -52.8865 327.688 -32.6256C337.34 -12.352 358.899 29.9464 367.416 44.9027C375.946 59.859 393.637 94.61 399.912 99.272C406.186 103.934 420.021 120.831 420.021 120.831C420.021 120.831 411.34 99.272 398.626 79.3261C385.913 59.3802 367.101 15.9477 367.101 15.9477C367.101 15.9477 390.109 48.1157 400.075 68.2254C410.042 88.3352 436.754 129.676 440.937 138.194C445.12 146.724 461.689 163.28 472.462 173.26C483.235 183.226 567.844 260.603 581.679 271.868C595.514 283.132 615.132 293.099 615.132 293.099C615.132 293.099 573.855 255.463 551.464 231.812C529.074 208.162 496.428 157.182 479.216 136.593C462.004 116.005 427.909 61.3206 420.185 54.2394C412.461 47.1581 407.257 37.9979 407.257 37.9979C407.257 37.9979 391.167 10.5423 384.955 1.10483C378.731 -8.33263 361.797 -26.5649 353.002 -39.2154C344.207 -51.8659 340.994 -63.4454 333.056 -70.5266C325.118 -77.6078 329.843 -81.4635 322.119 -87.0453C314.395 -92.6272 286.197 -127.038 286.197 -127.038C286.197 -127.038 287.961 -117.714 291.022 -110.633C294.084 -103.551 290.203 -102.279 292.938 -98.587Z" fill="url(#paint5_linear_201_41)"/>
<path d="M334.757 -62.387C334.757 -62.387 350.683 -35.5236 355.673 -23.9441C360.662 -12.3646 369.508 9.67289 369.508 9.67289C369.508 9.67289 362.426 3.08305 359.377 -5.92601C356.315 -14.9351 334.757 -62.387 334.757 -62.387Z" fill="url(#paint6_linear_201_41)"/>
<path d="M427.569 83.0179C427.569 83.0179 439.791 112.779 448.56 127.093C457.33 141.407 493.681 191.429 500.762 195.94C500.762 195.94 486.927 173.096 479.367 163.293C471.807 153.49 451.055 122.922 445.108 112.628C439.148 102.321 427.569 83.0179 427.569 83.0179Z" fill="url(#paint7_linear_201_41)"/>
<path d="M472.765 59.2164C472.765 59.2164 489.17 84.1519 497.372 99.587C505.575 115.035 506.054 123.389 506.054 123.389L472.765 59.2164Z" fill="url(#paint8_linear_201_41)"/>
<path d="M507.516 86.2436C507.516 86.2436 514.105 110.851 521.829 120.831C529.553 130.797 541.611 148.173 541.611 148.173C541.611 148.173 533.724 126.942 528.419 120.995C523.114 115.047 518.452 103.468 515.227 97.193C512.014 90.9056 507.516 86.2436 507.516 86.2436Z" fill="url(#paint9_linear_201_41)"/>
<path d="M298.406 16.4265C298.078 12.2433 292.295 4.20445 292.61 1.94904C292.937 -0.306377 296.793 -11.5582 297.272 -21.2099C297.751 -30.8616 297.599 -41.1558 297.599 -41.1558C297.599 -41.1558 306.608 -33.5958 315.617 -14.1287C324.626 5.33846 326.075 12.4071 326.075 12.4071C326.075 12.4071 315.945 15.3051 320.279 23.029C324.626 30.7528 338.94 53.748 350.356 67.104C361.771 80.4601 402.469 123.88 417.753 140.449C433.037 157.018 479.039 201.408 509.594 228.435C540.149 255.463 558.331 263.174 558.331 263.174C558.331 263.174 536.773 247.726 523.908 237.117C511.043 226.508 444.125 161.403 432.382 149.395C420.638 137.387 386.543 100.708 379.298 89.129C372.065 77.5495 359.516 52.7777 347.936 34.9234C336.357 17.0691 310.615 -29.4126 306.596 -37.3002C302.576 -45.1879 292.597 -62.2358 290.669 -62.387C290.669 -62.387 296.465 -34.0746 294.853 -19.9247C293.24 -5.77481 289.863 1.78524 290.669 4.04065C291.488 6.29607 298.406 16.4265 298.406 16.4265Z" fill="url(#paint10_linear_201_41)"/>
<path d="M337.176 73.2025C350.368 85.4246 354.703 106.341 354.703 106.341C354.703 106.341 350.998 97.9743 347.785 92.8334C344.572 87.68 337.176 73.2025 337.176 73.2025Z" fill="#C1697E"/>
<path d="M318.453 129.348C318.453 129.348 351.049 157.875 385.157 190.471C419.253 223.068 429.975 238.087 429.975 238.087C429.975 238.087 396.522 206.99 367.567 179.963C338.613 152.936 318.453 129.348 318.453 129.348Z" fill="#C1697E"/>
<path d="M425.477 170.74C425.477 170.74 447.136 184.675 461.299 199.48C475.449 214.273 488.112 227.15 488.112 227.15C488.112 227.15 463.668 206.826 451.647 198.006C439.627 189.186 425.477 170.74 425.477 170.74Z" fill="#EC9C8E"/>
<path d="M519.095 136.745C529.062 151.978 525.685 144.569 534.694 163.28C540.427 175.2 541.611 180.593 541.611 180.593C541.611 180.593 534.429 167.728 528.847 157.862C523.278 148.009 519.095 136.745 519.095 136.745Z" fill="#BD6975"/>
<path d="M577.534 123.389C577.534 123.389 580.961 136.203 589.756 142.427L577.534 123.389Z" fill="#AA6B77"/>
<path d="M668.468 171.382C668.468 171.382 711.144 209.346 724.236 227.15C724.236 227.15 698.28 203.563 686.7 193.054C675.121 182.546 668.468 171.382 668.468 171.382Z" fill="url(#paint11_linear_201_41)"/>
<path d="M688.628 421.028L591.016 530.8C590.121 531.808 588.735 532.198 587.45 531.82L573.88 527.851C571.435 527.133 570.566 524.134 572.242 522.219L662.697 419.087L688.628 421.028Z" fill="url(#paint12_linear_201_41)"/>
<path d="M716.94 436.463L750.607 435.606L646.809 630H567.025L716.94 436.463Z" fill="url(#paint13_linear_201_41)"/>
<path d="M638.934 407.142L595.01 441.717L558.344 444.943L616.09 403.602L638.934 407.142Z" fill="url(#paint14_linear_201_41)"/>
<path d="M595.01 390.082L542.418 424.266L526.012 416.63L577.32 385.42L595.01 390.082Z" fill="url(#paint15_linear_201_41)"/>
<path d="M554.639 367.729L515.718 391.531L492.396 385.42L541.296 360.169L554.639 367.729Z" fill="url(#paint16_linear_201_41)"/>
<path d="M519.095 353.416L481.459 367.087L471.001 361.291L508.473 350.039L519.095 353.416Z" fill="url(#paint17_linear_201_41)"/>
<path d="M786.53 455.338L711.358 630H771.41L825.036 454.052L786.53 455.338Z" fill="url(#paint18_linear_201_41)"/>
<path d="M874.793 477.426C874.793 477.426 863.617 586.341 828.463 630H915.541L925.835 474.855L874.793 477.426Z" fill="url(#paint19_linear_201_41)"/>
<path d="M490.619 348.098L472.878 355.923L473.949 352.017L483.55 346.977L490.619 348.098Z" fill="url(#paint20_linear_201_41)"/>
<path d="M1199.81 154.36C1228.76 117.756 1295.36 33.7895 1312.09 16.099C1328.82 -1.59154 1372.24 -43.0962 1372.24 -43.0962L1323.98 -5.13217C1323.98 -5.13217 1415.03 -119.654 1445.27 -158.904C1463.54 -182.617 1489.32 -213.374 1506.87 -234H1500.92C1500.92 -234 1473.58 -205.221 1425.65 -146.681C1377.72 -88.1289 1339.76 -37.6278 1339.76 -37.6278L1108.45 253.207C1108.45 253.207 1170.87 190.963 1199.81 154.36Z" fill="url(#paint21_linear_201_41)"/>
<path d="M1190.49 -23.7803C1207.86 -53.0503 1213.97 -68.813 1213.97 -68.813C1213.97 -68.813 1206.89 -59.4889 1199.82 -49.8373C1192.74 -40.1856 1186.32 -33.747 1180.2 -29.2487C1174.09 -24.7505 1164.44 3.56184 1164.44 3.56184L1146.42 56.646C1146.41 56.646 1173.11 5.48966 1190.49 -23.7803Z" fill="url(#paint22_linear_201_41)"/>
<path d="M1067.91 122.267C1067.91 122.267 1085.29 115.829 1103.31 97.5837C1116.13 84.593 1138.08 39.7745 1149.66 15.0154C1146.71 17.2708 1143.98 19.3372 1142.23 20.6098C1136.43 24.793 1130.32 41.8409 1130.32 41.8409C1130.32 41.8409 1121.95 59.5315 1108.45 80.12C1094.94 100.709 1067.91 122.267 1067.91 122.267Z" fill="url(#paint23_linear_201_41)"/>
<path d="M1445.27 -158.904C1415.03 -119.654 1323.98 -5.13217 1323.98 -5.13217L1372.24 -43.0962C1372.24 -43.0962 1328.81 -1.59154 1312.09 16.099C1295.36 33.7895 1228.76 117.756 1199.81 154.36C1170.85 190.963 1108.45 253.195 1108.45 253.195L1339.75 -37.6278C1339.75 -37.6278 1317.87 -39.8832 1278.3 -51.7777C1238.73 -63.6847 1213.96 -68.8256 1213.96 -68.8256C1213.96 -68.8256 1207.85 -53.0629 1190.47 -23.7929C1173.1 5.4771 1146.4 56.6334 1146.4 56.6334L1164.42 3.54929C1164.42 3.54929 1156.44 9.79892 1149.65 15.0027C1138.06 39.7619 1116.12 84.5804 1103.29 97.5711C1085.28 115.816 1067.9 122.255 1067.9 122.255C1067.9 122.255 1094.93 100.696 1108.43 80.1074C1121.94 59.5188 1130.31 41.8283 1130.31 41.8283C1120.98 43.7561 1103.28 54.693 1092.67 58.8762C1082.06 63.0594 1052.47 60.489 1052.47 60.489C1052.47 60.489 1038.96 79.1497 1017.07 100.696C995.186 122.242 958.52 152.167 933.433 179.194C908.347 206.222 878.749 212.648 855.578 222.627C832.419 232.594 795.74 254.48 788.016 270.558C780.293 286.648 804.85 332.008 804.85 332.008C841.63 343.273 873.911 347.456 882.277 348.741C890.643 350.026 886.133 354.852 903.508 364.831C920.884 374.811 1003.55 379.309 1073.37 389.276C1143.17 399.242 1225.78 429.167 1225.78 429.167H1512V-234H1506.87C1489.32 -213.361 1463.54 -182.617 1445.27 -158.904Z" fill="url(#paint24_linear_201_41)"/>
<path d="M1477.01 175.036L811.73 296.199L1446.13 200.123L1477.01 175.036Z" fill="url(#paint25_linear_201_41)"/>
<path d="M1144.37 72.7237C1145.44 76.3651 1131.51 95.8826 1131.51 95.8826C1131.51 95.8826 1134.5 88.373 1138.37 82.3754C1142.24 76.3777 1144.37 72.7237 1144.37 72.7237Z" fill="#D3747F"/>
<path d="M1213.97 -64.5289C1213.97 -64.5289 1198.42 -11.344 1182.98 21.265C1167.53 53.8614 1149.66 74.6641 1149.66 74.6641C1149.66 74.6641 1168.83 42.7103 1182.98 11.1849C1197.14 -20.3531 1213.97 -64.5289 1213.97 -64.5289Z" fill="url(#paint26_linear_201_41)"/>
<path d="M1209.79 2.16327C1209.79 2.16327 1189.41 37.1159 1180.19 59.0022C1170.97 80.876 1169.68 95.0385 1169.68 95.0385C1169.68 95.0385 1184.92 59.8716 1191.56 46.1376C1198.2 32.4035 1209.79 2.16327 1209.79 2.16327Z" fill="url(#paint27_linear_201_41)"/>
<path d="M1170.97 202.051C1170.97 202.051 1205.49 154.649 1223.08 144.784C1223.08 144.784 1183.62 193.042 1170.97 202.051Z" fill="#E37E67"/>
<path d="M1230.59 216.415C1230.59 216.415 1290.22 147.568 1312.52 124.409C1334.82 101.25 1450 -2.13336 1450 -2.13336C1450 -2.13336 1365.5 88.373 1329.89 120.969C1294.28 153.578 1230.59 216.415 1230.59 216.415Z" fill="url(#paint28_linear_201_41)"/>
<path d="M1221.15 179.106C1221.15 179.106 1258.26 126.992 1297.51 71.6527C1336.76 16.3257 1387.8 -52.9495 1409.68 -85.1301C1431.55 -117.311 1505.98 -198.795 1505.98 -198.795C1505.98 -198.795 1426.62 -97.138 1398.31 -60.6734C1370 -24.2087 1237.46 160.66 1221.15 179.106Z" fill="url(#paint29_linear_201_41)"/>
<path d="M1284.42 114.329C1284.42 114.329 1305.86 80.876 1330.53 49.3506C1355.21 17.8252 1384.15 -17.7827 1384.15 -17.7827C1384.15 -17.7827 1323.45 69.7249 1284.42 114.329Z" fill="url(#paint30_linear_201_41)"/>
<path d="M1511.76 -16.4974V-8.55938L1441.2 65.6425C1441.2 65.6425 1458.58 34.9739 1511.76 -16.4974Z" fill="#7F4C72"/>
<path d="M1468.87 -86.4153C1468.87 -86.4153 1401.31 0.449661 1392.3 28.321C1392.3 28.321 1404.31 16.3132 1425.32 -14.1412C1446.34 -44.5956 1468.87 -86.4153 1468.87 -86.4153Z" fill="#80496B"/>
<path d="M1245.25 217.247C1245.25 217.247 1281.63 180.82 1320.88 144.569C1360.13 108.319 1464.14 -0.621338 1464.14 -0.621338C1464.14 -0.621338 1407.09 68.6539 1360.56 114.329C1314.03 160.004 1253.57 215.735 1253.57 215.735L1245.25 217.247Z" fill="url(#paint31_linear_201_41)"/>
<path d="M1237.67 168.169C1237.67 168.169 1259.97 137.501 1265.99 132.561L1237.67 168.169Z" fill="#7A4C69"/>
<path d="M184.313 174.381C184.313 174.381 184.099 169.341 187.098 166.015C190.096 162.688 193.423 151.966 193.423 151.966C193.423 151.966 196.749 166.657 198.349 168.157C199.962 169.656 201.991 159.79 201.991 159.79C201.991 159.79 207.459 177.38 209.387 184.134C209.387 184.134 212.285 178.451 214.427 176.196C216.569 173.94 216.897 168.799 216.897 168.799C216.897 168.799 220.966 180.706 222.793 189.816C224.62 198.926 225.364 206.763 225.364 206.763C225.364 206.763 228.148 196.897 231.261 192.928C234.373 188.959 235.444 180.706 235.444 180.706C235.444 180.706 241.026 198.082 242.525 207.519C244.024 216.957 244.138 221.669 244.138 221.669C244.138 221.669 246.607 209.548 250.035 206.222C253.462 202.895 256.788 191.101 256.788 191.101C256.788 191.101 262.156 203.651 264.726 214.689C267.297 225.726 268.368 233.564 268.368 233.564C268.368 233.564 279.846 215.331 281.232 211.362C281.232 211.362 284.344 222.299 287.557 234.95C290.77 247.6 291.199 254.996 291.199 254.996C291.199 254.996 295.697 239.234 298.066 237.092C298.066 237.092 299.25 241.489 300.636 241.59C302.035 241.703 305.79 227.112 305.79 227.112C305.79 227.112 309.217 239.234 312.014 252.854C314.799 266.475 314.912 271.087 314.912 271.087C314.912 271.087 316.953 270.331 316.953 264.762C316.953 259.192 324.992 245.143 324.992 245.143C324.992 245.143 330.246 256.408 331.216 264.333C332.187 272.271 332.829 278.382 332.829 278.382C332.829 278.382 334.228 275.484 336.37 269.802C338.512 264.119 340.981 261.221 340.981 261.221C340.981 261.221 346.45 283.851 346.777 290.277L356.316 257.781C356.316 257.781 360.171 269.046 362.968 281.91C365.753 294.775 365.539 302.826 365.539 302.826C365.539 302.826 366.61 296.287 370.465 288.034C374.321 279.781 376.148 280.31 376.148 280.31L380.646 289.319L386.329 278.055C386.329 278.055 392.767 301.97 393.082 313.977C393.082 313.977 395.338 305.296 398.009 301.214C400.68 297.131 405.09 288.563 405.09 288.563C405.09 288.563 409.588 295.745 411.529 303.797C413.456 311.835 414.641 322.344 414.641 322.344C414.641 322.344 416.468 313.335 420.109 309.265C423.751 305.195 425.905 296.615 425.905 296.615C425.905 296.615 429.446 310.021 431.487 318.702C433.528 327.384 433.843 331.895 433.843 331.895C433.843 331.895 500.119 352.269 553.833 399.885C553.833 399.885 548.365 407.609 555.761 417.575C563.157 427.542 595.01 441.704 595.01 441.704C595.01 441.704 560.65 463.578 551.452 496.389C551.452 496.389 394.594 396.017 330.574 336.506C266.553 276.996 184.313 174.381 184.313 174.381Z" fill="url(#paint32_linear_201_41)"/>
<path d="M528.205 474.855C520.695 471.856 466.439 431.965 418.824 391.43C371.209 350.896 295.079 277.765 238.027 222.854C180.986 167.955 0 -27.6485 0 -27.6485V10.3155C9.1728 20.4838 26.4222 40.4549 32.6844 53.4204C41.3658 71.4385 91.8792 180.82 105.071 194.655L75.8016 119.697C75.8016 119.697 121.489 183.718 144.648 213.315C167.807 242.913 171.675 273.796 171.675 273.796L137.579 233.261C137.579 233.261 153.67 262.216 173.615 303.708C193.561 345.213 231.84 409.877 236.993 424.341C242.147 438.819 254.041 460.378 254.041 460.378L262.08 445.9C262.08 445.9 271.404 485.15 272.374 490.933C273.344 496.729 272.374 516.02 272.374 516.02C272.374 516.02 295.533 515.377 295.218 484.809C294.89 454.241 234.738 364.491 210.937 315.918C187.135 267.345 166.219 207.507 160.423 195.6C154.627 183.693 143.048 156.678 143.048 156.678C143.048 156.678 168.134 189.174 184.552 218.444C200.957 247.714 273.987 378.654 284.596 389.591C284.596 389.591 281.383 378.011 266.906 350.341C252.428 322.671 186.808 210.72 186.808 210.72C186.808 210.72 262.408 306.594 290.077 340.69C317.747 374.785 380.47 445.888 380.47 445.888C380.47 445.888 362.779 415.005 328.671 378.011C294.575 341.017 228.299 258.978 221.861 247.726C215.422 236.474 210.924 227.453 210.924 227.453C210.924 227.453 244.377 263.489 273.974 300.798C303.572 338.119 426.46 480.626 434.826 491.891C443.192 503.155 455.742 507.338 455.742 507.338C455.742 507.338 431.613 470.987 411.667 451.356C391.721 431.738 314.194 343.903 300.674 317.203C300.674 317.203 365.98 383.479 432.898 437.521C499.817 491.563 517.507 501.542 517.507 501.542C517.507 501.542 503.672 480.626 479.543 463.906C455.414 447.185 411.025 411.149 411.025 411.149C411.025 411.149 443.192 431.738 473.432 452.326C492.799 465.506 528.381 487.922 551.477 502.349C554.287 501.832 555.786 501.555 555.786 501.555V496.515C555.773 496.515 535.714 477.854 528.205 474.855ZM157.5 200.438C157.5 200.438 135.941 183.063 131.116 174.381C131.116 174.381 86.7258 128.693 78.0318 117.756C69.3378 106.82 52.29 67.2427 52.29 67.2427C52.29 67.2427 69.9804 91.6869 80.6022 101.024C91.224 110.36 131.116 174.369 131.116 174.369C126.29 165.687 95.7222 104.879 95.7222 104.879L157.5 200.438Z" fill="url(#paint33_linear_201_41)"/>
<path d="M80.6147 101.036C69.9929 91.712 52.3025 67.2553 52.3025 67.2553C52.3025 67.2553 69.3503 106.82 78.0443 117.769C86.7383 128.718 131.128 174.394 131.128 174.394C131.128 174.394 91.2239 110.36 80.6147 101.036Z" fill="#2B2D41"/>
<path d="M131.116 174.381C135.941 183.063 157.5 200.438 157.5 200.438L95.7349 104.892C95.7349 104.892 126.29 165.7 131.116 174.381Z" fill="#2B2D41"/>
<path d="M14.6664 119.054C17.5392 120.289 7.5852 97.4451 0 80.7248V97.6971C5.4432 107.109 12.159 117.971 14.6664 119.054Z" fill="#2B2D41"/>
<path d="M0 111.494V133.242C14.931 153.503 43.1046 191.706 45.2214 194.176C47.313 196.595 17.1234 142.238 0 111.494Z" fill="#2B2D41"/>
<path d="M451.861 476.355C451.861 476.355 483.324 490.706 500.863 511.673C503.458 511.194 506.004 510.728 508.461 510.274C502.098 503.155 481.938 483.07 451.861 476.355Z" fill="#E29584"/>
<path d="M89.4097 535.55C89.4097 535.55 125.874 547.558 149.461 592.603L166.509 587.777L154.93 573.942C154.93 573.942 120.292 520.971 89.4097 535.55Z" fill="url(#paint34_linear_201_41)"/>
<path d="M410.999 411.162C410.999 411.162 455.389 447.198 479.518 463.918C503.647 480.639 517.482 501.555 517.482 501.555C517.482 501.555 499.792 491.588 432.873 437.534C365.954 383.492 300.649 317.216 300.649 317.216C314.156 343.915 391.696 431.738 411.642 451.369C431.588 470.987 455.717 507.351 455.717 507.351C455.717 507.351 443.167 503.168 434.801 491.903C426.434 480.639 303.547 338.132 273.949 300.81C244.352 263.489 210.899 227.465 210.899 227.465C210.899 227.465 215.397 236.474 221.836 247.739C228.274 259.003 294.538 341.03 328.646 378.024C362.741 415.017 380.444 445.9 380.444 445.9C380.444 445.9 317.709 374.798 290.052 340.702C262.382 306.606 186.782 210.732 186.782 210.732C186.782 210.732 252.416 322.684 266.881 350.354C281.358 378.024 284.571 389.603 284.571 389.603C273.949 378.666 200.932 247.726 184.527 218.456C168.122 189.186 143.023 156.691 143.023 156.691C143.023 156.691 154.602 183.718 160.398 195.612C166.194 207.519 187.097 267.357 210.911 315.93C234.713 364.504 294.878 454.267 295.193 484.822C295.52 515.39 272.349 516.032 272.349 516.032C272.349 516.032 273.319 496.729 272.349 490.945C271.379 485.149 262.055 445.913 262.055 445.913L254.016 460.39C254.016 460.39 242.109 438.832 236.968 424.354C231.815 409.877 193.536 345.213 173.59 303.721C153.644 262.216 137.554 233.274 137.554 233.274L171.65 273.808C171.65 273.808 167.794 242.926 144.623 213.328C121.451 183.73 75.7764 119.709 75.7764 119.709L105.046 194.667C91.854 180.832 41.3532 71.4511 32.6592 53.433C26.4222 40.4549 9.1728 20.4964 0 10.3156V55.827C12.3228 88.1966 38.5812 157.661 48.762 188.216C62.2692 228.75 107.314 349.711 107.314 349.711C107.314 349.711 87.696 319.143 81.5724 304.679C75.4614 290.201 39.1104 211.06 22.7052 182.105C15.5988 169.555 7.2072 157.371 0 147.593V186.792L43.0794 300.067C43.0794 300.067 107.843 359.262 170.906 427.466C233.969 495.671 242.537 523.983 242.537 523.983C242.537 523.983 116.991 383.278 53.6634 330.093L69.678 378.994L0 204.407V321.386C23.562 346.322 102.211 426.307 117.936 466.073L114.723 477.652C114.723 477.652 61.6644 390.145 0.0126 345.742V614.489C0.0126 614.489 20.1474 599.697 61.6392 594.543C103.144 589.39 149.461 592.615 149.461 592.615C125.874 547.583 89.4096 535.562 89.4096 535.562C120.292 520.984 154.93 573.955 154.93 573.955C154.93 573.955 198.034 564.631 291.98 548.868C351.994 538.801 442.966 522.294 500.875 511.685C483.336 490.731 451.874 476.367 451.874 476.367C481.963 483.07 502.11 503.168 508.473 510.287C528.923 506.532 544.37 503.684 551.464 502.361C528.368 487.947 492.786 465.531 473.42 452.339C443.167 431.75 410.999 411.162 410.999 411.162Z" fill="#2B2D41"/>
<path d="M53.6634 330.093C117.004 383.278 242.537 523.97 242.537 523.97C242.537 523.97 233.957 495.658 170.906 427.454C107.856 359.25 43.0794 300.067 43.0794 300.067L0 186.792V204.407L69.678 378.994L53.6634 330.093Z" fill="url(#paint35_linear_201_41)"/>
<path d="M114.71 477.64L117.923 466.06C102.211 426.295 23.562 346.309 0 321.386V345.742C61.6518 390.145 114.71 477.64 114.71 477.64Z" fill="url(#paint36_linear_201_41)"/>
<path d="M81.5724 304.679C87.6834 319.156 107.314 349.711 107.314 349.711C107.314 349.711 62.2818 228.75 48.762 188.216C38.5812 157.673 12.3228 88.2092 0 55.827V80.7248C7.5852 97.4325 17.5392 120.276 14.6664 119.054C12.159 117.983 5.4432 107.109 0 97.6971V111.494C17.1234 142.238 47.313 196.608 45.2214 194.176C43.1046 191.706 14.9184 153.503 0 133.242V147.593C7.2198 157.371 15.5988 169.555 22.7052 182.105C39.1104 211.06 75.4614 290.201 81.5724 304.679Z" fill="url(#paint37_linear_201_41)"/>
<path d="M157.5 438.176C157.5 438.176 162.653 530.825 172.292 545.63C172.292 545.63 173.59 470.029 157.5 438.176Z" fill="url(#paint38_linear_201_41)"/>
<path d="M42.6509 516.032C58.4135 522.471 61.9541 545.63 61.9541 545.63L76.1039 544.017L56.4857 495.116L54.2303 516.032H42.6509Z" fill="url(#paint39_linear_201_41)"/>
<path d="M100.233 463.591C100.233 463.591 96.3773 475.813 100.233 493.831C104.088 511.849 106.344 523.958 106.344 523.958C106.344 523.958 113.097 513.764 108.599 502.827C104.101 491.891 100.233 463.591 100.233 463.591Z" fill="url(#paint40_linear_201_41)"/>
<path d="M69.0354 562.804L82.8702 584.552C82.8702 584.552 80.2872 565.828 69.0354 562.804Z" fill="url(#paint41_linear_201_41)"/>
<path d="M283.286 490.303C283.286 490.303 294.223 489.333 314.168 502.525C334.114 515.717 341.838 535.336 341.838 535.336C341.838 535.336 309.532 503.256 292.874 499.992L289.409 514.419L283.286 490.303Z" fill="url(#paint42_linear_201_41)"/>
<path d="M255.616 463.591L252.403 473.557C252.403 473.557 202.268 443.645 172.318 406.638C172.318 406.651 219.908 446.543 255.616 463.591Z" fill="url(#paint43_linear_201_41)"/>
<path d="M304.517 399.897C304.517 399.897 388.798 453.297 399.42 473.57C399.42 473.57 320.607 418.558 304.517 399.897Z" fill="url(#paint44_linear_201_41)"/>
<path d="M62.811 157.661C62.811 157.661 92.6226 187.044 97.5492 232.505C97.5618 232.505 81.9 188.972 62.811 157.661Z" fill="#914B72"/>
<path d="M137.554 233.261L94.0212 213.845L95.7348 219.653C95.7348 219.641 126.076 233.576 137.554 233.261Z" fill="#4C3552"/>
<path d="M403.125 430.944C403.125 430.944 416.317 453.46 444.465 465.531L403.125 430.944Z" fill="url(#paint45_linear_201_41)"/>
<path d="M1002.61 209.346L1131.18 175.036C1131.18 175.036 1134.29 171.168 1139.97 171.168C1145.65 171.168 1146.94 175.994 1146.94 175.994C1146.94 175.994 1155.41 180.064 1156.91 182.004C1158.41 183.932 1157.98 195.511 1157.98 195.511C1161.8 199.128 1163.55 205.781 1164.34 210.38C1164.32 209.649 1164.29 208.88 1164.25 208.074C1163.93 200.892 1158.51 194.768 1158.51 194.768V183.151C1158.51 181.412 1157.47 179.837 1155.89 179.144L1148 175.679C1148 175.679 1146.39 171.067 1142.1 170.311C1136.19 169.278 1131.05 174.167 1131.05 174.167C1131.05 174.167 1128.05 173.953 1121.09 175.036C1114.12 176.12 1097.28 181.563 1097.28 181.563L1006.14 206.877L1002.61 209.346Z" fill="#FFE9D1"/>
<path d="M1164.21 219.641C1164.21 219.641 1164.24 219.376 1164.27 218.897L1125.82 219.855L1166.68 220.825V219.641H1164.21Z" fill="#FFE9D1"/>
<path d="M1116.07 221.568L968.083 249.024V251.065L1114.24 224.038C1114.24 224.038 1122.92 235.403 1126.79 238.994C1129.49 239.146 1139.56 239.587 1149.96 238.503C1141.82 238.238 1129.85 237.785 1128.93 237.356L1116.07 221.568Z" fill="#FFE9D1"/>
<path d="M820.046 252.552C807.635 254.87 636.703 294.51 556.227 309.454C501.24 322.949 487.683 329.274 487.683 329.274C531.758 330.08 829.433 285.98 829.433 285.98L835.657 282.893L836.942 282.754V252.565C836.93 252.565 834.687 249.818 820.046 252.552Z" fill="url(#paint46_linear_201_41)"/>
<path d="M964.757 217.599C964.757 217.599 962.073 217.146 938.75 222.06C915.428 226.974 839.021 247.89 839.021 247.89L839.5 282.465L846.304 281.696L849.366 283.46L870.925 279.579C870.925 279.579 871.567 281.709 874.465 281.608C877.363 281.494 877.577 277.601 877.577 277.601L917.041 271.666C917.041 271.666 919.724 274.413 924.588 274.577C929.452 274.741 934.945 269.676 934.945 269.676C934.945 269.676 937.201 272.057 943.097 271.2C948.994 270.343 954.248 264.686 954.248 264.686L967.945 262.367C967.138 261.208 965.866 259.003 965.513 256.193C964.971 252.023 964.757 217.599 964.757 217.599Z" fill="#1B2337"/>
<path d="M832.104 280.423L818.118 283.044L804.094 285.577L776.046 290.478L747.961 295.165L733.899 297.433L719.825 299.613L733.824 296.98L747.835 294.447L775.895 289.546L803.981 284.859L818.03 282.591L832.104 280.423Z" fill="#FFE9D1"/>
<path d="M827.127 258.184C827.392 262.027 827.404 265.883 827.442 269.726C827.404 273.569 827.392 277.425 827.127 281.268C826.862 277.425 826.85 273.569 826.812 269.726C826.85 265.883 826.862 262.04 827.127 258.184Z" fill="#FFE9D1"/>
<path d="M725.47 281.268C725.71 284.166 725.773 287.064 725.785 289.949C725.773 292.847 725.722 295.745 725.47 298.63C725.218 295.732 725.168 292.834 725.155 289.949C725.168 287.064 725.218 284.166 725.47 281.268Z" fill="#FFE9D1"/>
<path d="M838.228 279.592L852.403 277.072L866.59 274.653L895.003 269.953L923.454 265.467L937.692 263.312L951.943 261.246L937.768 263.766L923.567 266.185L895.154 270.885L866.704 275.358L852.478 277.525L838.228 279.592Z" fill="#FFE9D1"/>
<path d="M1453.42 198.006C1453.42 198.006 1166.84 242.422 1082.48 255.198C998.134 267.975 822.881 294.057 746.966 303.923C671.038 313.788 535.5 330.093 483.601 330.95C431.701 331.807 429.988 330.95 429.988 330.95L465.381 335.876C465.381 335.876 473.269 332.978 479.052 334.264C484.848 335.549 483.55 346.977 483.55 346.977L490.631 348.098C490.631 348.098 490.959 340.06 495.936 336.998C500.926 333.936 508.486 335.876 508.486 350.026L519.107 353.403V342.302C519.271 335.549 532.615 331.366 537.125 338.762C541.624 346.158 541.309 360.157 541.309 360.157L554.665 367.717C554.665 367.717 554.828 351.626 554.828 343.751C554.828 335.876 564.795 330.395 570.919 335.713C577.03 341.017 577.357 345.679 577.357 356.629C577.357 367.578 577.357 385.42 577.357 385.42L595.048 390.082C595.048 390.082 595.048 357.107 595.048 345.528C595.048 333.949 601.637 330.244 607.761 331.378C613.872 332.499 616.127 337.01 616.127 359.854C616.127 382.698 616.127 403.602 616.127 403.602L638.971 407.142C638.971 407.142 638.971 353.68 638.971 342.743C638.971 331.807 649.429 325.582 655.427 328.808C661.437 332.021 663.793 343.172 663.793 357.12C663.793 371.056 662.722 419.1 662.722 419.1L688.678 421.028C688.678 421.028 688.036 359.905 688.036 346.826C688.036 333.747 696.83 322.167 705.625 323.238C714.42 324.309 720.607 338.321 719.977 353.844C719.347 369.355 716.99 436.488 716.99 436.488C716.99 436.488 737.365 439.487 750.658 435.631C750.658 435.631 748.516 368.284 748.301 354.562C748.087 340.841 752.8 318.312 767.39 315.527C781.981 312.743 790.549 341.483 790.121 353.705C789.692 365.928 786.58 455.363 786.58 455.363L825.086 454.078C825.086 454.078 820.147 356.918 822.503 339.984C824.859 323.037 840.193 305.031 857.455 308.887C876.645 313.171 878.9 345.994 878.472 356.503C878.044 367.011 874.831 477.463 874.831 477.463L896.49 480.891L925.873 474.88L920.291 355.205C920.291 355.205 917.078 339.543 926.087 323.251C935.096 306.947 948.818 294.296 962.338 297.509C975.845 300.722 991.507 336.116 990.221 352.836C988.936 369.569 981.855 526.982 981.855 526.982L1021.32 540.917L1051.99 515.175C1051.99 515.175 1041.48 365.902 1043.62 342.101C1045.76 318.299 1062.28 291.915 1089.31 284.191C1116.33 276.467 1139.49 305.422 1142.06 327.51C1144.63 349.598 1142.71 479.996 1142.71 479.996L1182.23 484.28C1182.23 484.28 1221.48 461.94 1222.04 461.852C1222.6 461.764 1214.34 367.83 1215.19 344.016C1216.05 320.202 1222.92 293.83 1260.44 271.528C1297.98 249.226 1318.78 261.019 1334.21 280.108C1349.66 299.197 1365.95 359.678 1365.95 359.678H1456.24L1453.42 198.006Z" fill="#1B2337"/>
<path d="M1180.19 430.037L1178.96 396.268C1178.63 385.004 1178.34 373.752 1178.13 362.475C1178.04 356.843 1177.94 351.211 1177.91 345.578C1177.75 339.921 1178.49 334.251 1179.76 328.745C1182.4 317.732 1186.97 307.236 1192.83 297.585C1198.76 287.971 1206.06 279.138 1214.7 271.83C1223.32 264.547 1233.43 258.789 1244.46 256.105C1255.5 253.724 1266.82 252.439 1278.09 253.106C1283.73 253.421 1289.35 254.165 1294.83 255.538C1296.19 255.916 1297.55 256.269 1298.9 256.685C1300.23 257.138 1301.58 257.529 1302.89 258.071C1305.52 259.066 1308.11 260.225 1310.49 261.737C1308.08 260.263 1305.49 259.142 1302.84 258.184C1301.53 257.668 1300.17 257.29 1298.83 256.861C1297.48 256.471 1296.11 256.143 1294.76 255.778C1289.28 254.48 1283.68 253.825 1278.07 253.585C1266.84 252.993 1255.55 254.316 1244.62 256.735C1233.7 259.444 1223.74 265.19 1215.22 272.448C1206.68 279.73 1199.49 288.525 1193.65 298.089C1187.79 307.64 1183.2 318.047 1180.54 328.946C1179.26 334.402 1178.5 339.984 1178.63 345.604C1178.63 351.236 1178.69 356.868 1178.76 362.5C1178.91 373.765 1179.16 385.029 1179.42 396.281L1180.19 430.037Z" fill="#FFE9D1"/>
<path d="M1013.76 526.112L1013.53 486.334L1013.44 446.555L1013.28 366.986L1013.29 357.044C1013.3 353.731 1013.27 350.417 1013.43 347.09C1013.46 343.764 1013.91 340.45 1014.25 337.136L1015.09 332.21C1015.37 330.572 1015.86 328.971 1016.23 327.346C1017.92 320.907 1020.37 314.658 1023.69 308.862C1026.98 303.066 1031.23 297.824 1036.15 293.326C1041.06 288.828 1046.68 285.123 1052.72 282.313C1058.74 279.504 1065.15 277.475 1071.74 276.53C1073.38 276.278 1075.06 276.19 1076.71 276.013C1078.37 275.913 1080.03 275.95 1081.7 275.913C1083.36 276.026 1085.02 276.076 1086.67 276.278C1088.31 276.53 1089.98 276.694 1091.59 277.097C1094.85 277.74 1098.01 278.785 1101.08 280.083C1104.11 281.406 1107.07 282.969 1109.69 284.997C1107.05 282.994 1104.07 281.469 1101.03 280.184C1097.96 278.937 1094.79 277.929 1091.54 277.324C1089.93 276.946 1088.27 276.795 1086.64 276.568C1085 276.379 1083.34 276.354 1081.68 276.253C1080.03 276.316 1078.38 276.291 1076.73 276.417C1075.09 276.606 1073.44 276.719 1071.81 276.984C1065.27 277.966 1058.9 279.995 1052.94 282.817C1046.97 285.64 1041.43 289.332 1036.58 293.792C1031.74 298.265 1027.54 303.456 1024.3 309.215C1021.05 314.96 1018.65 321.159 1017 327.535C1016.63 329.148 1016.15 330.723 1015.89 332.361L1015.07 337.237C1014.74 340.513 1014.3 343.802 1014.29 347.103C1014.15 350.392 1014.19 353.718 1014.19 357.032L1014.2 366.973L1014.04 446.543L1013.95 486.321L1013.76 526.112Z" fill="#FFE9D1"/>
<path d="M854.393 308.408C850.853 307.022 847.048 306.443 843.268 306.342C839.488 306.241 835.695 306.795 832.091 307.904C828.475 308.975 825.073 310.701 821.961 312.831C818.849 314.948 816.026 317.493 813.683 320.441C809.084 326.426 806.488 333.709 805.102 341.105C803.691 348.527 803.2 356.112 803.036 363.685L802.973 369.367L803.036 375.063L803.162 386.453L803.376 409.234L803.527 432.015L803.578 454.796L803.061 432.015L802.645 409.234L802.292 386.453L802.129 375.063L802.053 369.367L802.103 363.659C802.292 356.062 802.822 348.426 804.271 340.929C805.707 333.47 808.328 326.023 813.128 319.975C815.548 316.989 818.446 314.431 821.633 312.327C824.809 310.21 828.286 308.496 831.965 307.463C835.632 306.417 839.475 305.926 843.28 306.115C847.073 306.279 850.878 306.947 854.393 308.408Z" fill="#FFE9D1"/>
<path d="M767.34 315.502C764.341 315.678 761.355 315.993 758.406 316.535C755.458 317.09 752.585 317.946 749.826 319.093C747.066 320.252 744.546 321.865 742.266 323.755C741.195 324.788 740.073 325.758 739.191 326.968C738.196 328.077 737.44 329.362 736.646 330.609C733.61 335.738 732.262 341.685 731.606 347.582C731.014 353.542 730.8 359.539 730.598 365.524C730.258 377.52 730.334 389.527 730.46 401.523C730.535 407.52 730.636 413.531 730.775 419.528C730.888 425.526 731.014 431.536 731.203 437.534C730.863 431.536 730.573 425.538 730.308 419.541C730.069 413.543 729.893 407.533 729.729 401.535C729.452 389.527 729.376 377.507 729.641 365.486C729.868 359.476 730.107 353.466 730.737 347.481C730.926 345.982 731.178 344.495 731.405 342.995C731.644 341.509 732.098 340.047 732.438 338.573C732.841 337.111 733.433 335.713 733.925 334.276C734.24 333.583 734.593 332.915 734.933 332.235C735.286 331.567 735.563 330.849 736.016 330.231C736.848 328.959 737.629 327.661 738.675 326.54C739.595 325.33 740.767 324.335 741.863 323.301C744.219 321.399 746.827 319.786 749.637 318.665C752.459 317.568 755.382 316.775 758.356 316.308C761.342 315.855 764.341 315.603 767.34 315.502Z" fill="#FFE9D1"/>
<path d="M705.575 323.226C700.837 321.777 695.671 321.903 691.022 323.453C688.691 324.209 686.46 325.305 684.482 326.741C683.449 327.396 682.555 328.253 681.61 329.034C681.131 329.425 680.79 329.916 680.362 330.357L679.757 331.038C679.581 331.277 679.43 331.542 679.266 331.806C676.62 335.901 675.713 340.879 675.196 345.755C674.717 350.656 674.591 355.608 674.528 360.547C674.402 370.438 674.616 380.355 674.654 390.258L674.68 405.126L674.516 419.994L673.923 390.283C673.734 380.38 673.52 370.476 673.571 360.547C673.659 355.583 673.81 350.618 674.327 345.667L674.831 341.962C675.095 340.74 675.322 339.505 675.625 338.296L676.179 336.494C676.355 335.889 676.544 335.297 676.834 334.73L677.628 333.003C677.943 332.462 678.308 331.932 678.648 331.403C678.825 331.139 678.989 330.861 679.178 330.622L679.82 329.916C680.261 329.463 680.652 328.946 681.143 328.556C682.114 327.774 683.046 326.918 684.117 326.262C686.171 324.826 688.464 323.742 690.858 323.024C695.671 321.588 700.887 321.626 705.575 323.226Z" fill="#FFE9D1"/>
<path d="M647.665 324.196C643.847 324.851 640.206 326.325 636.993 328.404C633.755 330.458 630.983 333.243 629.067 336.532C627.165 339.833 625.98 343.512 625.476 347.305C625.325 348.25 625.35 349.207 625.275 350.165C625.237 351.122 625.136 352.067 625.174 353.038L625.199 358.834L625.086 382.043L624.96 393.648L624.733 405.252L624.506 393.648L624.38 382.043L624.267 358.834L624.292 353.038C624.267 352.08 624.368 351.085 624.418 350.114C624.506 349.144 624.481 348.161 624.645 347.191C625.199 343.31 626.409 339.505 628.463 336.154C630.516 332.802 633.414 330.017 636.766 328.014C640.105 326.036 643.822 324.687 647.665 324.196Z" fill="#FFE9D1"/>
<path d="M595.01 329.664C592.981 331.176 590.864 332.676 589.478 334.768C588.055 336.821 587.299 339.253 586.744 341.698C585.761 346.637 585.358 351.702 585.131 356.767C584.829 361.832 584.703 366.898 584.552 371.976C584.401 377.053 584.287 382.131 584.086 387.209C583.985 384.664 583.947 382.131 583.884 379.586L583.833 371.963C583.833 366.885 583.972 361.795 584.199 356.717L584.451 352.912L584.816 349.106C585.094 346.574 585.459 344.041 586.051 341.546C586.694 339.077 587.55 336.582 589.113 334.503C590.688 332.411 592.868 330.987 595.01 329.664Z" fill="#FFE9D1"/>
<path d="M825.678 355.822H786.744C785.95 355.822 785.295 355.18 785.295 354.373C785.295 353.579 785.938 352.924 786.744 352.924H825.665C826.459 352.924 827.114 353.567 827.114 354.373C827.127 355.18 826.472 355.822 825.678 355.822Z" fill="#1B2337"/>
<path d="M787.928 354.373C790.99 354.26 794.039 354.172 797.101 354.134L806.274 354.058L815.447 354.134C818.509 354.172 821.558 354.26 824.62 354.373C821.558 354.487 818.509 354.575 815.447 354.613L806.274 354.688L797.101 354.613C794.039 354.575 790.99 354.499 787.928 354.373Z" fill="#FFE9D1"/>
<path d="M749.486 355.822H719.195C718.401 355.822 717.746 355.18 717.746 354.373C717.746 353.579 718.389 352.924 719.195 352.924H749.486C750.28 352.924 750.935 353.567 750.935 354.373C750.935 355.18 750.28 355.822 749.486 355.822Z" fill="#1B2337"/>
<path d="M719.825 354.373C724.676 354.109 729.527 354.096 734.378 354.058C739.229 354.096 744.08 354.109 748.931 354.373C744.08 354.638 739.229 354.65 734.378 354.688C729.527 354.65 724.676 354.638 719.825 354.373Z" fill="#FFE9D1"/>
<path d="M688.035 356.2H662.999C662.495 356.2 662.092 355.797 662.092 355.293C662.092 354.789 662.495 354.386 662.999 354.386H688.035C688.539 354.386 688.943 354.789 688.943 355.293C688.955 355.797 688.539 356.2 688.035 356.2Z" fill="#201F3F"/>
<path d="M663.781 355.293C667.712 355.028 671.63 355.016 675.561 354.978C679.493 355.016 683.411 355.028 687.343 355.293C683.411 355.558 679.493 355.57 675.561 355.608C671.63 355.57 667.699 355.545 663.781 355.293Z" fill="#FFE9D1"/>
<path d="M639.148 356.679H616.253C615.863 356.679 615.56 356.364 615.56 355.986C615.56 355.595 615.875 355.293 616.253 355.293H639.148C639.538 355.293 639.84 355.608 639.84 355.986C639.84 356.377 639.526 356.679 639.148 356.679Z" fill="#201F3F"/>
<path d="M617.072 355.986C620.625 355.721 624.166 355.709 627.719 355.671C631.272 355.709 634.813 355.721 638.366 355.986C634.813 356.251 631.272 356.263 627.719 356.301C624.179 356.263 620.625 356.251 617.072 355.986Z" fill="#FFE9D1"/>
<path d="M582.939 355.923C584.905 355.684 586.87 355.621 588.836 355.608C590.801 355.621 592.767 355.671 594.733 355.923C592.767 356.175 590.801 356.225 588.836 356.238C586.87 356.225 584.905 356.162 582.939 355.923Z" fill="#FFE9D1"/>
<path d="M1217.12 355.91L1141.09 357.246C1140.3 357.259 1139.63 356.629 1139.62 355.822L1139.61 354.802C1139.59 354.008 1140.22 353.34 1141.03 353.327L1217.06 351.992C1217.85 351.979 1218.52 352.609 1218.53 353.416L1218.55 354.436C1218.56 355.23 1217.93 355.898 1217.12 355.91Z" fill="#1B2337"/>
<path d="M1144.57 355.23C1150.34 355.016 1156.1 354.827 1161.87 354.688L1179.17 354.31L1196.47 354.083C1202.24 354.02 1208.01 354.008 1213.78 354.02C1208.01 354.235 1202.25 354.424 1196.48 354.562L1179.18 354.94L1161.88 355.167C1156.1 355.23 1150.34 355.243 1144.57 355.23Z" fill="#FFE9D1"/>
<path d="M1045.83 354.109L987.386 356.692C986.593 356.729 985.912 356.112 985.874 355.306L985.824 354.285C985.786 353.491 986.403 352.811 987.21 352.773L1045.65 350.19C1046.44 350.152 1047.12 350.77 1047.16 351.576L1047.21 352.597C1047.25 353.39 1046.63 354.071 1045.83 354.109Z" fill="#1B2337"/>
<path d="M989.717 354.625C994.19 354.31 998.676 354.033 1003.15 353.794L1016.59 353.126L1030.04 352.609C1034.52 352.458 1039.01 352.345 1043.49 352.256C1039.02 352.571 1034.54 352.849 1030.06 353.088L1016.62 353.756L1003.17 354.272C998.688 354.424 994.203 354.537 989.717 354.625Z" fill="#FFE9D1"/>
<path d="M483.651 331.58L483.538 330.32C697.75 311.13 1139.61 231.472 1144.04 230.678L1475.18 173.55L1475.4 174.797L1144.26 231.926C1139.83 232.719 697.927 312.39 483.651 331.58Z" fill="#1B2337"/>
<path d="M1460.87 188.153L1335.83 208.716L1210.76 229.091C1127.37 242.636 1044.01 256.37 960.574 269.587C877.099 282.679 793.548 295.203 709.808 306.455C667.939 312.062 626.031 317.342 584.035 321.941C563.031 324.183 542.014 326.275 520.96 328.052C499.918 329.816 478.838 331.252 457.72 331.945C478.825 331.151 499.892 329.614 520.934 327.749C541.964 325.872 562.981 323.679 583.96 321.336C625.93 316.649 667.838 311.306 709.695 305.636C793.397 294.246 876.922 281.57 960.359 268.378C1043.82 255.286 1127.2 241.703 1210.61 228.297L1335.71 208.137L1460.87 188.153Z" fill="#1B2337"/>
<path d="M1445.75 179.32H1444.49V202.731H1445.75V179.32Z" fill="#1B2337"/>
<path d="M1413.97 184.852H1412.71V206.31H1413.97V184.852Z" fill="#1B2337"/>
<path d="M1374.65 191.643H1373.39V212.433H1374.65V191.643Z" fill="#1B2337"/>
<path d="M1338.3 197.918H1337.04V218.141H1338.3V197.918Z" fill="#1B2337"/>
<path d="M1305.89 203.5H1304.63V222.715H1305.89V203.5Z" fill="#1B2337"/>
<path d="M1273.8 208.956H1272.54V227.541H1273.8V208.956Z" fill="#1B2337"/>
<path d="M1244.68 214.008H1243.42V232.127H1244.68V214.008Z" fill="#1B2337"/>
<path d="M1215.95 219.023H1214.69V237.243H1215.95V219.023Z" fill="#1B2337"/>
<path d="M1188.61 223.736H1187.35V243.316H1188.61V223.736Z" fill="#1B2337"/>
<path d="M1161.23 228.461H1159.97V246.252H1161.23V228.461Z" fill="#1B2337"/>
<path d="M1137.43 232.619H1136.17V248.495H1137.43V232.619Z" fill="#1B2337"/>
<path d="M1112.34 237.079H1111.08V252.489H1112.34V237.079Z" fill="#1B2337"/>
<path d="M1085.55 241.779H1084.29V256.382H1085.55V241.779Z" fill="#1B2337"/>
<path d="M1066.82 245.042H1065.56V258.953H1066.82V245.042Z" fill="#1B2337"/>
<path d="M1048.32 255.085H1047.06V261.687H1048.32V255.085Z" fill="#1B2337"/>
<path d="M1032.63 257.592H1031.37V264.295H1032.63V257.592Z" fill="#1B2337"/>
<path d="M1017.03 253.61H1015.77V266.954H1017.03V253.61Z" fill="#1B2337"/>
<path d="M1006.78 255.311H1005.52V268.97H1006.78V255.311Z" fill="#1B2337"/>
<path d="M992.792 257.731H991.532V271.692H992.792V257.731Z" fill="#1B2337"/>
<path d="M979.032 260.049H977.772V273.456H979.032V260.049Z" fill="#1B2337"/>
<path d="M961.014 268.894H959.754V275.635H961.014V268.894Z" fill="#1B2337"/>
<path d="M945.895 265.593H944.635V277.979H945.895V265.593Z" fill="#1B2337"/>
<path d="M933.105 267.685H931.845V279.604H933.105V267.685Z" fill="#1B2337"/>
<path d="M921.123 269.688H919.863V280.99H921.123V269.688Z" fill="#1B2337"/>
<path d="M906.885 272.271H905.625V282.969H906.885V272.271Z" fill="#1B2337"/>
<path d="M890.328 274.69H889.068V285.766H890.328V274.69Z" fill="#1B2337"/>
<path d="M876.809 276.921H875.549V287.542H876.809V276.921Z" fill="#1B2337"/>
<path d="M866.036 278.659H864.776V288.916H866.036V278.659Z" fill="#1B2337"/>
<path d="M855.023 280.423H853.763V291.562H855.023V280.423Z" fill="#1B2337"/>
<path d="M844.401 282.074H843.141V291.562H844.401V282.074Z" fill="#1B2337"/>
<path d="M835.632 283.473H834.372V293.729H835.632V283.473Z" fill="#1B2337"/>
<path d="M824.128 285.325H822.868V295.43H824.128V285.325Z" fill="#1B2337"/>
<path d="M811.755 287.265H810.495V296.715H811.755V287.265Z" fill="#1B2337"/>
<path d="M800.894 288.966H799.634V299.134H800.894V288.966Z" fill="#1B2337"/>
<path d="M790.6 290.516H789.34V299.601H790.6V290.516Z" fill="#1B2337"/>
<path d="M778.932 292.053H777.672V300.898H778.932V292.053Z" fill="#1B2337"/>
<path d="M767.97 294.031H766.71V302.587H767.97V294.031Z" fill="#1B2337"/>
<path d="M757.701 295.342H756.441V303.23H757.701V295.342Z" fill="#1B2337"/>
<path d="M748.377 297.005H747.117V305.561H748.377V297.005Z" fill="#1B2337"/>
<path d="M737.113 298.693H735.853V308.383H737.113V298.693Z" fill="#1B2337"/>
<path d="M722.963 300.798H721.703V310.311H722.963V300.798Z" fill="#1B2337"/>
<path d="M709.443 302.776H708.183V312.226H709.443V302.776Z" fill="#1B2337"/>
<path d="M698.342 304.515H697.082V313.599H698.342V304.515Z" fill="#1B2337"/>
<path d="M687.96 305.964H686.7V315.048H687.96V305.964Z" fill="#1B2337"/>
<path d="M677.036 307.69H675.776V316.17H677.036V307.69Z" fill="#1B2337"/>
<path d="M671.088 308.131H669.828V317.216H671.088V308.131Z" fill="#1B2337"/>
<path d="M665.129 309.177H663.869V318.261H665.129V309.177Z" fill="#1B2337"/>
<path d="M659.181 310.223H657.921V319.307H659.181V310.223Z" fill="#1B2337"/>
<path d="M653.234 310.79H651.974V320.366H653.234V310.79Z" fill="#1B2337"/>
<path d="M647.274 311.634H646.014V321.411H647.274V311.634Z" fill="#1B2337"/>
<path d="M641.73 312.15H640.47V321.235H641.73V312.15Z" fill="#1B2337"/>
<path d="M635.771 313.196H634.511V322.281H635.771V313.196Z" fill="#1B2337"/>
<path d="M629.823 314.242H628.563V323.327H629.823V314.242Z" fill="#1B2337"/>
<path d="M623.876 314.771H622.616V324.385H623.876V314.771Z" fill="#1B2337"/>
<path d="M618.168 315.288H616.908V324.372H618.168V315.288Z" fill="#1B2337"/>
<path d="M612.448 316.296H611.188V324.385H612.448V316.296Z" fill="#1B2337"/>
<path d="M606.74 317.039H605.48V324.372H606.74V317.039Z" fill="#1B2337"/>
<path d="M601.032 317.745H599.772V324.385H601.032V317.745Z" fill="#1B2337"/>
<path d="M595.325 318.513H594.065V324.372H595.325V318.513Z" fill="#1B2337"/>
<path d="M589.617 319.244H588.357V324.372H589.617V319.244Z" fill="#1B2337"/>
<path d="M583.909 319.962H582.649V324.372H583.909V319.962Z" fill="#1B2337"/>
<path d="M579.234 320.542H577.974V327.51H579.234V320.542Z" fill="#1B2337"/>
<path d="M573.527 321.248H572.267V327.51H573.527V321.248Z" fill="#1B2337"/>
<path d="M567.819 321.953H566.559V327.522H567.819V321.953Z" fill="#1B2337"/>
<path d="M562.111 322.646H560.851V327.522H562.111V322.646Z" fill="#1B2337"/>
<path d="M556.391 323.327H555.131V329.286H556.391V323.327Z" fill="#1B2337"/>
<path d="M550.683 323.994H549.423V331.05H550.683V323.994Z" fill="#1B2337"/>
<path d="M958.822 296.715C954.765 294.094 949.952 292.847 945.189 292.557C940.401 292.28 935.575 292.986 931.039 294.51C926.503 296.035 922.093 298.038 918.011 300.521C913.928 303.028 910.249 306.178 907.338 309.971C904.415 313.751 902.273 318.085 900.698 322.596C899.048 327.094 898.178 331.832 897.435 336.557C896.112 346.07 896.225 355.696 896.326 365.323L896.465 423.081L896.528 451.961L896.44 480.84L896.061 451.961L895.835 423.081L895.381 365.323C895.318 355.709 895.268 346.019 896.654 336.443C897.435 331.681 898.33 326.905 900.031 322.356C901.656 317.808 903.848 313.41 906.847 309.58C909.821 305.737 913.588 302.549 917.733 300.042C921.891 297.547 926.314 295.556 930.913 294.057C935.525 292.595 940.401 291.952 945.227 292.305C950.002 292.683 954.815 294.031 958.822 296.715Z" fill="#FFE9D1"/>
<path d="M922.559 355.394H877.035C876.242 355.394 875.586 354.751 875.586 353.945V352.924C875.586 352.13 876.229 351.475 877.035 351.475H922.559C923.353 351.475 924.008 352.118 924.008 352.924V353.945C924.008 354.751 923.366 355.394 922.559 355.394Z" fill="#1B2337"/>
<path d="M878.636 353.441C882.176 353.327 885.717 353.239 889.245 353.201L899.854 353.126L910.463 353.201C914.004 353.239 917.545 353.327 921.073 353.441C917.532 353.554 913.991 353.642 910.463 353.68L899.854 353.756L889.245 353.68C885.704 353.642 882.176 353.554 878.636 353.441Z" fill="#FFE9D1"/>
<path d="M967.226 255.311C967.226 255.311 965.941 228.335 966.798 222.324C967.655 216.314 967.126 215.457 972.909 213.429C978.125 211.589 1076.12 185.457 1095.41 180.316C1094.5 180.064 1093.18 179.9 1091.2 179.976C1085.4 180.19 988.042 206.146 977.105 208.931C966.168 211.715 964.24 216.654 964.24 216.654C964.24 216.654 960.17 215.369 952.018 216.654C943.866 217.94 864.083 237.671 850.324 240.847C836.564 244.022 837.068 248.18 837.068 248.18C837.068 248.18 834.498 247.109 827.152 248.18C819.806 249.251 697.662 277.563 603.086 298.58C584.854 302.637 569.381 306.266 556.252 309.479C636.728 294.523 807.66 254.896 820.071 252.577C834.712 249.843 836.955 252.59 836.955 252.59V282.78L839.525 282.49L839.047 247.915C839.047 247.915 915.453 226.999 938.776 222.085C962.098 217.171 964.782 217.625 964.782 217.625C964.782 217.625 964.996 252.048 965.538 256.231C965.903 259.041 967.176 261.246 967.97 262.405L971.296 261.838C971.158 260.767 970.981 259.545 970.792 258.398C970.301 255.513 967.226 255.311 967.226 255.311Z" fill="#FFE9D1"/>
<path d="M1166.68 220.812L1125.82 219.842L1164.21 219.628C1164.29 218.33 1164.47 214.601 1164.35 210.367C1163.56 205.768 1161.81 199.128 1157.99 195.499C1157.99 195.499 1158.42 183.919 1156.92 181.992C1155.42 180.064 1146.95 175.981 1146.95 175.981C1146.95 175.981 1145.67 171.155 1139.98 171.155C1134.3 171.155 1131.19 175.024 1131.19 175.024L1002.62 209.334L1006.16 206.864L1097.31 181.551C1097.31 181.551 1097.16 180.757 1095.41 180.278C1076.13 185.419 978.138 211.551 972.909 213.391C967.113 215.432 967.655 216.289 966.798 222.287C965.941 228.297 967.226 255.274 967.226 255.274C967.226 255.274 970.301 255.488 970.767 258.361C970.956 259.495 971.12 260.729 971.271 261.8L972.052 261.662C972.052 261.662 975.404 265.895 979.801 265.568C984.199 265.24 985.232 263.048 985.232 263.048C985.232 263.048 988.672 264.497 994.367 263.59C1000.06 262.682 1002.28 260.024 1002.28 260.024C1002.28 260.024 1010.22 262.078 1016.39 260.931C1022.57 259.772 1031.45 252.539 1031.45 252.539L1050 250.826C1050 250.826 1050.21 255.223 1059 253.598C1067.8 251.972 1067.59 250.297 1068.23 249.478C1068.23 249.478 1070.9 249.717 1074.55 249.074C1078.01 248.457 1080.78 247.197 1081.72 247.021C1082.67 246.844 1082.96 249.301 1090.74 248.47C1099.75 247.512 1099.69 243.329 1102 243.329C1104.3 243.329 1106.19 245.042 1112.52 245.042C1118.84 245.042 1121.75 239.738 1121.75 239.738L1126.06 238.956C1126.06 238.956 1126.31 238.969 1126.77 238.994C1122.9 235.403 1114.22 224.038 1114.22 224.038L968.058 251.065V249.024L1116.04 221.568L1128.91 237.356C1129.83 237.797 1141.8 238.251 1149.94 238.503C1151.72 238.314 1153.52 238.087 1155.28 237.797C1169.12 235.554 1164.83 225.424 1164.83 225.424L1166.66 223.736V220.812H1166.68Z" fill="#1B2337"/>
<path d="M1142.03 179.989C1143.65 179.886 1144.86 178.131 1144.73 176.068C1144.6 174.005 1143.18 172.417 1141.56 172.52C1139.94 172.623 1138.74 174.378 1138.87 176.441C1139 178.503 1140.42 180.092 1142.03 179.989Z" fill="#FFE9D1"/>
<path d="M1137.16 214.286C1138.85 214.286 1140.22 212.915 1140.22 211.224C1140.22 209.533 1138.85 208.162 1137.16 208.162C1135.47 208.162 1134.1 209.533 1134.1 211.224C1134.1 212.915 1135.47 214.286 1137.16 214.286Z" fill="#FFE9D1"/>
<path d="M1159.68 214.764C1161.37 214.764 1162.74 213.394 1162.74 211.703C1162.74 210.012 1161.37 208.641 1159.68 208.641C1157.99 208.641 1156.62 210.012 1156.62 211.703C1156.62 213.394 1157.99 214.764 1159.68 214.764Z" fill="#FFE9D1"/>
<path d="M1128.95 176.259V173.852H1129.84V170.664C1129.84 169.58 1128.96 168.711 1127.89 168.711H1127.25C1126.16 168.711 1125.29 169.593 1125.29 170.664V173.902H1127.57V177.115L1128.95 176.259Z" fill="#1B2337"/>
<path d="M1147.1 185.318V195.285L1156.86 195.612V189.728C1156.86 187.447 1155.14 185.583 1152.99 185.507L1147.1 185.318Z" fill="#FFE9D1"/>
<path d="M1144.65 185.318V195.285L1132.42 195.612V189.728C1132.42 187.447 1134.58 185.583 1137.28 185.507L1144.65 185.318Z" fill="#FFE9D1"/>
<path d="M977.974 226.596L984.627 225.172V216.163L977.974 217.952V226.596Z" fill="#F8EADC"/>
<path d="M977.974 226.596L984.627 225.172V216.163L977.974 217.952V226.596Z" fill="#F8EADC"/>
<path d="M975.454 218.633L970.124 220.069V228.272L975.454 227.125V218.633Z" fill="#F8EADC"/>
<path d="M975.454 218.633L970.124 220.069V228.272L975.454 227.125V218.633Z" fill="#F8EADC"/>
<path d="M987.147 215.483V224.63L993.447 223.282V213.794L987.147 215.483Z" fill="#F8EADC"/>
<path d="M987.147 215.483V224.63L993.447 223.282V213.794L987.147 215.483Z" fill="#F8EADC"/>
<path d="M1132.45 147.593C1130.69 145.93 1129.26 144.784 1129.26 144.784C1130.98 142.213 1133.48 135.825 1127.57 130.734C1121.66 125.644 1114.68 128.378 1114.68 128.378C1114.68 128.378 1116.73 113.384 1103.32 109.932C1089.91 106.479 1082.62 121.196 1082.62 121.196C1079.5 112.729 1090.13 107.261 1090.13 107.261C1090.13 107.261 1083.47 96.1094 1067.93 96.752C1052.38 97.3946 1047.44 115.413 1047.44 115.413C1040.36 102.548 1052.91 95.366 1052.91 95.366C1052.91 95.366 1044.75 88.2848 1029.53 93.539C1014.3 98.7933 1010.26 118.311 1010.26 118.311C1005.45 103.191 1017.53 95.8952 1017.53 95.8952C1010.87 89.3558 994.367 89.2424 981.918 99.4359C969.482 109.629 974.093 132.675 974.093 132.675C974.093 132.675 968.197 126.45 966.269 117.227C964.341 108.004 970.767 103.392 970.767 103.392C950.179 89.129 931.946 129.348 931.946 129.348C928.948 109.516 948.352 98.7806 948.352 98.7806C948.352 98.7806 947.596 97.2812 936.986 98.5665C926.365 99.8517 916.499 104.249 916.499 104.249C916.826 102.535 920.039 99.2091 923.467 97.5837C926.894 95.9582 927.221 88.2722 917.141 84.2024C907.061 80.1325 900.308 85.601 900.308 85.601C902.135 78.6331 907.427 77.3101 906.104 73.0513C904.781 68.7925 901.492 65.7558 901.492 65.7558C901.492 65.7558 907.087 64.6722 906.961 60.5016C906.835 56.331 903.105 55.7892 903.105 55.7892C903.105 55.7892 911.219 52.9038 913.072 49.9301C913.84 48.6953 914.155 47.3471 913.298 46.3517C912.164 45.9863 910.589 45.8729 908.46 46.1375C896.452 47.6369 885.515 75.8359 885.188 87.1004C884.86 98.3648 893.441 102.548 893.441 102.548C893.441 102.548 889.585 114.027 898.695 129.789C907.805 145.552 931.505 134.943 931.505 134.943C930.649 142.667 936.432 165.939 954.992 165.511C973.539 165.082 982.233 153.389 982.233 153.389C982.233 153.389 991.985 161.756 1005.18 160.786C1018.37 159.815 1024.48 148.135 1024.48 148.135C1024.48 148.135 1028.45 152.961 1039.06 153.175C1049.68 153.389 1056.86 143.209 1056.86 143.209C1056.86 143.209 1060.19 150.504 1070.37 150.605C1080.56 150.718 1086.46 142.78 1086.46 142.78C1086.46 142.78 1089.89 148.148 1095.39 151.789C1100.9 155.431 1114.13 152.218 1114.13 152.218C1112.2 157.258 1120.83 166.682 1126.99 166.052C1138.07 164.868 1134.44 152.646 1132.45 147.593Z" fill="url(#paint47_linear_201_41)"/>
<path d="M1132.69 133.204C1129.58 125.165 1118.33 124.409 1118.33 124.409C1118.33 124.409 1120.15 115.186 1113.07 108.319C1105.99 101.452 1093.45 104.249 1093.45 104.249C1093.45 104.249 1090.34 94.4966 1079.09 90.2C1067.82 85.9159 1056.67 92.342 1056.67 92.342C1038.66 75.6091 1020.97 89.9858 1020.97 89.9858C1020.97 89.9858 1010.24 79.5781 994.581 82.5895C978.919 85.5883 972.279 98.138 972.279 98.138C963.484 91.1702 952.232 96.9536 952.232 96.9536C946.978 86.7602 930.46 94.3832 930.46 94.3832C930.46 94.3832 931.316 91.8128 925.747 85.3741C920.178 78.9355 908.271 76.9069 908.271 76.9069C908.271 76.9069 909.241 75.8359 908.813 71.5393C908.385 67.2552 905.915 65.529 905.915 65.529C905.915 65.529 909.027 63.9162 909.027 60.6024C909.027 57.276 906.671 55.9908 906.671 55.9908C913.903 55.2852 918.59 48.0401 913.336 46.3391C914.193 47.3219 913.878 48.6827 913.11 49.9175C911.257 52.8911 903.143 55.7766 903.143 55.7766C903.143 55.7766 906.885 56.331 906.999 60.489C907.125 64.6596 901.53 65.7432 901.53 65.7432C901.53 65.7432 904.819 68.7798 906.142 73.0387C907.465 77.2975 902.173 78.6205 900.346 85.5883C900.346 85.5883 907.099 80.1199 917.179 84.1897C927.259 88.2596 926.932 95.9456 923.505 97.571C920.077 99.1964 916.852 102.523 916.537 104.236C916.537 104.236 926.402 99.839 937.024 98.5538C947.646 97.2686 948.39 98.768 948.39 98.768C948.39 98.768 928.985 109.491 931.984 129.336C931.984 129.336 950.216 89.129 970.805 103.38C970.805 103.38 964.366 107.991 966.307 117.215C968.234 126.438 974.131 132.662 974.131 132.662C974.131 132.662 969.52 109.604 981.956 99.4232C994.392 89.2298 1010.91 89.3432 1017.56 95.8826C1017.56 95.8826 1005.49 103.178 1010.29 118.298C1010.29 118.298 1014.35 98.7806 1029.57 93.5264C1044.8 88.2722 1052.94 95.3534 1052.94 95.3534C1052.94 95.3534 1040.39 102.535 1047.48 115.4C1047.48 115.4 1052.4 97.382 1067.96 96.7394C1083.51 96.0968 1090.16 107.248 1090.16 107.248C1090.16 107.248 1079.54 112.716 1082.66 121.184C1082.66 121.184 1089.95 106.467 1103.36 109.919C1116.76 113.372 1114.72 128.366 1114.72 128.366C1114.72 128.366 1121.7 125.631 1127.61 130.722C1133.52 135.812 1131.01 142.2 1129.3 144.771C1129.3 144.771 1130.72 145.918 1132.49 147.581C1131.96 146.258 1131.56 145.414 1131.56 145.414C1131.56 145.414 1135.8 141.243 1132.69 133.204Z" fill="#F8F8D8"/>
<path d="M768.575 269.965L768.688 277.929L774.774 276.782L774.661 268.63L768.575 269.965Z" fill="#F8F8D8"/>
<path d="M777.18 268.088L777.294 276.303L782.006 275.421L781.893 267.055L777.18 268.088Z" fill="#F8F8D8"/>
<path d="M761.317 271.553L761.418 279.289L766.168 278.395L766.08 270.507L761.317 271.553Z" fill="#F8F8D8"/>
<path d="M791.696 264.913L791.822 273.582L797.189 272.574L797.063 263.741L791.696 264.913Z" fill="#F8F8D8"/>
<path d="M784.4 266.513L784.514 274.955L789.302 274.048L789.188 265.467L784.4 266.513Z" fill="#F8F8D8"/>
<path d="M739.494 276.316L739.595 283.384L744.471 282.477L744.357 275.257L739.494 276.316Z" fill="#F8F8D8"/>
<path d="M600.062 306.783V309.605L600.818 309.467V306.619L600.062 306.783Z" fill="#F8F8D8"/>
<path d="M602.078 306.354V309.227L602.834 309.089V306.191L602.078 306.354Z" fill="#F8F8D8"/>
<path d="M733.27 277.677L733.37 284.556L737.087 283.863L736.986 276.87L733.27 277.677Z" fill="#F8F8D8"/>
<path d="M746.89 274.703L746.978 281.998L751.842 281.091L751.754 273.645L746.89 274.703Z" fill="#F8F8D8"/>
<path d="M754.261 273.09L754.349 280.612L758.898 279.768L758.81 272.095L754.261 273.09Z" fill="#F8F8D8"/>
<path d="M807.71 261.41L807.836 270.57L813.468 269.512L813.33 260.188L807.71 261.41Z" fill="#F8F8D8"/>
<path d="M885.351 256.004L885.213 244.475L880.853 245.433L880.992 256.823L885.351 256.004Z" fill="#F8F8D8"/>
<path d="M916.436 237.659L916.612 250.133L923.958 248.747L923.781 236.046L916.436 237.659Z" fill="#F8F8D8"/>
<path d="M927.385 235.265L927.725 248.041L935.084 246.655L934.895 233.627L927.385 235.265Z" fill="#F8F8D8"/>
<path d="M907.565 239.586L907.729 251.796L912.832 250.838L912.668 238.478L907.565 239.586Z" fill="#F8F8D8"/>
<path d="M598.802 309.845V307.06L598.197 307.199L598.059 307.249V309.983L598.802 309.845Z" fill="#F8F8D8"/>
<path d="M898.456 241.577L898.607 253.51L903.962 252.502L903.798 240.418L898.456 241.577Z" fill="#F8F8D8"/>
<path d="M938.851 245.95L945.227 244.753L945.025 231.409L938.662 232.795L938.851 245.95Z" fill="#F8F8D8"/>
<path d="M872.336 258.449L877.224 257.529L877.098 246.252L872.197 247.323L872.336 258.449Z" fill="#F8F8D8"/>
<path d="M855.578 250.952L855.704 261.574L860.328 260.704L860.202 249.944L855.578 250.952Z" fill="#F8F8D8"/>
<path d="M863.957 249.125L864.095 259.999L868.556 259.154L868.43 248.142L863.957 249.125Z" fill="#F8F8D8"/>
<path d="M846.216 253.006L846.329 263.338L851.924 262.279L851.81 251.771L846.216 253.006Z" fill="#F8F8D8"/>
<path d="M817.097 259.394L817.236 268.806L821.608 267.987L821.469 258.424L817.097 259.394Z" fill="#F8F8D8"/>
<path d="M604.094 305.913V308.849L604.838 308.711V305.75L604.094 305.913Z" fill="#F8F8D8"/>
<path d="M888.98 243.656L889.119 255.299L894.839 254.215L894.701 242.409L888.98 243.656Z" fill="#F8F8D8"/>
<path d="M803.766 262.279L799.583 263.212L799.709 272.095L805.316 271.036L805.19 261.964L803.766 262.279Z" fill="#F8F8D8"/>
<path d="M670.345 291.436V296.4L672.789 295.947V290.894L670.345 291.436Z" fill="#F8F8D8"/>
<path d="M679.997 289.319V294.586L682.378 294.145V288.802L679.997 289.319Z" fill="#F8F8D8"/>
<path d="M675.322 290.34V295.468L677.489 295.065V289.886L675.322 290.34Z" fill="#F8F8D8"/>
<path d="M665.469 292.494V297.32L667.825 296.879V291.978L665.469 292.494Z" fill="#F8F8D8"/>
<path d="M657.884 294.157V298.744L660.643 298.227V293.553L657.884 294.157Z" fill="#F8F8D8"/>
<path d="M653.549 295.102V299.563L655.994 299.097V294.561L653.549 295.102Z" fill="#F8F8D8"/>
<path d="M700.824 284.77V290.68L705.171 289.861V283.825L700.824 284.77Z" fill="#F8F8D8"/>
<path d="M707.691 283.271V289.382L711.61 288.651V282.414L707.691 283.271Z" fill="#F8F8D8"/>
<path d="M714.13 281.86V288.172L717.746 287.492V281.079L714.13 281.86Z" fill="#F8F8D8"/>
<path d="M649.769 295.934V300.268L651.659 299.916V295.518L649.769 295.934Z" fill="#F8F8D8"/>
<path d="M695.52 285.93V291.675L698.304 291.146V285.325L695.52 285.93Z" fill="#F8F8D8"/>
<path d="M684.898 288.248V293.666L687.292 293.212V287.731L684.898 288.248Z" fill="#F8F8D8"/>
<path d="M689.812 287.177V292.746L693 292.141V286.484L689.812 287.177Z" fill="#F8F8D8"/>
<path d="M640.785 297.887V301.957L642.89 301.566V297.433L640.785 297.887Z" fill="#F8F8D8"/>
<path d="M621.381 302.133V305.598L622.616 305.372V301.856L621.381 302.133Z" fill="#F8F8D8"/>
<path d="M615.749 303.356V306.657L617.312 306.367V303.015L615.749 303.356Z" fill="#F8F8D8"/>
<path d="M620.121 302.411L618.572 302.751V306.128L620.121 305.838V302.411Z" fill="#F8F8D8"/>
<path d="M612.939 303.973V307.186L614.489 306.896V303.633L612.939 303.973Z" fill="#F8F8D8"/>
<path d="M608.114 305.031V308.093L608.857 307.955V304.868L608.114 305.031Z" fill="#F8F8D8"/>
<path d="M610.117 304.59V307.715L611.679 307.425V304.25L610.117 304.59Z" fill="#F8F8D8"/>
<path d="M630.466 300.142V303.897L631.953 303.62V299.815L630.466 300.142Z" fill="#F8F8D8"/>
<path d="M623.876 301.591V305.132L625.275 304.868V301.276L623.876 301.591Z" fill="#F8F8D8"/>
<path d="M637.144 298.693V302.637L638.895 302.31V298.303L637.144 298.693Z" fill="#F8F8D8"/>
<path d="M606.098 305.472V308.471L606.854 308.333V305.309L606.098 305.472Z" fill="#F8F8D8"/>
<path d="M633.843 299.412V303.267L635.254 303.003V299.097L633.843 299.412Z" fill="#F8F8D8"/>
<path d="M644.78 297.018V301.201L647.879 300.621V296.337L644.78 297.018Z" fill="#F8F8D8"/>
<path d="M627.165 300.861V304.515L628.576 304.25V300.558L627.165 300.861Z" fill="#F8F8D8"/>
<path d="M1352.62 313.788C1407.19 261.196 1480.65 186.427 1512 154.36V128.378C1512 128.378 1405.38 234.862 1362.92 277.966C1320.45 321.071 1206.58 427.882 1206.58 427.882L1198.21 437.32C1198.21 437.32 1281.42 382.421 1352.62 313.788Z" fill="url(#paint48_linear_201_41)"/>
<path d="M1289.14 417.588L1347.48 350.669C1347.48 350.669 1258.26 425.299 1202.93 493.932C1202.93 493.932 1270.28 446.316 1335.9 394.416C1401.52 342.517 1462.44 275.169 1462.44 275.169C1462.44 275.169 1398.97 321.928 1353.92 365.247C1353.92 365.247 1376.22 337.363 1431.99 279.025C1463.73 245.811 1492.84 213.996 1512.01 192.752V175.011C1475.56 215.798 1317.19 392.577 1289.14 417.588Z" fill="url(#paint49_linear_201_41)"/>
<path d="M911.459 582.951C921.753 562.363 926.465 552.925 956.491 537.049C986.517 521.173 1001.74 535.121 1001.74 535.121C1021.68 501.882 1081.95 522.685 1081.95 522.685C1077.88 519.044 1057.61 511.849 1057.61 511.849C1057.61 511.849 1022.87 498.342 1000.67 525.356C1000.67 525.356 985.875 512.492 945.983 531.152C906.091 549.813 886.788 611.579 886.788 611.579C895.167 611.692 901.165 603.54 911.459 582.951Z" fill="url(#paint50_linear_201_41)"/>
<path d="M1160.25 426.924C1160.25 426.924 1156.87 419.037 1163.62 414.866C1170.38 410.683 1174.56 412.46 1174.56 412.46C1174.56 412.46 1178.42 406.827 1186.95 407.961C1194.05 408.894 1198.25 416.87 1203.83 415.962C1201.02 409.965 1195.32 404.093 1183.8 404.748C1160.89 406.034 1150.27 416.655 1153.49 425.979C1153.49 425.979 1141.27 429.52 1144.81 443.67L1149.64 444.955C1149.62 444.943 1145.45 429.18 1160.25 426.924Z" fill="#FDE1A9"/>
<path d="M1512 175.036V154.36C1480.65 186.427 1407.19 261.183 1352.62 313.788C1281.42 382.421 1198.21 437.32 1198.21 437.32L1206.58 427.882C1206.58 427.882 1206.6 421.847 1203.83 415.937C1198.25 416.844 1194.05 408.869 1186.95 407.936C1178.42 406.815 1174.56 412.434 1174.56 412.434C1174.56 412.434 1170.38 410.67 1163.62 414.841C1156.87 419.024 1160.25 426.899 1160.25 426.899C1145.45 429.155 1149.62 444.917 1149.62 444.917L1144.8 443.632C1144.8 443.632 1134.83 438.806 1126.47 440.092C1118.1 441.377 1118.43 447.488 1118.43 447.488C1118.43 447.488 1105.56 452.641 1106.52 460.353C1106.52 460.353 1099.12 468.719 1105.23 476.443C1105.23 476.443 1084.96 484.482 1077.56 493.818C1070.17 503.142 1057.62 511.836 1057.62 511.836C1057.62 511.836 1077.89 519.019 1081.96 522.673C1081.96 522.673 1021.7 501.87 1001.75 535.109C1001.75 535.109 986.517 521.173 956.504 537.037C926.478 552.913 921.766 562.35 911.471 582.939C896.78 612.321 872.131 606.633 855.603 629.987H1512V192.777C1492.82 214.021 1463.72 245.836 1431.98 279.05C1376.21 337.388 1353.91 365.272 1353.91 365.272C1398.94 321.953 1462.43 275.194 1462.43 275.194C1462.43 275.194 1401.52 342.542 1335.89 394.442C1270.26 446.341 1202.92 493.957 1202.92 493.957C1258.25 425.324 1347.47 350.694 1347.47 350.694L1289.13 417.613C1317.19 392.577 1475.56 215.798 1512 175.036Z" fill="url(#paint51_linear_201_41)"/>
<path d="M1095.27 508.472C1095.27 508.472 1101.06 499.841 1107.98 493.944C1114.9 488.047 1111.04 480.324 1121.34 473.091C1131.63 465.859 1140.31 465.859 1140.31 465.859C1140.31 465.859 1138.7 457.177 1146.59 452.024C1154.47 446.87 1174 444.943 1174 444.943C1174 444.943 1142.4 450.575 1144.17 471.327C1144.17 471.327 1133.4 467.144 1124.22 476.72C1115.05 486.271 1115.36 492.395 1095.27 508.472Z" fill="url(#paint52_linear_201_41)"/>
<defs>
<linearGradient id="paint0_linear_201_41" x1="755.464" y1="332.448" x2="755.464" y2="-226.086" gradientUnits="userSpaceOnUse">
<stop offset="0.1873" stop-color="#FFDBA3"/>
<stop offset="0.5187" stop-color="#DA6F5C"/>
<stop offset="0.6191" stop-color="#DA6753"/>
<stop offset="0.7563" stop-color="#874D61"/>
<stop offset="0.8427" stop-color="#694157"/>
<stop offset="0.9427" stop-color="#4C364D"/>
<stop offset="1" stop-color="#413249"/>
</linearGradient>
<linearGradient id="paint1_linear_201_41" x1="756" y1="630.005" x2="756" y2="331.054" gradientUnits="userSpaceOnUse">
<stop stop-color="#7A517A"/>
<stop offset="0.173" stop-color="#985775"/>
<stop offset="0.2822" stop-color="#A55A73"/>
<stop offset="0.3551" stop-color="#BF6C72"/>
<stop offset="0.4678" stop-color="#E38570"/>
<stop offset="0.5283" stop-color="#F08E6F"/>
<stop offset="0.7231" stop-color="#F7BB96"/>
<stop offset="0.9035" stop-color="#FCDFB4"/>
<stop offset="1" stop-color="#FEECC0"/>
</linearGradient>
<linearGradient id="paint2_linear_201_41" x1="430.349" y1="400.948" x2="277.124" y2="-108.823" gradientUnits="userSpaceOnUse">
<stop stop-color="#F6AB8B"/>
<stop offset="0.0331" stop-color="#F0A387"/>
<stop offset="0.0831" stop-color="#E08F7B"/>
<stop offset="0.1386" stop-color="#C87069"/>
<stop offset="0.1589" stop-color="#BB6B6A"/>
<stop offset="0.2067" stop-color="#A3616C"/>
<stop offset="0.2571" stop-color="#925A6E"/>
<stop offset="0.3113" stop-color="#87556F"/>
<stop offset="0.3763" stop-color="#84546F"/>
<stop offset="0.5207" stop-color="#6E4C67"/>
<stop offset="0.6893" stop-color="#58445F"/>
<stop offset="0.8257" stop-color="#504059"/>
<stop offset="1" stop-color="#3E394D"/>
</linearGradient>
<linearGradient id="paint3_linear_201_41" x1="680.208" y1="222.677" x2="591.33" y2="108.541" gradientUnits="userSpaceOnUse">
<stop stop-color="#FCCDAB"/>
<stop offset="0.5977" stop-color="#FBC28F"/>
<stop offset="1" stop-color="#FBBC82"/>
</linearGradient>
<linearGradient id="paint4_linear_201_41" x1="617.292" y1="241.063" x2="496.854" y2="35.9641" gradientUnits="userSpaceOnUse">
<stop stop-color="#FFB291"/>
<stop offset="0.1756" stop-color="#FAA884"/>
<stop offset="0.4279" stop-color="#EF9469"/>
<stop offset="0.5586" stop-color="#F3A170"/>
<stop offset="0.7" stop-color="#F9B57A"/>
<stop offset="0.9258" stop-color="#F8A87E"/>
<stop offset="1" stop-color="#F8A27F"/>
</linearGradient>
<linearGradient id="paint5_linear_201_41" x1="532.444" y1="228.505" x2="276.123" y2="-104.393" gradientUnits="userSpaceOnUse">
<stop stop-color="#EC906F"/>
<stop offset="0.3188" stop-color="#F5A378"/>
<stop offset="0.4879" stop-color="#FBAF7E"/>
<stop offset="1" stop-color="#FFC48D"/>
</linearGradient>
<linearGradient id="paint6_linear_201_41" x1="352.13" y1="9.67176" x2="352.13" y2="-62.39" gradientUnits="userSpaceOnUse">
<stop stop-color="#58445F"/>
<stop offset="0.4392" stop-color="#504059"/>
<stop offset="1" stop-color="#3E394D"/>
</linearGradient>
<linearGradient id="paint7_linear_201_41" x1="464.163" y1="179.191" x2="464.163" y2="84.435" gradientUnits="userSpaceOnUse">
<stop offset="0.6893" stop-color="#58445F"/>
<stop offset="0.8257" stop-color="#504059"/>
<stop offset="1" stop-color="#3E394D"/>
</linearGradient>
<linearGradient id="paint8_linear_201_41" x1="486.983" y1="83.7515" x2="502.606" y2="113.155" gradientUnits="userSpaceOnUse">
<stop stop-color="#FCBEB5"/>
<stop offset="0.4577" stop-color="#F4B1AD"/>
<stop offset="1" stop-color="#E79BA0"/>
</linearGradient>
<linearGradient id="paint9_linear_201_41" x1="518.404" y1="108.915" x2="539.051" y2="136.055" gradientUnits="userSpaceOnUse">
<stop stop-color="#654768"/>
<stop offset="1" stop-color="#6D4C6C"/>
</linearGradient>
<linearGradient id="paint10_linear_201_41" x1="480.738" y1="230.457" x2="317.128" y2="-51.0103" gradientUnits="userSpaceOnUse">
<stop offset="0.1748" stop-color="#E0725E"/>
<stop offset="0.4587" stop-color="#F6A671"/>
<stop offset="0.6847" stop-color="#F9AE7E"/>
<stop offset="1" stop-color="#FDB78B"/>
</linearGradient>
<linearGradient id="paint11_linear_201_41" x1="696.351" y1="227.144" x2="696.351" y2="171.382" gradientUnits="userSpaceOnUse">
<stop stop-color="#FAB382"/>
<stop offset="0.2036" stop-color="#F4A37B"/>
<stop offset="0.7047" stop-color="#E57F6D"/>
<stop offset="0.9737" stop-color="#E07267"/>
</linearGradient>
<linearGradient id="paint12_linear_201_41" x1="608.602" y1="502.148" x2="676.796" y2="406.749" gradientUnits="userSpaceOnUse">
<stop offset="0.0635" stop-color="#964F60"/>
<stop offset="0.0651" stop-color="#964F60"/>
<stop offset="0.3491" stop-color="#724967"/>
<stop offset="0.5014" stop-color="#65476A"/>
<stop offset="0.6617" stop-color="#523F60"/>
<stop offset="0.8172" stop-color="#453958"/>
</linearGradient>
<linearGradient id="paint13_linear_201_41" x1="600.348" y1="656.354" x2="688.926" y2="469.195" gradientUnits="userSpaceOnUse">
<stop stop-color="#964F60"/>
<stop offset="0.0042957" stop-color="#954F60"/>
<stop offset="0.1409" stop-color="#71496A"/>
<stop offset="0.2142" stop-color="#64476E"/>
<stop offset="0.45" stop-color="#5F456B"/>
<stop offset="0.7177" stop-color="#524064"/>
<stop offset="1" stop-color="#3B3857"/>
</linearGradient>
<linearGradient id="paint14_linear_201_41" x1="564.569" y1="455.637" x2="625.4" y2="402.781" gradientUnits="userSpaceOnUse">
<stop offset="0.2703" stop-color="#723B67"/>
<stop offset="0.4486" stop-color="#523A5C"/>
<stop offset="0.5546" stop-color="#453958"/>
<stop offset="0.7135" stop-color="#3B374F"/>
<stop offset="1" stop-color="#2D3343"/>
</linearGradient>
<linearGradient id="paint15_linear_201_41" x1="533.855" y1="430.046" x2="582.621" y2="381.224" gradientUnits="userSpaceOnUse">
<stop offset="0.2703" stop-color="#723B67"/>
<stop offset="0.4486" stop-color="#523A5C"/>
<stop offset="0.5546" stop-color="#453958"/>
<stop offset="0.7135" stop-color="#3B374F"/>
<stop offset="1" stop-color="#2D3343"/>
</linearGradient>
<linearGradient id="paint16_linear_201_41" x1="500.883" y1="390.337" x2="554.586" y2="358.857" gradientUnits="userSpaceOnUse">
<stop offset="0.2703" stop-color="#723B67"/>
<stop offset="0.4486" stop-color="#523A5C"/>
<stop offset="0.5546" stop-color="#453958"/>
<stop offset="0.7135" stop-color="#3B374F"/>
<stop offset="1" stop-color="#2D3343"/>
</linearGradient>
<linearGradient id="paint17_linear_201_41" x1="474.586" y1="366.545" x2="518.457" y2="346.836" gradientUnits="userSpaceOnUse">
<stop offset="0.2703" stop-color="#723B67"/>
<stop offset="0.4486" stop-color="#523A5C"/>
<stop offset="0.5546" stop-color="#453958"/>
<stop offset="0.7135" stop-color="#3B374F"/>
<stop offset="1" stop-color="#2D3343"/>
</linearGradient>
<linearGradient id="paint18_linear_201_41" x1="756.32" y1="581.044" x2="789.48" y2="472.31" gradientUnits="userSpaceOnUse">
<stop offset="0.2142" stop-color="#64476E"/>
<stop offset="0.45" stop-color="#5F456B"/>
<stop offset="0.7177" stop-color="#524064"/>
<stop offset="1" stop-color="#3B3857"/>
</linearGradient>
<linearGradient id="paint19_linear_201_41" x1="879.078" y1="579.471" x2="892.593" y2="483.035" gradientUnits="userSpaceOnUse">
<stop offset="0.2142" stop-color="#64476E"/>
<stop offset="0.45" stop-color="#5F456B"/>
<stop offset="0.7177" stop-color="#524064"/>
<stop offset="1" stop-color="#3B3857"/>
</linearGradient>
<linearGradient id="paint20_linear_201_41" x1="481.531" y1="353.57" x2="482.366" y2="347.607" gradientUnits="userSpaceOnUse">
<stop offset="0.2142" stop-color="#64476E"/>
<stop offset="0.45" stop-color="#5F456B"/>
<stop offset="0.7177" stop-color="#524064"/>
<stop offset="1" stop-color="#3B3857"/>
</linearGradient>
<linearGradient id="paint21_linear_201_41" x1="1147.36" y1="210.313" x2="1505.24" y2="-223.838" gradientUnits="userSpaceOnUse">
<stop stop-color="#FAAB7F"/>
<stop offset="0.3664" stop-color="#FAE0AB"/>
<stop offset="0.5024" stop-color="#FBBE85"/>
<stop offset="1" stop-color="#CB6E6D"/>
</linearGradient>
<linearGradient id="paint22_linear_201_41" x1="1158.55" y1="48.4737" x2="1202.84" y2="-68.9135" gradientUnits="userSpaceOnUse">
<stop offset="0.1297" stop-color="#F8C5AD"/>
<stop offset="1" stop-color="#F7D097"/>
</linearGradient>
<linearGradient id="paint23_linear_201_41" x1="1090.93" y1="102.891" x2="1137.23" y2="35.5262" gradientUnits="userSpaceOnUse">
<stop stop-color="#F9B384"/>
<stop offset="1" stop-color="#FDC090"/>
</linearGradient>
<linearGradient id="paint24_linear_201_41" x1="1104.97" y1="449.322" x2="1310.93" y2="-5.39366" gradientUnits="userSpaceOnUse">
<stop stop-color="#F3B79C"/>
<stop offset="0.0736" stop-color="#E69080"/>
<stop offset="0.1357" stop-color="#DE766E"/>
<stop offset="0.1725" stop-color="#DB6C67"/>
<stop offset="0.306" stop-color="#C0666C"/>
<stop offset="0.445" stop-color="#AA6270"/>
<stop offset="0.5348" stop-color="#A26072"/>
<stop offset="0.744" stop-color="#6E4C61"/>
<stop offset="0.9696" stop-color="#443C53"/>
</linearGradient>
<linearGradient id="paint25_linear_201_41" x1="1146.03" y1="244.8" x2="1144.19" y2="234.569" gradientUnits="userSpaceOnUse">
<stop stop-color="#F3B79C"/>
<stop offset="1" stop-color="#D0817E"/>
</linearGradient>
<linearGradient id="paint26_linear_201_41" x1="1179.09" y1="19.073" x2="1206.74" y2="-38.9872" gradientUnits="userSpaceOnUse">
<stop stop-color="#BF7182"/>
<stop offset="1" stop-color="#F3B2A1"/>
</linearGradient>
<linearGradient id="paint27_linear_201_41" x1="1169.68" y1="48.598" x2="1209.79" y2="48.598" gradientUnits="userSpaceOnUse">
<stop stop-color="#CB6B7B"/>
<stop offset="0.5186" stop-color="#CC7B82"/>
<stop offset="1" stop-color="#CB6B7B"/>
</linearGradient>
<linearGradient id="paint28_linear_201_41" x1="1288.92" y1="161.029" x2="1437.79" y2="-0.133242" gradientUnits="userSpaceOnUse">
<stop stop-color="#C36877"/>
<stop offset="1" stop-color="#955071"/>
</linearGradient>
<linearGradient id="paint29_linear_201_41" x1="1302.37" y1="60.257" x2="1488.47" y2="-155.344" gradientUnits="userSpaceOnUse">
<stop stop-color="#DA6964"/>
<stop offset="0.4927" stop-color="#EA7964"/>
<stop offset="1" stop-color="#884F67"/>
</linearGradient>
<linearGradient id="paint30_linear_201_41" x1="1297.87" y1="90.0956" x2="1363.36" y2="14.887" gradientUnits="userSpaceOnUse">
<stop stop-color="#A8546A"/>
<stop offset="1" stop-color="#F1857C"/>
</linearGradient>
<linearGradient id="paint31_linear_201_41" x1="1253.22" y1="209.149" x2="1416.48" y2="53.0979" gradientUnits="userSpaceOnUse">
<stop stop-color="#FCAB7D"/>
<stop offset="0.5219" stop-color="#CD7479"/>
<stop offset="0.9915" stop-color="#955075"/>
</linearGradient>
<linearGradient id="paint32_linear_201_41" x1="258.942" y1="226.739" x2="585.007" y2="476.469" gradientUnits="userSpaceOnUse">
<stop stop-color="#2D3343"/>
<stop offset="0.4799" stop-color="#3B374F"/>
<stop offset="0.7462" stop-color="#453958"/>
<stop offset="0.8239" stop-color="#523A5C"/>
<stop offset="0.9546" stop-color="#723B67"/>
</linearGradient>
<linearGradient id="paint33_linear_201_41" x1="181.231" y1="477.139" x2="295.502" y2="193.177" gradientUnits="userSpaceOnUse">
<stop stop-color="#3B3349"/>
<stop offset="0.2352" stop-color="#6B456D"/>
<stop offset="0.517" stop-color="#B45860"/>
<stop offset="1" stop-color="#FAA67A"/>
</linearGradient>
<linearGradient id="paint34_linear_201_41" x1="106.504" y1="542.002" x2="166.069" y2="590.957" gradientUnits="userSpaceOnUse">
<stop stop-color="#EE9576"/>
<stop offset="0.7136" stop-color="#DC7B68"/>
</linearGradient>
<linearGradient id="paint35_linear_201_41" x1="-12.8934" y1="226.952" x2="230.933" y2="512.69" gradientUnits="userSpaceOnUse">
<stop stop-color="#994767"/>
<stop offset="0.2295" stop-color="#69446E"/>
<stop offset="0.357" stop-color="#6C456D"/>
<stop offset="0.4427" stop-color="#75466C"/>
<stop offset="0.5162" stop-color="#844969"/>
<stop offset="0.5823" stop-color="#994D64"/>
<stop offset="0.5972" stop-color="#9F4E63"/>
<stop offset="1" stop-color="#774E69"/>
</linearGradient>
<linearGradient id="paint36_linear_201_41" x1="29.2397" y1="370.839" x2="111.81" y2="455.041" gradientUnits="userSpaceOnUse">
<stop stop-color="#583C68"/>
<stop offset="1" stop-color="#5E405F"/>
</linearGradient>
<linearGradient id="paint37_linear_201_41" x1="-1.17848" y1="97.6066" x2="92.0297" y2="351.311" gradientUnits="userSpaceOnUse">
<stop stop-color="#F87F68"/>
<stop offset="0.7591" stop-color="#8A5177"/>
</linearGradient>
<linearGradient id="paint38_linear_201_41" x1="157.5" y1="491.906" x2="172.323" y2="491.906" gradientUnits="userSpaceOnUse">
<stop stop-color="#DBB98C"/>
<stop offset="1" stop-color="#BF5A61"/>
</linearGradient>
<linearGradient id="paint39_linear_201_41" x1="59.3808" y1="545.631" x2="59.3808" y2="495.123" gradientUnits="userSpaceOnUse">
<stop stop-color="#DF5D5B"/>
<stop offset="1" stop-color="#E3776E"/>
</linearGradient>
<linearGradient id="paint40_linear_201_41" x1="98.5212" y1="493.783" x2="110.149" y2="493.783" gradientUnits="userSpaceOnUse">
<stop stop-color="#BF5A61"/>
<stop offset="1" stop-color="#A6536B"/>
</linearGradient>
<linearGradient id="paint41_linear_201_41" x1="69.0319" y1="573.681" x2="82.8652" y2="573.681" gradientUnits="userSpaceOnUse">
<stop stop-color="#8A4F77"/>
<stop offset="1" stop-color="#AD6F8B"/>
</linearGradient>
<linearGradient id="paint42_linear_201_41" x1="296.405" y1="487.846" x2="316.029" y2="525.485" gradientUnits="userSpaceOnUse">
<stop stop-color="#BF5A61"/>
<stop offset="1" stop-color="#A6536B"/>
</linearGradient>
<linearGradient id="paint43_linear_201_41" x1="172.323" y1="440.112" x2="255.619" y2="440.112" gradientUnits="userSpaceOnUse">
<stop stop-color="#583C68"/>
<stop offset="0.3956" stop-color="#5B3E6A"/>
<stop offset="0.6464" stop-color="#63436F"/>
<stop offset="0.8561" stop-color="#724D78"/>
<stop offset="1" stop-color="#815782"/>
</linearGradient>
<linearGradient id="paint44_linear_201_41" x1="317.452" y1="415.605" x2="398.393" y2="465.151" gradientUnits="userSpaceOnUse">
<stop stop-color="#8A4F77"/>
<stop offset="1" stop-color="#AD6F8B"/>
</linearGradient>
<linearGradient id="paint45_linear_201_41" x1="403.12" y1="448.235" x2="444.458" y2="448.235" gradientUnits="userSpaceOnUse">
<stop stop-color="#B45860"/>
<stop offset="1" stop-color="#6B456D"/>
</linearGradient>
<linearGradient id="paint46_linear_201_41" x1="491.455" y1="316.839" x2="837.219" y2="267.534" gradientUnits="userSpaceOnUse">
<stop stop-color="#423D5F"/>
<stop offset="0.3807" stop-color="#1B2337"/>
</linearGradient>
<linearGradient id="paint47_linear_201_41" x1="888.96" y1="93.1485" x2="1128.32" y2="163.42" gradientUnits="userSpaceOnUse">
<stop stop-color="#3A3247"/>
<stop offset="0.2245" stop-color="#2F2D41"/>
<stop offset="0.6507" stop-color="#20263A"/>
<stop offset="1" stop-color="#1B2337"/>
</linearGradient>
<linearGradient id="paint48_linear_201_41" x1="1275.14" y1="366.235" x2="1505.77" y2="153.451" gradientUnits="userSpaceOnUse">
<stop offset="0.3309" stop-color="#D6706E"/>
<stop offset="0.6021" stop-color="#E89073"/>
<stop offset="0.8429" stop-color="#F5A576"/>
<stop offset="1" stop-color="#F9AD77"/>
</linearGradient>
<linearGradient id="paint49_linear_201_41" x1="1302.33" y1="401.839" x2="1527.06" y2="189.642" gradientUnits="userSpaceOnUse">
<stop stop-color="#76476E"/>
<stop offset="0.0325" stop-color="#7B466C"/>
<stop offset="0.2785" stop-color="#9E425B"/>
<stop offset="0.4806" stop-color="#B33F51"/>
<stop offset="0.6126" stop-color="#BB3E4D"/>
<stop offset="0.7392" stop-color="#CE5D5A"/>
<stop offset="0.8548" stop-color="#DB7263"/>
<stop offset="0.9303" stop-color="#E07A66"/>
</linearGradient>
<linearGradient id="paint50_linear_201_41" x1="897.559" y1="582.546" x2="1073.65" y2="498.403" gradientUnits="userSpaceOnUse">
<stop offset="0.0377" stop-color="#B4526E"/>
<stop offset="0.0996" stop-color="#C5737C"/>
<stop offset="0.1866" stop-color="#DA9B8C"/>
<stop offset="0.2723" stop-color="#EABB99"/>
<stop offset="0.3549" stop-color="#F6D2A2"/>
<stop offset="0.4331" stop-color="#FDDFA8"/>
<stop offset="0.5024" stop-color="#FFE4AA"/>
<stop offset="0.5921" stop-color="#FAC79D"/>
<stop offset="0.7177" stop-color="#F4A48E"/>
<stop offset="0.821" stop-color="#F08F84"/>
<stop offset="0.8884" stop-color="#EF8781"/>
</linearGradient>
<linearGradient id="paint51_linear_201_41" x1="1183.8" y1="630.005" x2="1183.8" y2="154.365" gradientUnits="userSpaceOnUse">
<stop stop-color="#29293B"/>
<stop offset="1" stop-color="#292B3C"/>
</linearGradient>
<linearGradient id="paint52_linear_201_41" x1="1103.47" y1="490.566" x2="1171.22" y2="450.459" gradientUnits="userSpaceOnUse">
<stop stop-color="#AB4B5E"/>
<stop offset="0.8262" stop-color="#F5A887"/>
</linearGradient>
</defs>
</svg>
