<svg width="586" height="640" viewBox="0 0 586 640" fill="none" xmlns="http://www.w3.org/2000/svg">
<path d="M55.8559 576.088C66.1501 548.414 70.8625 535.729 100.888 514.389C130.914 493.05 146.135 511.798 146.135 511.798C166.081 467.12 226.346 495.082 226.346 495.082C222.277 490.187 202.003 480.517 202.003 480.517C202.003 480.517 167.265 462.361 145.064 498.672C145.064 498.672 130.272 481.381 90.3799 506.463C50.4883 531.546 31.1851 614.568 31.1851 614.568C39.5641 614.72 45.5617 603.762 55.8559 576.088Z" fill="#BD210F"/>
<path d="M304.643 366.366C304.643 366.366 301.266 355.764 308.02 350.158C314.773 344.535 318.957 346.923 318.957 346.923C318.957 346.923 322.812 339.353 331.342 340.877C338.449 342.13 342.645 352.851 348.226 351.632C345.417 343.57 339.721 335.677 328.192 336.558C305.286 338.286 294.664 352.563 297.889 365.096C297.889 365.096 285.667 369.855 289.208 388.874L294.034 390.602C294.021 390.585 289.851 369.398 304.643 366.366Z" fill="#BD210F"/>
<path d="M656.397 27.7925V0C625.048 43.1029 551.59 143.586 497.02 214.295C425.817 306.547 342.607 380.338 342.607 380.338L350.973 367.653C350.973 367.653 350.998 359.541 348.226 351.598C342.644 352.817 338.449 342.096 331.342 340.843C322.812 339.336 318.956 346.889 318.956 346.889C318.956 346.889 314.773 344.518 308.02 350.124C301.266 355.747 304.643 366.332 304.643 366.332C289.85 369.364 294.021 390.551 294.021 390.551L289.195 388.824C289.195 388.824 279.229 382.337 270.862 384.064C262.496 385.792 262.823 394.006 262.823 394.006C262.823 394.006 249.959 400.933 250.916 411.298C250.916 411.298 243.52 422.544 249.631 432.926C249.631 432.926 229.358 443.731 221.962 456.281C214.565 468.814 202.016 480.5 202.016 480.5C202.016 480.5 222.289 490.153 226.359 495.065C226.359 495.065 166.093 467.103 146.147 511.781C146.147 511.781 130.914 493.049 100.901 514.372C70.875 535.712 66.1626 548.397 55.8684 576.071C45.5742 603.745 39.564 614.703 31.2102 614.551C31.2102 614.551 2.898 633.807 0 639.311H656.397V51.6388C637.22 80.1934 608.114 122.958 576.374 167.602C520.607 246.017 498.305 283.497 498.305 283.497C543.337 225.27 606.829 162.419 606.829 162.419C606.829 162.419 545.92 252.944 480.287 322.704C414.653 392.465 347.319 456.467 347.319 456.467C402.646 364.215 491.866 263.901 491.866 263.901L433.528 353.85C461.588 320.198 619.958 82.5814 656.397 27.7925Z" fill="#7A1307"/>
<path d="M547.206 499.976C547.206 499.976 545.593 426.033 616.367 431.215C616.367 431.215 597.706 410.366 567.794 430.961C537.882 451.556 543.993 492.203 547.206 499.976Z" fill="#BD210F"/>
<path d="M239.665 475.978C239.665 475.978 245.461 464.376 252.378 456.45C259.295 448.524 255.44 438.142 265.734 428.421C276.028 418.699 284.71 418.699 284.71 418.699C284.71 418.699 283.097 407.03 290.984 400.103C298.872 393.176 318.402 390.585 318.402 390.585C318.402 390.585 286.801 398.155 288.565 426.05C288.565 426.05 277.792 420.427 268.619 433.298C259.447 446.136 259.762 454.367 239.665 475.978Z" fill="#BD210F"/>
<path d="M309.632 615.381C309.632 615.381 340.2 580.018 371.083 569.619C371.07 569.619 334.719 560.626 309.632 615.381Z" fill="#BD210F"/>
<path d="M531.607 473.386C531.607 473.386 512.14 440.107 480.299 435.568C443.545 430.351 430.958 447.592 423.536 480.483L421.508 484.48L429.408 481.38C429.408 481.38 433.44 442.579 478.372 450.387C523.303 458.195 531.607 473.386 531.607 473.386Z" fill="#BD210F"/>
<path d="M429.396 481.381C429.396 481.381 403.326 474.454 384.224 495.861C365.123 517.269 371.07 569.602 371.07 569.602C371.07 569.602 375.253 523.095 393.586 506.243C411.932 489.391 429.396 481.381 429.396 481.381Z" fill="#BD210F"/>
</svg>
