<svg width="637" height="640" viewBox="0 0 637 640" fill="none" xmlns="http://www.w3.org/2000/svg">
<path d="M55.8559 576.223C66.1501 548.549 70.8625 535.863 100.888 514.524C130.914 493.184 146.135 511.932 146.135 511.932C166.081 467.254 226.346 495.216 226.346 495.216C222.277 490.322 202.003 480.651 202.003 480.651C202.003 480.651 167.265 462.495 145.064 498.807C145.064 498.807 130.272 481.515 90.3799 506.598C50.4883 531.68 31.1851 614.702 31.1851 614.702C39.5641 614.854 45.5617 603.897 55.8559 576.223Z" fill="url(#paint0_linear_201_405)"/>
<path d="M304.643 366.5C304.643 366.5 301.266 355.898 308.02 350.292C314.773 344.67 318.956 347.058 318.956 347.058C318.956 347.058 322.812 339.487 331.342 341.011C338.449 342.265 342.644 352.985 348.226 351.766C345.416 343.704 339.721 335.812 328.192 336.693C305.285 338.42 294.664 352.697 297.889 365.23C297.889 365.23 285.667 369.989 289.208 389.009L294.034 390.736C294.021 390.719 289.85 369.532 304.643 366.5Z" fill="#FDE1A9"/>
<path d="M656.397 27.9269V0.134399C625.048 43.2373 551.59 143.72 497.02 214.429C425.817 306.681 342.607 380.473 342.607 380.473L350.973 367.788C350.973 367.788 350.998 359.675 348.226 351.732C342.644 352.951 338.449 342.231 331.342 340.977C322.812 339.47 318.956 347.024 318.956 347.024C318.956 347.024 314.773 344.653 308.02 350.259C301.266 355.881 304.643 366.467 304.643 366.467C289.85 369.498 294.021 390.685 294.021 390.685L289.195 388.958C289.195 388.958 279.229 382.471 270.862 384.199C262.496 385.926 262.823 394.14 262.823 394.14C262.823 394.14 249.959 401.067 250.916 411.432C250.916 411.432 243.52 422.678 249.631 433.06C249.631 433.06 229.358 443.865 221.962 456.415C214.565 468.948 202.016 480.634 202.016 480.634C202.016 480.634 222.289 490.288 226.359 495.199C226.359 495.199 166.093 467.238 146.147 511.915C146.147 511.915 130.914 493.184 100.901 514.507C70.875 535.846 66.1626 548.532 55.8684 576.206C45.5742 603.88 39.564 614.837 31.2102 614.685C31.2102 614.685 2.898 633.942 0 639.446H656.397V51.7732C637.22 80.3278 608.114 123.092 576.374 167.736C520.607 246.151 498.305 283.631 498.305 283.631C543.337 225.404 606.829 162.553 606.829 162.553C606.829 162.553 545.92 253.078 480.287 322.839C414.653 392.599 347.319 456.602 347.319 456.602C402.646 364.349 491.866 264.036 491.866 264.036L433.528 353.985C461.588 320.332 619.958 82.7158 656.397 27.9269Z" fill="url(#paint1_linear_201_405)"/>
<path d="M547.206 500.111C547.206 500.111 545.593 426.167 616.367 431.349C616.367 431.349 597.706 410.501 567.794 431.095C537.882 451.69 543.993 492.337 547.206 500.111Z" fill="url(#paint2_linear_201_405)"/>
<path d="M239.665 476.112C239.665 476.112 245.461 464.511 252.378 456.585C259.295 448.658 255.44 438.276 265.734 428.555C276.028 418.834 284.71 418.834 284.71 418.834C284.71 418.834 283.097 407.165 290.984 400.238C298.872 393.311 318.402 390.719 318.402 390.719C318.402 390.719 286.801 398.29 288.565 426.184C288.565 426.184 277.792 420.561 268.619 433.433C259.447 446.27 259.762 454.501 239.665 476.112Z" fill="url(#paint3_linear_201_405)"/>
<path d="M309.632 615.515C309.632 615.515 340.2 580.152 371.083 569.753C371.07 569.753 334.719 560.76 309.632 615.515Z" fill="#B1596C"/>
<path d="M531.607 473.521C531.607 473.521 512.14 440.241 480.299 435.702C443.545 430.486 430.958 447.727 423.536 480.617L421.508 484.614L429.408 481.515C429.408 481.515 433.44 442.714 478.372 450.521C523.303 458.329 531.607 473.521 531.607 473.521Z" fill="url(#paint4_linear_201_405)"/>
<path d="M429.396 481.515C429.396 481.515 403.326 474.588 384.224 495.995C365.123 517.403 371.07 569.736 371.07 569.736C371.07 569.736 375.253 523.229 393.586 506.377C411.932 489.526 429.396 481.515 429.396 481.515Z" fill="url(#paint5_linear_201_405)"/>
<defs>
<linearGradient id="paint0_linear_201_405" x1="41.9558" y1="575.678" x2="233.99" y2="507.412" gradientUnits="userSpaceOnUse">
<stop offset="0.0377" stop-color="#B4526E"/>
<stop offset="0.0996" stop-color="#C5737C"/>
<stop offset="0.1866" stop-color="#DA9B8C"/>
<stop offset="0.2723" stop-color="#EABB99"/>
<stop offset="0.3549" stop-color="#F6D2A2"/>
<stop offset="0.4331" stop-color="#FDDFA8"/>
<stop offset="0.5024" stop-color="#FFE4AA"/>
<stop offset="0.5921" stop-color="#FAC79D"/>
<stop offset="0.7177" stop-color="#F4A48E"/>
<stop offset="0.821" stop-color="#F08F84"/>
<stop offset="0.8884" stop-color="#EF8781"/>
</linearGradient>
<linearGradient id="paint1_linear_201_405" x1="328.194" y1="639.47" x2="328.194" y2="0.141868" gradientUnits="userSpaceOnUse">
<stop stop-color="#29293B"/>
<stop offset="1" stop-color="#292B3C"/>
</linearGradient>
<linearGradient id="paint2_linear_201_405" x1="543.037" y1="476.976" x2="613.096" y2="446.293" gradientUnits="userSpaceOnUse">
<stop stop-color="#9D486B"/>
<stop offset="0.1124" stop-color="#AE516A"/>
<stop offset="0.3794" stop-color="#D26368"/>
<stop offset="0.5219" stop-color="#E06A67"/>
<stop offset="0.6696" stop-color="#DD6967"/>
<stop offset="0.7744" stop-color="#D46468"/>
<stop offset="0.8659" stop-color="#C45C69"/>
<stop offset="0.9493" stop-color="#AE516A"/>
<stop offset="1" stop-color="#9D486B"/>
</linearGradient>
<linearGradient id="paint3_linear_201_405" x1="247.864" y1="452.044" x2="324.494" y2="418.295" gradientUnits="userSpaceOnUse">
<stop stop-color="#AB4B5E"/>
<stop offset="0.8262" stop-color="#F5A887"/>
</linearGradient>
<linearGradient id="paint4_linear_201_405" x1="421.501" y1="459.703" x2="531.603" y2="459.703" gradientUnits="userSpaceOnUse">
<stop stop-color="#FFC391"/>
<stop offset="0.1975" stop-color="#F19C7F"/>
<stop offset="0.409" stop-color="#E5786D"/>
<stop offset="0.5219" stop-color="#E06A67"/>
<stop offset="0.6696" stop-color="#DD6967"/>
<stop offset="0.7744" stop-color="#D46468"/>
<stop offset="0.8659" stop-color="#C45C69"/>
<stop offset="0.9493" stop-color="#AE516A"/>
<stop offset="1" stop-color="#9D486B"/>
</linearGradient>
<linearGradient id="paint5_linear_201_405" x1="363.555" y1="550.723" x2="418.072" y2="512.414" gradientUnits="userSpaceOnUse">
<stop stop-color="#9D486B"/>
<stop offset="0.0507" stop-color="#AE516A"/>
<stop offset="0.1341" stop-color="#C45C69"/>
<stop offset="0.2256" stop-color="#D46468"/>
<stop offset="0.3304" stop-color="#DD6967"/>
<stop offset="0.4781" stop-color="#E06A67"/>
<stop offset="0.591" stop-color="#E5786D"/>
<stop offset="0.8025" stop-color="#F19C7F"/>
<stop offset="1" stop-color="#FFC391"/>
</linearGradient>
</defs>
</svg>
