<svg width="1512" height="505" viewBox="0 0 1512 505" fill="none"
  xmlns="http://www.w3.org/2000/svg">
  <mask id="mask0_369_33" style="mask-type:alpha" maskUnits="userSpaceOnUse" x="0" y="0" width="1512" height="505">
    <rect width="1512" height="505" fill="#D9D9D9"/>
  </mask>
  <g mask="url(#mask0_369_33)">
    <path d="M-1 0H1512V490H-1V0Z" fill="transparent"/>
    <path d="M295.292 302.375C347.035 302.375 388.98 260.43 388.98 208.688C388.98 156.945 347.035 115 295.292 115C243.55 115 201.605 156.945 201.605 208.688C201.605 260.43 243.55 302.375 295.292 302.375Z" fill="#FC3820"/>
    <path d="M57.2643 442.743L397.193 399.873L389.986 437.709L62.4788 482.924L57.2643 442.743Z" fill="white"/>
    <path d="M416.584 328.211L362.177 316.093L32.5351 410.865C30.817 422.917 33.3942 477.011 33.3942 477.011C33.3942 477.011 39.559 477.441 40.4939 483.201C40.8728 485.475 41.2012 487.951 41.5044 490.099L43.0709 489.821C43.0709 489.821 49.7916 498.31 58.6093 497.653C67.4271 496.996 69.4989 492.6 69.4989 492.6C69.4989 492.6 76.3964 495.506 87.8165 493.687C99.2367 491.867 103.683 486.536 103.683 486.536C103.683 486.536 119.601 490.655 131.981 488.355C144.361 486.031 162.174 471.528 162.174 471.528L199.365 468.092C199.365 468.092 199.794 476.91 217.43 473.651C235.065 470.391 234.636 467.031 235.924 465.389C235.924 465.389 241.281 465.869 248.608 464.58C255.531 463.342 261.089 460.816 262.984 460.462C264.879 460.108 265.46 465.035 281.074 463.368C299.139 461.447 299.013 453.059 303.636 453.059C308.26 453.059 312.05 456.495 324.733 456.495C337.417 456.495 343.253 445.858 343.253 445.858L351.894 444.292C351.894 444.292 352.399 444.317 353.309 444.368C345.552 437.167 328.144 414.377 328.144 414.377L35.0617 468.572V464.479L331.808 409.425L361.257 442.614L421.003 439.18L431.598 409.425L416.584 328.211Z" fill="#7A1307"/>
    <path d="M365.055 322.326V317.5H366.849V311.108C366.849 308.935 365.081 307.191 362.933 307.191H361.645C359.472 307.191 357.728 308.96 357.728 311.108V317.601H362.302V324.044L365.055 322.326Z" fill="#7A1307"/>
    <path d="M365.355 270.953C362.799 268.557 360.735 266.906 360.735 266.906C363.219 263.204 366.853 254.003 358.288 246.671C349.724 239.34 339.608 243.278 339.608 243.278C339.608 243.278 342.566 221.682 323.137 216.71C303.708 211.737 293.135 232.934 293.135 232.934C288.625 220.739 304.018 212.863 304.018 212.863C304.018 212.863 294.377 196.802 271.844 197.727C249.31 198.653 242.152 224.604 242.152 224.604C231.89 206.075 250.077 195.731 250.077 195.731C250.077 195.731 238.263 185.532 216.204 193.1C194.128 200.667 188.266 228.778 188.266 228.778C181.309 207.001 198.802 196.493 198.802 196.493C189.161 187.075 165.24 186.912 147.198 201.593C129.175 216.274 135.859 249.466 135.859 249.466C135.859 249.466 127.313 240.501 124.519 227.217C121.725 213.933 131.038 207.291 131.038 207.291C101.2 186.748 74.7776 244.675 74.7776 244.675C70.4316 216.111 98.5525 200.649 98.5525 200.649C98.5525 200.649 97.457 198.49 82.0817 200.341C66.6882 202.192 52.3903 208.525 52.3903 208.525C52.8651 206.057 57.5214 201.266 62.4883 198.925C67.4551 196.584 67.9299 185.514 53.3216 179.653C38.7133 173.791 28.9258 181.667 28.9258 181.667C31.5735 171.631 39.2429 169.726 37.3255 163.592C35.4082 157.458 30.6422 153.085 30.6422 153.085C30.6422 153.085 38.7498 151.524 38.5672 145.517C38.3846 139.51 32.9795 138.73 32.9795 138.73C32.9795 138.73 44.7392 134.574 47.4235 130.291C48.5373 128.513 48.9939 126.571 47.7522 125.137C46.1088 124.611 43.8262 124.448 40.7402 124.829C23.338 126.988 7.48808 167.603 7.01331 183.826C6.53854 200.05 18.9738 206.075 18.9738 206.075C18.9738 206.075 13.3861 222.608 26.5884 245.31C39.7907 268.013 74.1384 252.733 74.1384 252.733C72.8967 263.857 81.2783 297.376 108.176 296.759C135.055 296.142 147.655 279.301 147.655 279.301C147.655 279.301 161.788 291.351 180.907 289.953C200.026 288.556 208.882 271.733 208.882 271.733C208.882 271.733 214.634 278.684 230.009 278.992C245.403 279.301 255.811 264.637 255.811 264.637C255.811 264.637 260.632 275.145 275.386 275.29C290.159 275.453 298.705 264.02 298.705 264.02C298.705 264.02 303.672 271.751 311.651 276.996C319.631 282.241 338.805 277.613 338.805 277.613C336.011 284.872 348.519 298.446 357.448 297.539C373.499 295.833 368.24 278.23 365.355 270.953Z" fill="#B80000"/>
    <path d="M366.879 250.349C362.348 238.713 345.967 237.619 345.967 237.619C345.967 237.619 348.627 224.269 338.318 214.33C328.008 204.39 309.756 208.439 309.756 208.439C309.756 208.439 305.226 194.323 288.845 188.105C272.445 181.904 256.211 191.205 256.211 191.205C229.98 166.986 204.225 187.794 204.225 187.794C204.225 187.794 188.614 172.73 165.813 177.089C143.012 181.43 133.345 199.594 133.345 199.594C120.541 189.509 104.16 197.88 104.16 197.88C96.5105 183.126 72.4619 194.159 72.4619 194.159C72.4619 194.159 73.7092 190.439 65.6012 181.12C57.4933 171.8 40.1585 168.864 40.1585 168.864C40.1585 168.864 41.571 167.314 40.9473 161.095C40.3237 154.894 36.7282 152.396 36.7282 152.396C36.7282 152.396 41.2592 150.061 41.2592 145.265C41.2592 140.45 37.8289 138.59 37.8289 138.59C48.3582 137.569 55.182 127.082 47.5327 124.62C48.7801 126.043 48.3215 128.012 47.2025 129.8C44.506 134.104 32.6927 138.28 32.6927 138.28C32.6927 138.28 38.1408 139.082 38.3058 145.101C38.4893 151.137 30.3446 152.706 30.3446 152.706C30.3446 152.706 35.1323 157.101 37.0584 163.265C38.9845 169.429 31.2801 171.344 28.6203 181.43C28.6203 181.43 38.4525 173.515 53.1275 179.405C67.8025 185.296 67.3256 196.421 62.3361 198.773C57.3466 201.126 52.6506 205.941 52.192 208.421C52.192 208.421 66.5551 202.056 82.0189 200.196C97.4827 198.336 98.565 200.506 98.565 200.506C98.565 200.506 70.3156 216.026 74.6814 244.75C74.6814 244.75 101.225 186.554 131.198 207.181C131.198 207.181 121.825 213.856 124.65 227.205C127.456 240.555 136.041 249.564 136.041 249.564C136.041 249.564 129.327 216.19 147.433 201.454C165.538 186.7 189.587 186.864 199.272 196.33C199.272 196.33 181.699 206.889 188.688 228.774C188.688 228.774 194.594 200.524 216.754 192.919C238.931 185.314 250.781 195.564 250.781 195.564C250.781 195.564 232.511 205.959 242.82 224.579C242.82 224.579 249.993 198.5 272.647 197.57C295.283 196.64 304.969 212.78 304.969 212.78C304.969 212.78 289.505 220.695 294.036 232.95C294.036 232.95 304.657 211.649 324.175 216.646C343.692 221.643 340.721 243.346 340.721 243.346C340.721 243.346 350.883 239.388 359.486 246.756C368.09 254.124 364.439 263.37 361.944 267.091C361.944 267.091 364.017 268.75 366.585 271.157C365.815 269.243 365.228 268.021 365.228 268.021C365.228 268.021 371.41 261.984 366.879 250.349Z" fill="white"/>
    <path d="M604.95 408.114L-1 488.704L-1 795.5H1512V287L604.95 408.114Z" fill="#851007"/>
    <path d="M1512 315L-1 488.704L-1 795.5H1512V315Z" fill="#c12110"/>
    <path d="M403.973 354.15C404.969 360.184 402.655 365.59 398.806 366.225C394.957 366.86 391.029 362.484 390.034 356.45C389.038 350.416 391.351 345.01 395.201 344.375C399.05 343.74 402.977 348.116 403.973 354.15Z" fill="white"/>
  </g>
</svg>
