<svg width="413" height="413" viewBox="0 0 413 413" fill="none" xmlns="http://www.w3.org/2000/svg">
<mask id="mask0_194_2" style="mask-type:alpha" maskUnits="userSpaceOnUse" x="0" y="0" width="413" height="413">
<circle cx="206.5" cy="206.5" r="206.5" fill="white"/>
</mask>
<g mask="url(#mask0_194_2)">
<circle cx="206.5" cy="206.5" r="194" fill="white" stroke="white" stroke-width="25"/>
<path d="M207 178C250.078 178 285 143.078 285 100C285 56.9218 250.078 22 207 22C163.922 22 129 56.9218 129 100C129 143.078 163.922 178 207 178Z" fill="#FC3820"/>
<path d="M424.757 11.0965C394.517 50.3457 303.469 164.868 303.469 164.868L351.727 126.904C351.727 126.904 308.295 168.408 291.575 186.099C274.842 203.789 208.251 287.756 179.296 324.36C150.341 360.963 87.9337 423.195 87.9337 423.195L319.232 132.372C319.232 132.372 297.358 130.117 257.782 118.222C218.218 106.315 193.446 101.174 193.446 101.174C193.446 101.174 187.335 116.937 169.96 146.207C152.584 175.477 125.885 226.633 125.885 226.633L143.903 173.549C143.903 173.549 135.927 179.799 129.136 185.003C117.544 209.762 95.6071 254.58 82.7803 267.571C64.7623 285.816 47.3869 292.255 47.3869 292.255C47.3869 292.255 74.4139 270.696 87.9211 250.107C101.428 229.519 109.795 211.828 109.795 211.828C100.471 213.756 82.7677 224.693 72.1585 228.876C61.5493 233.059 31.9519 230.489 31.9519 230.489C31.9519 230.489 18.4447 249.15 -3.4415 270.696C-25.3277 292.242 -61.9937 322.167 -87.0803 349.194C-112.167 376.222 -141.764 382.648 -164.936 392.627C-188.094 402.594 -224.773 424.48 -232.497 440.558C-240.221 456.648 -215.663 502.008 -215.663 502.008C-178.884 513.273 -146.603 517.456 -138.236 518.741C-129.87 520.026 -134.381 524.852 -117.005 534.831C-99.6299 544.811 -16.9613 549.309 52.8553 559.276C122.659 569.242 205.265 599.167 205.265 599.167H491.487V-64H486.358C468.807 -43.3611 443.027 -12.6169 424.757 11.0965Z" fill="#FF8F82"/>
<path d="M12.9917 300.691L296 265L290 296.5L17.3331 334.144L12.9917 300.691Z" fill="white"/>
<path d="M288 209.5L242.704 199.411L-31.741 278.314C-33.1714 288.348 -31.0257 333.384 -31.0257 333.384C-31.0257 333.384 -25.8932 333.742 -25.1149 338.538C-24.7994 340.431 -24.526 342.492 -24.2736 344.28L-22.9694 344.049C-22.9694 344.049 -17.374 351.117 -10.0328 350.57C-2.69154 350.023 -0.966669 346.363 -0.966669 346.363C-0.966669 346.363 4.77591 348.782 14.2838 347.267C23.7916 345.753 27.4938 341.314 27.4938 341.314C27.4938 341.314 40.7458 344.743 51.053 342.829C61.3602 340.894 76.1899 328.819 76.1899 328.819L107.154 325.959C107.154 325.959 107.511 333.3 122.194 330.586C136.876 327.873 136.519 325.075 137.591 323.708C137.591 323.708 142.051 324.108 148.151 323.035C153.915 322.004 158.542 319.9 160.12 319.606C161.698 319.312 162.181 323.413 175.181 322.025C190.221 320.426 190.116 313.443 193.965 313.443C197.815 313.443 200.97 316.303 211.53 316.303C222.089 316.303 226.948 307.448 226.948 307.448L234.142 306.143C234.142 306.143 234.563 306.165 235.32 306.207C228.863 300.212 214.369 281.238 214.369 281.238L-29.6375 326.358V322.951L217.419 277.115L241.938 304.746L291.679 301.888L300.5 277.115L288 209.5Z" fill="#7A1307"/>
<path d="M245.1 204.6V200.582H246.594V195.26C246.594 193.451 245.121 192 243.333 192H242.26C240.451 192 239 193.473 239 195.26V200.667H242.807V206.031L245.1 204.6Z" fill="#7A1307"/>
<path d="M245.35 161.83C243.221 159.835 241.503 158.46 241.503 158.46C243.571 155.378 246.596 147.718 239.466 141.614C232.336 135.51 223.914 138.789 223.914 138.789C223.914 138.789 226.377 120.809 210.201 116.669C194.025 112.53 185.223 130.177 185.223 130.177C181.468 120.024 194.284 113.466 194.284 113.466C194.284 113.466 186.257 100.095 167.496 100.866C148.736 101.636 142.777 123.242 142.777 123.242C134.233 107.816 149.375 99.2037 149.375 99.2037C149.375 99.2037 139.539 90.7126 121.174 97.0129C102.794 103.313 97.9134 126.717 97.9134 126.717C92.1211 108.586 106.685 99.8383 106.685 99.8383C98.6583 91.9968 78.7427 91.8608 63.7224 104.084C48.7173 116.307 54.2816 143.941 54.2816 143.941C54.2816 143.941 47.1667 136.477 44.8406 125.417C42.5146 114.358 50.268 108.828 50.268 108.828C25.4268 91.7248 3.42839 139.952 3.42839 139.952C-0.189865 116.171 23.2223 103.298 23.2223 103.298C23.2223 103.298 22.3102 101.5 9.50948 103.041C-3.30643 104.582 -15.2102 109.855 -15.2102 109.855C-14.8149 107.801 -10.9383 103.812 -6.80312 101.863C-2.66797 99.9138 -2.27264 90.6974 -14.4348 85.8173C-26.597 80.9372 -34.7457 87.4944 -34.7457 87.4944C-32.5413 79.1392 -26.1562 77.5528 -27.7524 72.446C-29.3487 67.3393 -33.3167 63.6981 -33.3167 63.6981C-33.3167 63.6981 -26.5666 62.3987 -26.7187 57.3977C-26.8707 52.3967 -31.3707 51.747 -31.3707 51.747C-31.3707 51.747 -21.5802 48.2871 -19.3454 44.7214C-18.418 43.2408 -18.0379 41.6241 -19.0717 40.4305C-20.4399 39.9924 -22.3403 39.8564 -24.9095 40.1737C-39.3978 41.9716 -52.5937 75.7851 -52.989 89.2923C-53.3842 102.8 -43.0312 107.816 -43.0312 107.816C-43.0312 107.816 -47.6832 121.58 -36.6917 140.481C-25.7001 159.382 2.89624 146.66 2.89624 146.66C1.86245 155.922 8.84053 183.828 31.2342 183.314C53.6126 182.801 64.1025 168.78 64.1025 168.78C64.1025 168.78 75.8694 178.812 91.7867 177.648C107.704 176.485 115.077 162.479 115.077 162.479C115.077 162.479 119.866 168.266 132.667 168.523C145.483 168.78 154.148 156.572 154.148 156.572C154.148 156.572 158.162 165.32 170.446 165.441C182.745 165.577 189.86 156.058 189.86 156.058C189.86 156.058 193.995 162.494 200.638 166.861C207.282 171.227 223.245 167.374 223.245 167.374C220.919 173.418 231.333 184.719 238.767 183.964C252.13 182.544 247.752 167.888 245.35 161.83Z" fill="#B80000"/>
<path d="M246.618 144.676C242.846 134.988 229.208 134.077 229.208 134.077C229.208 134.077 231.422 122.963 222.839 114.688C214.257 106.413 199.061 109.784 199.061 109.784C199.061 109.784 195.288 98.0316 181.65 92.854C167.997 87.6916 154.481 95.4352 154.481 95.4352C132.642 75.2714 111.2 92.5959 111.2 92.5959C111.2 92.5959 98.2035 80.0543 79.2203 83.6831C60.237 87.2968 52.1887 102.42 52.1887 102.42C41.5287 94.0232 27.8906 100.992 27.8906 100.992C21.5222 88.7089 1.50043 97.895 1.50043 97.895C1.50043 97.895 2.53886 94.7975 -4.21142 87.0387C-10.9617 79.2799 -25.3939 76.8353 -25.3939 76.8353C-25.3939 76.8353 -24.2178 75.5447 -24.7371 70.3671C-25.2563 65.2047 -28.2497 63.1246 -28.2497 63.1246C-28.2497 63.1246 -24.4775 61.1811 -24.4775 57.1878C-24.4775 53.1793 -27.3334 51.6306 -27.3334 51.6306C-18.5672 50.7803 -12.886 42.0498 -19.2544 40C-18.2159 41.1843 -18.5977 42.8241 -19.5293 44.3121C-21.7743 47.8955 -31.6095 51.3725 -31.6095 51.3725C-31.6095 51.3725 -27.0737 52.0406 -26.9363 57.0511C-26.7835 62.0769 -33.5644 63.3827 -33.5644 63.3827C-33.5644 63.3827 -29.5784 67.0419 -27.9749 72.174C-26.3713 77.306 -32.7855 78.9003 -35 87.2968C-35 87.2968 -26.8142 80.7072 -14.5965 85.6114C-2.37875 90.5157 -2.77579 99.7777 -6.92981 101.736C-11.0838 103.695 -14.9935 107.704 -15.3753 109.769C-15.3753 109.769 -3.41725 104.469 9.45716 102.921C22.3316 101.372 23.2327 103.179 23.2327 103.179C23.2327 103.179 -0.286465 116.1 3.3483 140.014C3.3483 140.014 25.4471 91.5634 50.4017 108.736C50.4017 108.736 42.5977 114.293 44.9496 125.408C47.2862 136.522 54.4336 144.023 54.4336 144.023C54.4336 144.023 48.844 116.237 63.9176 103.968C78.9912 91.6849 99.013 91.8215 107.077 99.7018C107.077 99.7018 92.446 108.493 98.2646 126.713C98.2646 126.713 103.182 103.194 121.631 96.8625C140.095 90.5309 149.961 99.0641 149.961 99.0641C149.961 99.0641 134.75 107.719 143.333 123.221C143.333 123.221 149.304 101.509 168.165 100.734C187.011 99.9599 195.075 113.397 195.075 113.397C195.075 113.397 182.2 119.987 185.973 130.19C185.973 130.19 194.815 112.456 211.065 116.616C227.314 120.777 224.84 138.845 224.84 138.845C224.84 138.845 233.301 135.55 240.463 141.684C247.626 147.819 244.587 155.517 242.51 158.614C242.51 158.614 244.236 159.996 246.374 162C245.732 160.406 245.244 159.388 245.244 159.388C245.244 159.388 250.39 154.363 246.618 144.676Z" fill="white"/>
<path d="M468.968 271.861L31.3486 331.673L235.5 552.298L468.968 271.861Z" fill="#BD210F"/>
<path d="M477.337 291.102L38.1737 338.266L235.876 564.688L477.337 291.102Z" fill="#D45546"/>
<circle cx="206.5" cy="206.5" r="200" stroke="white" stroke-width="13"/>
<path d="M277.501 231.096C278.33 236.119 276.404 240.62 273.199 241.149C269.995 241.678 266.725 238.034 265.896 233.011C265.067 227.987 266.993 223.486 270.198 222.957C273.402 222.429 276.672 226.072 277.501 231.096Z" fill="white"/>
</g>
</svg>
