<svg width="556" height="864" viewBox="0 0 556 864" fill="none" xmlns="http://www.w3.org/2000/svg">
<path d="M528.205 675.436C520.695 671.406 466.439 617.785 418.824 563.301C371.209 508.817 295.079 410.519 238.027 336.711C180.986 262.919 0 0 0 0V51.029C9.1728 64.6966 26.4222 91.5407 32.6844 108.968C41.3658 133.187 91.8792 280.211 105.071 298.807L75.8016 198.053C75.8016 198.053 121.489 284.106 144.648 323.89C167.807 363.673 171.675 405.184 171.675 405.184L137.579 350.7C137.579 350.7 153.67 389.619 173.615 445.391C193.561 501.179 231.84 588.096 236.993 607.539C242.147 626.999 254.041 655.977 254.041 655.977L262.08 636.517C262.08 636.517 271.404 689.273 272.374 697.047C273.344 704.838 272.374 730.767 272.374 730.767C272.374 730.767 295.533 729.904 295.218 688.816C294.89 647.729 234.738 527.091 210.937 461.802C187.135 396.513 166.219 316.082 160.423 300.077C154.627 284.073 143.048 247.761 143.048 247.761C143.048 247.761 168.134 291.44 184.552 330.783C200.957 370.126 273.987 546.128 284.596 560.829C284.596 560.829 281.383 545.264 266.906 508.072C252.428 470.88 186.808 320.401 186.808 320.401C186.808 320.401 262.408 449.269 290.077 495.099C317.747 540.928 380.47 636.5 380.47 636.5C380.47 636.5 362.779 594.989 328.671 545.264C294.575 495.539 228.299 385.267 221.861 370.143C215.422 355.019 210.924 342.892 210.924 342.892C210.924 342.892 244.377 391.33 273.974 441.478C303.572 491.644 426.46 683.193 434.826 698.334C443.192 713.475 455.742 719.098 455.742 719.098C455.742 719.098 431.613 670.237 411.667 643.85C391.721 617.48 314.194 499.418 300.674 463.53C300.674 463.53 365.98 552.614 432.898 625.254C499.817 697.894 517.507 711.308 517.507 711.308C517.507 711.308 503.672 683.193 479.543 660.719C455.414 638.244 411.025 589.807 411.025 589.807C411.025 589.807 443.192 617.48 473.432 645.154C492.799 662.87 528.381 692.999 551.477 712.391C554.287 711.697 555.786 711.324 555.786 711.324V704.55C555.773 704.55 535.714 679.467 528.205 675.436ZM157.5 306.581C157.5 306.581 135.941 283.226 131.116 271.557C131.116 271.557 86.7258 210.146 78.0318 195.445C69.3378 180.744 52.29 127.547 52.29 127.547C52.29 127.547 69.9804 160.404 80.6022 172.953C91.224 185.503 131.116 271.54 131.116 271.54C126.29 259.871 95.7222 178.136 95.7222 178.136L157.5 306.581Z" fill="#BD210F"/>
<path d="M80.6149 172.97C69.9931 160.438 52.3027 127.564 52.3027 127.564C52.3027 127.564 69.3505 180.744 78.0445 195.462C86.7385 210.179 131.128 271.574 131.128 271.574C131.128 271.574 91.2241 185.503 80.6149 172.97Z" fill="#7A1307"/>
<path d="M131.116 271.557C135.941 283.226 157.5 306.581 157.5 306.581L95.7349 178.153C95.7349 178.153 126.29 259.887 131.116 271.557Z" fill="#7A1307"/>
<path d="M14.6664 197.189C17.5392 198.849 7.5852 168.144 0 145.669V168.482C5.4432 181.134 12.159 195.733 14.6664 197.189Z" fill="#BD210F"/>
<path d="M0 187.028V216.26C14.931 243.493 43.1046 294.844 45.2214 298.164C47.313 301.415 17.1234 228.352 0 187.028Z" fill="#BD210F"/>
<path d="M89.4097 757.019C89.4097 757.019 125.874 773.159 149.461 833.706L166.509 827.219L154.93 808.623C154.93 808.623 120.292 737.423 89.4097 757.019Z" fill="#BD210F"/>
<path d="M410.999 589.823C410.999 589.823 455.389 638.261 479.518 660.736C503.647 683.21 517.482 711.324 517.482 711.324C517.482 711.324 499.792 697.928 432.873 625.271C365.954 552.631 300.649 463.546 300.649 463.546C314.156 499.434 391.696 617.48 411.642 643.867C431.588 670.237 455.717 719.115 455.717 719.115C455.717 719.115 443.167 713.492 434.801 698.351C426.434 683.21 303.547 491.661 273.949 441.495C244.352 391.33 210.899 342.909 210.899 342.909C210.899 342.909 215.397 355.019 221.836 370.16C228.274 385.301 294.538 495.556 328.646 545.281C362.741 595.006 380.444 636.517 380.444 636.517C380.444 636.517 317.709 540.945 290.052 495.116C262.382 449.286 186.782 320.418 186.782 320.418C186.782 320.418 252.416 470.897 266.881 508.089C281.358 545.281 284.571 560.845 284.571 560.845C273.949 546.145 200.932 370.143 184.527 330.8C168.122 291.457 143.023 247.778 143.023 247.778C143.023 247.778 154.602 284.106 160.398 300.094C166.194 316.099 187.097 396.53 210.911 461.819C234.713 527.108 294.878 647.763 295.193 688.833C295.52 729.92 272.349 730.784 272.349 730.784C272.349 730.784 273.319 704.838 272.349 697.064C271.379 689.273 262.055 636.534 262.055 636.534L254.016 655.994C254.016 655.994 242.109 627.016 236.968 607.556C231.815 588.096 193.536 501.179 173.59 445.408C153.644 389.62 137.554 350.717 137.554 350.717L171.65 405.201C171.65 405.201 167.794 363.69 144.623 323.907C121.451 284.123 75.7764 198.07 75.7764 198.07L105.046 298.824C91.854 280.228 41.3532 133.204 32.6592 108.985C26.4222 91.5407 9.1728 64.7136 0 51.0291V112.203C12.3228 155.712 38.5812 249.082 48.762 290.153C62.2692 344.637 107.314 507.225 107.314 507.225C107.314 507.225 87.696 466.138 81.5724 446.695C75.4614 427.235 39.1104 320.858 22.7052 281.939C15.5988 265.07 7.2072 248.693 0 235.55V288.239L43.0794 440.496C43.0794 440.496 107.843 520.063 170.906 611.739C233.969 703.415 242.537 741.471 242.537 741.471C242.537 741.471 116.991 552.343 53.6634 480.855L69.678 546.585L0 311.916V469.152C23.562 502.669 102.211 610.181 117.936 663.632L114.723 679.196C114.723 679.196 61.6644 561.574 0.0126 501.89V863.125C0.0126 863.125 20.1474 843.241 61.6392 836.314C103.144 829.387 149.461 833.723 149.461 833.723C125.874 773.193 89.4096 757.036 89.4096 757.036C120.292 737.44 154.93 808.64 154.93 808.64C154.93 808.64 198.034 796.108 291.98 774.92C351.994 761.388 442.966 739.202 500.875 724.941C483.336 696.776 451.874 677.469 451.874 677.469C481.963 686.479 502.11 713.492 508.473 723.061C528.923 718.014 544.37 714.187 551.464 712.408C528.368 693.033 492.786 662.904 473.42 645.171C443.167 617.497 410.999 589.823 410.999 589.823Z" fill="#7A1307"/>
<path d="M53.6634 480.855C117.004 552.343 242.537 741.454 242.537 741.454C242.537 741.454 233.957 703.398 170.906 611.722C107.856 520.046 43.0794 440.496 43.0794 440.496L0 288.239V311.916L69.678 546.585L53.6634 480.855Z" fill="#BD210F"/>
<path d="M114.71 679.179L117.923 663.615C102.211 610.164 23.562 502.652 0 469.152V501.89C61.6518 561.574 114.71 679.179 114.71 679.179Z" fill="#BD210F"/>
<path d="M81.5724 446.695C87.6834 466.155 107.314 507.225 107.314 507.225C107.314 507.225 62.2818 344.637 48.762 290.153C38.5812 249.099 12.3228 155.729 0 112.203V145.669C7.5852 168.127 17.5392 198.832 14.6664 197.189C12.159 195.75 5.4432 181.134 0 168.482V187.028C17.1234 228.352 47.313 301.432 45.2214 298.164C43.1046 294.844 14.9184 243.493 0 216.26V235.55C7.2198 248.693 15.5988 265.07 22.7052 281.939C39.1104 320.858 75.4614 427.235 81.5724 446.695Z" fill="#BD210F"/>
<path d="M62.811 249.082C62.811 249.082 92.6226 288.577 97.5492 349.684C97.5618 349.684 81.9 291.169 62.811 249.082Z" fill="#BD210F"/>
</svg>
